<svg viewBox="0 0 1498 400" xmlns="http://www.w3.org/2000/svg"><g><g><g><g><g><line x1="58" y1="351.00000000000057" x2="53" y2="351.00000000000057" style="visibility: inherit;" fill="rgb(0, 0, 0)" stroke="rgb(204, 204, 204)" stroke-width="1px"></line><line x1="58" y1="324.0000000000005" x2="53" y2="324.0000000000005" style="visibility: inherit;" fill="rgb(0, 0, 0)" stroke="rgb(204, 204, 204)" stroke-width="1px"></line><line x1="58" y1="297.00000000000045" x2="53" y2="297.00000000000045" style="visibility: inherit;" fill="rgb(0, 0, 0)" stroke="rgb(204, 204, 204)" stroke-width="1px"></line><line x1="58" y1="270.00000000000045" x2="53" y2="270.00000000000045" style="visibility: inherit;" fill="rgb(0, 0, 0)" stroke="rgb(204, 204, 204)" stroke-width="1px"></line><line x1="58" y1="243.0000000000004" x2="53" y2="243.0000000000004" style="visibility: inherit;" fill="rgb(0, 0, 0)" stroke="rgb(204, 204, 204)" stroke-width="1px"></line><line x1="58" y1="216.00000000000034" x2="53" y2="216.00000000000034" style="visibility: inherit;" fill="rgb(0, 0, 0)" stroke="rgb(204, 204, 204)" stroke-width="1px"></line><line x1="58" y1="189.00000000000028" x2="53" y2="189.00000000000028" style="visibility: inherit;" fill="rgb(0, 0, 0)" stroke="rgb(204, 204, 204)" stroke-width="1px"></line><line x1="58" y1="162.00000000000026" x2="53" y2="162.00000000000026" style="visibility: inherit;" fill="rgb(0, 0, 0)" stroke="rgb(204, 204, 204)" stroke-width="1px"></line><line x1="58" y1="135.00000000000023" x2="53" y2="135.00000000000023" style="visibility: inherit;" fill="rgb(0, 0, 0)" stroke="rgb(204, 204, 204)" stroke-width="1px"></line><line x1="58" y1="108.00000000000017" x2="53" y2="108.00000000000017" style="visibility: inherit;" fill="rgb(0, 0, 0)" stroke="rgb(204, 204, 204)" stroke-width="1px"></line><line x1="58" y1="81.00000000000011" x2="53" y2="81.00000000000011" style="visibility: inherit;" fill="rgb(0, 0, 0)" stroke="rgb(204, 204, 204)" stroke-width="1px"></line><line x1="58" y1="54.000000000000114" x2="53" y2="54.000000000000114" style="visibility: inherit;" fill="rgb(0, 0, 0)" stroke="rgb(204, 204, 204)" stroke-width="1px"></line><line x1="58" y1="27.000000000000057" x2="53" y2="27.000000000000057" style="visibility: inherit;" fill="rgb(0, 0, 0)" stroke="rgb(204, 204, 204)" stroke-width="1px"></line><line x1="58" y1="0" x2="53" y2="0" style="visibility: inherit;" fill="rgb(0, 0, 0)" stroke="rgb(204, 204, 204)" stroke-width="1px"></line></g><g transform="translate(48, 0)"><text x="0" y="351.00000000000057" dx="0em" dy="0.3em" style="text-anchor: end; visibility: inherit; font-family: &quot;Helvetica Neue&quot;, sans-serif; font-size: 12px; font-weight: 200;" fill="rgb(50, 49, 63)" stroke="none" stroke-width="1px">2.26</text><text x="0" y="324.0000000000005" dx="0em" dy="0.3em" style="text-anchor: end; visibility: inherit; font-family: &quot;Helvetica Neue&quot;, sans-serif; font-size: 12px; font-weight: 200;" fill="rgb(50, 49, 63)" stroke="none" stroke-width="1px">2.28</text><text x="0" y="297.00000000000045" dx="0em" dy="0.3em" style="text-anchor: end; visibility: inherit; font-family: &quot;Helvetica Neue&quot;, sans-serif; font-size: 12px; font-weight: 200;" fill="rgb(50, 49, 63)" stroke="none" stroke-width="1px">2.3</text><text x="0" y="270.00000000000045" dx="0em" dy="0.3em" style="text-anchor: end; visibility: inherit; font-family: &quot;Helvetica Neue&quot;, sans-serif; font-size: 12px; font-weight: 200;" fill="rgb(50, 49, 63)" stroke="none" stroke-width="1px">2.32</text><text x="0" y="243.0000000000004" dx="0em" dy="0.3em" style="text-anchor: end; visibility: inherit; font-family: &quot;Helvetica Neue&quot;, sans-serif; font-size: 12px; font-weight: 200;" fill="rgb(50, 49, 63)" stroke="none" stroke-width="1px">2.34</text><text x="0" y="216.00000000000034" dx="0em" dy="0.3em" style="text-anchor: end; visibility: inherit; font-family: &quot;Helvetica Neue&quot;, sans-serif; font-size: 12px; font-weight: 200;" fill="rgb(50, 49, 63)" stroke="none" stroke-width="1px">2.36</text><text x="0" y="189.00000000000028" dx="0em" dy="0.3em" style="text-anchor: end; visibility: inherit; font-family: &quot;Helvetica Neue&quot;, sans-serif; font-size: 12px; font-weight: 200;" fill="rgb(50, 49, 63)" stroke="none" stroke-width="1px">2.38</text><text x="0" y="162.00000000000026" dx="0em" dy="0.3em" style="text-anchor: end; visibility: inherit; font-family: &quot;Helvetica Neue&quot;, sans-serif; font-size: 12px; font-weight: 200;" fill="rgb(50, 49, 63)" stroke="none" stroke-width="1px">2.4</text><text x="0" y="135.00000000000023" dx="0em" dy="0.3em" style="text-anchor: end; visibility: inherit; font-family: &quot;Helvetica Neue&quot;, sans-serif; font-size: 12px; font-weight: 200;" fill="rgb(50, 49, 63)" stroke="none" stroke-width="1px">2.42</text><text x="0" y="108.00000000000017" dx="0em" dy="0.3em" style="text-anchor: end; visibility: inherit; font-family: &quot;Helvetica Neue&quot;, sans-serif; font-size: 12px; font-weight: 200;" fill="rgb(50, 49, 63)" stroke="none" stroke-width="1px">2.44</text><text x="0" y="81.00000000000011" dx="0em" dy="0.3em" style="text-anchor: end; visibility: inherit; font-family: &quot;Helvetica Neue&quot;, sans-serif; font-size: 12px; font-weight: 200;" fill="rgb(50, 49, 63)" stroke="none" stroke-width="1px">2.46</text><text x="0" y="54.000000000000114" dx="0em" dy="0.3em" style="text-anchor: end; visibility: inherit; font-family: &quot;Helvetica Neue&quot;, sans-serif; font-size: 12px; font-weight: 200;" fill="rgb(50, 49, 63)" stroke="none" stroke-width="1px">2.48</text><text x="0" y="27.000000000000057" dx="0em" dy="0.3em" style="text-anchor: end; visibility: inherit; font-family: &quot;Helvetica Neue&quot;, sans-serif; font-size: 12px; font-weight: 200;" fill="rgb(50, 49, 63)" stroke="none" stroke-width="1px">2.5</text><text x="0" y="0" dx="0em" dy="0.3em" style="text-anchor: end; visibility: hidden; font-family: &quot;Helvetica Neue&quot;, sans-serif; font-size: 12px; font-weight: 200;" fill="rgb(50, 49, 63)" stroke="none" stroke-width="1px">2.52</text></g><line x1="58" y1="0" x2="58" y2="378" fill="rgb(0, 0, 0)" stroke="rgb(204, 204, 204)" stroke-width="1px"></line></g></g><g transform="translate(58, 0)" clip-path="url(#clip_0)"><clipPath id="clip_0"><rect width="1440" height="378"></rect></clipPath><g><g><g><line x1="0" y1="0" x2="0" y2="378" fill="rgb(0, 0, 0)" stroke="rgb(60, 60, 60)" stroke-width="1px" opacity="0.25"></line><line x1="144" y1="0" x2="144" y2="378" fill="rgb(0, 0, 0)" stroke="rgb(60, 60, 60)" stroke-width="1px" opacity="0.25"></line><line x1="288" y1="0" x2="288" y2="378" fill="rgb(0, 0, 0)" stroke="rgb(60, 60, 60)" stroke-width="1px" opacity="0.25"></line><line x1="432" y1="0" x2="432" y2="378" fill="rgb(0, 0, 0)" stroke="rgb(60, 60, 60)" stroke-width="1px" opacity="0.25"></line><line x1="576" y1="0" x2="576" y2="378" fill="rgb(0, 0, 0)" stroke="rgb(60, 60, 60)" stroke-width="1px" opacity="0.25"></line><line x1="720" y1="0" x2="720" y2="378" fill="rgb(0, 0, 0)" stroke="rgb(60, 60, 60)" stroke-width="1px" opacity="0.25"></line><line x1="864" y1="0" x2="864" y2="378" fill="rgb(0, 0, 0)" stroke="rgb(60, 60, 60)" stroke-width="1px" opacity="0.25"></line><line x1="1007.9999999999999" y1="0" x2="1007.9999999999999" y2="378" fill="rgb(0, 0, 0)" stroke="rgb(60, 60, 60)" stroke-width="1px" opacity="0.25"></line><line x1="1152" y1="0" x2="1152" y2="378" fill="rgb(0, 0, 0)" stroke="rgb(60, 60, 60)" stroke-width="1px" opacity="0.25"></line><line x1="1296" y1="0" x2="1296" y2="378" fill="rgb(0, 0, 0)" stroke="rgb(60, 60, 60)" stroke-width="1px" opacity="0.25"></line><line x1="1440" y1="0" x2="1440" y2="378" fill="rgb(0, 0, 0)" stroke="rgb(60, 60, 60)" stroke-width="1px" opacity="0.25"></line></g><g><line x1="0" y1="351.00000000000057" x2="1440" y2="351.00000000000057" fill="rgb(0, 0, 0)" stroke="rgb(60, 60, 60)" stroke-width="1px" opacity="0.25"></line><line x1="0" y1="324.0000000000005" x2="1440" y2="324.0000000000005" fill="rgb(0, 0, 0)" stroke="rgb(60, 60, 60)" stroke-width="1px" opacity="0.25"></line><line x1="0" y1="297.00000000000045" x2="1440" y2="297.00000000000045" fill="rgb(0, 0, 0)" stroke="rgb(60, 60, 60)" stroke-width="1px" opacity="0.25"></line><line x1="0" y1="270.00000000000045" x2="1440" y2="270.00000000000045" fill="rgb(0, 0, 0)" stroke="rgb(60, 60, 60)" stroke-width="1px" opacity="0.25"></line><line x1="0" y1="243.0000000000004" x2="1440" y2="243.0000000000004" fill="rgb(0, 0, 0)" stroke="rgb(60, 60, 60)" stroke-width="1px" opacity="0.25"></line><line x1="0" y1="216.00000000000034" x2="1440" y2="216.00000000000034" fill="rgb(0, 0, 0)" stroke="rgb(60, 60, 60)" stroke-width="1px" opacity="0.25"></line><line x1="0" y1="189.00000000000028" x2="1440" y2="189.00000000000028" fill="rgb(0, 0, 0)" stroke="rgb(60, 60, 60)" stroke-width="1px" opacity="0.25"></line><line x1="0" y1="162.00000000000026" x2="1440" y2="162.00000000000026" fill="rgb(0, 0, 0)" stroke="rgb(60, 60, 60)" stroke-width="1px" opacity="0.25"></line><line x1="0" y1="135.00000000000023" x2="1440" y2="135.00000000000023" fill="rgb(0, 0, 0)" stroke="rgb(60, 60, 60)" stroke-width="1px" opacity="0.25"></line><line x1="0" y1="108.00000000000017" x2="1440" y2="108.00000000000017" fill="rgb(0, 0, 0)" stroke="rgb(60, 60, 60)" stroke-width="1px" opacity="0.25"></line><line x1="0" y1="81.00000000000011" x2="1440" y2="81.00000000000011" fill="rgb(0, 0, 0)" stroke="rgb(60, 60, 60)" stroke-width="1px" opacity="0.25"></line><line x1="0" y1="54.000000000000114" x2="1440" y2="54.000000000000114" fill="rgb(0, 0, 0)" stroke="rgb(60, 60, 60)" stroke-width="1px" opacity="0.25"></line><line x1="0" y1="27.000000000000057" x2="1440" y2="27.000000000000057" fill="rgb(0, 0, 0)" stroke="rgb(60, 60, 60)" stroke-width="1px" opacity="0.25"></line><line x1="0" y1="0" x2="1440" y2="0" fill="rgb(0, 0, 0)" stroke="rgb(60, 60, 60)" stroke-width="1px" opacity="0.25"></line></g></g></g><g><g><line x1="0" y1="3402.0000000000027" x2="1440" y2="3402.0000000000027" fill="rgb(0, 0, 0)" stroke="rgb(153, 153, 153)" stroke-width="1.5px"></line></g></g><g><g><line x1="-15407.999999999998" y1="0" x2="-15407.999999999998" y2="378" fill="rgb(0, 0, 0)" stroke="rgb(153, 153, 153)" stroke-width="1.5px"></line></g></g><g><g><g><g><g><path stroke="rgb(255, 112, 67)" stroke-width="2px" d="M73.8,281.20292615890526L75.52799999999999,279.1806076169016L75.744,276.5562782092972L76.536,252.099950546728L77.616,164.40313484964946L79.272,197.30718974793132L83.664,215.90066736445118L83.88000000000001,231.08497379061978L84.528,240.10727502846282L88.992,245.28750497956733L89.352,250.70810925593702L90.864,268.924397178112L91.72800000000001,247.40511042946585L92.16,246.8263500903296L94.68,259.0574771604796L94.82400000000001,271.4201352691924L95.4,248.61948279719525L97.488,255.1648535866579L98.928,250.24625914590865L102.816,224.1636788507269L102.888,234.42840971358842L104.328,240.1332683774121L105.624,235.840067350013L106.632,249.26789111501444L111.09599999999999,252.71709728129213L113.04,262.76308876834105L114.192,257.94432331988946L114.696,260.13673617690495L114.76799999999999,266.9124330347852L117.144,267.09473960055396L118.152,275.3618594672098L118.728,266.28005727168465L119.088,265.6983491621984L119.232,267.3012429721983L120.096,253.60047954895305L120.816,244.47918564554462L123.912,245.39092516555243L124.488,222.01708465273742L125.064,211.7811324216695L126.936,240.55909010548464L127.584,246.7314328051188L127.872,214.04065238431966L128.01600000000002,252.1955590060008L129.024,260.9700842759704L129.168,268.11011414969835L129.672,264.8269552541409L130.248,270.71584650017826L130.68,265.67649791311703L132.696,269.527669415952L140.544,256.24426659697315L141.768,264.04445519900565L142.416,273.4347419670867L142.488,272.61281547138833L142.92000000000002,271.8079654287672L143.352,264.4867098755422L144.648,265.79701955478146L144.864,265.6125890216871L145.512,270.5168461681404L149.04,262.60366372352723L149.256,267.80293023637535L149.688,276.48135759861265L150.12,284.0008215095462L151.2,274.04659562026626L151.632,265.60998976656913L151.99200000000002,260.84967820900135L155.736,268.21373758946345L156.096,273.6829983367594L156.168,280.38507938230464L157.464,278.50473861601654L158.4,213.8525978845753L162.072,235.22278958096499L163.296,229.44097412547114L164.736,245.54913533282627L167.256,257.21590411992315L167.472,264.69824803073084L168.48000000000002,264.41903007149034L168.768,216.54903423857272L172.224,237.7985218767619L172.728,162.69372417952394L174.312,195.0562634612668L175.176,216.7719037142726L175.896,236.69975779100264L178.05599999999998,250.84077542808052L178.848,249.68089195362575L179.424,253.096208931636L179.856,258.22114183999975L182.16,262.22049809991034L184.24800000000002,263.7376865476295L185.4,261.79241261064567L186.552,265.78049689042336L186.84,269.6414384693371L188.064,273.6392978579086L190.584,276.7345295280386L193.60799999999998,282.1702932554588L194.256,271.3413994334997L194.688,226.88728652136695L195.04799999999997,245.79670792661446L195.552,260.60241039897403L196.20000000000002,259.7203165549365L197.20799999999997,264.98823660959806L197.352,264.48822394818126L197.56799999999998,266.646879338086L198.21599999999998,265.8034722226025L200.736,280.4958971152999L203.976,270.7214548951561L205.27200000000002,271.6190461853848L205.92,256.0355077588382L206.856,262.58577723525894L207.072,270.6412193013603L207.648,281.0732632656919L210.528,279.47795168042364L211.75199999999998,277.84034194636484L212.47199999999998,283.0889553432953L212.688,271.4229311588584L214.128,277.13067882318364L215.28,279.06740952169383L216.57600000000002,254.05048714062866L217.44,250.4915208457784L219.096,226.23577020399983L221.76,245.79074877401106L221.976,259.39789191424757L222.048,264.4408589812515L222.624,262.24225395991783L222.91199999999998,263.09207536026474L223.41600000000003,268.8439916684904L227.232,271.17080234972735L227.73600000000002,270.2373580425268L228.384,270.687947815018L229.96800000000002,263.50442136845436L230.25599999999997,267.21080597353864L230.832,266.42906060286094L231.40800000000002,257.63181876222933L231.69599999999997,272.059212679152L233.136,257.2233604398272L233.49599999999998,271.7292940501518L233.568,276.32147840762997L233.92800000000003,270.3190976387552L235.008,267.7404276613172L235.36800000000002,265.81458359264L236.736,261.40566490472935L237.88800000000003,255.97424954403408L238.60799999999998,255.9801422251997L239.472,265.3986177142702L241.344,260.6031211671977L241.99200000000002,260.01673014508236L244.512,264.4192290279067L244.584,265.4671099646567L244.72799999999998,174.14670942209236L247.896,220.496837413204L248.472,225.46826922648694L249.11999999999998,240.09170086236907L249.264,252.4091081562766L249.624,255.86352882046296L251.424,269.33921733652846L251.496,261.94729737732L252.216,260.03209150012253L252.35999999999999,267.40814402208287L252.71999999999997,198.89052201810827L253.72799999999998,236.1446977704964L254.16,245.4052766472225L254.808,260.0041015809847L255.888,259.8039601246162L256.32,277.95293729303114L260.136,254.6411974954479L261.36,252.287258894913L265.82399999999996,268.99280993442113L266.18399999999997,274.88944397151704L267.12,270.87698455917996L269.784,263.70410325687055L270.792,263.80850988960816L273.312,260.0560226818119L279.288,262.03847238899453L280.584,260.1531007139754L281.01599999999996,268.63379901938856L282.74399999999997,268.701508964856L286.128,276.7220715318675L286.704,271.3744159003826L289.296,272.90187408094005L290.448,267.97842894532903L290.664,257.72098566614784L291.24,264.145264586945L291.456,271.8000285870668L293.47200000000004,272.83112799208413L295.632,258.0083747093743L299.664,255.9255166163964L300.096,264.34411383336305L301.248,263.8931817094419L302.54400000000004,260.1364373612364L302.616,253.45442844915107L305.064,266.37262273721524L305.784,263.5519450717726L306,269.1085838445165L306.072,261.4956781845176L306.216,260.37253489380356L306.288,272.94146584442456L308.088,266.87578496319776L310.464,267.5958458482189L313.344,280.40990332954925L315.576,269.33373229619156L317.52,250.4182752663871L317.88,243.7205952104914L319.464,254.23368063551158L320.832,266.06756910671L321.912,256.96070786112045L323.06399999999996,255.01354648943845L325.152,260.93580867216684L325.368,270.86389704564624L327.168,275.9482382060255L330.264,278.06157178408915L331.704,272.39646932320005L333,268.94140332243575L333.144,271.4620221692427L333.288,268.7083936833201L333.72,265.38135945217977L335.736,261.21100465903976L336.744,263.02307133943003L340.776,263.1508959118732L341.064,264.95317373181626L341.856,267.6863520235138L344.664,267.4625314289522L345.59999999999997,270.67627965296447L345.96,262.86566368869023L347.11199999999997,256.8606772430603L347.472,264.5802552227894L347.616,266.15351125745275L348.336,265.1842988321087L350.712,270.219188308054L351.576,263.49224487265013L355.32,267.0446274716858L356.11199999999997,266.7597514891151L357.336,271.30595179221183L359.352,272.4298826445408L362.088,263.08329369957835L362.88,265.69925066432694L363.096,274.7778084552371L367.2,275.8647012398295L367.55999999999995,219.08735158954005L368.35200000000003,222.95699030705651L373.608,240.74142955868479L374.40000000000003,243.5806006856504L374.472,250.10898968385123L374.616,257.25162618640934L374.97600000000006,251.91241217424815L375.048,251.1293091819905L376.84799999999996,257.05310411728755L377.208,266.59870645688375L377.424,256.03982346824625L378,261.5290443037262L379.44,257.8554852446504L379.656,257.69995668176335L379.728,256.1565729775638L380.80800000000005,254.93738803855257L382.392,253.0574624633294L383.328,264.0658806380932L383.472,272.8602578292671L387.072,274.92428438963776L388.8,263.8809725350276L389.304,268.6954866353355L389.736,263.8257016720582L391.464,253.71967332257117L391.68,245.58131399567876L395.92800000000005,170.2565802980418L397.152,224.0246955543137L398.664,241.6924593919147L398.88000000000005,245.54347818336655L402.12,148.95447703148005L402.33599999999996,141.8503519293374L403.488,233.5645681140845L405.72,277.3314248513L407.736,300.5080714101085L408.312,257.32948464599167L408.6,176.38971215752937L409.17600000000004,108.14392765920257L409.968,189.4127483878191L411.84,238.9369898148572L412.2,250.07451211858972L413.35200000000003,261.7358920779775L414.504,276.7020994786593L415.08,274.3983928659065L415.728,281.1292288958135L417.168,242.44632071608925L417.24,234.96586486312543L418.104,224.44146235354413L418.248,213.23743276338436L420.984,196.382058504466L421.84799999999996,176.38963587477423L423.216,150.58346662160497L424.87199999999996,150.6190693452162L426.31199999999995,198.01897101844548L429.768,93.62467778471205L430.12800000000004,-222.75629531891911L438.91200000000003,-35.64963142330555L439.48800000000006,7.779061363607013L441.72,39.02834704307878L442.94399999999996,57.81177865736589L444.24,74.05478188558169L444.81600000000003,69.40484617450079L447.048,80.93401850639691L450.648,86.57500499116713L452.736,70.36754060761547L453.528,-8.636980670831406L454.67999999999995,31.6910719048131L455.688,49.139422653386305L457.2,69.19434771434601L460.08,73.12943478522374L461.664,76.45415108262131L462.02400000000006,84.00784831558883L465.47999999999996,79.82331651041068L466.91999999999996,78.1179038619349L467.064,86.91746358486142L469.36800000000005,84.31794221646857L471.096,75.6975394692858L471.96,93.4818741683269L472.104,90.76945363307652L472.536,87.13459316983642L475.20000000000005,91.13142652568092L477.21599999999995,91.91144640002761L477.36,88.46364773961398L477.64799999999997,84.92893746884147L478.728,77.58501350516951L481.68,92.36181800147796L481.896,96.21697635996895L485.712,90.15630066125766L485.92800000000005,87.73126666384445L487.94399999999996,88.95146007917839L488.01599999999996,95.60808231581728L489.24,94.61070071547942L489.45599999999996,102.02735602193894L491.904,87.82874385913516L492.048,82.4959121251124L492.552,91.16530984067992L495.144,86.59422336473511L496.65599999999995,94.99325315031064L498.384,85.49466900749621L498.74399999999997,85.12586176826755L499.17600000000004,89.05650823375083L501.11999999999995,99.0092383447913L502.55999999999995,92.01035734555865L502.92,87.84141280973978L503.99999999999994,90.89994351103877L504.36,83.84154348394259L507.45599999999996,90.95726869595688L509.25600000000003,95.69430941398531L509.40000000000003,79.6103520515897L510.55199999999996,81.16294241686694L511.128,-9.528132529615903L511.272,32.414744513297364L512.568,62.09610909048598L514.872,74.29185830249725L516.24,64.54582363780935L517.0319999999999,69.81671022425064L517.176,82.21715626150308L517.608,78.33936014789259L518.544,85.60142950426302L519.84,87.62450554496547L522.648,101.45082751826374L524.304,81.90490488955936L524.664,91.42727025002006L526.3919999999999,86.36812267094712L527.184,78.91613021725323L527.976,83.24549855729288L528.48,74.71225255692224L528.912,70.18492294528619L530.64,82.93504358040371L534.888,82.16280799333475L537.48,72.8022145582687L537.552,81.4187324138548L537.84,75.33083253455584L539.28,92.3930717787294L539.352,90.86470163352209L539.424,81.47374441913917L540,83.27785836870777L543.168,78.91617199906904L543.672,86.00970094877022L543.8879999999999,89.98952933238462L545.256,88.80369398645462L549.144,94.66660893948L549.7919999999999,93.78909710044326L549.936,101.38981205817873L550.224,89.23540109751713L550.6560000000001,81.2485559127216L550.872,82.31452203640208L551.376,87.9565288117459L551.952,88.0485381061394L552.168,86.45721067038545L553.032,85.07497738031992L554.976,84.36395501034576L555.264,75.1563471730775L556.056,78.68031114198129L556.848,86.71262966309445L561.744,92.27179547974174L562.752,88.79521363275472L563.328,95.65453887758974L564.336,103.70474153028937L564.408,91.30143416683075L566.28,80.54308069205416L567.288,87.94397414002492L569.088,95.84623353644406L571.176,100.88962736704445L571.3919999999999,97.3274716793212L573.264,101.88136707894307L574.5600000000001,97.33916723222893L574.848,80.31479794675954L576.6479999999999,81.96798567113183L580.392,79.38140232644605L581.472,80.6435831027157L582.048,81.59993293505488L582.12,83.31198650969043L583.704,84.23107198699131L585,92.78550541295908L587.88,90.35536601480453L589.392,83.96296192608236L591.624,77.36115346790507L595.4399999999999,77.44256507421181L596.232,71.34996878543313L597.528,-10.905814436442824L598.2479999999999,18.91862452783147L598.3199999999999,55.97314374898656L599.688,77.64362135681375L601.344,75.43469290228416L602.712,92.3867663639295L604.872,76.30321822747663L605.52,80.31394463887835L605.736,78.44614094561979L606.24,83.68023415843635L606.96,88.45679466986655L607.176,75.87462325730348L607.536,71.15914933585208L608.256,82.86825323523954L610.632,77.97505159629515L612,87.74919645460318L613.224,89.81644788069627L617.688,82.29563121010699L620.2080000000001,85.71711547380619L621.432,87.41222080711077L622.1519999999999,88.94890299513048L622.5120000000001,87.74505781575533L623.304,78.41079983380115L623.736,70.09357500831317L624.24,78.55166445231481L625.5360000000001,86.69595228467017L625.896,93.25248977442789L626.256,101.58823912680288L627.552,98.59481759870101L628.344,86.61675593855387L628.56,82.00599831105694L630,87.46448403454656L630.576,87.59933098469304L631.296,89.48152489849423L633.816,88.92349574201393L634.176,82.4290818049497L638.568,83.52250092470558L638.64,76.53670287873649L640.944,81.71729150263207L644.04,87.22032088546553L644.616,86.52547542159903L645.192,75.21176142636034L645.264,73.46934754337764L647.712,73.81100897005689L648.5039999999999,84.38997490412874L649.368,82.65081614975293L650.592,95.94254790976146L654.9119999999999,93.16935317060069L656.64,90.41727485859838L658.8000000000001,87.2586693203711L659.088,83.94279352642678L660.096,74.5333766926388L661.3199999999999,79.24186878139142L661.7520000000001,84.00137317618379L664.776,75.2958108212984L665.928,83.84392154374365L666.72,86.70338165854628L667.3679999999999,86.00442588386073L667.944,79.10384838615141L669.384,21.613592105115686L669.528,-36.72020704924756L669.744,8.58472261798596L669.888,48.36045862419712L670.32,52.16855579127866L671.76,66.33525670474785L671.976,79.02583187166454L672.336,69.98687764014988L672.984,70.45196239951963L678.024,78.36784167768803L679.4639999999999,90.00347955037518L679.536,77.59197611218326L679.68,79.90234963062738L680.688,89.00406599022949L680.976,84.5180485724091L681.624,91.61126535407783L681.696,98.11716109080368L682.056,84.85498999096882L682.4159999999999,83.39936198316752L683.496,83.70645755244897L686.592,90.82188631125473L687.096,83.6769065441382L687.456,80.68394505868537L688.464,80.10971052581209L689.112,77.53013867815793L691.488,81.54074803996366L691.5600000000001,69.0871178150673L692.208,76.25774096491944L694.944,76.78849982644914L695.52,76.19298705712464L695.592,86.01897559914312L695.88,69.9217851779062L698.184,75.8204977882628L701.568,74.75988709764056L701.856,72.44956476590869L703.512,77.3721844619622L704.808,86.76370164550002L705.024,85.47877018926528L706.536,84.56335826681811L707.3280000000001,85.32075459937323L709.056,84.36168970573033L709.5600000000001,87.69768398945371L710.784,86.67954236236096L710.928,90.08875225762671L711.144,94.90965642201968L712.6560000000001,83.72884133856365L712.8,83.50812236905603L713.1600000000001,77.88557391429276L713.952,81.04642098584338L714.816,92.2781753148949L716.0400000000001,87.81915547885382L717.336,82.70040136836701L717.768,85.13806289591014L718.488,89.20120092724312L719.856,92.1856106549177L721.8,91.9321557301086L722.3760000000001,89.95163161860745L723.888,88.25026421133805L725.4000000000001,93.1091463350304L726.696,80.34771493572288L729,85.17136776148232L729.504,88.72010428726077L733.2479999999999,79.52639011752274L733.3919999999999,84.62617323524802L734.1120000000001,88.12056096629584L734.616,100.48314476154025L736.56,96.72708435143153L738.0719999999999,84.26633388570025L738.792,86.4629592822256L739.9440000000001,85.43955916918878L740.592,88.79051067088596L742.8960000000001,77.73258677515139L744.0480000000001,86.59885477657753L744.408,69.65829777500437L747.504,72.11609587539112L747.72,79.24324055593542L749.16,93.80659287024338L749.664,91.42210574656042L751.5360000000001,100.4369653446036L752.04,86.09997331992099L756.576,86.71277539667665L757.224,96.28811541042995L757.728,89.8912810733454L758.4479999999999,91.04453541341599L758.6640000000001,77.0110317796661L760.248,71.58066997111973L761.04,88.84045062769127L761.832,75.0397009033482L762.6959999999999,87.50448555818303L762.7679999999999,87.3306921665137L762.984,88.08566715385115L764.712,92.9494912270639L765.144,93.30239222311559L766.8,95.84173234619874L767.5200000000001,83.20726394842973L768.096,87.78188209647487L772.4879999999999,91.67648380347822L773.1360000000001,95.91443749278034L773.784,83.69737827783388L776.3040000000001,85.89615161422222L778.3199999999999,63.883802075405754L778.536,73.80716208173021L781.4159999999999,76.93687636585895L783.1439999999999,76.68601803142957L787.8240000000001,77.58465445136522L790.8480000000001,72.50136830863681L793.44,77.77173773322886L793.8000000000001,93.89211883470057L793.8720000000001,88.10516761734891L794.016,91.658667892187L795.024,82.94172611830794L795.8879999999999,86.00203308462017L797.544,72.26406717895804L797.976,61.955815032716146L799.0559999999999,65.74404642319416L799.488,59.93907292685378L800.208,60.054154205331315L801.9359999999999,44.45313709259574L803.16,60.07376328277866L804.7439999999999,70.70553268890541L807.4799999999999,70.65810736358753L808.272,72.22005191052307L809.712,91.18256444099126L810.216,94.57344056584014L810.5759999999999,88.98272496114714L813.5999999999999,89.39476078540406L816.192,92.74720784300735L818.2080000000001,85.83837845488927L818.3520000000001,84.45532695391495L818.424,87.0242625709696L818.568,78.5489251039221L819.648,77.5726522577882L820.08,83.19437851745352L820.4399999999999,86.72821806811385L822.528,79.91277465190365L823.536,83.61405978778538L824.328,82.87560330736386L825.0479999999999,90.69622227494534L825.336,79.55115793314337L825.408,78.96217516760078L827.424,77.28785121262115L828.0719999999999,77.22722275149863L829.7280000000001,85.1154214804888L829.8000000000001,85.10314819011239L830.664,88.63861754413364L832.8960000000001,87.18346311376058L833.544,91.09663296774397L834.768,97.49012146613205L835.1279999999999,-4.508946643941783L835.7760000000001,26.45124135811716L836.352,45.42543689250704L836.9280000000001,59.35049967670301L838.1519999999999,75.68534520091953L840.312,75.86184283985091L841.0319999999999,78.33010237749471L843.6959999999999,88.10938363871634L844.344,94.87804587841981L844.416,92.12986555195403L844.848,83.69835886059127L846,87.56309986530499L846.504,82.30356674443925L848.5200000000001,77.20275180966394L848.5920000000001,68.93950692075924L849.24,84.26356625114931L849.5999999999999,94.11074423524775L850.392,90.25121826966455L851.04,84.47596804523369L852.048,87.99838009014098L854.784,79.54023307880362L855,78.04100843859055L855.6479999999999,78.25152194853013L857.4480000000001,79.28510334703583L857.736,64.0643403209047L857.4480000000001,21.877239827919198L858.4559999999999,28.095269182090647L858.888,26.64830759690085L859.032,56.654845497166605L861.4799999999999,166.0250640518401L861.912,241.82598527711258L862.3439999999999,289.92188492084506L862.4879999999999,287.14678196111333L863.2800000000001,205.15655539035234L863.64,272.6307868337596L864.648,334.44468093967265L865.2959999999999,362.8816702428809L866.448,369.50178809543576L868.2479999999999,379.043412182213L869.616,368.0427320322285L870.2640000000001,363.1279957485731L871.56,328.3313766117417L873.504,303.69762586328557L875.16,295.9336479590723L875.304,293.5696442655559L875.376,284.5212371666338L879.0480000000001,287.26241614336436L879.624,285.4671582812947L879.84,282.3927663585473L880.488,275.6120083106116L883.2239999999999,278.4371310575336L885.456,277.95137565753026L886.896,278.7569673622919L888.264,275.23709324391353L890.496,267.30765053863314L891.072,280.7004718615712L891.216,287.2455430885618L893.6640000000001,284.6891931093015L894.8879999999999,283.6994638559985L895.896,281.3279010842901L896.328,281.83963005487055L898.344,284.2417516275882L898.56,283.7108928420928L898.632,282.76461191527795L899.064,287.3012373182347L899.208,292.54908097584075L900.4319999999999,285.7126311111394L901.008,282.9995446472134L901.656,265.02004539184384L902.736,266.34387137420566L903.888,271.4617162342521L906.696,278.75503553126157L907.56,275.5731200049755L907.704,268.66347477855913L908.424,265.75442203296797L909.2159999999999,273.7089739824153L910.224,264.82548471598744L910.3679999999999,272.18601634686564L911.592,273.2597020780169L912.96,278.6341715046839L915.552,277.060102283304L917.496,281.9494009848505L917.928,269.7871216318652L918.576,277.5938523400811L920.736,271.1125198238487L922.3919999999999,267.9259011765356L922.4639999999999,270.1853014481087L923.76,271.65320815158003L925.7760000000001,260.3355230659966L926.136,263.4390446287825L928.0799999999999,262.4001232112906L929.016,277.32761741432313L929.16,284.71431355925046L929.232,279.8445591285926L930.672,274.4856728169386L931.0319999999999,276.86487113553653L932.04,280.93953730534554L932.7600000000001,273.62049537820246L933.12,277.96345857335734L933.624,281.6501881811241L934.992,286.5804409344927L935.856,283.0007402992206L938.376,253.68609080886569L939.024,263.03586350784155L942.84,194.55096909347418L943.92,228.35211465920946L944.712,217.11757563451513L945,239.22355956375335L946.152,248.3607108267532L947.088,267.39802763893533L948.5279999999999,266.4830716492789L949.176,275.3447893167764L949.752,272.92997692258547L952.3439999999999,249.86990918059004L953.784,250.04285310112732L954,257.45797790529355L955.152,250.17571428681634L956.3040000000001,256.25654284516094L961.4159999999999,248.98003788208467L962.0640000000001,253.62790214666984L964.2959999999999,260.744032357033L965.664,262.33926914566496L965.8799999999999,252.35840577145677L967.4639999999999,257.58881703770317L972.144,270.7556072697409L972.576,273.1130359545568L972.72,270.97036902756787L974.232,281.4099275627808L975.8159999999999,292.4316010689183L977.904,286.81257335039663L981.216,284.5024102669519L983.232,285.36975422749265L987.4799999999999,268.1641493275721L988.632,266.4542822143417L990.864,277.1159267962562L991.44,281.33993800524405L992.952,263.7697504999851L994.752,206.52874826446842L995.1120000000001,233.88375191125706L996.048,252.41642878194708L996.984,268.3382619246251L997.4159999999999,276.7963768019922L1000.4399999999999,279.11273323146435L1000.512,263.3195865788931L1000.872,259.5618248843474L1001.952,268.52262101550855L1006.1279999999999,264.59024554479106L1007.352,266.6070266603707L1009.2959999999999,280.3107390903995L1009.3679999999999,278.847659999345L1009.9440000000001,282.67136016739266L1010.808,278.3906491235066L1011.672,273.50646760673357L1012.7520000000001,274.8719563162985L1013.04,266.4871956632532L1014.264,267.57460823810084L1015.5600000000001,286.1300928542379L1016.8560000000001,280.5336091488219L1017.9359999999999,275.9311310273181L1018.6560000000001,275.0647857559781L1018.8720000000001,287.79255912143367L1019.7359999999999,287.92950924300175L1019.8080000000001,275.05815472640427L1020.096,278.0239663984645L1022.112,276.3155946294231L1023.9839999999999,270.8977569317674L1026.36,272.3072744593536L1027.44,273.15491616639605L1030.0320000000002,280.5794805759974L1030.392,273.35515161006373L1033.848,278.20027510910506L1034.136,286.5524051701382L1035.576,287.5731999227622L1039.104,278.388876160933L1040.9759999999999,275.44457657394054L1041.192,269.07403869186146L1044.216,266.26031238290284L1045.368,256.0335109618463L1047.888,266.4957548849086L1048.968,271.1939024014648L1049.544,279.8641693522559L1049.9759999999999,274.68025831759144L1052.352,266.94123432862864L1053.576,248.09430011408378L1053.792,153.17627725778135L1054.008,200.2553478823786L1054.944,210.49611262957373L1056.888,218.51755988884074L1058.184,206.12017357521137L1058.6879999999999,181.6619025002295L1059.192,196.62504906239363L1060.776,180.2807810472386L1062.288,208.28538509410217L1063.224,198.97304475427617L1065.744,236.26836912704078L1067.3999999999999,255.41622701211372L1067.616,260.12092704131396L1068.552,243.11724425884628L1068.84,252.01154738386012L1069.2720000000002,262.9245061738467L1072.368,274.2073030390249L1072.44,269.03643035399375L1073.808,261.8034765214172L1074.0240000000001,255.06761180701557L1074.6,265.6761040409969L1074.672,279.23720138791634L1074.744,204.42523709251546L1075.1760000000002,229.53804897853195L1076.616,236.68592390768833L1076.76,241.81317177625382L1078.056,256.6069544268364L1081.656,268.1280537672468L1082.664,258.603578628756L1083.096,240.0612825761184L1085.544,258.8821034079757L1088.496,274.9110337046367L1090.512,252.34188370392246L1092.4560000000001,258.96858847430656L1092.816,268.668402458974L1093.248,275.5822458897522L1094.904,269.45095371213506L1096.7040000000002,274.77873587016455L1097.568,268.8500151121866L1097.6399999999999,262.43886935021044L1098.072,266.13566944185243L1098.72,282.227550728222L1099.944,273.92685655540276L1100.808,278.87494785658185L1101.24,268.1893846456511L1102.68,269.4357319989386L1102.968,274.1962967585674L1104.696,281.227096979091L1104.84,279.506522622269L1105.488,277.4154993811617L1109.088,257.4161068033794L1110.816,261.62920166442507L1112.472,264.03101621502503L1115.064,272.3704461242789L1116.792,273.06948046601053L1116.936,280.89321415851276L1117.0079999999998,289.86993366020783L1119.168,286.9899550768011L1120.968,286.3367398078605L1121.328,274.87896038862266L1122.408,271.3473122225537L1122.8400000000001,278.9106687132322L1125,281.5812214031102L1125.072,278.374759949105L1125.648,286.5928518038139L1125.9360000000001,291.52422190076953L1126.368,273.4303639433791L1127.52,267.8563701452023L1130.616,279.82721567995617L1131.48,275.98056536225846L1132.272,262.0910970527432L1132.9920000000002,275.4782879923881L1133.064,277.4676500186385L1133.352,255.1506967082659L1133.64,225.45677086919804L1133.856,250.40611379867943L1135.08,299.5553450675379L1135.512,321.46341620037384L1135.8,328.1076141962377L1135.944,346.0914016705136L1137.7440000000001,353.87558303721994L1139.112,346.0236089852348L1139.616,345.9653061763586L1139.6879999999999,337.7267560324755L1140.84,339.9070151902253L1141.056,346.42281896215763L1143.3600000000001,347.11699780429626L1143.432,358.5824896371675L1143.5040000000001,344.3001855776495L1145.232,365.9552217820755L1146.24,350.9871801197216L1149.912,149.94662840722086L1150.776,189.9806092235931L1155.3120000000001,221.2385846885141L1158.336,236.917112261778L1158.624,229.45450739307773L1160.064,237.14189961101724L1161.792,232.55143977729145L1161.936,237.03822699503706L1163.1599999999999,239.88170466015697L1165.824,244.25193291419728L1166.688,241.83919876524183L1167.9840000000002,239.31717263286345L1168.344,240.028302160651L1168.488,235.75961206421343L1169.2079999999999,249.25122584143352L1170.504,253.5565546348043L1171.656,257.2616448399038L1172.1599999999999,254.07530565241598L1173.384,259.18119089114435L1173.816,244.24358048622503L1174.32,250.13251284709372L1177.704,245.52036826581235L1178.064,248.39138527375704L1179.216,248.0505828122034L1179.6480000000001,249.47718482373557L1180.368,244.2314853022003L1181.664,252.2050191491546L1182.168,242.2968996959743L1182.888,240.37083543526032L1182.96,231.12299373857314L1183.032,230.52804982132986L1183.968,245.2162161080082L1185.336,237.75021001148457L1186.776,242.87712033062104L1187.568,218.66799106281385L1190.952,230.58823608208488L1191.816,236.11432070045902L1192.6080000000002,211.27566029136935L1194.912,220.61173711720485L1197.2160000000001,216.227068439146L1199.4479999999999,207.1132607549547L1202.112,174.6837544494941L1203.84,188.09890394533116L1204.488,163.69189127161806L1204.92,147.38479990884477L1206,169.23962513878826L1207.2240000000002,174.46708326503548L1208.232,191.5591131029425L1208.4479999999999,127.29677100049852L1209.816,153.10787598530882L1211.1119999999999,-554.5193984017351L1219.248,-38.731680388331654L1219.8239999999998,131.2328095465425L1220.256,226.12583685097223L1221.984,285.4722939501831L1222.056,318.4855494124073L1222.56,346.8827942623127L1224.7920000000001,315.3114028223408L1225.224,296.18072749662724L1226.7359999999999,281.1788008778594L1227.6000000000001,281.27612703855664L1228.824,267.64766074309244L1229.112,260.04465952568944L1233.3600000000001,253.44699777992776L1234.296,261.52242115636045L1235.016,256.1465276449887L1235.304,251.12910425483983L1235.7359999999999,246.30732228648577L1237.104,249.0779198306319L1238.6879999999999,234.67277347430718L1239.624,242.93700091472368L1243.872,240.90630150098283L1245.456,244.54263725434978L1245.744,239.34832100007077L1245.888,251.76880247553072L1245.96,254.0442133853428L1246.68,256.6644762581341L1248.1200000000001,249.4869248524755L1248.84,244.15209944578714L1249.776,243.10216417034076L1249.992,243.7488486654736L1252.44,240.07453579230193L1253.088,239.50206152512465L1256.2559999999999,248.8987293238272L1257.12,206.3515960690278L1261.008,232.6287884901104L1262.88,258.85108424366337L1263.24,258.76054430687947L1264.68,267.2633254092013L1268.352,286.8115864015266L1268.64,288.6489853034403L1270.944,232.36893162548503L1274.472,248.72160120856722L1275.912,219.78296453983754L1277.856,212.70710553664696" style="fill: none;" fill="none"></path></g></g></g></g><g opacity="0.2"><g><g><g><path stroke="rgb(255, 112, 67)" stroke-width="2px" d="M73.8,281.20292615890526L75.52799999999999,277.96721649169945L75.744,274.03692197799705L76.536,223.33930921554582L77.616,49.90617227554327L79.272,242.82534313201924L83.664,242.4896378517153L83.88000000000001,253.22383832931538L84.528,253.41341686248802L88.992,252.97954273223897L89.352,258.7898511886599L90.864,296.14969682693504L91.72800000000001,215.19644451141374L92.16,245.95934343338033L94.68,277.3897905349734L94.82400000000001,289.9554033279421L95.4,214.42815256118791L97.488,264.98124790191673L98.928,242.8691167831423L102.816,185.04219245910662L102.888,249.8249430656435L104.328,248.69036865234395L105.624,229.4003505706789L106.632,269.4094676971438L111.09599999999999,257.8908820152285L113.04,277.83203315734886L114.192,250.71618747711202L114.696,263.42535209655784L114.76799999999999,277.07597208023094L117.144,267.36819934844993L118.152,287.76253652572655L118.728,252.65735578537007L119.088,264.82578706741356L119.232,269.7055835723879L120.096,233.04933500289937L120.816,230.79724502563496L123.912,246.75853443145772L124.488,186.95632410049453L125.064,196.42720413208025L126.936,283.7260265350344L127.584,255.98994684219383L127.872,165.0044817924501L128.01600000000002,309.42791891098045L129.024,274.13187217712425L129.168,278.8201589584353L129.672,259.90221691131615L130.248,279.5491833686831L130.68,258.1174750328066L132.696,275.3044266700747L140.544,236.3191623687746L141.768,275.74473810195946L142.416,287.52017211914085L142.488,271.37992572784447L142.92000000000002,270.6006903648379L143.352,253.50482654571556L144.648,267.76248407363914L144.864,265.3359432220461L145.512,277.8732318878176L149.04,250.7338900566103L149.256,275.601830005646L149.688,289.498998641968L150.12,295.2800173759463L151.2,259.11525678634666L151.632,252.95508098602318L151.99200000000002,253.70921087265035L155.736,279.2598266601565L156.096,281.88688945770286L156.168,290.4382009506228L157.464,275.6842274665835L158.4,116.87438678741466L162.072,267.27807712554954L163.296,220.7682509422304L164.736,269.7113771438601L167.256,274.71605730056785L167.472,275.92176389694237L168.48000000000002,264.0002031326296L168.768,144.7440404891969L172.224,269.67275333404564L172.728,50.03652763366705L174.312,243.6000723838808L175.176,249.34536409378072L175.896,266.59153890609764L178.05599999999998,272.05230188369774L178.848,247.94106674194356L179.424,258.21918439865135L179.856,265.9085412025454L182.16,268.21953248977684L184.24800000000002,266.013469219208L185.4,258.8745017051699L186.552,271.76262331008934L186.84,275.43285083770775L188.064,279.6360869407656L190.584,281.37737703323387L193.60799999999998,290.32393884658836L194.256,255.09805870056172L194.688,160.20611715316787L195.04799999999997,274.1608400344851L195.552,282.81096410751366L196.20000000000002,258.3971757888796L197.20799999999997,272.8901166915896L197.352,263.7382049560549L197.56799999999998,269.88486242294334L198.21599999999998,264.53836154937767L200.736,302.53453445434593L203.976,256.05979156494163L205.27200000000002,272.96543312072777L205.92,232.66020011901875L206.856,272.41118144989036L207.072,282.7243824005129L207.648,296.72132921218895L210.528,277.084984302521L211.75199999999998,275.3839273452761L212.47199999999998,290.9618754386904L212.688,253.92389488220238L214.128,285.69230031967186L215.28,281.97250556945824L216.57600000000002,216.52510356903093L217.44,245.15307140350362L219.096,189.85214424133315L221.76,275.12321662902855L221.976,279.8086066246035L222.048,272.0053095817568L222.624,258.9443464279177L222.91199999999998,264.36680746078514L223.41600000000003,277.4718661308291L227.232,274.66101837158226L227.73600000000002,268.8371915817263L228.384,271.3638324737551L229.96800000000002,252.7291316986086L230.25599999999997,272.7703828811648L230.832,265.2564425468447L231.40800000000002,244.43595600128194L231.69599999999997,293.70030355453514L233.136,234.96958208084126L233.49599999999998,293.48819446563743L233.568,283.2097549438479L233.92800000000003,261.31552648544334L235.008,263.87242269516014L235.36800000000002,262.92581748962425L236.736,254.792286872864L237.88800000000003,247.82712650299092L238.60799999999998,255.98898124694844L239.472,279.5263309478762L241.344,253.40987634658833L241.99200000000002,259.1371436119082L244.512,271.02297735214256L244.584,267.0389313697817L244.72799999999998,37.16610860824591L247.896,290.02202939987205L248.472,232.92541694641133L249.11999999999998,262.02684831619285L249.264,270.8852190971377L249.624,261.04515981674217L251.424,289.55275011062645L251.496,250.85941743850728L252.216,257.1592826843264L252.35999999999999,278.4722228050234L252.71999999999997,96.11408901214605L253.72799999999998,292.0259613990786L254.16,259.296144962311L254.808,281.90233898162865L255.888,259.5037479400637L256.32,305.1764030456545L260.136,219.67358779907244L261.36,248.7563509941103L265.82399999999996,294.0511364936831L266.18399999999997,283.7343950271609L267.12,264.85829544067406L269.784,252.944781303406L270.792,263.9651198387148L273.312,254.42729187011741L279.288,265.0121469497683L280.584,257.32504320144676L281.01599999999996,281.3548464775088L282.74399999999997,268.80307388305687L286.128,288.7529153823855L286.704,263.35293245315574L289.296,275.19306135177635L290.448,260.59326124191307L290.664,242.3348207473757L291.24,273.7816829681399L291.456,283.28217458725L293.47200000000004,274.3777770996096L295.632,235.77424478530904L299.664,252.8012294769289L300.096,276.9720096588137L301.248,263.2167835235598L302.54400000000004,254.50132083892842L302.616,243.43141508102437L305.064,285.74991416931175L305.784,259.3209285736086L306,277.4435420036318L306.072,250.07631969451924L306.216,258.6878199577334L306.288,291.79486227035545L308.088,257.77726364135765L310.464,268.67593717575096L313.344,299.6309895515444L315.576,252.719475746155L317.52,222.04508972167986L317.88,233.67407512664815L319.464,270.003308773041L320.832,283.8184018135073L321.912,243.30041599273702L323.06399999999996,252.09280443191548L325.152,269.8192019462588L325.368,285.7560296058657L327.168,283.57474994659447L330.264,281.2315721511843L331.704,263.8988156318667L333,263.7588043212893L333.144,275.24295043945335L333.288,264.5779509544375L333.72,260.390808105469L335.736,254.95547246933003L336.744,265.7411713600161L340.776,263.34263277053856L341.064,267.6565904617312L341.856,271.7861194610598L344.664,267.1268005371096L345.59999999999997,275.4969019889834L345.96,251.14973974227925L347.11199999999997,247.85319757461568L347.472,276.15962219238304L347.616,268.51339530944847L348.336,263.730480194092L350.712,277.7715225219729L351.576,253.40182971954366L355.32,272.3732013702395L356.11199999999997,266.332437515259L357.336,278.1252522468569L359.352,274.1157789230349L362.088,249.0634102821352L362.88,269.6231861114504L363.096,288.3956451416018L367.2,277.49504041671776L367.55999999999995,133.92132711410534L368.35200000000003,228.7614483833315L373.608,267.41808843612694L374.40000000000003,247.83935737609883L374.472,259.90157318115257L374.616,267.9655809402468L374.97600000000006,243.90359115600606L375.048,249.95465469360371L376.84799999999996,265.9387965202334L377.208,280.9171099662783L377.424,240.20149898529073L378,269.762875556946L379.44,252.34514665603658L379.656,257.4666638374331L379.728,253.84149742126488L380.80800000000005,253.1086106300356L382.392,250.23757410049458L383.328,280.57850790023826L383.472,286.05182361602806L387.072,278.0203242301943L388.8,247.316004753113L389.304,275.91725778579735L389.736,256.52102422714256L391.464,238.56063079834004L391.68,233.37377500534078L395.92800000000005,57.26947975158697L397.152,304.67686843872093L398.664,268.19410514831566L398.88000000000005,251.32000637054463L402.12,4.070975303649902L402.33599999999996,131.19416427612316L403.488,371.1358923912051L405.72,342.9817099571231L407.736,335.27304124832176L408.312,192.56160449981704L408.6,54.98005342483526L409.17600000000004,5.775250911712703L409.968,311.31597948074364L411.84,313.22335195541405L412.2,266.78079557418846L413.35200000000003,279.22796201705955L414.504,299.1514105796816L415.08,270.94283294677757L415.728,291.22548294067406L417.168,184.42195844650283L417.24,223.7451810836794L418.104,208.65485858917253L418.248,196.43138837814348L420.984,171.098997116089L421.84799999999996,146.40100193023693L423.216,111.87421274185186L424.87199999999996,150.67247343063366L426.31199999999995,269.11882352829L429.768,-62.96676206588745L430.344,-808.4532837867744L432,103.1555314064027L433.44,51.19009208679205L433.58399999999995,-6.635866641998291L437.47200000000004,-242.9717402458192L438.91200000000003,97.88370323181164L439.48800000000006,72.92210054397589L441.72,85.90227556228649L442.94399999999996,85.98692607879644L444.24,98.41928672790533L444.81600000000003,62.429942607879696L447.048,98.227777004242L450.648,95.03648471832287L452.736,46.056344032287654L453.528,-127.14376258850103L454.67999999999995,92.18315076828009L455.688,75.31194877624517L457.2,99.27673530578625L460.08,79.03206539154058L461.664,81.4412255287171L462.02400000000006,95.33839416503918L465.47999999999996,73.54651880264288L466.91999999999996,75.55978488922125L467.064,100.1168031692506L469.36800000000005,80.41866016387951L471.096,62.7669353485108L471.96,120.15837621688854L472.104,86.70082283020025L472.536,81.6823024749757L475.20000000000005,97.12667655944836L477.21599999999995,93.08147621154791L477.36,83.29194974899298L477.64799999999997,79.62687206268316L478.728,66.56912755966192L481.68,114.52702474594128L481.896,101.99971389770519L485.712,81.06528711318981L485.92800000000005,84.09371566772472L487.94399999999996,90.78175020217901L488.01599999999996,105.59301567077642L489.24,93.11462831497204L489.45599999999996,113.15233898162853L491.904,66.53082561492926L492.048,74.49666452407843L492.552,104.1694064140321L495.144,79.73759365081793L496.65599999999995,107.59179782867443L498.384,71.24679279327404L498.74399999999997,84.57265090942388L499.17600000000004,94.95247793197643L501.11999999999995,113.93833351135265L502.55999999999995,81.51203584671026L502.92,81.58799600601208L503.99999999999994,95.48773956298834L504.36,73.25394344329845L507.45599999999996,101.63085651397716L509.25600000000003,102.79987049102795L509.40000000000003,55.48441600799566L510.55199999999996,83.49182796478283L511.128,-145.56474494934082L511.272,95.32906007766735L512.568,106.61815595626837L514.872,92.58548212051403L516.24,49.926771640777645L517.0319999999999,77.72304010391241L517.176,100.81782531738293L517.608,72.52266597747808L518.544,96.49453353881847L519.84,90.65911960601818L522.648,122.19031047821053L524.304,52.58602094650274L524.664,105.71081829071056L526.3919999999999,78.7794013023377L527.184,67.7381415367127L527.976,89.73955106735241L528.48,61.912383556366024L528.912,63.39392852783209L530.64,102.06022453308111L534.888,81.00445461273205L537.48,58.76132440567022L537.552,94.34350919723516L537.84,66.19898271560675L539.28,117.98643064498913L539.352,88.57214641571056L539.424,67.38730859756481L540,85.98402929306042L543.168,72.37364244461065L543.672,96.64999437332165L543.8879999999999,95.95927190780645L545.256,87.02494096755993L549.144,103.46098136901867L549.7919999999999,92.47282934188854L549.936,112.79088449478161L550.224,71.00378465652472L550.6560000000001,69.26828813552862L550.872,83.91347122192394L551.376,96.41953897476208L551.952,88.18655204772955L552.168,84.07021951675421L553.032,83.001627445221L554.976,83.29742145538336L555.264,61.34493541717535L556.056,83.96625709533697L556.848,98.7611074447633L561.744,100.61054420471203L562.752,83.58034086227423L563.328,105.94352674484264L564.336,115.78004550933849L564.408,72.69647312164312L566.28,64.40555047988897L567.288,99.04531431198126L569.088,107.69962263107311L571.176,108.45471811294567L571.3919999999999,91.98423814773565L573.264,108.71221017837536L574.5600000000001,90.52586746215832L574.848,54.778244018554744L576.6479999999999,84.44776725769049L580.392,75.50152730941778L581.472,82.53685426712048L582.048,83.03445768356335L582.12,85.88006687164318L583.704,85.60970020294201L585,105.61715555191051L587.88,86.71015691757208L589.392,74.37435579299932L591.624,67.4584407806397L595.4399999999999,77.56468248367315L596.232,62.21107435226446L597.528,-134.2894892692567L598.2479999999999,63.65528297424322L598.3199999999999,111.55492258071911L599.688,110.1493377685548L601.344,72.12130022048956L602.712,117.8148765563966L604.872,52.17789602279669L605.52,86.3300342559815L605.736,75.64443540573131L606.24,91.53137397766119L606.96,95.62163543701183L607.176,57.00136613845831L607.536,64.08593845367437L608.256,100.43190908432018L610.632,70.63524913787847L612,102.41041374206554L613.224,92.91732501983648L617.688,71.01440620422369L620.2080000000001,90.8493418693543L621.432,89.95487880706793L622.1519999999999,91.25392627716076L622.5120000000001,85.93929004669195L623.304,64.40941286087042L623.736,57.61773777008062L624.24,91.23879861831671L625.5360000000001,98.91238403320318L625.896,103.08729600906378L626.256,114.0918631553651L627.552,94.10468530654913L628.344,68.6496634483338L628.56,75.08986186981207L630,95.65221261978155L630.576,87.80160140991222L631.296,92.30481576919561L633.816,88.08645200729376L634.176,72.68746089935308L638.568,85.16262960433966L638.64,66.05800580978405L640.944,89.48817443847662L644.04,95.47486495971685L644.616,85.48320722579967L645.192,58.241190433502254L645.264,70.85572671890264L647.712,74.32350111007696L648.5039999999999,100.25842380523693L649.368,80.04207801818853L650.592,115.88014554977423L654.9119999999999,89.00956106185924L656.64,86.28915739059454L658.8000000000001,82.52076101303112L659.088,78.96897983551031L660.096,60.41925144195562L661.3199999999999,86.30460691452032L661.7520000000001,91.1406297683717L664.776,62.237467288971004L665.928,96.66608762741095L666.72,90.99257183074963L667.3679999999999,84.95599222183239L667.944,68.75298213958746L669.384,-64.62179231643677L669.528,-124.2209057807923L669.744,76.5421171188355L669.888,108.02406263351452L670.32,57.88070154190069L671.76,87.58530807495129L671.976,98.06169462203991L672.336,56.428446292877254L672.984,71.14958953857428L678.024,90.2416605949403L679.4639999999999,107.45693635940563L679.536,58.974720954895076L679.68,83.36790990829479L680.688,102.65664052963268L680.976,77.78902244567877L681.624,102.25109052658092L681.696,107.87600469589245L682.056,64.9617333412171L682.4159999999999,81.21591997146612L683.496,84.16710090637213L686.592,101.495029449463L687.096,72.95943689346319L687.456,76.19450283050548L688.464,79.24835872650152L689.112,73.6607809066773L691.488,87.55666208267223L691.5600000000001,50.406672477722225L692.208,87.01367568969738L694.944,77.58463811874401L695.52,75.29971790313732L695.592,100.75795841217047L695.88,45.77599954605108L698.184,84.66856670379644L701.568,73.1689710617066L701.856,68.9840812683106L703.512,84.7561140060426L704.808,100.850977420807L705.024,83.55137300491339L706.536,83.1902403831483L707.3280000000001,86.45684909820568L709.056,82.92309236526495L709.5600000000001,92.70167541503918L710.784,85.15232992172253L710.928,95.20256710052502L711.144,102.14101266860968L712.6560000000001,66.95761871337896L712.8,83.17704391479498L713.1600000000001,69.45175123214727L713.952,85.78769159317028L714.816,109.1258068084718L716.0400000000001,81.1306257247926L717.336,75.02227020263678L717.768,88.7945551872254L718.488,95.29590797424328L719.856,96.6622252464295L721.8,91.55197334289556L722.3760000000001,86.98084545135504L723.888,85.6982131004334L725.4000000000001,100.3974695205689L726.696,61.20556783676153L729,92.40684700012218L729.504,94.04320907592785L733.2479999999999,65.73581886291515L733.3919999999999,92.27584791183483L734.1120000000001,93.36214256286632L734.616,119.02702045440685L736.56,91.0929937362672L738.0719999999999,65.57520818710333L738.792,89.75789737701427L739.9440000000001,83.9044589996339L740.592,93.81693792343151L742.8960000000001,61.14570093154913L744.0480000000001,99.89825677871715L744.408,44.2474622726441L747.504,75.80279302597052L747.72,89.93395757675177L749.16,115.65162134170544L749.664,87.84537506103521L751.5360000000001,113.95925474166881L752.04,64.594485282898L756.576,87.63197851181036L757.224,110.6511254310609L757.728,80.29602956771856L758.4479999999999,92.77441692352306L758.6640000000001,55.960776329040584L760.248,63.43512725830084L761.04,114.73012161254894L761.832,54.33857631683355L762.6959999999999,106.2016625404359L762.7679999999999,87.07000207901012L762.984,89.21812963485723L764.712,100.24522733688366L765.144,93.83174371719366L766.8,99.65074253082287L767.5200000000001,64.25556135177618L768.096,94.6438093185426L772.4879999999999,97.51838636398321L773.1360000000001,102.27136802673351L773.784,65.37178945541388L776.3040000000001,89.19431161880505L778.3199999999999,30.865277767181453L778.536,88.69220209121715L781.4159999999999,81.63144779205328L783.1439999999999,76.30973052978521L787.8240000000001,78.93260908126837L790.8480000000001,64.87643909454351L793.44,85.6772918701173L793.8000000000001,118.07269048690807L793.8720000000001,79.42474079132086L794.016,96.98891830444342L795.024,69.86631345748907L795.8879999999999,90.59249353408819L797.544,51.657118320465145L797.976,46.49343681335455L799.0559999999999,71.42639350891119L799.488,51.231612682342586L800.208,60.22677612304693L801.9359999999999,21.05161142349249L803.16,83.50470256805426L804.7439999999999,86.65318679809582L807.4799999999999,70.58696937561041L808.272,74.56296873092663L809.712,119.62633323669445L810.216,99.6597547531129L810.5759999999999,80.59665155410778L813.5999999999999,90.01281452178961L816.192,97.77587842941296L818.2080000000001,75.47513437271124L818.3520000000001,82.38074970245373L818.424,90.87766599655163L818.568,65.83591890335089L819.648,76.10824298858648L820.08,91.62696790695202L820.4399999999999,92.02897739410412L822.528,69.68960952758795L823.536,89.16598749160772L824.328,81.76791858673107L825.0479999999999,102.42715072631842L825.336,62.83356142044073L825.408,78.07870101928717L827.424,74.77636528015142L828.0719999999999,77.13628005981457L829.7280000000001,96.94771957397467L829.8000000000001,85.08473825454723L830.664,93.94182157516491L832.8960000000001,85.00073146820074L833.544,96.96638774871832L834.768,107.08035421371471L835.1279999999999,-157.5075488090515L835.7760000000001,72.89152336120617L836.352,73.88673019409185L836.9280000000001,80.23809385299688L838.1519999999999,100.18761348724371L840.312,76.1265892982484L841.0319999999999,82.03249168396002L843.6959999999999,102.77830553054821L844.344,105.03103923797619L844.416,88.00759506225592L844.848,71.05109882354742L846,93.3602113723756L846.504,74.41426706314098L848.5200000000001,69.55152940750128L848.5920000000001,56.5446395874024L849.24,107.24965524673473L849.5999999999999,108.88151121139538L850.392,84.46192932128912L851.04,75.8130927085877L852.048,93.28199815750128L854.784,66.85301256179815L855,75.79217147827154L855.6479999999999,78.56729221344L857.4480000000001,80.83547544479381L857.736,41.23319578170782L857.4480000000001,-41.40341091156006L858.4559999999999,37.422313213348446L858.888,24.477865219116268L859.032,101.66465234756481L861.4799999999999,330.0803918838503L861.912,355.52736711502104L862.3439999999999,362.0657343864444L862.4879999999999,282.9841275215151L863.2800000000001,82.17121553421032L863.64,373.84213399887113L864.648,427.1655220985416L868.2479999999999,393.3558483123782L869.616,351.54171180725126L870.2640000000001,355.7558913230899L871.56,276.13644790649437L873.504,266.7469997406008L875.16,284.2876811027529L875.304,290.023638725281L875.376,270.94862651824974L879.0480000000001,291.3741846084597L879.624,282.7742714881899L879.84,277.7811784744265L880.488,265.4408712387087L883.2239999999999,282.6748151779177L885.456,277.22274255752586L886.896,279.9653549194338L888.264,269.95728206634544L890.496,255.4134864807131L891.072,300.789703845978L891.216,297.06314992904686L893.6640000000001,280.8546681404116L894.8879999999999,282.21486997604393L895.896,277.7705569267275L896.328,282.6072235107424L898.344,287.84493398666405L898.56,282.9146046638491L898.632,281.34519052505516L899.064,294.1061754226687L899.208,300.42084646225L900.4319999999999,275.45795631408714L901.008,278.9299149513247L901.656,238.05079650878926L902.736,268.32961034774803L903.888,279.13848352432274L906.696,289.69501447677635L907.56,270.8002467155459L907.704,258.29900693893455L908.424,261.3908429145815L909.2159999999999,285.6408019065859L910.224,251.5002508163454L910.3679999999999,283.2268137931826L911.592,274.8702306747439L912.96,286.69587564468407L915.552,274.69899845123314L917.496,289.28334903717064L917.928,251.54370260238667L918.576,289.303948402405L920.736,261.39052104949974L922.3919999999999,263.14597320556663L922.4639999999999,273.574401855469L923.76,273.85506820678734L925.7760000000001,243.35899543762227L926.136,268.09432697296165L928.0799999999999,260.8417410850527L929.016,299.7188587188723L929.16,295.7943577766421L929.232,272.5399274826052L930.672,266.447343349457L931.0319999999999,280.43366861343407L932.04,287.0515365600588L932.7600000000001,262.641932487488L933.12,284.4779033660891L933.624,287.18028259277366L934.992,293.9758200645449L935.856,277.6311893463137L938.376,209.7141165733339L939.024,277.06052255630516L942.84,91.82362747192394L943.92,279.0538330078127L944.712,200.26576709747332L945,272.3825354576113L946.152,262.06643772125267L947.088,295.9540028572085L948.5279999999999,265.11063766479515L949.176,288.6373658180239L949.752,269.30775833129906L952.3439999999999,215.2798075675966L953.784,250.3022689819338L954,268.580665111542L955.152,239.25231885910054L956.3040000000001,265.37778568267845L961.4159999999999,238.06528043746968L962.0640000000001,260.5996985435488L964.2959999999999,271.41822767257713L965.664,264.7321243286135L965.8799999999999,237.38711071014424L967.4639999999999,265.434433937073L972.144,290.5057926177981L972.576,276.64917898178123L972.72,267.7563686370852L974.232,297.0692653656008L975.8159999999999,308.9641113281252L977.904,278.38403177261375L981.216,281.0371656417849L983.232,286.67077016830467L987.4799999999999,242.35574197769182L988.632,263.88948154449486L990.864,293.10839366912865L991.44,287.6759548187258L992.952,237.41446924209615L994.752,120.66724491119396L995.1120000000001,274.91625738143944L996.048,280.2154440879824L996.984,292.2210116386416L997.4159999999999,289.4835491180422L1000.4399999999999,282.5872678756716L1000.512,239.62986660003682L1000.872,253.9251823425295L1001.952,281.96381521225L1006.1279999999999,258.6916823387148L1007.352,269.63219833374046L1009.2959999999999,300.86630773544334L1009.3679999999999,276.6530413627627L1009.9440000000001,288.40691041946434L1010.808,271.96958255767845L1011.672,266.1801953315737L1012.7520000000001,276.920189380646L1013.04,253.9100546836855L1014.264,269.20572710037254L1015.5600000000001,313.9633197784426L1016.8560000000001,272.13888359069847L1017.9359999999999,269.0274138450625L1018.6560000000001,273.76526784896873L1018.8720000000001,306.8842191696169L1019.7359999999999,288.13493442535423L1019.8080000000001,255.7511229515078L1020.096,282.4726839065554L1022.112,273.7530369758608L1023.9839999999999,262.77100038528465L1026.36,274.42155075073265L1027.44,274.42637872695946L1030.0320000000002,291.7163271903994L1030.392,262.51865816116356L1033.848,285.46796035766624L1034.136,299.08060026168846L1035.576,289.104392051697L1039.104,264.6123905181887L1040.9759999999999,271.02812719345116L1041.192,259.5182318687441L1044.216,262.03972291946434L1045.368,240.69330883026143L1047.888,282.18912076950096L1048.968,278.2411236763003L1049.544,292.8695697784426L1049.9759999999999,266.9043917655947L1052.352,255.33269834518453L1053.576,219.82389879226704L1053.792,10.799242973327637L1054.008,270.87395381927513L1054.944,225.8572597503664L1056.888,230.54973077774065L1058.184,187.524094104767L1058.6879999999999,144.97449588775646L1059.192,219.06976890563982L1060.776,155.76437902450573L1062.288,250.2922911643984L1063.224,185.0045342445375L1065.744,292.21135568618797L1067.3999999999999,284.1380138397219L1067.616,267.17797708511375L1068.552,217.6117200851442L1068.84,265.35300207138084L1069.2720000000002,279.2939443588259L1072.368,291.1314983367922L1072.44,261.28012132644676L1073.808,250.9540457725527L1074.0240000000001,244.9638147354128L1074.6,281.588842391968L1074.672,299.5788474082949L1074.744,92.20729064941412L1075.1760000000002,267.2072668075564L1076.616,247.40773630142232L1076.76,249.50404357910176L1078.056,278.7976284027102L1081.656,285.4097027778628L1082.664,244.3168659210207L1083.096,212.24783849716204L1085.544,287.11333465576195L1088.496,298.9544291496279L1090.512,218.4881587028505L1092.4560000000001,268.90864562988304L1092.816,283.21812343597435L1093.248,285.9530110359194L1094.904,260.25401544570946L1096.7040000000002,282.7704091072085L1097.568,259.95693397521995L1097.6399999999999,252.8221507072451L1098.072,271.6808695793154L1098.72,306.3653726577761L1099.944,261.4758152961733L1100.808,286.29708480834984L1101.24,252.16103982925435L1102.68,271.30525302886986L1102.968,281.3371438980105L1104.696,291.7732973098757L1104.84,276.92566108703636L1105.488,274.27896451950096L1109.088,227.4170179367067L1110.816,267.9488439559939L1112.472,267.6337380409243L1115.064,284.8795909881594L1116.792,274.1180319786074L1116.936,292.62881469726585L1117.0079999999998,303.33501291275047L1119.168,282.6699872016909L1120.968,285.3569169044497L1121.328,257.69229125976585L1122.408,266.04983997344993L1122.8400000000001,290.2557034492495L1125,285.5870504379275L1125.072,273.56506776809715L1125.648,298.9199895858767L1125.9360000000001,298.92127704620384L1126.368,246.2895770072939L1127.52,259.49537944793724L1130.616,297.7834839820864L1131.48,270.2105898857119L1132.272,241.25689458847066L1132.9920000000002,295.5590744018557L1133.064,280.45169305801414L1133.352,221.67526674270647L1133.64,180.91588211059585L1133.856,287.83012819290184L1135.08,373.2791919708255L1135.512,354.32552289962797L1135.8,338.0739111900332L1135.944,373.0670828819278L1137.7440000000001,365.55185508728056L1139.112,334.2456479072573L1139.616,345.8778519630435L1139.6879999999999,325.3689308166506L1140.84,343.17740392684965L1141.056,356.19652462005644L1143.3600000000001,348.15826606750517L1143.432,375.7807273864749L1143.5040000000001,322.87672948837303L1145.232,398.4377760887149L1146.24,328.5351176261904L1149.912,-151.61419916152965L1150.776,250.0315804481508L1155.3120000000001,268.125547885895L1158.336,260.4349036216738L1158.624,218.26060009002703L1160.064,248.67298793792745L1161.792,225.66575002670308L1161.936,243.76840782165547L1163.1599999999999,244.1469211578371L1165.824,250.80727529525777L1166.688,238.22009754180928L1167.9840000000002,235.53413343429585L1168.344,241.09499645233174L1168.488,229.35657691955586L1169.2079999999999,269.4886465072634L1170.504,260.01454782485985L1171.656,262.8192801475527L1172.1599999999999,249.2957968711855L1173.384,266.8400187492373L1173.816,221.83716487884539L1174.32,258.96591138839744L1177.704,238.60215139389055L1178.064,252.69791078567525L1179.216,247.53937911987325L1179.6480000000001,251.61708784103413L1180.368,236.36293601989766L1181.664,264.1653199195864L1182.168,227.43472051620503L1182.888,237.48173904418965L1182.96,217.25123119354265L1183.032,229.6356339454653L1183.968,267.24846553802513L1185.336,226.55120086669942L1186.776,250.56748580932637L1187.568,182.35429716110247L1190.952,248.46860361099263L1191.816,244.40344762802144L1192.6080000000002,174.01766967773452L1194.912,234.61585235595723L1197.2160000000001,209.65006542205828L1199.4479999999999,193.44254922866835L1202.112,126.0394949913026L1203.84,208.22162818908708L1204.488,127.08137226104748L1204.92,122.92416286468517L1206,202.02186298370376L1207.2240000000002,182.30827045440688L1208.232,217.19715785980242L1208.4479999999999,30.903257846832332L1209.816,191.82453346252456L1211.1119999999999,-1615.9603099823007L1211.688,-480.24327564239536L1216.8719999999998,330.448283672333L1219.248,177.22988319396987L1219.8239999999998,386.1795444488528L1220.256,368.4653778076175L1221.984,374.4919795989993L1222.056,368.0054326057437L1222.56,389.4786615371707L1224.7920000000001,267.95431566238426L1225.224,267.48471450805687L1226.7359999999999,258.67591094970726L1227.6000000000001,281.4221162796023L1228.824,247.20496129989644L1229.112,248.64015769958516L1233.3600000000001,243.5505051612856L1234.296,273.6355562210085L1235.016,248.0826873779299L1235.304,243.6029691696169L1235.7359999999999,239.07464933395406L1237.104,253.23381614685078L1238.6879999999999,213.0650539398195L1239.624,255.3333420753481L1243.872,237.8602523803713L1245.456,249.9971408843996L1245.744,231.55684661865251L1245.888,270.39952468872093L1245.96,257.45732975006126L1246.68,260.594870567322L1248.1200000000001,238.72059774398824L1248.84,236.14986133575457L1249.776,241.52726125717183L1249.992,244.7188754081728L1252.44,234.56306648254414L1253.088,238.64335012435933L1256.2559999999999,262.99373102188133L1257.12,142.53089618682876L1261.008,272.04457712173485L1262.88,298.18452787399315L1263.24,258.6247344017031L1264.68,280.01749706268333L1268.352,316.1339778900149L1268.64,291.40508365631126L1270.944,147.94885110855114L1274.472,273.25060558319115L1275.912,176.37500953674333L1277.856,202.09331703186052" style="fill: none;" fill="none"></path></g></g></g></g></g></g><g transform="translate(58, 378)" clip-path="url(#clip_1)"><clipPath id="clip_1"><rect width="1440" height="22"></rect></clipPath><g><g><line x1="0" y1="0" x2="0" y2="5" style="visibility: inherit;" fill="rgb(0, 0, 0)" stroke="rgb(204, 204, 204)" stroke-width="1px"></line><line x1="144" y1="0" x2="144" y2="5" style="visibility: inherit;" fill="rgb(0, 0, 0)" stroke="rgb(204, 204, 204)" stroke-width="1px"></line><line x1="288" y1="0" x2="288" y2="5" style="visibility: inherit;" fill="rgb(0, 0, 0)" stroke="rgb(204, 204, 204)" stroke-width="1px"></line><line x1="432" y1="0" x2="432" y2="5" style="visibility: inherit;" fill="rgb(0, 0, 0)" stroke="rgb(204, 204, 204)" stroke-width="1px"></line><line x1="576" y1="0" x2="576" y2="5" style="visibility: inherit;" fill="rgb(0, 0, 0)" stroke="rgb(204, 204, 204)" stroke-width="1px"></line><line x1="720" y1="0" x2="720" y2="5" style="visibility: inherit;" fill="rgb(0, 0, 0)" stroke="rgb(204, 204, 204)" stroke-width="1px"></line><line x1="864" y1="0" x2="864" y2="5" style="visibility: inherit;" fill="rgb(0, 0, 0)" stroke="rgb(204, 204, 204)" stroke-width="1px"></line><line x1="1007.9999999999999" y1="0" x2="1007.9999999999999" y2="5" style="visibility: inherit;" fill="rgb(0, 0, 0)" stroke="rgb(204, 204, 204)" stroke-width="1px"></line><line x1="1152" y1="0" x2="1152" y2="5" style="visibility: inherit;" fill="rgb(0, 0, 0)" stroke="rgb(204, 204, 204)" stroke-width="1px"></line><line x1="1296" y1="0" x2="1296" y2="5" style="visibility: inherit;" fill="rgb(0, 0, 0)" stroke="rgb(204, 204, 204)" stroke-width="1px"></line><line x1="1440" y1="0" x2="1440" y2="5" style="visibility: inherit;" fill="rgb(0, 0, 0)" stroke="rgb(204, 204, 204)" stroke-width="1px"></line></g><g transform="translate(0, 8)"><text x="0" y="0" dx="0em" dy="0.95em" style="text-anchor: middle; visibility: hidden; font-family: &quot;Helvetica Neue&quot;, sans-serif; font-size: 12px; font-weight: 200;" fill="rgb(50, 49, 63)" stroke="none" stroke-width="1px">214k</text><text x="144" y="0" dx="0em" dy="0.95em" style="text-anchor: middle; visibility: inherit; font-family: &quot;Helvetica Neue&quot;, sans-serif; font-size: 12px; font-weight: 200;" fill="rgb(50, 49, 63)" stroke="none" stroke-width="1px">216k</text><text x="288" y="0" dx="0em" dy="0.95em" style="text-anchor: middle; visibility: inherit; font-family: &quot;Helvetica Neue&quot;, sans-serif; font-size: 12px; font-weight: 200;" fill="rgb(50, 49, 63)" stroke="none" stroke-width="1px">218k</text><text x="432" y="0" dx="0em" dy="0.95em" style="text-anchor: middle; visibility: inherit; font-family: &quot;Helvetica Neue&quot;, sans-serif; font-size: 12px; font-weight: 200;" fill="rgb(50, 49, 63)" stroke="none" stroke-width="1px">220k</text><text x="576" y="0" dx="0em" dy="0.95em" style="text-anchor: middle; visibility: inherit; font-family: &quot;Helvetica Neue&quot;, sans-serif; font-size: 12px; font-weight: 200;" fill="rgb(50, 49, 63)" stroke="none" stroke-width="1px">222k</text><text x="720" y="0" dx="0em" dy="0.95em" style="text-anchor: middle; visibility: inherit; font-family: &quot;Helvetica Neue&quot;, sans-serif; font-size: 12px; font-weight: 200;" fill="rgb(50, 49, 63)" stroke="none" stroke-width="1px">224k</text><text x="864" y="0" dx="0em" dy="0.95em" style="text-anchor: middle; visibility: inherit; font-family: &quot;Helvetica Neue&quot;, sans-serif; font-size: 12px; font-weight: 200;" fill="rgb(50, 49, 63)" stroke="none" stroke-width="1px">226k</text><text x="1007.9999999999999" y="0" dx="0em" dy="0.95em" style="text-anchor: middle; visibility: inherit; font-family: &quot;Helvetica Neue&quot;, sans-serif; font-size: 12px; font-weight: 200;" fill="rgb(50, 49, 63)" stroke="none" stroke-width="1px">228k</text><text x="1152" y="0" dx="0em" dy="0.95em" style="text-anchor: middle; visibility: inherit; font-family: &quot;Helvetica Neue&quot;, sans-serif; font-size: 12px; font-weight: 200;" fill="rgb(50, 49, 63)" stroke="none" stroke-width="1px">230k</text><text x="1296" y="0" dx="0em" dy="0.95em" style="text-anchor: middle; visibility: inherit; font-family: &quot;Helvetica Neue&quot;, sans-serif; font-size: 12px; font-weight: 200;" fill="rgb(50, 49, 63)" stroke="none" stroke-width="1px">232k</text><text x="1440" y="0" dx="0em" dy="0.95em" style="text-anchor: middle; visibility: hidden; font-family: &quot;Helvetica Neue&quot;, sans-serif; font-size: 12px; font-weight: 200;" fill="rgb(50, 49, 63)" stroke="none" stroke-width="1px">234k</text></g><line x1="0" y1="0" x2="1440" y2="0" fill="rgb(0, 0, 0)" stroke="rgb(204, 204, 204)" stroke-width="1px"></line></g></g></g></g></svg>