<svg viewBox="0 0 1498 400" xmlns="http://www.w3.org/2000/svg"><g><g><g><g><g><line x1="82" y1="378" x2="77" y2="378" style="visibility: inherit;" fill="rgb(0, 0, 0)" stroke="rgb(204, 204, 204)" stroke-width="1px"></line><line x1="82" y1="336" x2="77" y2="336" style="visibility: inherit;" fill="rgb(0, 0, 0)" stroke="rgb(204, 204, 204)" stroke-width="1px"></line><line x1="82" y1="294" x2="77" y2="294" style="visibility: inherit;" fill="rgb(0, 0, 0)" stroke="rgb(204, 204, 204)" stroke-width="1px"></line><line x1="82" y1="252" x2="77" y2="252" style="visibility: inherit;" fill="rgb(0, 0, 0)" stroke="rgb(204, 204, 204)" stroke-width="1px"></line><line x1="82" y1="210" x2="77" y2="210" style="visibility: inherit;" fill="rgb(0, 0, 0)" stroke="rgb(204, 204, 204)" stroke-width="1px"></line><line x1="82" y1="168" x2="77" y2="168" style="visibility: inherit;" fill="rgb(0, 0, 0)" stroke="rgb(204, 204, 204)" stroke-width="1px"></line><line x1="82" y1="126" x2="77" y2="126" style="visibility: inherit;" fill="rgb(0, 0, 0)" stroke="rgb(204, 204, 204)" stroke-width="1px"></line><line x1="82" y1="84" x2="77" y2="84" style="visibility: inherit;" fill="rgb(0, 0, 0)" stroke="rgb(204, 204, 204)" stroke-width="1px"></line><line x1="82" y1="42" x2="77" y2="42" style="visibility: inherit;" fill="rgb(0, 0, 0)" stroke="rgb(204, 204, 204)" stroke-width="1px"></line><line x1="82" y1="0" x2="77" y2="0" style="visibility: inherit;" fill="rgb(0, 0, 0)" stroke="rgb(204, 204, 204)" stroke-width="1px"></line></g><g transform="translate(72, 0)"><text x="0" y="378" dx="0em" dy="0.3em" style="text-anchor: end; visibility: hidden; font-family: &quot;Helvetica Neue&quot;, sans-serif; font-size: 12px; font-weight: 200;" fill="rgb(50, 49, 63)" stroke="none" stroke-width="1px">-2e+3</text><text x="0" y="336" dx="0em" dy="0.3em" style="text-anchor: end; visibility: inherit; font-family: &quot;Helvetica Neue&quot;, sans-serif; font-size: 12px; font-weight: 200;" fill="rgb(50, 49, 63)" stroke="none" stroke-width="1px">0</text><text x="0" y="294" dx="0em" dy="0.3em" style="text-anchor: end; visibility: inherit; font-family: &quot;Helvetica Neue&quot;, sans-serif; font-size: 12px; font-weight: 200;" fill="rgb(50, 49, 63)" stroke="none" stroke-width="1px">2e+3</text><text x="0" y="252" dx="0em" dy="0.3em" style="text-anchor: end; visibility: inherit; font-family: &quot;Helvetica Neue&quot;, sans-serif; font-size: 12px; font-weight: 200;" fill="rgb(50, 49, 63)" stroke="none" stroke-width="1px">4e+3</text><text x="0" y="210" dx="0em" dy="0.3em" style="text-anchor: end; visibility: inherit; font-family: &quot;Helvetica Neue&quot;, sans-serif; font-size: 12px; font-weight: 200;" fill="rgb(50, 49, 63)" stroke="none" stroke-width="1px">6e+3</text><text x="0" y="168" dx="0em" dy="0.3em" style="text-anchor: end; visibility: inherit; font-family: &quot;Helvetica Neue&quot;, sans-serif; font-size: 12px; font-weight: 200;" fill="rgb(50, 49, 63)" stroke="none" stroke-width="1px">8e+3</text><text x="0" y="126" dx="0em" dy="0.3em" style="text-anchor: end; visibility: inherit; font-family: &quot;Helvetica Neue&quot;, sans-serif; font-size: 12px; font-weight: 200;" fill="rgb(50, 49, 63)" stroke="none" stroke-width="1px">1e+4</text><text x="0" y="84" dx="0em" dy="0.3em" style="text-anchor: end; visibility: inherit; font-family: &quot;Helvetica Neue&quot;, sans-serif; font-size: 12px; font-weight: 200;" fill="rgb(50, 49, 63)" stroke="none" stroke-width="1px">1.2e+4</text><text x="0" y="42" dx="0em" dy="0.3em" style="text-anchor: end; visibility: inherit; font-family: &quot;Helvetica Neue&quot;, sans-serif; font-size: 12px; font-weight: 200;" fill="rgb(50, 49, 63)" stroke="none" stroke-width="1px">1.4e+4</text><text x="0" y="0" dx="0em" dy="0.3em" style="text-anchor: end; visibility: hidden; font-family: &quot;Helvetica Neue&quot;, sans-serif; font-size: 12px; font-weight: 200;" fill="rgb(50, 49, 63)" stroke="none" stroke-width="1px">1.6e+4</text></g><line x1="82" y1="0" x2="82" y2="378" fill="rgb(0, 0, 0)" stroke="rgb(204, 204, 204)" stroke-width="1px"></line></g></g><g transform="translate(82, 0)" clip-path="url(#clip_0)"><clipPath id="clip_0"><rect width="1416" height="378"></rect></clipPath><g><g><g><line x1="0" y1="0" x2="0" y2="378" fill="rgb(0, 0, 0)" stroke="rgb(60, 60, 60)" stroke-width="1px" opacity="0.25"></line><line x1="141.6" y1="0" x2="141.6" y2="378" fill="rgb(0, 0, 0)" stroke="rgb(60, 60, 60)" stroke-width="1px" opacity="0.25"></line><line x1="283.2" y1="0" x2="283.2" y2="378" fill="rgb(0, 0, 0)" stroke="rgb(60, 60, 60)" stroke-width="1px" opacity="0.25"></line><line x1="424.8" y1="0" x2="424.8" y2="378" fill="rgb(0, 0, 0)" stroke="rgb(60, 60, 60)" stroke-width="1px" opacity="0.25"></line><line x1="566.4" y1="0" x2="566.4" y2="378" fill="rgb(0, 0, 0)" stroke="rgb(60, 60, 60)" stroke-width="1px" opacity="0.25"></line><line x1="708" y1="0" x2="708" y2="378" fill="rgb(0, 0, 0)" stroke="rgb(60, 60, 60)" stroke-width="1px" opacity="0.25"></line><line x1="849.6" y1="0" x2="849.6" y2="378" fill="rgb(0, 0, 0)" stroke="rgb(60, 60, 60)" stroke-width="1px" opacity="0.25"></line><line x1="991.1999999999999" y1="0" x2="991.1999999999999" y2="378" fill="rgb(0, 0, 0)" stroke="rgb(60, 60, 60)" stroke-width="1px" opacity="0.25"></line><line x1="1132.8" y1="0" x2="1132.8" y2="378" fill="rgb(0, 0, 0)" stroke="rgb(60, 60, 60)" stroke-width="1px" opacity="0.25"></line><line x1="1274.4" y1="0" x2="1274.4" y2="378" fill="rgb(0, 0, 0)" stroke="rgb(60, 60, 60)" stroke-width="1px" opacity="0.25"></line><line x1="1416" y1="0" x2="1416" y2="378" fill="rgb(0, 0, 0)" stroke="rgb(60, 60, 60)" stroke-width="1px" opacity="0.25"></line></g><g><line x1="0" y1="378" x2="1416" y2="378" fill="rgb(0, 0, 0)" stroke="rgb(60, 60, 60)" stroke-width="1px" opacity="0.25"></line><line x1="0" y1="336" x2="1416" y2="336" fill="rgb(0, 0, 0)" stroke="rgb(60, 60, 60)" stroke-width="1px" opacity="0.25"></line><line x1="0" y1="294" x2="1416" y2="294" fill="rgb(0, 0, 0)" stroke="rgb(60, 60, 60)" stroke-width="1px" opacity="0.25"></line><line x1="0" y1="252" x2="1416" y2="252" fill="rgb(0, 0, 0)" stroke="rgb(60, 60, 60)" stroke-width="1px" opacity="0.25"></line><line x1="0" y1="210" x2="1416" y2="210" fill="rgb(0, 0, 0)" stroke="rgb(60, 60, 60)" stroke-width="1px" opacity="0.25"></line><line x1="0" y1="168" x2="1416" y2="168" fill="rgb(0, 0, 0)" stroke="rgb(60, 60, 60)" stroke-width="1px" opacity="0.25"></line><line x1="0" y1="126" x2="1416" y2="126" fill="rgb(0, 0, 0)" stroke="rgb(60, 60, 60)" stroke-width="1px" opacity="0.25"></line><line x1="0" y1="84" x2="1416" y2="84" fill="rgb(0, 0, 0)" stroke="rgb(60, 60, 60)" stroke-width="1px" opacity="0.25"></line><line x1="0" y1="42" x2="1416" y2="42" fill="rgb(0, 0, 0)" stroke="rgb(60, 60, 60)" stroke-width="1px" opacity="0.25"></line><line x1="0" y1="0" x2="1416" y2="0" fill="rgb(0, 0, 0)" stroke="rgb(60, 60, 60)" stroke-width="1px" opacity="0.25"></line></g></g></g><g><g><line x1="0" y1="336" x2="1416" y2="336" fill="rgb(0, 0, 0)" stroke="rgb(153, 153, 153)" stroke-width="1.5px"></line></g></g><g><g><line x1="-15151.199999999999" y1="0" x2="-15151.199999999999" y2="378" fill="rgb(0, 0, 0)" stroke="rgb(153, 153, 153)" stroke-width="1.5px"></line></g></g><g><g><g><g><g><path stroke="rgb(255, 112, 67)" stroke-width="2px" d="M72.57,334.7647028617859L74.2692,334.02983569192884L74.4816,333.7301993228367L75.2604,333.3496477054007L76.3224,332.82299487608856L77.9508,332.04756832543353L82.2696,330.34976975108935L82.482,329.3022202148634L83.1192,328.5062016361992L87.50880000000001,326.8005195324944L87.86280000000001,325.6858267043499L89.34960000000001,324.6090774179236L90.1992,323.72996636152305L90.624,323.0859754517893L93.102,322.0134585776343L93.24360000000001,321.33132929244334L93.81,320.76570969629137L95.86319999999999,319.860439420557L97.2792,318.92607138855965L101.1024,317.3089715023706L101.1732,316.31913530852836L102.5892,315.33417373846316L103.86359999999999,314.39178864648113L104.85480000000001,313.55284631226937L109.2444,311.83626960630335L111.156,310.2780917230027L112.2888,309.0304483857569L112.7844,308.1453354312708L112.8552,307.5948245422513L115.19160000000001,306.618624441179L116.1828,305.7585868553158L116.74919999999999,305.0860384854449L117.10319999999999,304.5849804892154L117.2448,304.24544033458227L118.09440000000001,303.80678489633357L118.8024,303.34859515182416L121.8468,302.23111167402254L122.4132,301.39745630795863L122.97959999999999,300.73611885166116L124.8204,299.83026940548893L125.4576,299.11116261927907L125.74080000000001,298.60074449514997L125.8824,298.25584562277163L126.8736,297.77629287162677L127.01520000000001,297.44952972684837L127.5108,297.1157239396038L128.0772,296.75928475437394L128.502,296.4282898467576L130.4844,295.6833740057008L138.2016,293.1086692276184L139.4052,291.2327067123432L140.04240000000001,289.9315946328709L140.1132,289.1314490648774L140.538,288.53420059126955L140.9628,288.05838070632393L142.2372,287.42027539645034L142.4496,286.97911055037014L143.0868,286.53899806850325L146.55599999999998,285.3189014778206L146.7684,284.5283019218486L147.1932,283.9370722663904L147.618,283.465304590303L148.68,282.88857621121304L149.1048,282.4256959220403L149.4588,282.0504305415054L153.1404,280.81117844209075L153.49439999999998,279.9702130222857L153.5652,279.44627234462143L154.8396,278.7819523716166L155.76,278.1279273800012L159.3708,276.74165457253196L160.5744,275.5704599310192L161.9904,274.4765525211115L164.4684,273.13499079001065L164.6808,272.27170902478764L165.672,271.48112141096635L165.9552,270.92814188954856L169.3536,269.6591184345104L169.8492,268.76006617789375L171.4068,267.7909305270487L172.25639999999999,266.975317593573L172.96439999999998,266.2904960248938L175.0884,265.2939327711863L175.8672,264.481501557243L176.4336,263.83725239918954L176.8584,263.333738646545L179.124,262.406148266052L181.1772,261.28410341275617L182.31,260.29870657890376L183.4428,259.3962521699985L183.726,258.77690725903034L184.9296,258.07275382807444L187.4076,256.96755874215717L190.38119999999998,255.48466649529428L191.01839999999999,254.41906024873907L191.4432,253.6607573406497L191.79719999999998,253.1082999122023L192.2928,252.64027213482137L192.93,252.1837137691741L193.92119999999997,251.63667826150447L194.0628,251.26935060924643L194.27519999999998,250.99028731867287L194.9124,250.64729221542245L197.3904,249.75887005581598L200.5764,248.3474343381771L201.85080000000002,247.14859322009374L202.48799999999997,246.25336433049375L203.4084,245.46231566860874L203.6208,244.92939506522774L204.1872,244.45398430476163L207.01919999999998,243.38707847348198L208.22279999999998,242.41580352940167L208.93079999999998,241.63816102389103L209.1432,241.1129559893346L210.5592,240.40755699203825L211.69199999999998,239.67248399991044L212.96640000000002,238.87815211869628L213.816,238.16726353684277L215.4444,237.29008351273066L218.064,236.0403460060759L218.27640000000002,235.23228182239552L218.34720000000002,234.7279690934373L218.91359999999997,234.2691816513749L219.1968,233.91601641269995L219.69240000000002,233.56671492574498L223.4448,232.32220727575947L223.9404,231.4390724123307L224.5776,230.7335543848984L226.13520000000003,229.88129806062656L226.4184,229.29196946137594L226.9848,228.78075335651306L227.55120000000002,228.31793052953282L227.8344,227.9615360520947L229.25039999999998,227.35727573281932L229.60439999999997,226.8973320412541L229.67520000000002,226.60196133412745L230.0292,226.32713402703897L231.09120000000001,225.8697757287234L231.44520000000003,225.49784610129652L232.79039999999998,224.9041367623404L233.9232,224.23368225271676L234.63119999999998,223.63627771100505L235.48080000000002,223.04340607972804L237.3216,222.17967177283685L237.9588,221.4854495480771L240.4368,220.38488633040876L240.5076,219.70504136855774L240.64919999999998,219.25676681332214L243.7644,218.1298782520558L244.3308,217.29737714654595L244.968,216.6222352723026L245.1096,216.17827963994404L245.4636,215.81405528396644L247.2336,215.10775465475487L247.3044,214.6643688084779L248.0124,214.20234003508673L248.154,213.88633429448956L248.50799999999998,213.59813338919375L249.4992,213.15158530695373L249.92399999999998,212.76658966073475L250.56119999999999,212.35984442144084L251.6232,211.823138488802L252.048,211.3844911010937L255.8004,210.0857360669062L257.004,208.9748389057687L261.3936,207.09739631221123L261.7476,205.87341200607673L262.668,204.88383450833354L265.2876,203.5676798065626L266.2788,202.50474909487505L268.7568,201.18390824598754L274.6332,198.76789455696752L275.9076,196.96587189043052L276.3324,195.7663159076958L278.03159999999997,194.578872943055L281.3592,192.94744388302053L281.9256,191.8127393766873L284.4744,190.42623464163736L285.6072,189.28102164435742L285.8196,188.53440888505196L286.386,187.93031935446865L286.59839999999997,187.50918868299368L288.5808,186.7104282488587L290.70480000000003,185.64455011337773L294.6696,183.90977479458914L295.0944,182.75213811894096L296.2272,181.7452221291771L297.5016,180.78745222281873L297.5724,180.19313559150376L299.9796,179.17250674552727L300.68760000000003,178.36473100044137L300.9,177.8216716080773L300.9708,177.4762223007839L301.1124,177.22973767734533L301.1832,177.0624957314072L302.9532,176.47256345446928L305.2896,175.47392049455655L308.1216,174.09255034360896L310.31640000000004,172.65725071397787L312.228,171.26613265494925L312.582,170.3324542023445L314.1396,169.34241978703167L315.4848,168.3769575362815L316.5468,167.50461534208142L317.6796,166.66902779899885L319.7328,165.5976237106493L319.9452,164.89655547638958L321.71520000000004,163.98795984833373L324.7596,162.60086653400023L326.1756,161.37651757665014L327.45,160.2901171866151L327.5916,159.59927929634406L327.7332,159.14541796843145L328.158,158.75599335918386L330.1404,157.97474718738533L331.1316,157.23240885930622L335.0964,155.6913554718337L335.3796,154.68849843935024L336.1584,153.87211664173515L338.9196,152.62088170379107L339.84,151.61391613164963L340.19399999999996,150.91213600711478L341.3268,150.1781925417689L341.6808,149.64004521256132L341.8224,149.27810994003679L342.5304,148.86562416714705L344.8668,147.97363778153826L345.7164,147.2031393095479L349.39799999999997,145.72448944510373L350.1768,144.62250069831222L351.3804,143.6282113564873L353.3628,142.4846123607674L356.0532,141.05430647896048L356.832,139.9815866217513L357.0444,139.27920392617577L361.08,137.74296141820545L361.43399999999997,136.7225323196733L362.2128,135.89529556367893L367.38120000000004,133.9722988225824L368.16,132.60182343417443L368.2308,131.75998195112967L368.37239999999997,131.2159860456778L368.7264,130.79161037740667L368.79720000000003,130.517371304569L370.56719999999996,129.86444661086642L370.9212,129.37518945089482L371.1336,129.0229828111619L371.7,128.65517601482216L373.11600000000004,128.04280092139334L373.3284,127.61701883408602L373.3992,127.34196051920159L374.4612,126.88292553027097L376.0188,126.17625805253755L376.93919999999997,125.49855131589752L377.08079999999995,125.05316750828854L380.6208,123.80826417684813L382.32000000000005,122.59102061548387L382.81559999999996,121.72382994741531L383.2404,121.08639132782423L384.9396,120.23323284356945L385.15200000000004,119.66257056551672L389.3292,118.16651030806008L390.5328,116.93736126296102L392.01959999999997,115.78918238277663L392.232,115.041614507791L395.418,113.70699682967455L395.63039999999995,112.84418598842973L396.7632,112.01213932743286L398.958,110.9122703152097L400.9404,109.7159793766258L401.50680000000006,108.84411731347546L401.79,108.2394692162103L402.3564,107.71460301410121L403.1352,107.1821282147107L404.97599999999994,106.35356560070142L405.33,105.75931123542085L406.4628,105.09011291312748L407.5956,104.37831071662652L408.16200000000003,103.79692861747588L408.79920000000004,103.27411927986054L410.21520000000004,102.56596180229127L410.286,102.1212977844998L411.1356,101.61546031132485L411.2772,101.2721480617949L413.9676,100.30700250895194L414.81719999999996,99.48985228662116L416.1624,98.61170199697267L417.7908,97.62181924505865L419.2068,96.62753607828517L422.60519999999997,95.07620445947117L422.9592,191.15146418111482L423.1716,248.71939332800483L424.8,282.74758406198845L426.216,302.74332366107L426.3576,314.6985420909291L426.42839999999995,321.8504853741864L430.18080000000003,325.03663580458993L431.59680000000003,326.52643729330083L432.1632,327.2542182353555L434.358,327.04997946416256L435.5616,326.57706278836076L436.836,325.92168943082896L437.4024,325.36230086552865L439.5972,324.3852279558406L443.1372,322.7642035703794L445.1904,321.19165339222764L445.9692,320.0195852482272L447.102,318.98476994776445L448.0932,318.07401411709617L449.58,317.093751170453L452.41200000000003,315.6771798038343L453.9696,314.37073307761307L454.32360000000006,313.48397119422407L457.722,311.954760646222L459.138,310.6243043857801L459.2796,309.78479967248364L461.5452,308.6204304870839L463.2444,307.4257126867816L464.094,306.4615075437096L464.2356,305.8417617039601L464.6604,305.34634232511047L467.28000000000003,304.2842415767069L469.26239999999996,303.0695262448522L469.404,302.2993368894895L469.6872,301.7546137059593L470.74920000000003,301.1182666610756L473.65200000000004,299.8893411978172L473.8644,299.0903353339247L477.6168,297.5150845499642L477.8292,296.50782206786914L479.8116,295.3255626254871L479.88239999999996,294.595696071386L481.086,293.8069961584566L481.29839999999996,293.272203554449L483.7056,292.24854166391935L483.8472,291.59275878741414L484.3428,291.0548832997922L486.8916,289.98870468690654L488.3784,288.9164487887065L490.0776,287.7769538435364L490.4316,286.98983597799685L490.8564,286.3936960203918L492.768,285.4782836278601L494.18399999999997,284.5163185165598L494.538,283.8361512661859L495.59999999999997,283.1173493534616L495.954,282.5825181081707L498.9984,281.37377053287116L500.76840000000004,280.1328571439414L500.91,279.3468935832399L502.04279999999994,278.54465363041265L502.6092,277.8969523344976L502.75079999999997,277.4668791155423L504.0252,276.8377811802629L506.2908,275.7984532784702L507.63599999999997,274.78150438895716L508.41479999999996,273.9437475552493L508.55640000000005,273.39974970502453L508.9812,272.94916183473345L509.9016,272.4094369445901L511.176,271.71459312378533L513.9372,270.4923675930212L515.5656,269.28515209878145L515.9196000000001,268.4579248530189L517.6188,267.4654204391551L518.3976,266.64280402130555L519.1764,265.92228446356455L519.672,265.345507494545L520.0968,264.87561309047703L521.7959999999999,264.0987983230362L525.9732,262.4129827047592L528.522,260.6573776111368L528.5928,259.58343291433835L528.876,258.85618992438424L530.292,258.00721668900553L530.3628,257.4772162438721L530.4336,257.1384661721045L531,256.7691172032627L534.1152,255.63863643523888L534.6108,254.81569816973706L534.8231999999999,254.260091851061L536.1684,253.5345674153241L539.9916000000001,251.98215119138194L540.6288,250.8653395429542L540.7704,250.15423282733502L541.0536,249.6449141104635L541.4784000000001,249.2155746381531L541.6908,248.89606197039188L542.1864,248.55983171348512L542.7528,248.19206230934108L542.9652,247.90966394810465L543.8148,247.49274895480028L545.7264,246.68428296663015L546.0096,246.1168645065406L546.7884,245.54944526642436L547.5672,244.9817425504796L552.3816,243.23566720997528L553.3728,241.89822610723516L553.9392,240.93105500027858L554.9304000000001,240.06156757047964L555.0012,239.51915812041278L556.842,238.6564487784977L557.8332,237.85024954053608L559.6032,236.84855187275915L561.6564,235.65027604553052L561.8688,234.86950410388081L563.7096,233.8636911342035L564.984,232.8890283523971L565.2672,232.22174415987575L567.0372,231.30433887873795L570.7188,229.68020918661776L571.7808,228.39657609790817L572.3472,227.4615216353074L572.418,226.87985399680943L573.9756,226.07434130433566L575.25,225.21924345447638L578.082,223.88036794768584L579.5688,222.64237545611152L581.7636,221.2579766408544L585.516,219.33249907045013L586.2948,217.9503387000826L587.5692,216.74861650129955L588.2772,215.82085622890472L588.348,215.24372916703035L589.6931999999999,214.5045478517807L591.3216,213.58584433606842L592.6668,212.64344390632857L594.7908,211.45558743754714L595.428,210.5572450406533L595.6404,209.95644546189197L596.136,209.45145946463518L596.8439999999999,208.9423192334686L597.0564,208.57501224320617L597.4104,208.2515106662362L598.1184,207.85133081380422L600.4548,206.92972778515752L601.8,205.982798585157L603.0036,205.06428969796923L607.3932,203.23339842815656L609.8712,201.41142186939393L611.0748,199.96651874663638L611.7828,198.8934036307943L612.1368,198.14638436597662L612.9156,197.47127847114845L613.3403999999999,196.9418022389391L613.836,196.47965126523846L615.1104,195.83090267320554L615.4644,195.33874941642335L615.8184,194.939130118604L617.0928,194.3268751414749L617.8716000000001,193.73259500675994L618.084,193.31404821499348L619.5,192.6505654524336L620.0664,192.08778575583517L620.7744,191.5439775081886L623.2524,190.49387752053815L623.6064,189.76072475451042L627.9252,188.06067313395621L627.996,187.01988415381123L630.2616,185.73314377353677L633.3059999999999,184.07332454537203L633.8724,182.91250507878576L634.4388,182.05071222695898L634.5096,181.51290721898786L636.9168,180.48707284701774L637.6956,179.64323413789816L638.5452,178.8885772014889L639.7488,178.08382796151832L643.9968,176.3601204097235L645.696,174.8290654098966L647.82,173.28982088656295L648.1032,172.28376303975026L649.0944,171.39068516760014L650.298,170.5041876630601L650.7228,169.8484588868986L653.6964,168.58566673838916L654.8292,167.49736039459597L655.6080000000001,166.6174904555076L656.2452,165.90391126549204L656.8116,165.31051179835774L658.2275999999999,164.54083364151464L658.3692,164.03647713803377L658.5816,163.67166714219525L658.7232,163.41174911344217L659.148,163.13188188994027L660.5640000000001,162.55065530583917L660.7764,162.1400349803785L661.1304,161.79028700385206L661.7676,161.39485892106126L666.7236,159.71028371201174L668.1396,158.28724132095707L668.2103999999999,157.41261276132425L668.352,156.84663132866956L669.3432,156.2176034065767L669.6264,155.757810872071L670.2636,155.2963232419926L670.3344,154.99893925769558L670.6884,154.71698542961735L671.0423999999999,154.44478188277043L672.1044,153.97198866091225L675.1488,152.79799475904733L675.6444,151.94928083980344L675.9984,151.33667670700706L676.9896,150.68005250857922L677.6268,150.0997111926475L679.9632,149.0681860905885L680.034,148.4284186856031L680.6712,147.85879027386184L683.3616,146.7320643986921L683.928,145.89061285796527L683.9988,145.36520130852918L684.282,144.96716844136753L686.5476,144.0668569241955L689.8752000000001,142.55500985764232L690.1584,141.56517310208537L691.7868,140.49608042375124L693.0612,139.48344161362573L693.2736,138.81395754630043L694.7604,137.97856788715532L695.5392,137.2506653416682L697.2384,136.3180531112509L697.734,135.61418460112554L698.9376,134.8413439638003L699.0792,134.3362302064052L699.2916,133.9714826550931L700.7784,133.31962396805582L700.92,132.88590172458348L701.274,132.5224894722501L702.0528,132.07644446460006L702.9024000000001,131.56157527251003L704.106,130.90205219475604L705.3804,130.13558991060358L705.8052,129.5518945713621L706.5132,128.99559846156728L707.8584,128.2695391550654L709.77,127.2761074774142L710.3364,126.51520667394851L711.8232,125.62547556686911L713.3100000000001,124.65719119949645L714.5844000000001,123.7050701884479L716.85,122.47338039431872L717.3456000000001,121.59023761159119L721.0272,119.98787537945469L721.1687999999999,118.9853029620478L721.8768,118.17754115222874L722.3724,117.54718016008724L724.284,116.61127411167729L725.7707999999999,115.61693360763144L726.4788,114.8150296958288L727.6116000000001,114.0036623487473L728.2488,113.33145131549833L730.5144,112.26630477367405L731.6472000000001,111.2976152860794L732.0012,110.61313245289767L735.0456,109.31488103423857L735.258,108.47394737054316L736.674,107.55663053170093L737.1696,106.86168495964552L739.0104,105.90906996016236L739.506,105.19276502297242L743.9664,103.46185979503343L744.6036,102.23854126764502L745.0992,101.36024077621204L745.8072,100.62675501260225L746.0196000000001,100.1236553513113L747.5772000000001,99.36771157016182L748.356,98.6873781139721L749.1348,98.05178741525827L749.9843999999999,97.42300213665499L750.0551999999999,97.02510831324292L750.2676,96.72475834732074L751.9668,96.04722571151746L752.3916,95.51706863003551L754.02,94.72483375614627L754.7280000000001,94.0430037693128L755.2944,93.46887530846266L759.6132,91.86279041945261L760.2504,90.7131910485466L760.8876,89.83739275412796L763.3656000000001,88.58914463685176L765.348,87.2607270164861L765.5604,86.40195613176667L768.3924,85.05953969468499L770.0916,83.75873592618598L774.6936000000001,81.63293296196161L777.6672,79.49052032405194L780.216,77.46012235068116L780.57,76.1390820041587L780.6408,75.3257859212452L780.7824,74.7964727246221L781.7736000000001,74.18927347852326L782.6232,73.57711291523896L784.2515999999999,72.73538063976838L784.6764000000001,72.10635104011106L785.7384,71.41785437406662L786.1632000000001,70.87921574944L786.8711999999999,70.34906773091399L788.5704,69.53486212292341L789.774,68.69494969562902L791.3316,67.73580262987741L794.0219999999999,66.37399564042641L794.8008,65.32966027488084L796.2168,64.29081921180352L796.7124,63.52181887083208L797.0663999999999,62.95728077562427L800.04,61.750117684124575L802.5888,60.281287797974755L804.5712000000001,58.82278517878484L804.7128,57.90643829477091L804.7836,57.33603211748755L804.9252,56.95238723924251L805.9872,56.41202374979554L806.412,55.9640533123773L806.766,55.59203472180138L808.8192,54.76722278620582L809.8104,53.98312624984845L810.5892,53.28559762490909L811.2972,52.66065701244543L811.5804,52.202906707467264L811.6512,51.907568243230344L813.6336,51.15238938343822L814.2707999999999,50.511463317562914L815.8992000000001,49.651684240537804L815.97,49.115177731822655L816.8195999999999,48.54613827971855L819.0144,47.56523999908114L819.6515999999999,46.78994868694866L820.8552,45.974254368419224L821.2091999999999,45.380133089801575L821.8464,44.83756422888092L822.4128,44.34654947482852L822.9792000000001,43.88648359114717L824.1827999999999,43.25950617031333L826.3068000000001,42.262663077187995L827.0147999999999,41.45775644006278L829.6343999999999,40.209665973412655L830.2716,39.27558513092259L830.3424,38.69451396917856L830.7672,38.22157752213212L831.9,37.60670471640424L832.3956,37.09302048609254L834.378,36.20591541665556L834.4488000000001,35.65284104686833L835.086,35.13545814374601L835.4399999999999,34.72098816749764L836.2188,34.245104228623575L836.856,33.77268206842416L837.8472,33.200224475429536L840.5376,32.07250656025775L840.75,31.333884795529627L841.3871999999999,30.704869939817797L843.1572000000001,29.809573135765675L843.4404000000001,29.188444272084382L843.1572000000001,151.48918805525503L844.1483999999999,224.57546510366083L844.5732,268.30089327423264L844.7148000000001,294.4938911372691L847.122,309.54921518162905L847.5468000000001,318.4692335279227L847.9716,323.70614559160714L848.1132,326.8092706923666L848.892,328.44611083460944L849.246,329.3315627532071L850.2372,329.59818750543985L850.8744,329.58918669759987L852.0072,329.28283508984896L853.7772,328.62863284101877L855.1224,327.87856982912297L855.7596000000001,327.25862274464174L857.034,326.5385533464921L858.9456,325.58127971297336L860.5740000000001,324.55950068911216L860.7156,323.9075468734282L860.7864,323.4968926748382L864.3972000000001,322.2566028656451L864.9636,321.35700385805893L865.1759999999999,320.7588135941322L865.8132,320.2249016574559L868.5035999999999,319.16520735189545L870.6984,317.92716244824663L872.1144,316.79404671211205L873.4596,315.74346625968906L875.6543999999999,314.51015548823534L876.2208,313.6145506171599L876.3624,313.0386278800616L878.7696000000001,312.02841398389637L879.9731999999999,311.0916966325253L880.9644,310.2569738388902L881.3892,309.63946916661536L883.3716000000001,308.7239671445005L883.584,308.11627096052837L883.6548,307.7322354278796L884.0795999999999,307.3852815399308L884.2212,307.13840686341166L885.4248,306.65838567078134L885.9912,306.21473814075006L886.6283999999999,305.7730929821063L887.6904000000001,305.2157290802794L888.8232,304.5696217255114L891.5844000000001,303.4223253790568L892.434,302.49808311805907L892.5755999999999,301.9044109059917L893.2836,301.35340386781377L894.0623999999999,300.80860682264137L895.0536,300.20971091975673L895.1952,299.8114177627915L896.3988,299.2414180893155L897.744,298.52937018952684L900.2928,297.4003969184036L902.2044,296.1964769205734L902.6292,295.3573534375003L903.2664,294.67845244335956L905.3904,293.68696423945323L907.0187999999999,292.64210119992197L907.0895999999999,291.99571736057817L908.3639999999999,291.2576013147844L910.3464,290.2692710427769L910.7004,289.57854289910364L912.612,288.63730337618097L913.5324,287.8186134710211L913.674,287.28870743808136L913.7447999999999,286.9512916503488L915.1608,286.3589517480218L915.5147999999999,285.90619722068806L916.506,285.36215768788156L917.214,284.8402534994477L917.568,284.4300105957624L918.0636,284.0478837012074L919.4087999999999,283.4489234824432L920.2584,282.8559613160284L922.7363999999999,281.80852317633577L923.3736,281.0046057026765L927.1260000000001,279.44860150754334L928.188,278.2204514318698L928.9668,277.2685615817781L929.25,276.6194180037544L930.3828000000001,275.9179813686589L931.3032,275.2434049344766L932.7191999999999,274.4472961833422L933.3564,273.79459265141156L933.9227999999999,273.2473716064719L936.4716,272.2058121240394L937.8876,271.1890541689549L938.1,270.5202875794979L939.2328,269.8066485242613L940.3656000000001,269.06518774736924L945.3924,267.23100952342156L946.0296000000001,265.9559154796779L948.2244,264.58704752999427L949.5695999999999,263.3946809594028L949.7819999999999,262.6207214662667L951.3395999999999,261.7272854188225L955.9416,259.9259696887935L956.3664,258.7286753679636L956.508,257.9714159629657L957.9947999999999,257.10820221449814L959.5523999999999,256.1624235747926L961.6056000000001,255.03049320737557L964.8624,253.45470061192535L966.8448,251.96430786715518L971.0219999999999,249.92052319685564L972.1548,248.3833088399884L974.3496,246.85738608524304L974.916,245.78695743239584L976.4028,244.7358482875625L978.1727999999999,243.61671541784997L978.5268000000001,242.84764721946L979.4472,242.133558253551L980.3676,241.45266600681808L980.7923999999999,240.92711718221588L983.766,239.79200038745452L983.8367999999999,239.0912551152852L984.1908,238.57184135042112L985.2528,237.96844895087767L989.3592,236.4764084330266L990.5628,235.25012650512846L992.4744,233.98795461401457L992.5451999999999,233.21120186997126L993.1116000000001,232.58967639542024L993.9612,231.98200407943966L994.8108,231.38361572891378L995.8728000000001,230.73260068734828L996.1560000000001,230.26404146709646L997.3596,229.65189343494538L998.634,228.93291203752972L999.9084,228.15025308189283L1000.9703999999999,227.3889832944482L1001.6784,226.73733157823142L1001.8908,226.28810246256384L1002.7403999999999,225.78509585253832L1002.8112000000001,225.46371512871048L1003.0944000000001,225.1928052491013L1005.0767999999999,224.48345951664828L1006.9175999999999,223.55129270217645L1009.254,222.34967151974337L1010.316,221.33647068528353L1012.8648000000001,220.02646522367013L1013.2188,219.1430744467021L1016.6171999999999,217.67840462895876L1016.9004,216.72182480862523L1018.3163999999999,215.75883140861265L1021.7856,214.22559279048008L1023.6264,212.79941426803808L1023.8388,211.88523938113534L1026.8124,210.5172709724312L1027.9451999999999,209.38502957564623L1030.4232,208.02268844851272L1031.4852,206.91331404567012L1032.0516,206.0925847164646L1032.4764,205.48368325175375L1034.8128,204.47438475573978L1036.0164,203.53410585344386L1036.2288,202.9095799183163L1036.4412,202.4730907244273L1037.3616,201.95504642684386L1039.2732,201.1150280514188L1040.5476,200.2523681980388L1041.0431999999998,199.5913734578858L1041.5388,199.05531938723146L1043.0964000000001,198.2958738589014L1044.5832,197.42431220596583L1045.5036,196.6437560735795L1047.9816,195.4809950503977L1049.61,194.3339220302386L1049.8224,193.58731298376816L1050.7428,192.8856454074484L1051.0259999999998,192.38680951009408L1051.4508,191.97078570605646L1054.4952,190.88311966582137L1054.566,190.2109760963678L1055.9112,189.4360145640707L1056.1236000000001,188.91247143375494L1056.69,188.44286352431544L1056.7608,188.14179682552677L1056.8316,187.94056286094107L1057.2564,187.7031289275021L1058.6724000000002,187.17100372368878L1058.814,186.81272684358828L1060.0884,186.2466054420905L1063.6284,184.9297189293168L1064.6196,183.86629991227755L1065.0444,183.11095201767904L1067.4516,181.9954926949824L1070.3544,180.52552647636446L1072.3368,179.09815377644367L1074.2484000000002,177.7146834768037L1074.6024,176.78727532045724L1075.0272,176.1142476141493L1076.6556,175.26103509192708L1078.4256,174.26121851609372L1079.2752,173.42727290653127L1079.346,172.90731237673126L1079.7708,172.47810930103873L1080.4080000000001,172.04597573687323L1081.6116,171.4555313405615L1082.4612,170.86758638246187L1082.886,170.3982858138521L1084.3020000000001,169.72531387112377L1084.5852,169.24399886954927L1086.2844,168.48731592329204L1086.426,167.99443564772525L1087.0632,167.52315240426014L1090.6032,166.26281195036856L1092.3024,165.03929615459614L1093.9307999999999,163.8567956615077L1096.4796,162.4447961469046L1098.1788,161.12937026626778L1098.3203999999998,160.30126473788567L1098.3912,159.7851240771064L1100.5152,158.89039280563884L1102.2852,157.8667970115083L1102.6391999999998,157.15504695690498L1103.7012,156.436088721018L1104.126,155.8882950294858L1106.25,154.97229967394148L1106.3208,154.40323644498991L1106.8872,153.90584889824396L1107.1704,153.52952769832137L1107.5952,153.18667638461784L1108.728,152.66959137764565L1111.7724,151.5211778734624L1112.6219999999998,150.59825867720244L1113.4008,149.83052864382148L1114.1088,149.1749269519179L1114.1796000000002,148.7621409367757L1114.4628,148.43592440581543L1114.746,148.16123120598922L1114.9584,223.0407313047703L1116.162,267.5950033885751L1116.5868,294.2142987860747L1116.87,310.11027967752864L1117.0116,319.6097364985338L1118.7816,324.83365991059486L1120.1268,327.60541301789016L1120.6224,329.13581599310714L1120.6932,330.0349143761377L1121.826,330.27062206928616L1122.0384,330.35520889830997L1124.304,329.7987420992399L1124.3748,329.44603225905564L1124.4456,329.2152474438123L1126.1448,328.6195794843538L1127.136,327.9962021217646L1130.7468,326.6164400230588L1131.5964000000001,325.5520487306321L1136.0568,323.6728497217777L1139.0304,321.72000929595725L1139.3136,320.4697201283556L1140.7296,319.32418112486494L1142.4288,318.16593374816114L1142.5703999999998,317.4315570018264L1143.774,316.6569981415255L1146.3935999999999,315.46331109194654L1147.2432000000001,314.50996497548044L1148.5176000000001,313.5839360653664L1148.8716,312.92964743023543L1149.0132,312.4977115538444L1149.7212,312.041545828791L1150.9956,311.41362930391523L1152.1284,310.7220403753179L1152.624,310.1690643130813L1153.8275999999998,309.5034289198801L1154.2524,308.98389548669365L1154.748,308.53490023146935L1158.0756,307.34120161349097L1158.4296000000002,306.52706276496957L1159.5624,305.7230636843724L1159.9872,305.1225382106234L1160.6951999999999,304.56510490879594L1161.9696,303.8757685116838L1162.4651999999999,303.32437673201025L1163.1732,302.7970665665499L1163.244,302.46086376805494L1163.3148,302.23940331942674L1164.2352,301.85011274360915L1165.5804,301.2432941598374L1166.9964,300.4848326482462L1167.7752,299.81241496980704L1171.1028,298.48187178461865L1171.9524,297.44764758248994L1172.7312000000002,296.60805476043146L1174.9968,295.43388227032136L1177.2624,294.0437287762553L1179.4572,292.5809819923157L1182.0768,290.95543245710815L1183.7759999999998,289.49874336098367L1184.4132,288.44162589940265L1184.838,287.6845361841729L1185.9,286.92792337066L1187.1036000000001,286.1329804872397L1188.0947999999999,285.35678116343763L1188.3072,284.83049584650007L1189.6524,284.1316366680563L1190.9268,304.464710954386L1191.4932000000001,316.45053436071754L1196.5908,322.2668393542235L1198.9272,325.08773261644035L1199.4936,326.6278929634189L1199.9184,327.4383507682857L1201.6176,327.47027871048317L1201.6884,327.4705572653524L1202.184,327.33866023811765L1204.3788,326.6572806277339L1204.8036,326.1311322804489L1206.2904,325.4028355694412L1207.14,324.7305801258444L1208.3436000000002,323.99397439386604L1208.6268,323.47357472421027L1212.804,322.00298497124487L1213.7244,320.8658435950516L1214.4324000000001,319.98753228007786L1214.7156,319.38232715613265L1215.1404,318.90060483860145L1216.4856,318.2388276004265L1218.0431999999998,317.4090648708028L1218.9636,316.6561710513879L1223.1408000000001,315.04716864645775L1224.6984,313.65053097303087L1224.9816,312.73125847639665L1225.1232,312.14046045693175L1225.194,311.76641616673714L1225.902,311.3458990164486L1227.318,310.70166392158785L1228.0259999999998,310.1184908822496L1228.9464,309.5134165508341L1229.1588,309.09131355354737L1231.566,308.1702845676753L1232.2032,307.4397516488083L1235.3183999999999,306.1314740849881L1236.168,305.11114656036784L1239.9912,303.4189665983301L1241.832,301.8942517363418L1242.186,300.8817984539145L1243.6019999999999,299.8855496289893L1247.2128,298.29282997270604L1247.496,297.25955662620174L1249.7616,296.0111030186898L1253.2308,294.30122753387013L1254.6468,292.8833466765721L1256.5584,291.498781345787" style="fill: none;" fill="none"></path></g></g></g></g><g opacity="0.2"><g><g><g><path stroke="rgb(255, 112, 67)" stroke-width="2px" d="M72.57,334.7647028617859L74.2692,333.5889153900147L74.4816,333.4425484085083L75.2604,332.90211900329587L76.3224,332.13539694213864L77.9508,330.97487425231935L82.2696,327.921890625L82.482,327.7748829345703L83.1192,327.33222885131835L87.50880000000001,324.2677803955078L87.86280000000001,324.02389764404296L89.34960000000001,322.99981311035157L90.1992,322.41417022705076L90.624,322.12125073242186L93.102,320.40594396972654L93.24360000000001,320.3086164550781L93.81,319.9175196533203L95.86319999999999,318.50276385498046L97.2792,317.5246616821289L101.1024,314.8834694824219L101.1732,314.8344353027344L102.5892,313.85676379394533L103.86359999999999,312.9782296142578L104.85480000000001,312.29444274902346L109.2444,309.2614167480469L111.156,307.94083154296874L112.2888,307.15898657226563L112.7844,306.81766735839847L112.8552,306.7690587158203L115.19160000000001,305.15432482910154L116.1828,304.46853076171874L116.74919999999999,304.0772160644531L117.10319999999999,303.8333935546875L117.2448,303.7361301269531L118.09440000000001,303.1488017578125L118.8024,302.66131054687503L121.8468,300.55488647460936L122.4132,300.14697326660155L122.97959999999999,299.7441126708984L124.8204,298.4714952392578L125.4576,298.0325024414062L125.74080000000001,297.8351173095703L125.8824,297.7384973144531L126.8736,297.0569637451172L127.01520000000001,296.95938500976564L127.5108,296.6150152587891L128.0772,296.2246259765625L128.502,295.9317974853516L130.4844,294.56600024414064L138.2016,289.2466120605469L139.4052,288.41876293945313L140.04240000000001,287.9799265136719L140.1132,287.9312307128906L140.538,287.6383278808594L140.9628,287.34465087890624L142.2372,286.4631174316406L142.4496,286.31736328125L143.0868,285.87882934570314L146.55599999999998,283.48875659179686L146.7684,283.34240258789066L147.1932,283.0502277832031L147.618,282.7576530761719L148.68,282.0234836425781L149.1048,281.73137548828123L149.4588,281.4875324707031L153.1404,278.95230029296874L153.49439999999998,278.70876489257813L153.5652,278.660361328125L154.8396,277.78547241210936L155.76,277.14688989257814L159.3708,274.66224536132813L160.5744,273.81366796875L161.9904,272.83569140625L164.4684,271.1226481933594L164.6808,270.9767863769531L165.672,270.2952399902344L165.9552,270.09867260742186L169.3536,267.7555832519531L169.8492,267.4114877929687L171.4068,266.3372270507812L172.25639999999999,265.75189819335935L172.96439999999998,265.263263671875L175.0884,263.799087890625L175.8672,263.2628547363281L176.4336,262.87087866210936L176.8584,262.57846801757813L179.124,261.0147626953125L181.1772,259.6010361328125L182.31,258.820611328125L183.4428,258.0425705566406L183.726,257.8478898925781L184.9296,257.01652368164065L187.4076,255.30976611328123L190.38119999999998,253.260328125L191.01839999999999,252.82065087890624L191.4432,252.52330297851563L191.79719999999998,252.27961376953124L192.2928,251.93823046875L192.93,251.49887622070312L193.92119999999997,250.816125L194.0628,250.71835913085937L194.27519999999998,250.5716923828125L194.9124,250.13279956054689L197.3904,248.42623681640626L200.5764,246.23028076171875L201.85080000000002,245.35033154296875L202.48799999999997,244.91052099609374L203.4084,244.27574267578123L203.6208,244.13001416015626L204.1872,243.7408681640625L207.01919999999998,241.7867197265625L208.22279999999998,240.95889111328125L208.93079999999998,240.471697265625L209.1432,240.32514843750002L210.5592,239.34945849609375L211.69199999999998,238.56987451171875L212.96640000000002,237.686654296875L213.816,237.1009306640625L215.4444,235.97431347656251L218.064,234.16573974609375L218.27640000000002,234.020185546875L218.34720000000002,233.9715L218.91359999999997,233.58100048828126L219.1968,233.3862685546875L219.69240000000002,233.0427626953125L223.4448,230.45544580078126L223.9404,230.11437011718752L224.5776,229.67527734375L226.13520000000003,228.60291357421875L226.4184,228.40797656249998L226.9848,228.01392919921875L227.55120000000002,227.62369628906248L227.8344,227.42694433593752L229.25039999999998,226.45088525390625L229.60439999999997,226.20741650390624L229.67520000000002,226.15890527343748L230.0292,225.91489306640625L231.09120000000001,225.18373828125L231.44520000000003,224.93995166015625L232.79039999999998,224.01357275390626L233.9232,223.22800048828125L234.63119999999998,222.7401708984375L235.48080000000002,222.1540986328125L237.3216,220.8840703125L237.9588,220.44411621093752L240.4368,218.73404150390627L240.5076,218.68527392578125L240.64919999999998,218.58435498046876L243.7644,216.43954541015623L244.3308,216.04862548828126L244.968,215.60952246093748L245.1096,215.51234619140624L245.4636,215.26771875L247.2336,214.0483037109375L247.3044,213.99929003906252L248.0124,213.50929687500002L248.154,213.41232568359374L248.50799999999998,213.16583203125L249.4992,212.48176318359376L249.92399999999998,212.18909619140626L250.56119999999999,211.7497265625L251.6232,211.01807958984375L252.048,210.72652001953125L255.8004,208.137603515625L257.004,207.3084931640625L261.3936,204.28123242187502L261.7476,204.037435546875L262.668,203.39946826171874L265.2876,201.59344775390625L266.2788,200.91035302734375L268.7568,199.20264697265625L274.6332,195.1438740234375L275.9076,194.262837890625L276.3324,193.96698193359376L278.03159999999997,192.79770849609375L281.3592,190.50030029296875L281.9256,190.11068261718748L284.4744,188.3464775390625L285.6072,187.5632021484375L285.8196,187.41448974609375L286.386,187.02418505859376L286.59839999999997,186.87749267578124L288.5808,185.51228759765627L290.70480000000003,184.04573291015626L294.6696,181.30761181640625L295.0944,181.01568310546872L296.2272,180.23484814453127L297.5016,179.35079736328126L297.5724,179.30166064453127L299.9796,177.64156347656248L300.68760000000003,177.1530673828125L300.9,177.00708251953125L300.9708,176.95804833984374L301.1124,176.8600107421875L301.1832,176.8116328125L302.9532,175.5876650390625L305.2896,173.97595605468752L308.1216,172.02049511718752L310.31640000000004,170.50430126953125L312.228,169.17945556640623L312.582,168.93193652343749L314.1396,167.8573681640625L315.4848,166.92876416015625L316.5468,166.19610205078123L317.6796,165.415646484375L319.7328,163.99051757812498L319.9452,163.844953125L321.71520000000004,162.62506640625L324.7596,160.5202265625L326.1756,159.539994140625L327.45,158.6605166015625L327.5916,158.56302246093753L327.7332,158.46462597656253L328.158,158.17185644531247L330.1404,156.80287792968753L331.1316,156.11890136718748L335.0964,153.37977539062499L335.3796,153.184212890625L336.1584,152.6475439453125L338.9196,150.74402929687503L339.84,150.1034677734375L340.19399999999996,149.8594658203125L341.3268,149.07727734374998L341.6808,148.83282421874998L341.8224,148.73520703125L342.5304,148.2468955078125L344.8668,146.635658203125L345.7164,146.0473916015625L349.39799999999997,143.5065146484375L350.1768,142.96951757812502L351.3804,142.13677734375L353.3628,140.76921386718752L356.0532,138.90884765624997L356.832,138.37250683593751L357.0444,138.22562988281248L361.08,135.43859765624998L361.43399999999997,135.191888671875L362.2128,134.65444042968753L367.38120000000004,131.08780371093752L368.16,130.5461103515625L368.2308,130.4972197265625L368.37239999999997,130.39999218749998L368.7264,130.155046875L368.79720000000003,130.1060126953125L370.56719999999996,128.88505957031248L370.9212,128.6413037109375L371.1336,128.4946728515625L371.7,128.10346582031252L373.11600000000004,127.12423828125L373.3284,126.978345703125L373.3992,126.92937304687499L374.4612,126.194373046875L376.0188,125.11625683593749L376.93919999999997,124.48199121093751L377.08079999999995,124.385091796875L380.6208,121.94090917968748L382.32000000000005,120.76515527343747L382.81559999999996,120.42304394531249L383.2404,120.1302333984375L384.9396,118.95349511718752L385.15200000000004,118.8065771484375L389.3292,115.92241992187502L390.5328,115.09363769531245L392.01959999999997,114.06691406250002L392.232,113.92026269531249L395.418,111.70507031250003L395.63039999999995,111.5499697265625L396.7632,110.7640693359375L398.958,109.262466796875L400.9404,107.92154296875003L401.50680000000006,107.53632421875L401.79,107.33249707031246L402.3564,106.92730371093751L403.1352,106.38341601562502L404.97599999999994,105.11072167968752L405.33,104.86792968750001L406.4628,104.08631542968749L407.5956,103.31060742187498L408.16200000000003,102.92485546875002L408.79920000000004,102.4899052734375L410.21520000000004,101.5037255859375L410.286,101.45430175781252L411.1356,100.85670410156251L411.2772,100.75717968749996L413.9676,98.8592841796875L414.81719999999996,98.26412695312501L416.1624,97.2944765625L417.7908,96.1369951171875L419.2068,95.13611132812503L422.60519999999997,92.74920703125002L422.9592,335.26435376358035L423.1716,335.07128704833985L424.8,333.7898701629639L426.216,332.7369330596924L426.3576,332.6313697357178L426.42839999999995,332.57840029907226L430.18080000000003,329.8158614501953L431.59680000000003,328.7611395263672L432.1632,328.3458896484375L434.358,326.743621307373L435.5616,325.8676877746582L436.836,324.93862939453123L437.4024,324.52321801757813L439.5972,322.91961859130856L443.1372,320.3326669921875L445.1904,318.832828125L445.9692,318.2614830322266L447.102,317.4325469970703L448.0932,316.7078803710938L449.58,315.62335675048826L452.41200000000003,313.55232275390625L453.9696,312.41106298828123L454.32360000000006,312.1538283691406L457.722,309.66094482421875L459.138,308.6286199951172L459.2796,308.5255426025391L461.5452,306.87387670898437L463.2444,305.63363598632816L464.094,305.01519982910156L464.2356,304.9121429443359L464.6604,304.60321325683594L467.28000000000003,302.6910904541016L469.26239999999996,301.2474532470703L469.404,301.14405285644534L469.6872,300.93752893066403L470.74920000000003,300.16374609375L473.65200000000004,298.04595300292965L473.8644,297.8918265380859L477.6168,295.1522083740234L477.8292,294.99692834472654L479.8116,293.5521734619141L479.88239999999996,293.5008962402344L481.086,292.6239462890625L481.29839999999996,292.4700146484375L483.7056,290.713048828125L483.8472,290.60908447265626L484.3428,290.24807006835937L486.8916,288.3894367675781L488.3784,287.30806494140626L490.0776,286.0677114257812L490.4316,285.8091591796875L490.8564,285.4994860839844L492.768,284.1051650390625L494.18399999999997,283.0733708496094L494.538,282.815900390625L495.59999999999997,282.039146484375L495.954,281.78027124023436L498.9984,279.5606491699219L500.76840000000004,278.27148706054686L500.91,278.1679482421875L502.04279999999994,277.3412937011719L502.6092,276.925400390625L502.75079999999997,276.82176928710936L504.0252,275.89413427734377L506.2908,274.23946142578126L507.63599999999997,273.2560810546875L508.41479999999996,272.6871123046875L508.55640000000005,272.58375292968753L508.9812,272.27328002929687L509.9016,271.599849609375L511.176,270.67232739257815L513.9372,268.659029296875L515.5656,267.4743288574219L515.9196000000001,267.217083984375L517.6188,265.9766638183594L518.3976,265.40887939453125L519.1764,264.84150512695317L519.672,264.48034204101566L520.0968,264.170771484375L521.7959999999999,262.93357617187496L525.9732,259.88425927734374L528.522,258.0239699707031L528.5928,257.97251586914064L528.876,257.76532543945314L530.292,256.73375683593747L530.3628,256.68221557617187L530.4336,256.6303410644531L531,256.21509375L534.1152,253.94291528320312L534.6108,253.58129077148436L534.8231999999999,253.42668237304687L536.1684,252.44628076171875L539.9916000000001,249.65352685546875L540.6288,249.1901220703125L540.7704,249.08757275390627L541.0536,248.88093603515625L541.4784000000001,248.5715654296875L541.6908,248.41679296875L542.1864,248.055486328125L542.7528,247.640408203125L542.9652,247.48606640625L543.8148,246.86737646484374L545.7264,245.471583984375L546.0096,245.26573681640625L546.7884,244.69831640625L547.5672,244.1301884765625L552.3816,240.61655419921874L553.3728,239.892064453125L553.9392,239.48029833984376L554.9304000000001,238.75733642578126L555.0012,238.70554394531248L556.842,237.362384765625L557.8332,236.64095068359376L559.6032,235.34600537109375L561.6564,233.8528623046875L561.8688,233.69834619140624L563.7096,232.35497167968748L564.984,231.4270341796875L565.2672,231.22081787109374L567.0372,229.92823095703125L570.7188,227.24401464843748L571.7808,226.47112646484373L572.3472,226.05893994140627L572.418,226.0073525390625L573.9756,224.866072265625L575.25,223.9365966796875L578.082,221.8720546875L579.5688,220.78538671875L581.7636,219.18137841796877L585.516,216.44428271484375L586.2948,215.87709814453123L587.5692,214.946033203125L588.2772,214.4292158203125L588.348,214.37803857421875L589.6931999999999,213.39577587890625L591.3216,212.20778906249998L592.6668,211.22984326171874L594.7908,209.67380273437502L595.428,209.20973144531249L595.6404,209.05524609375L596.136,208.69398046875L596.8439999999999,208.17860888671873L597.0564,208.0240517578125L597.4104,207.76625830078123L598.1184,207.25106103515625L600.4548,205.5473232421875L601.8,204.56240478515625L603.0036,203.6865263671875L607.3932,200.4870615234375L609.8712,198.67845703125L611.0748,197.7991640625L611.7828,197.28373095703125L612.1368,197.02585546875L612.9156,196.45861962890626L613.3403999999999,196.14758789062498L613.836,195.7864248046875L615.1104,194.85777978515625L615.4644,194.60051953125L615.8184,194.339701171875L617.0928,193.40849267578125L617.8716000000001,192.84117480468748L618.084,192.68622802734376L619.5,191.65534130859376L620.0664,191.2436162109375L620.7744,190.72826513671876L623.2524,188.91872753906253L623.6064,188.66099560546874L627.9252,185.510595703125L627.996,185.45870068359375L630.2616,183.80303320312498L633.3059999999999,181.58359570312498L633.8724,181.17127587890624L634.4388,180.75802294921874L634.5096,180.70619970703126L636.9168,178.9483212890625L637.6956,178.37747607421875L638.5452,177.756591796875L639.7488,176.8767041015625L643.9968,173.77455908203126L645.696,172.53248291015626L647.82,170.9809541015625L648.1032,170.77467626953128L649.0944,170.051068359375L650.298,169.17444140625003L650.7228,168.86486572265625L653.6964,166.691478515625L654.8292,165.86490087890624L655.6080000000001,165.297685546875L656.2452,164.83354248046876L656.8116,164.42041259765622L658.2275999999999,163.38631640625L658.3692,163.2799423828125L658.5816,163.1244521484375L658.7232,163.0218720703125L659.148,162.7120810546875L660.5640000000001,161.67881542968752L660.7764,161.52410449218752L661.1304,161.2656650390625L661.7676,160.80171679687498L666.7236,157.1834208984375L668.1396,156.15267773437498L668.2103999999999,156.100669921875L668.352,155.99765917968747L669.3432,155.27406152343752L669.6264,155.0681220703125L670.2636,154.60409179687503L670.3344,154.55286328125L670.6884,154.2940546875L671.0423999999999,154.03647656249998L672.1044,153.262798828125L675.1488,151.03700390625L675.6444,150.67620996093748L675.9984,150.4177705078125L676.9896,149.69511621093753L677.6268,149.22919921874998L679.9632,147.5208984375L680.034,147.46876757812498L680.6712,147.00434765625002L683.3616,145.04197558593748L683.928,144.628435546875L683.9988,144.577083984375L684.282,144.37011914062498L686.5476,142.7163896484375L689.8752000000001,140.2872392578125L690.1584,140.08041796875L691.7868,138.89244140625001L693.0612,137.96448339843752L693.2736,137.8097314453125L694.7604,136.7254833984375L695.5392,136.15881152343752L697.2384,134.919134765625L697.734,134.5583818359375L698.9376,133.6820830078125L699.0792,133.5785595703125L699.2916,133.424361328125L700.7784,132.3418359375L700.92,132.23531835937501L701.274,131.97737109374998L702.0528,131.40737695312498L702.9024000000001,130.78927148437498L704.106,129.912767578125L705.3804,128.985896484375L705.8052,128.6763515625L706.5132,128.161154296875L707.8584,127.18045019531249L709.77,125.7859599609375L710.3364,125.37385546875001L711.8232,124.29087890625001L713.3100000000001,123.2047646484375L714.5844000000001,122.27688867187501L716.85,120.62584570312498L717.3456000000001,120.26552343750001L721.0272,117.58433203125003L721.1687999999999,117.48144433593745L721.8768,116.96589843750002L722.3724,116.60163867187498L724.284,115.20741503906248L725.7707999999999,114.12542285156252L726.4788,113.61217382812498L727.6116000000001,112.78661132812499L728.2488,112.32313476562501L730.5144,110.6685849609375L731.6472000000001,109.84458105468752L732.0012,109.58640820312502L735.0456,107.36750390624996L735.258,107.21254687499999L736.674,106.18065527343748L737.1696,105.8192666015625L739.0104,104.48014746093747L739.506,104.1183076171875L743.9664,100.86550195312498L744.6036,100.40356347656251L745.0992,100.04279003906248L745.8072,99.5265263671875L746.0196000000001,99.36900585937502L747.5772000000001,98.2337958984375L748.356,97.66687792968747L749.1348,97.09840136718753L749.9843999999999,96.47982421875003L750.0551999999999,96.42826757812497L750.2676,96.2742333984375L751.9668,95.0309267578125L752.3916,94.7218330078125L754.02,93.53648144531246L754.7280000000001,93.0202587890625L755.2944,92.60768261718749L759.6132,89.45366308593754L760.2504,88.98879199218749L760.8876,88.52369531250002L763.3656000000001,86.71677246093748L765.348,85.26810058593747L765.5604,85.11379980468746L768.3924,83.04591503906249L770.0916,81.80753027343752L774.6936000000001,78.44422851562501L777.6672,76.27690136718752L780.216,74.41452539062499L780.57,74.15752148437502L780.6408,74.10584179687498L780.7824,74.00250292968747L781.7736000000001,73.278474609375L782.6232,72.6588720703125L784.2515999999999,71.47278222656252L784.6764000000001,71.16280664062498L785.7384,70.38510937500001L786.1632000000001,70.0712578125L786.8711999999999,69.55384570312503L788.5704,68.31355371093747L789.774,67.43508105468749L791.3316,66.29708203125L794.0219999999999,64.33128515624998L794.8008,63.7631572265625L796.2168,62.732557617187524L796.7124,62.368318359374996L797.0663999999999,62.1104736328125L800.04,59.939373046875005L802.5888,58.07804296874997L804.5712000000001,56.63503125L804.7128,56.53191796875001L804.7836,56.48042285156254L804.9252,56.376919921875015L805.9872,55.60147851562499L806.412,55.29209765625001L806.766,55.034006835937475L808.8192,53.530004882812534L809.8104,52.806981445312545L810.5892,52.23930468750001L811.2972,51.72324609374999L811.5804,51.51628124999996L811.6512,51.46456054687502L813.6336,50.019621093750004L814.2707999999999,49.55007421875001L815.8992000000001,48.362015625000026L815.97,48.310417968750016L816.8195999999999,47.6925791015625L819.0144,46.09389257812501L819.6515999999999,45.62701171875L820.8552,44.75071289062498L821.2091999999999,44.488951171875044L821.8464,44.02371093749997L822.4128,43.610027343750005L822.9792000000001,43.196384765625L824.1827999999999,42.319040039062486L826.3068000000001,40.76739843749999L827.0147999999999,40.25039648437502L829.6343999999999,38.337530273437494L830.2716,37.8744638671875L830.3424,37.822907226562506L830.7672,37.512172851562525L831.9,36.684395507812496L832.3956,36.322494140625L834.378,34.875257812500024L834.4488000000001,34.823229492187465L835.086,34.35938378906246L835.4399999999999,34.099283203125026L836.2188,33.53127832031248L836.856,33.06404882812501L837.8472,32.341538085937486L840.5376,30.380929687500043L840.75,30.2259521484375L841.3871999999999,29.761347656249995L843.1572000000001,28.46662792968749L843.4404000000001,28.2567509765625L843.1572000000001,334.940303730011L844.1483999999999,334.2048806762695L844.5732,333.8890355300903L844.7148000000001,333.7833879318237L847.122,332.13220124816894L847.5468000000001,331.84926104736326L847.9716,331.5615136871338L848.1132,331.46395834350585L848.892,330.9013710479736L849.246,330.6597406311035L850.2372,329.9981246337891L850.8744,329.5756854858398L852.0072,328.82330767822265L853.7772,327.64732946777343L855.1224,326.7534753112793L855.7596000000001,326.32870211791993L857.034,325.4584492492676L858.9456,324.14536926269534L860.5740000000001,323.0268321533203L860.7156,322.92961614990236L860.7864,322.8809113769531L864.3972000000001,320.3961681518555L864.9636,320.00760534667967L865.1759999999999,319.8615281982422L865.8132,319.4240337524414L868.5035999999999,317.5756658935547L870.6984,316.07009509277344L872.1144,315.09437310791014L873.4596,314.1675955810547L875.6543999999999,312.6601893310547L876.2208,312.2711433105469L876.3624,312.1747437744141L878.7696000000001,310.51309313964845L879.9731999999999,309.68662060546876L880.9644,309.0048896484375L881.3892,308.71321215820313L883.3716000000001,307.3507141113281L883.584,307.20472668457035L883.6548,307.15618212890627L884.0795999999999,306.8648507080078L884.2212,306.7680948486328L885.4248,305.93835388183595L885.9912,305.54926684570313L886.6283999999999,305.11062524414064L887.6904000000001,304.3796832275391L888.8232,303.60046069335937L891.5844000000001,301.70138085937504L892.434,301.1117197265625L892.5755999999999,301.01390258789064L893.2836,300.5268933105469L894.0623999999999,299.9914112548828L895.0536,299.3113670654297L895.1952,299.2139780273437L896.3988,298.3864185791016L897.744,297.4612983398438L900.2928,295.70693701171876L902.2044,294.3905969238281L902.6292,294.09866821289063L903.2664,293.66010095214847L905.3904,292.19973193359374L907.0187999999999,291.074806640625L907.0895999999999,291.0261416015625L908.3639999999999,290.1504272460937L910.3464,288.7867756347656L910.7004,288.54245068359376L912.612,287.2254440917969L913.5324,286.59057861328125L913.674,286.4938483886719L913.7447999999999,286.44516796875L915.1608,285.47044189453123L915.5147999999999,285.2270654296875L916.506,284.5460983886719L917.214,284.05739721679686L917.568,283.81464624023437L918.0636,283.474693359375L919.4087999999999,282.5504831542969L920.2584,281.96651806640625L922.7363999999999,280.23736596679686L923.3736,279.7987294921875L927.1260000000001,277.11459521484375L928.188,276.37822631835934L928.9668,275.84072680664065L929.25,275.64570263671874L930.3828000000001,274.86582641601564L931.3032,274.2315402832031L932.7191999999999,273.25313305664065L933.3564,272.81553735351565L933.9227999999999,272.4265400390625L936.4716,270.64347290039063L937.8876,269.66391723632813L938.1,269.5171376953125L939.2328,268.7361899414062L940.3656000000001,267.95299658203123L945.3924,264.4797421875L946.0296000000001,264.04327441406247L948.2244,262.53374560546877L949.5695999999999,261.6061311035156L949.7819999999999,261.4597822265625L951.3395999999999,260.38713134765624L955.9416,257.22399609375L956.3664,256.9327338867188L956.508,256.83552685546874L957.9947999999999,255.81338159179688L959.5523999999999,254.74375561523436L961.6056000000001,253.33259765625L964.8624,251.09101171875L966.8448,249.72871874999998L971.0219999999999,246.85484619140624L972.1548,246.0774873046875L974.3496,244.568501953125L974.916,244.181314453125L976.4028,243.1591845703125L978.1727999999999,241.93801611328124L978.5268000000001,241.694044921875L979.4472,241.0624248046875L980.3676,240.43132763671875L980.7923999999999,240.1387939453125L983.766,238.08932519531248L983.8367999999999,238.04013720703125L984.1908,237.792720703125L985.2528,237.0633603515625L989.3592,234.23834765625L990.5628,233.41070361328127L992.4744,232.09469677734376L992.5451999999999,232.04607275390626L993.1116000000001,231.65738818359375L993.9612,231.07049560546875L994.8108,230.486033203125L995.8728000000001,229.75607812500002L996.1560000000001,229.56120263671875L997.3596,228.73367138671875L998.634,227.85443994140624L999.9084,226.9762646484375L1000.9703999999999,226.24707861328125L1001.6784,225.75985400390624L1001.8908,225.61425878906252L1002.7403999999999,225.0305859375L1002.8112000000001,224.98164404296875L1003.0944000000001,224.7864404296875L1005.0767999999999,223.41944091796873L1006.9175999999999,222.15304248046874L1009.254,220.54723974609374L1010.316,219.81666943359374L1012.8648000000001,218.06145703125L1013.2188,217.81798828125L1016.6171999999999,215.48139990234375L1016.9004,215.286955078125L1018.3163999999999,214.31434130859375L1021.7856,211.92573486328126L1023.6264,210.660146484375L1023.8388,210.51397705078125L1026.8124,208.465318359375L1027.9451999999999,207.68666748046874L1030.4232,205.9791767578125L1031.4852,205.24925244140624L1032.0516,204.86149072265624L1032.4764,204.5703310546875L1034.8128,202.96043701171877L1036.0164,202.12368750000002L1036.2288,201.972791015625L1036.4412,201.81835693359375L1037.3616,201.17797998046876L1039.2732,199.85500048828126L1040.5476,198.95837841796873L1041.0431999999998,198.59988134765624L1041.5388,198.25123828125L1043.0964000000001,197.15670556640626L1044.5832,196.1169697265625L1045.5036,195.472921875L1047.9816,193.736853515625L1049.61,192.6133125L1049.8224,192.4673994140625L1050.7428,191.83314404296874L1051.0259999999998,191.6385556640625L1051.4508,191.34675L1054.4952,189.25162060546873L1054.566,189.2027607421875L1055.9112,188.273572265625L1056.1236000000001,188.12715673828126L1056.69,187.73845166015624L1056.7608,187.69019677734374L1056.8316,187.6387119140625L1057.2564,187.34697802734374L1058.6724000000002,186.37281591796872L1058.814,186.2753115234375L1060.0884,185.39742333984373L1063.6284,182.95438916015624L1064.6196,182.27117138671875L1065.0444,181.97793017578127L1067.4516,180.3223037109375L1070.3544,178.32057714843748L1072.3368,176.95709472656253L1074.2484000000002,175.63947802734376L1074.6024,175.39616308593747L1075.0272,175.1047060546875L1076.6556,173.98121630859373L1078.4256,172.76149365234374L1079.2752,172.1763544921875L1079.346,172.12737158203123L1079.7708,171.8343046875L1080.4080000000001,171.397775390625L1081.6116,170.56986474609377L1082.4612,169.9856689453125L1082.886,169.69433496093748L1084.3020000000001,168.71585595703124L1084.5852,168.5220263671875L1086.2844,167.35229150390626L1086.426,167.255115234375L1087.0632,166.8162275390625L1090.6032,164.37230126953125L1092.3024,163.2040224609375L1093.9307999999999,162.083044921875L1096.4796,160.326796875L1098.1788,159.1562314453125L1098.3203999999998,159.0591064453125L1098.3912,159.0109130859375L1100.5152,157.54829589843752L1102.2852,156.33140332031252L1102.6391999999998,156.08742187500002L1103.7012,155.3576513671875L1104.126,155.0666044921875L1106.25,153.598306640625L1106.3208,153.54964160156248L1106.8872,153.15976757812498L1107.1704,152.9650458984375L1107.5952,152.6723994140625L1108.728,151.8939638671875L1111.7724,149.7985576171875L1112.6219999999998,149.2138798828125L1113.4008,148.67893359375L1114.1088,148.19152441406248L1114.1796000000002,148.14296191406248L1114.4628,147.946599609375L1114.746,147.74919140625L1114.9584,335.3599814529419L1116.162,334.4264115142822L1116.5868,334.1432418823242L1116.87,333.9542510147095L1117.0116,333.8589217300415L1118.7816,332.6695450286865L1120.1268,331.763042678833L1120.6224,331.4314204559326L1120.6932,331.3835619506836L1121.826,330.6241836090088L1122.0384,330.4820891418457L1124.304,328.96404190063475L1124.3748,328.9169674987793L1124.4456,328.86907022094726L1126.1448,327.726077545166L1127.136,327.06113607788086L1130.7468,324.546796875L1131.5964000000001,323.9554617919922L1136.0568,320.8540512084961L1139.0304,318.7907486572266L1139.3136,318.5942863769531L1140.7296,317.6058726196289L1142.4288,316.4285626831055L1142.5703999999998,316.32999188232424L1143.774,315.4951598510742L1146.3935999999999,313.67278051757813L1147.2432000000001,313.0799458007813L1148.5176000000001,312.1948927001953L1148.8716,311.94821447753907L1149.0132,311.8498077392578L1149.7212,311.357297241211L1150.9956,310.47175451660155L1152.1284,309.68465698242187L1152.624,309.33960021972655L1153.8275999999998,308.50497583007814L1154.2524,308.20459533691405L1154.748,307.86140734863284L1158.0756,305.55065368652345L1158.4296000000002,305.3058544921875L1159.5624,304.5170650634766L1159.9872,304.22175L1160.6951999999999,303.7289549560547L1161.9696,302.8417639160156L1162.4651999999999,302.4972890625L1163.1732,302.00610131835936L1163.244,301.9565595703125L1163.3148,301.90721264648437L1164.2352,301.2661768798828L1165.5804,300.33306628417967L1166.9964,299.3471403808594L1167.7752,298.8037884521484L1171.1028,296.48605700683595L1171.9524,295.89631127929687L1172.7312000000002,295.34866552734377L1174.9968,293.6726235351563L1177.2624,291.95849853515625L1179.4572,290.3868618164063L1182.0768,288.51710815429686L1183.7759999999998,287.3137097167969L1184.4132,286.85594970703124L1184.838,286.5489016113281L1185.9,285.79300415039063L1187.1036000000001,284.94056616210935L1188.0947999999999,284.1924821777344L1188.3072,284.0410678710938L1189.6524,283.0833479003906L1190.9268,334.9643223838806L1191.4932000000001,334.4292694702148L1196.5908,330.9912968444824L1198.9272,329.31907250976565L1199.4936,328.9381334838867L1199.9184,328.65403747558594L1201.6176,327.51817062377927L1201.6884,327.47097509765626L1202.184,327.1408146972656L1204.3788,325.6352112121582L1204.8036,325.3419097595215L1206.2904,324.3103905029297L1207.14,323.7221969604492L1208.3436000000002,322.88906579589843L1208.6268,322.6929752197266L1212.804,319.79710034179686L1213.7244,319.1601315307617L1214.4324000000001,318.67006530761716L1214.7156,318.47451947021483L1215.1404,318.17802136230466L1216.4856,317.24616174316407L1218.0431999999998,316.1644207763672L1218.9636,315.5268303222656L1223.1408000000001,312.6336650390625L1224.6984,311.5555744628906L1224.9816,311.3523497314453L1225.1232,311.2542634277344L1225.194,311.2053497314453L1225.902,310.71512329101563L1227.318,309.73531127929687L1228.0259999999998,309.2437313232422L1228.9464,308.6058050537109L1229.1588,308.4581590576172L1231.566,306.7887410888672L1232.2032,306.3439522705078L1235.3183999999999,304.1690577392578L1236.168,303.5806552734375L1239.9912,300.8806966552734L1241.832,299.60717944335937L1242.186,299.3631185302734L1243.6019999999999,298.39117639160156L1247.2128,295.9037504882813L1247.496,295.7096466064453L1249.7616,294.1384226074219L1253.2308,291.73641430664065L1254.6468,290.75652539062503L1256.5584,289.4219333496094" style="fill: none;" fill="none"></path></g></g></g></g></g></g><g transform="translate(82, 378)" clip-path="url(#clip_1)"><clipPath id="clip_1"><rect width="1416" height="22"></rect></clipPath><g><g><line x1="0" y1="0" x2="0" y2="5" style="visibility: inherit;" fill="rgb(0, 0, 0)" stroke="rgb(204, 204, 204)" stroke-width="1px"></line><line x1="141.6" y1="0" x2="141.6" y2="5" style="visibility: inherit;" fill="rgb(0, 0, 0)" stroke="rgb(204, 204, 204)" stroke-width="1px"></line><line x1="283.2" y1="0" x2="283.2" y2="5" style="visibility: inherit;" fill="rgb(0, 0, 0)" stroke="rgb(204, 204, 204)" stroke-width="1px"></line><line x1="424.8" y1="0" x2="424.8" y2="5" style="visibility: inherit;" fill="rgb(0, 0, 0)" stroke="rgb(204, 204, 204)" stroke-width="1px"></line><line x1="566.4" y1="0" x2="566.4" y2="5" style="visibility: inherit;" fill="rgb(0, 0, 0)" stroke="rgb(204, 204, 204)" stroke-width="1px"></line><line x1="708" y1="0" x2="708" y2="5" style="visibility: inherit;" fill="rgb(0, 0, 0)" stroke="rgb(204, 204, 204)" stroke-width="1px"></line><line x1="849.6" y1="0" x2="849.6" y2="5" style="visibility: inherit;" fill="rgb(0, 0, 0)" stroke="rgb(204, 204, 204)" stroke-width="1px"></line><line x1="991.1999999999999" y1="0" x2="991.1999999999999" y2="5" style="visibility: inherit;" fill="rgb(0, 0, 0)" stroke="rgb(204, 204, 204)" stroke-width="1px"></line><line x1="1132.8" y1="0" x2="1132.8" y2="5" style="visibility: inherit;" fill="rgb(0, 0, 0)" stroke="rgb(204, 204, 204)" stroke-width="1px"></line><line x1="1274.4" y1="0" x2="1274.4" y2="5" style="visibility: inherit;" fill="rgb(0, 0, 0)" stroke="rgb(204, 204, 204)" stroke-width="1px"></line><line x1="1416" y1="0" x2="1416" y2="5" style="visibility: inherit;" fill="rgb(0, 0, 0)" stroke="rgb(204, 204, 204)" stroke-width="1px"></line></g><g transform="translate(0, 8)"><text x="0" y="0" dx="0em" dy="0.95em" style="text-anchor: middle; visibility: hidden; font-family: &quot;Helvetica Neue&quot;, sans-serif; font-size: 12px; font-weight: 200;" fill="rgb(50, 49, 63)" stroke="none" stroke-width="1px">214k</text><text x="141.6" y="0" dx="0em" dy="0.95em" style="text-anchor: middle; visibility: inherit; font-family: &quot;Helvetica Neue&quot;, sans-serif; font-size: 12px; font-weight: 200;" fill="rgb(50, 49, 63)" stroke="none" stroke-width="1px">216k</text><text x="283.2" y="0" dx="0em" dy="0.95em" style="text-anchor: middle; visibility: inherit; font-family: &quot;Helvetica Neue&quot;, sans-serif; font-size: 12px; font-weight: 200;" fill="rgb(50, 49, 63)" stroke="none" stroke-width="1px">218k</text><text x="424.8" y="0" dx="0em" dy="0.95em" style="text-anchor: middle; visibility: inherit; font-family: &quot;Helvetica Neue&quot;, sans-serif; font-size: 12px; font-weight: 200;" fill="rgb(50, 49, 63)" stroke="none" stroke-width="1px">220k</text><text x="566.4" y="0" dx="0em" dy="0.95em" style="text-anchor: middle; visibility: inherit; font-family: &quot;Helvetica Neue&quot;, sans-serif; font-size: 12px; font-weight: 200;" fill="rgb(50, 49, 63)" stroke="none" stroke-width="1px">222k</text><text x="708" y="0" dx="0em" dy="0.95em" style="text-anchor: middle; visibility: inherit; font-family: &quot;Helvetica Neue&quot;, sans-serif; font-size: 12px; font-weight: 200;" fill="rgb(50, 49, 63)" stroke="none" stroke-width="1px">224k</text><text x="849.6" y="0" dx="0em" dy="0.95em" style="text-anchor: middle; visibility: inherit; font-family: &quot;Helvetica Neue&quot;, sans-serif; font-size: 12px; font-weight: 200;" fill="rgb(50, 49, 63)" stroke="none" stroke-width="1px">226k</text><text x="991.1999999999999" y="0" dx="0em" dy="0.95em" style="text-anchor: middle; visibility: inherit; font-family: &quot;Helvetica Neue&quot;, sans-serif; font-size: 12px; font-weight: 200;" fill="rgb(50, 49, 63)" stroke="none" stroke-width="1px">228k</text><text x="1132.8" y="0" dx="0em" dy="0.95em" style="text-anchor: middle; visibility: inherit; font-family: &quot;Helvetica Neue&quot;, sans-serif; font-size: 12px; font-weight: 200;" fill="rgb(50, 49, 63)" stroke="none" stroke-width="1px">230k</text><text x="1274.4" y="0" dx="0em" dy="0.95em" style="text-anchor: middle; visibility: inherit; font-family: &quot;Helvetica Neue&quot;, sans-serif; font-size: 12px; font-weight: 200;" fill="rgb(50, 49, 63)" stroke="none" stroke-width="1px">232k</text><text x="1416" y="0" dx="0em" dy="0.95em" style="text-anchor: middle; visibility: hidden; font-family: &quot;Helvetica Neue&quot;, sans-serif; font-size: 12px; font-weight: 200;" fill="rgb(50, 49, 63)" stroke="none" stroke-width="1px">234k</text></g><line x1="0" y1="0" x2="1416" y2="0" fill="rgb(0, 0, 0)" stroke="rgb(204, 204, 204)" stroke-width="1px"></line></g></g></g></g></svg>