<svg viewBox="0 0 1498 400" xmlns="http://www.w3.org/2000/svg"><g><g><g><g><g><line x1="70" y1="378" x2="65" y2="378" style="visibility: inherit;" fill="rgb(0, 0, 0)" stroke="rgb(204, 204, 204)" stroke-width="1px"></line><line x1="70" y1="336" x2="65" y2="336" style="visibility: inherit;" fill="rgb(0, 0, 0)" stroke="rgb(204, 204, 204)" stroke-width="1px"></line><line x1="70" y1="294" x2="65" y2="294" style="visibility: inherit;" fill="rgb(0, 0, 0)" stroke="rgb(204, 204, 204)" stroke-width="1px"></line><line x1="70" y1="252" x2="65" y2="252" style="visibility: inherit;" fill="rgb(0, 0, 0)" stroke="rgb(204, 204, 204)" stroke-width="1px"></line><line x1="70" y1="210" x2="65" y2="210" style="visibility: inherit;" fill="rgb(0, 0, 0)" stroke="rgb(204, 204, 204)" stroke-width="1px"></line><line x1="70" y1="168" x2="65" y2="168" style="visibility: inherit;" fill="rgb(0, 0, 0)" stroke="rgb(204, 204, 204)" stroke-width="1px"></line><line x1="70" y1="125.99999999999997" x2="65" y2="125.99999999999997" style="visibility: inherit;" fill="rgb(0, 0, 0)" stroke="rgb(204, 204, 204)" stroke-width="1px"></line><line x1="70" y1="84.00000000000006" x2="65" y2="84.00000000000006" style="visibility: inherit;" fill="rgb(0, 0, 0)" stroke="rgb(204, 204, 204)" stroke-width="1px"></line><line x1="70" y1="42" x2="65" y2="42" style="visibility: inherit;" fill="rgb(0, 0, 0)" stroke="rgb(204, 204, 204)" stroke-width="1px"></line><line x1="70" y1="0" x2="65" y2="0" style="visibility: inherit;" fill="rgb(0, 0, 0)" stroke="rgb(204, 204, 204)" stroke-width="1px"></line></g><g transform="translate(60, 0)"><text x="0" y="378" dx="0em" dy="0.3em" style="text-anchor: end; visibility: hidden; font-family: &quot;Helvetica Neue&quot;, sans-serif; font-size: 12px; font-weight: 200;" fill="rgb(50, 49, 63)" stroke="none" stroke-width="1px">-0.01</text><text x="0" y="336" dx="0em" dy="0.3em" style="text-anchor: end; visibility: inherit; font-family: &quot;Helvetica Neue&quot;, sans-serif; font-size: 12px; font-weight: 200;" fill="rgb(50, 49, 63)" stroke="none" stroke-width="1px">0</text><text x="0" y="294" dx="0em" dy="0.3em" style="text-anchor: end; visibility: inherit; font-family: &quot;Helvetica Neue&quot;, sans-serif; font-size: 12px; font-weight: 200;" fill="rgb(50, 49, 63)" stroke="none" stroke-width="1px">0.01</text><text x="0" y="252" dx="0em" dy="0.3em" style="text-anchor: end; visibility: inherit; font-family: &quot;Helvetica Neue&quot;, sans-serif; font-size: 12px; font-weight: 200;" fill="rgb(50, 49, 63)" stroke="none" stroke-width="1px">0.02</text><text x="0" y="210" dx="0em" dy="0.3em" style="text-anchor: end; visibility: inherit; font-family: &quot;Helvetica Neue&quot;, sans-serif; font-size: 12px; font-weight: 200;" fill="rgb(50, 49, 63)" stroke="none" stroke-width="1px">0.03</text><text x="0" y="168" dx="0em" dy="0.3em" style="text-anchor: end; visibility: inherit; font-family: &quot;Helvetica Neue&quot;, sans-serif; font-size: 12px; font-weight: 200;" fill="rgb(50, 49, 63)" stroke="none" stroke-width="1px">0.04</text><text x="0" y="125.99999999999997" dx="0em" dy="0.3em" style="text-anchor: end; visibility: inherit; font-family: &quot;Helvetica Neue&quot;, sans-serif; font-size: 12px; font-weight: 200;" fill="rgb(50, 49, 63)" stroke="none" stroke-width="1px">0.05</text><text x="0" y="84.00000000000006" dx="0em" dy="0.3em" style="text-anchor: end; visibility: inherit; font-family: &quot;Helvetica Neue&quot;, sans-serif; font-size: 12px; font-weight: 200;" fill="rgb(50, 49, 63)" stroke="none" stroke-width="1px">0.06</text><text x="0" y="42" dx="0em" dy="0.3em" style="text-anchor: end; visibility: inherit; font-family: &quot;Helvetica Neue&quot;, sans-serif; font-size: 12px; font-weight: 200;" fill="rgb(50, 49, 63)" stroke="none" stroke-width="1px">0.07</text><text x="0" y="0" dx="0em" dy="0.3em" style="text-anchor: end; visibility: hidden; font-family: &quot;Helvetica Neue&quot;, sans-serif; font-size: 12px; font-weight: 200;" fill="rgb(50, 49, 63)" stroke="none" stroke-width="1px">0.08</text></g><line x1="70" y1="0" x2="70" y2="378" fill="rgb(0, 0, 0)" stroke="rgb(204, 204, 204)" stroke-width="1px"></line></g></g><g transform="translate(70, 0)" clip-path="url(#clip_0)"><clipPath id="clip_0"><rect width="1428" height="378"></rect></clipPath><g><g><g><line x1="0" y1="0" x2="0" y2="378" fill="rgb(0, 0, 0)" stroke="rgb(60, 60, 60)" stroke-width="1px" opacity="0.25"></line><line x1="142.8" y1="0" x2="142.8" y2="378" fill="rgb(0, 0, 0)" stroke="rgb(60, 60, 60)" stroke-width="1px" opacity="0.25"></line><line x1="285.6" y1="0" x2="285.6" y2="378" fill="rgb(0, 0, 0)" stroke="rgb(60, 60, 60)" stroke-width="1px" opacity="0.25"></line><line x1="428.4" y1="0" x2="428.4" y2="378" fill="rgb(0, 0, 0)" stroke="rgb(60, 60, 60)" stroke-width="1px" opacity="0.25"></line><line x1="571.2" y1="0" x2="571.2" y2="378" fill="rgb(0, 0, 0)" stroke="rgb(60, 60, 60)" stroke-width="1px" opacity="0.25"></line><line x1="714" y1="0" x2="714" y2="378" fill="rgb(0, 0, 0)" stroke="rgb(60, 60, 60)" stroke-width="1px" opacity="0.25"></line><line x1="856.8" y1="0" x2="856.8" y2="378" fill="rgb(0, 0, 0)" stroke="rgb(60, 60, 60)" stroke-width="1px" opacity="0.25"></line><line x1="999.5999999999999" y1="0" x2="999.5999999999999" y2="378" fill="rgb(0, 0, 0)" stroke="rgb(60, 60, 60)" stroke-width="1px" opacity="0.25"></line><line x1="1142.4" y1="0" x2="1142.4" y2="378" fill="rgb(0, 0, 0)" stroke="rgb(60, 60, 60)" stroke-width="1px" opacity="0.25"></line><line x1="1285.2" y1="0" x2="1285.2" y2="378" fill="rgb(0, 0, 0)" stroke="rgb(60, 60, 60)" stroke-width="1px" opacity="0.25"></line><line x1="1428" y1="0" x2="1428" y2="378" fill="rgb(0, 0, 0)" stroke="rgb(60, 60, 60)" stroke-width="1px" opacity="0.25"></line></g><g><line x1="0" y1="378" x2="1428" y2="378" fill="rgb(0, 0, 0)" stroke="rgb(60, 60, 60)" stroke-width="1px" opacity="0.25"></line><line x1="0" y1="336" x2="1428" y2="336" fill="rgb(0, 0, 0)" stroke="rgb(60, 60, 60)" stroke-width="1px" opacity="0.25"></line><line x1="0" y1="294" x2="1428" y2="294" fill="rgb(0, 0, 0)" stroke="rgb(60, 60, 60)" stroke-width="1px" opacity="0.25"></line><line x1="0" y1="252" x2="1428" y2="252" fill="rgb(0, 0, 0)" stroke="rgb(60, 60, 60)" stroke-width="1px" opacity="0.25"></line><line x1="0" y1="210" x2="1428" y2="210" fill="rgb(0, 0, 0)" stroke="rgb(60, 60, 60)" stroke-width="1px" opacity="0.25"></line><line x1="0" y1="168" x2="1428" y2="168" fill="rgb(0, 0, 0)" stroke="rgb(60, 60, 60)" stroke-width="1px" opacity="0.25"></line><line x1="0" y1="125.99999999999997" x2="1428" y2="125.99999999999997" fill="rgb(0, 0, 0)" stroke="rgb(60, 60, 60)" stroke-width="1px" opacity="0.25"></line><line x1="0" y1="84.00000000000006" x2="1428" y2="84.00000000000006" fill="rgb(0, 0, 0)" stroke="rgb(60, 60, 60)" stroke-width="1px" opacity="0.25"></line><line x1="0" y1="42" x2="1428" y2="42" fill="rgb(0, 0, 0)" stroke="rgb(60, 60, 60)" stroke-width="1px" opacity="0.25"></line><line x1="0" y1="0" x2="1428" y2="0" fill="rgb(0, 0, 0)" stroke="rgb(60, 60, 60)" stroke-width="1px" opacity="0.25"></line></g></g></g><g><g><line x1="0" y1="336" x2="1428" y2="336" fill="rgb(0, 0, 0)" stroke="rgb(153, 153, 153)" stroke-width="1.5px"></line></g></g><g><g><line x1="-15279.599999999999" y1="0" x2="-15279.599999999999" y2="378" fill="rgb(0, 0, 0)" stroke="rgb(153, 153, 153)" stroke-width="1.5px"></line></g></g><g><g><g><g><g><path stroke="rgb(255, 112, 67)" stroke-width="2px" d="M73.185,334.85102538974024L74.8986,334.1676670613524L75.11280000000001,333.88904177174635L75.8982,333.5352118463514L76.9692,333.0455904126933L78.6114,332.3247973352456L82.96679999999999,330.74718435719103L83.18100000000001,329.773814105836L83.8236,329.0342409906814L88.2504,327.45029694111497L88.6074,326.4152088577399L90.1068,325.41558067926553L90.96360000000001,324.5995476749585L91.392,324.00181493731947L93.891,323.00669739332534L94.03380000000001,322.3738086489029L94.605,321.84907773656755L96.67559999999999,321.00949436302784L98.1036,320.143068893828L101.95920000000001,318.6441197072239L102.03059999999999,317.7266125705579L103.4586,316.8138211539365L104.7438,315.9406521711156L105.74340000000001,315.16344561624135L110.1702,313.5739327462318L112.098,312.1313906897834L113.2404,310.97651337885645L113.7402,310.15728278398615L113.81159999999998,309.6477570664458L116.16780000000001,308.74462125193105L117.1674,307.94906301073223L117.73859999999999,307.326995117759L118.09559999999999,306.86358055393043L118.2384,306.54956117070134L119.0952,306.1439526386654L119.8092,305.72033134158187L122.8794,304.6874610929687L123.4506,303.9169578970074L124.0218,303.30576030002555L125.8782,302.46880713938964L126.5208,301.80445435792143L126.80640000000001,301.3329219198934L126.9492,301.0143118664723L127.9488,300.5714044251331L128.0916,300.2696188943244L128.5914,299.9613563302955L129.1626,299.6322235753294L129.591,299.3266066426063L131.59019999999998,298.63894631945305L139.3728,296.2635303555727L140.5866,294.53299018255825L141.2292,293.33285287923434L141.3006,292.5948148960269L141.729,292.04399720694937L142.1574,291.60523162702486L143.4426,291.0169940466865L143.6568,290.6103286400546L144.2994,290.20469143421104L147.798,289.0805959458985L148.0122,288.3522233459853L148.4406,287.80756787917034L148.869,287.37300187624106L149.94,286.84184084401494L150.3684,286.4155670795796L150.7254,286.0700013455127L154.4382,284.9292522738203L154.7952,284.1551640760794L154.8666,283.6728963721928L156.1518,283.0615522038422L157.08,282.45974731275334L160.7214,281.18463415401516L161.9352,280.1074523478587L163.3632,279.101541513195L165.8622,277.8682644152584L166.0764,277.07468951546804L167.07600000000002,276.34807520391735L167.3616,275.83986958731526L170.7888,274.674116267975L171.2886,273.84827255261894L172.8594,272.95824534030527L173.7162,272.20930315751895L174.43019999999999,271.58053203939835L176.57219999999998,270.66579513859415L177.35760000000002,269.9201485938529L177.9288,269.3289061979472L178.3572,268.8668621180069L180.642,268.01591384396625L182.7126,266.98680726877257L183.85500000000002,266.0831489395583L184.9974,265.2556826848676L185.28300000000002,264.6878311383063L186.49679999999998,264.04234437628594L188.9958,263.0295227318049L191.9946,261.6709708123827L192.63719999999998,260.6947899967089L193.0656,260.000161916593L193.4226,259.4941359046574L193.9224,259.0654976179287L194.56500000000003,258.6474245733074L195.56459999999998,258.1465885845453L195.7074,257.8102915708799L195.92159999999998,257.55481553820243L196.5642,257.2408526345937L199.0632,256.4278308811693L202.2762,255.13653440254382L203.56140000000002,254.03987936364086L204.20399999999998,253.22102756015343L205.1322,252.49757665224007L205.34640000000002,252.01021821395832L205.9176,251.5755133038537L208.7736,250.6002933744059L209.98739999999998,249.71261360427533L210.70139999999998,249.00197054255483L210.91559999999998,248.52203395550532L212.3436,247.87757915607145L213.486,247.20611692280204L214.77120000000002,246.4806239295639L215.628,245.83141615323052L217.27020000000002,245.03049605686562L219.912,243.88972048520503L220.1262,243.1521362278429L220.1976,242.69181469759747L220.76879999999997,242.2731066267574L221.0544,241.95081978564764L221.5542,241.63209017232242L225.3384,240.49695041844356L225.83820000000003,239.6914728645629L226.4808,239.04805353666225L228.0516,238.27098414531278L228.33719999999997,237.73367112416582L228.9084,237.26760720931622L229.4796,236.8457134349533L229.7652,236.52085177203344L231.1932,235.9701741701384L231.5502,235.55103789961453L231.62160000000003,235.28187590954374L231.97860000000003,235.03145499299566L233.04960000000003,234.61478175086143L233.40660000000003,234.2759542188785L234.76319999999998,233.7351624919022L235.90560000000002,233.12452123481302L236.6196,232.58046114396015L237.4764,232.04058562487936L239.3328,231.2542237864171L239.9754,230.62223633684124L242.4744,229.6205997142637L242.5458,229.0018717988398L242.68859999999998,228.59389459753433L245.8302,227.56874996223686L246.40140000000002,226.81146408199453L247.04399999999998,226.1973822061967L247.1868,225.79359140066808L247.5438,225.46234312694375L249.3288,224.8201677920884L249.4002,224.41703841820157L250.1142,223.99700042447324L250.25699999999998,223.70972356701418L250.61399999999998,223.44773277941064L251.6136,223.04186355652044L252.04199999999997,222.6919633780815L252.6846,222.32233169882878L253.7556,221.83465771203868L254.184,221.43611276939885L257.9682,220.25645714280233L259.182,219.24755853579774L263.6088,217.54320389727556L263.9658,216.43211174428345L264.894,215.53392682921813L267.5358,214.3397709933038L268.5354,213.3755008344123L271.0344,212.17764573480304L276.9606,209.98779690972336L278.2458,208.35469222492796L278.6742,207.2676434244324L280.38779999999997,206.1919241860872L283.74359999999996,204.71464575024638L284.3148,203.68724992687814L286.8852,202.43229648360796L288.0276,201.39590254359953L288.2418,200.72024944384998L288.81300000000005,200.17365984296862L289.0272,199.7926403652195L291.0264,199.07023399892827L293.1684,198.106458448311L297.1668,196.53843832191248L297.5952,195.492139435866L298.7376,194.58222747865827L300.0228,193.71687212600415L300.0942,193.17990984329046L302.52180000000004,192.2581318009404L303.23580000000004,191.52866949966594L303.45,191.03827687699226L303.52139999999997,190.7263360416807L303.6642,190.50377353405457L303.7356,190.35276859030427L305.5206,189.82026006594478L307.8768,188.91903477797018L310.7328,187.67273647719088L312.94620000000003,186.37806580742276L314.874,185.1234904544358L315.231,184.28148669104604L316.8018,183.38889656126992L318.1584,182.5186448196202L319.2294,181.73245443699537L320.3718,180.97952757953274L322.4424,180.01431261705557L322.6566,179.38276254658217L324.4416,178.5644929261465L327.5118,177.3156721026575L328.9398,176.21353858893363L330.225,175.23575424066334L330.3678,174.6140048081347L330.5106,174.20554462520292L330.939,173.85512565045363L332.9382,173.15235005896568L333.9378,172.48465729404256L337.9362,171.0990808406399L338.22180000000003,170.19743337624823L339.0072,169.4635395311925L341.7918,168.3391380014189L342.71999999999997,167.4343099058967L343.077,166.8037566698373L344.2194,166.14443740587117L344.5764,165.66103926504067L344.7192,165.3359340739513L345.4332,164.96549561692862L347.7894,164.1646541301822L348.6462,163.47293779518697L352.359,162.1459587172657L353.14439999999996,161.1570849511617L354.3582,160.26499300560914L356.3574,159.23921008921596L359.0706,157.95661684284767L359.856,156.9947938943515L360.0702,156.36504120973407L364.14,154.9883599957684L364.49699999999996,154.0739376116311L365.28240000000005,153.33274180701466L370.49460000000005,151.6107608617013L371.28000000000003,150.38362801913414L371.3514,149.62984958198066L371.4942,149.14277906958102L371.8512,148.76285534944435L371.92260000000005,148.5173523178476L373.70759999999996,147.9330891460644L374.06460000000004,147.4953066998998L374.2788,147.1801660713124L374.85,146.85110435823006L376.278,146.30331718885543L376.49219999999997,145.92246161677625L376.5636,145.67643076645246L377.63460000000003,145.2658931879217L379.2054,144.63396643805586L380.1336,144.02802156930017L380.27639999999997,143.62981391861942L383.84639999999996,142.51716063567937L385.56,141.42939883559313L386.0598,140.65450097375728L386.4882,140.08495163472662L388.2018,139.32283315391643L388.41600000000005,138.81307838756618L392.62860000000006,137.4773413085865L393.8424,136.3800728645281L395.3418,135.35527108468744L395.55600000000004,134.6880565426238L398.769,133.49726204523373L398.98319999999995,132.7273977306421L400.1256,131.9851427022776L402.339,131.00442613030438L404.33820000000003,129.93817316809273L404.90940000000006,129.16115398001062L405.195,128.622237615534L405.7662,128.15436054035922L406.5516,127.67975886323987L408.40799999999996,126.94150783812367L408.765,126.41207118150811L409.90740000000005,125.81597532819043L411.0498,125.18208068603477L411.621,124.66440138813377L412.2636,124.19895256517242L413.6916,123.56846945856756L413.76300000000003,123.17257446870056L414.6198,122.72219882503057L414.76259999999996,122.4165316229755L417.4758,121.55731476579274L418.33259999999996,120.82993484279018L419.68919999999997,120.04818857157522L421.3314,119.1671320464867L422.75939999999997,118.28234011332137L426.1866,116.90250109672513L426.5436,204.27396253240835L426.75780000000003,256.62662994303133L428.4,287.572298032513L429.828,305.75692229753474L429.9708,316.62932489498405L430.0422,323.13351260719566L433.82640000000004,326.03211667298L435.25440000000003,327.38811728452873L435.82560000000007,328.0508851641877L438.03900000000004,327.86665458810114L439.2528,327.43807593483797L440.538,326.8436529733185L441.1092,326.3362091495063L443.3226,325.4497590430657L446.8926,323.9793685104298L448.96320000000003,322.5532027662306L449.7486,321.4903360332852L450.89099999999996,320.5520845875624L451.8906,319.7264415219714L453.39,318.83797962786497L456.246,317.55447774125184L457.8168,316.3709635987463L458.1738,315.56768735376494L461.601,314.1830192454308L463.029,312.9785217328459L463.1718,312.21851325086294L465.45660000000004,311.16476547748766L467.1702,310.08378246296L468.027,309.2114728413138L468.16979999999995,308.6508083863326L468.5982,308.202665980057L471.24,307.2422677131868L473.2392,306.1440990419612L473.382,305.44781902142915L473.6676,304.95539742087453L474.7386,304.3802612505861L477.66600000000005,303.26989793077155L477.8802,302.54799817380336L481.6644,301.12532100604193L481.87860000000006,300.21564178482424L483.8778,299.14820494839984L483.94919999999996,298.48923180454636L485.163,297.7772936102966L485.37719999999996,297.29457096917747L487.8048,296.3708774785001L487.9476,295.7791480088114L488.4474,295.29385555171245L491.01779999999997,294.33220203151274L492.5172,293.3652216460107L494.23080000000004,292.33779562507857L494.5878,291.6281260966944L495.0162,291.090685476046L496.94399999999996,290.26563481341674L498.37199999999996,289.3987735799007L498.729,288.7858810181053L499.79999999999995,288.13827529875226L500.157,287.656447883414L503.2272,286.5678624874155L505.0122,285.4505129585147L505.15500000000003,284.74282455918075L506.2974,284.02060947702455L506.86859999999996,283.4375664495595L507.0114,283.0504384817581L508.2966,282.48429172229174L510.5814,281.54918522829655L511.938,280.6343415391138L512.7234,279.8807702607924L512.8662,279.39145051223124L513.2946,278.9861900316601L514.2228,278.5008365277603L515.508,277.8761002280805L518.2926,276.7774831210669L519.9348,275.6925416800437L520.2918,274.949135822836L522.0054,274.05740192996467L522.7908,273.3183865276993L523.5762,272.67117276358726L524.076,272.15312013666704L524.5044,271.73110339725537L526.218,271.0336048763068L530.4306,269.5204587138338L533.0010000000001,267.9450501058485L533.0724,266.9813486608258L533.358,266.3287926061387L534.786,265.56721962949246L534.8574,265.0917914000786L534.9288,264.78792797849394L535.5,264.45666730598106L538.6415999999999,263.4431496810644L539.1414,262.7053976626235L539.3556,262.2073212844752L540.7121999999999,261.55705511466397L544.5678,260.16616010007704L545.2103999999999,259.1656198342886L545.3532,258.52856461049595L545.6388,258.0723123421757L546.0672000000001,257.68775445642996L546.2814,257.4015820409234L546.7812,257.100478099905L547.3524,256.7711578769222L547.5666,256.5182970382413L548.4234,256.1450363288904L550.3512000000001,255.4213490480533L550.6368,254.91345237459842L551.4222,254.40560766915146L552.2076,253.8975594512204L557.0628,252.335594354366L558.0624,251.13929512995168L558.6336,250.2742627674203L559.6332,249.4967239984191L559.7046,249.0116818719099L561.561,248.24045535165013L562.5606,247.51984784148894L564.3456,246.6246712991164L566.4162,245.55407936504875L566.6304,244.8565212138378L568.4868,243.95812616633674L569.772,243.0876990848023L570.0576,242.49180546958672L571.8426,241.67274338340417L575.5554000000001,240.2232443173865L576.6264,239.07776461721295L577.1976,238.24342111158865L577.269,237.7244119251281L578.8398,237.00585736659227L580.125,236.24321253792678L582.981,235.04947102484843L584.4804,233.94584450374688L586.6938,232.71200580746319L590.478,230.99658952564232L591.2633999999999,229.76534080749886L592.5486,228.69502628592335L593.2626,227.86881612984945L593.334,227.35486844926243L594.6906,226.6967943236182L596.3328,225.87908886819778L597.6894,225.0404498693329L599.8313999999999,223.98359996777663L600.4739999999999,223.18440363825493L600.6882,222.6499331892796L601.188,222.200751650409L601.9019999999999,221.7479441392875L602.1162,221.42129133513308L602.4732,221.13361593705855L603.1872,220.7778028584864L605.5434,219.95855285747922L606.9,219.1168842793946L608.1138,218.30059534200694L612.5406,216.67411789231696L615.0396000000001,215.05593847592593L616.2533999999999,213.77283555483768L616.9674,212.82000065574616L617.3244,212.1567599459265L618.1098000000001,211.55747684143626L618.5382,211.08750725568916L619.038,210.67735167611588L620.3232,210.10171452921003L620.6802,209.66505532718523L621.0372,209.3105061605979L622.3224,208.7673973533755L623.1078,208.24029352624686L623.322,207.8690723202197L624.75,207.2807218743305L625.3212,206.78171047645455L626.0352,206.29956518457917L628.5341999999999,205.36873608140104L628.8912,204.7188897330043L633.2466000000001,203.21261166325073L633.318,202.29045738453183L635.6028,201.15070696875162L638.673,199.6809846771044L639.2442,198.6531908519436L639.8154,197.89023492380196L639.8868,197.41411773946413L642.3144,196.50630368343906L643.0998,195.7596163007731L643.9566,195.09192469436616L645.1704,194.38003758620434L649.4544,192.85586127061373L651.168,191.50226624261575L653.3100000000001,190.14175930888197L653.5956,189.25256880087102L654.5952,188.4633764979985L655.809,187.6801661108581L656.2374,187.10088532296703L659.2362,185.98571333365373L660.3786,185.0247643415733L661.164,184.24794837383052L661.8066,183.6180178436495L662.3778,183.0942367620979L663.8058,182.41499188588347L663.9485999999999,181.96988777545857L664.1628000000001,181.64795088903765L664.3056,181.41858966432014L664.734,181.17166218329663L666.162,180.65893626909974L666.3762,180.2967204493375L666.7332,179.98821730864591L667.3758,179.63945597083892L672.3738,178.15424372954087L673.8018,176.8997986567194L673.8732,176.1288067610368L674.016,175.6299061364713L675.0156000000001,175.07553864638706L675.3012,174.67035098743852L675.9438,174.26372914238223L676.0151999999999,174.00170029832984L676.3722,173.7532968260888L676.7292,173.51350041258596L677.8002,173.09705290811215L680.8704,172.06319616804694L681.3702000000001,171.31584108215674L681.7272,170.77642336095633L682.7268,170.1983401692227L683.3693999999999,169.68744903304076L685.7256,168.7795925944918L685.797,168.2165288454219L686.4396,167.71525644814517L689.1528,166.7240503880712L689.7239999999999,165.9838544638951L689.7954,165.52167491388317L690.081,165.17155593795772L692.3658,164.3798770318222L695.7216000000001,163.05084897338105L696.0072,162.1807398036644L697.6494,161.2411643287852L698.9346,160.35136435158938L699.1487999999999,159.76311062412196L700.6482,159.02925430915792L701.4336000000001,158.3899018358114L703.1472,157.5708998793913L703.647,156.9528269144626L704.8607999999999,156.27430962161614L705.0036,155.8308499493384L705.2178,155.51064448584216L706.7172,154.93851835148988L706.86,154.55782943139945L707.217,154.23888705474425L708.0024000000001,153.8474502939122L708.8592,153.39568782914506L710.0730000000001,152.81708200614943L711.3582,152.14475252533728L711.7866,151.63277633371817L712.5006,151.144883044856L713.8572,150.50818684595654L715.785,149.63718722401757L716.3562000000001,148.97010400377928L717.8556000000001,148.19022046615612L719.355,147.3416115706559L720.6402,146.5072990218041L722.925,145.42828328366502L723.4248000000001,144.65466517779484L727.1376,143.25157095535548L727.2804,142.37369682517019L727.9944,141.66649007872562L728.4942,141.11463056847944L730.4219999999999,140.29551554230147L731.9214,139.42543931309754L732.6354,138.72383130493387L733.7778000000001,138.01404980959074L734.4204,137.42605478847966L736.7052,136.49456671050154L737.8476,135.64756438238L738.2046,135.04909055890187L741.2748,133.9143668500277L741.489,133.17937793062285L742.917,132.37778303459973L743.4168,131.77055484912208L745.2732000000001,130.93840224064235L745.773,130.31271425793673L750.2712,128.80141098445716L750.9138,127.73339160171784L751.4136,126.96665294103406L752.1275999999999,126.3264153667246L752.3418,125.88726697373119L753.9126,125.22761566643553L754.698,124.63401911976717L755.4834000000001,124.07952345802062L756.3402,123.53103966351551L756.4115999999999,123.18396249315859L756.6258,122.92199333251551L758.3394000000001,122.33112367237229L758.7678,121.8688119426049L760.41,121.17810811845527L761.124,120.58371049313581L761.6952,120.08323935359027L766.0506,118.68370337301076L766.6932,117.68201212295043L767.3358,116.91897138481227L769.8348000000001,115.83178090169957L771.834,114.67500121065933L772.0482,113.927216796094L774.9042,112.75870115042551L776.6177999999999,111.62663855839264L781.2588000000001,109.7773955028564L784.2576,107.91429019935788L786.8280000000001,106.14908660035053L787.1850000000001,105.00066207993456L787.2564,104.29364550798192L787.3992,103.83353062086735L788.3988,103.30587048300168L789.2556,102.77400745730432L790.8978,102.04287462103866L791.3262000000001,101.49653015535176L792.3971999999999,100.89860088825884L792.8256,100.43082673073206L793.5396,99.97048105430838L795.2531999999999,99.26364588518288L796.467,98.53459997045604L798.0378,97.7021867458082L800.751,96.52063249492983L801.5364000000001,95.6146139081975L802.9644000000001,94.71356174806715L803.4642,94.04657784378503L803.8212,93.55697248742564L806.8199999999999,92.51042585590824L809.3904,91.23734167229742L811.3896000000001,89.97351309664015L811.5324,89.17949250344611L811.6038,88.68523719909297L811.7466000000001,88.35282914043967L812.8176000000001,87.88474497915206L813.246,87.49673665595594L813.603,87.17453542371118L815.6736000000001,86.46029571902471L816.6732,85.78139987118078L817.4586,85.17753333167451L818.1726,84.6365648765339L818.4582,84.24033037775598L818.5296000000001,83.98469666215084L820.5288,83.33121319754304L821.1714,82.77659645166028L822.8136000000001,82.03275015643851L822.8850000000001,81.56859317238099L823.7418,81.07637788543093L825.9552,80.22811132484071L826.5978,79.55768240579005L827.8116,78.85242663078333L828.1686,78.33873788269057L828.8112,77.86968149990855L829.3824,77.44523496777424L829.9536,77.04757312149178L831.1673999999999,76.50573976761319L833.3094,75.64443756297959L834.0233999999999,74.94902022573791L836.6651999999999,73.87099869187739L837.3078,73.06426889381447L837.3792000000001,72.56243187595396L837.8076,72.15400911813367L838.95,71.62311781314247L839.4498,71.17962606470127L841.4490000000001,70.41391594243254L841.5204000000001,69.9365280093682L842.163,69.49000313412739L842.52,69.13230394441842L843.3054000000001,68.72166859578459L843.948,68.31403119248967L844.9476,67.82016066838997L847.6608,66.84752113896428L847.875,66.21048993633877L848.5175999999999,65.6680414126318L850.3026000000001,64.8960792688132L850.5882,64.3605163137675L850.3026000000001,172.64104661186772L851.3022,237.34897376026726L851.7306000000001,276.0619086716571L851.8734000000001,299.25226762473204L854.3009999999999,312.58202233902136L854.7294,320.4797431781383L855.1578,325.116547348618L855.3006,327.86410783716707L856.086,329.3135684817354L856.443,330.0977504060757L857.4426000000001,330.3341866444702L858.0852,330.32660939163895L859.2276,330.0559368878122L861.0126,329.47764925022517L862.3692,328.814627145884L863.0118000000001,328.26664068857286L864.2969999999999,327.6302116777566L866.2248000000001,326.7842655034999L867.867,325.8814551339829L868.0098,325.3054207671454L868.0812,324.94259204395235L871.7226,323.8472025390126L872.2938,323.0527522755061L872.508,322.5244988794562L873.1506,322.0530662429593L875.8638,321.1176763932265L878.0772,320.02509374829276L879.5052000000001,319.02526553518857L880.8618,318.0984158220725L883.0751999999999,317.01063729392513L883.6464,316.220775521201L883.7892,315.7128662639273L886.2168,314.82226211121156L887.4305999999999,313.99657562250184L888.4302,313.2608902163761L888.8585999999999,312.71668878838165L890.8578,311.9100769930765L891.072,311.37467688165214L891.1434,311.0363347148425L891.5717999999999,310.7306956926302L891.7145999999999,310.513226990659L892.9283999999999,310.09046422377764L893.4996000000001,309.69976524076185L894.1422,309.31086134053066L895.2132,308.8201160066533L896.3556000000001,308.2513021816735L899.1402,307.2415049174383L899.997,306.4280958890292L900.1397999999999,305.905626442693L900.8538,305.42076782385254L901.6392,304.9414346218094L902.6388,304.41457897424607L902.7816,304.06420427709764L903.9954,303.5628682503101L905.352,302.936686294019L907.9224,301.94408737524736L909.8502,300.885789524939L910.2786,300.1482029088893L910.9212,299.55151221028314L913.0631999999999,298.6803268335542L914.7053999999999,297.76240462614777L914.7768,297.19455624254755L916.0619999999999,296.5462566234601L918.0612,295.67839145469264L918.4182,295.0718810040212L920.3459999999999,294.24559922685955L921.2742,293.5269794951125L921.417,293.06185848952794L921.4884,292.7657002147523L922.9164,292.2459178767495L923.2733999999999,291.8486435861523L924.273,291.37133777446365L924.9870000000001,290.9134904998947L925.344,290.55361976375633L925.8438,290.2184418389228L927.2004,289.69315167957706L928.0572000000001,289.1731701385627L930.5561999999999,288.2548166806489L931.1988,287.55002730458915L934.9830000000001,286.18622447472774L936.054,285.1099256689665L936.8394000000001,284.27583787830577L937.125,283.7070659875387L938.2674000000001,283.09262455877746L939.1955999999999,282.50180842207124L940.6235999999999,281.80468687848L941.2662,281.2331952210411L941.8374,280.75410771108534L944.4078,279.84243833563846L945.8358,278.95262178803756L946.05,278.3673668862895L947.1924,277.7429621137092L948.3348000000001,277.09431483548343L953.4042,275.49045727075014L954.0468000000001,274.3755639309935L956.2601999999999,273.1790092507155L957.6168,272.136916507432L957.8309999999999,271.46052432307545L959.4018,270.679926075035L964.0428,269.1068689450584L964.4712,268.06134675889984L964.614,267.40009679764376L966.1134,266.64653166156927L967.6841999999999,265.82107691777895L969.7548,264.83339251764505L973.0392,263.45884955339363L975.0383999999999,262.1590763951107L979.251,260.3774320199945L980.3934,259.0375717887198L982.6068,257.70793329530443L983.178,256.77528604777746L984.6774,255.8596992725855L986.4624,254.88510174362216L986.8194000000001,254.21539677267288L987.7475999999999,253.59368182471403L988.6758,253.00097054988748L989.1042,252.54352131933337L992.103,251.55581261784056L992.1744,250.9460704330815L992.5314,250.4941333654054L993.6024,249.9692269994335L997.7436,248.6717788418243L998.9574,247.60556032896696L1000.8851999999999,246.50837132120526L1000.9566,245.8331599997544L1001.5278000000001,245.29294687909268L1002.3846,244.7648548925065L1003.2414,244.2449117746438L1004.3124,243.6793300775579L1004.5980000000001,243.27227673935244L1005.8118000000001,242.7405798793277L1007.0970000000001,242.11617259743457L1008.3822000000001,241.43655525185252L1009.4531999999999,240.7756008537864L1010.1672000000001,240.20986755086514L1010.3814,239.81988402243573L1011.2381999999999,239.38328162453246L1011.3096,239.10432839168115L1011.5952000000001,238.86919580562713L1013.5944,238.2536696890819L1015.4508,237.44493308066293L1017.807,236.40265441774704L1018.878,235.52390921616185L1021.4484000000001,234.38804607095494L1021.8054000000001,233.6221230894457L1025.2326,232.3527084750015L1025.5182,231.52368395698537L1026.9461999999999,230.6892778466491L1030.4448,229.3612589770763L1032.3011999999999,228.12621895874793L1032.5154,227.33458568695337L1035.5141999999998,226.15044083620995L1036.6566,225.17049160853557L1039.1556,223.99173647913653L1040.2266,223.03199410291506L1040.7978,222.32203867347238L1041.2262,221.7953694779348L1043.5824,220.9226567041082L1044.7962,220.10970854110735L1045.0104000000001,219.56975637285245L1045.2246,219.1923626208802L1046.1528,218.74454488423464L1048.0806,218.0185997430503L1049.3658,217.27313738131642L1049.8655999999999,216.70192626156876L1050.3654000000001,216.23872057222405L1051.9362,215.58261865152764L1053.4356,214.82979853614478L1054.3637999999999,214.15566416778748L1056.8627999999999,213.151692397586L1058.5049999999999,212.16150527429073L1058.7192,211.517037208268L1059.6474,210.91148140751656L1059.933,210.4810068710049L1060.3614,210.12203559895755L1063.4316000000001,209.18389451277494L1063.503,208.60415888292934L1064.8596,207.93584538378323L1065.0738000000001,207.4843669347644L1065.645,207.07945122198348L1065.7164,206.81986360476066L1065.7877999999998,206.6463463170865L1066.2162,206.44164953014484L1067.6442,205.9829822324588L1067.787,205.67416751640283L1069.0722,205.18627141867427L1072.6422,204.05164825293033L1073.6418,203.1355051480091L1074.0701999999999,202.48480103506782L1076.4978,201.52417401131473L1079.4252000000001,200.25860061440756L1081.4243999999999,199.02996387597256L1083.3522,197.83937317440706L1083.7092,197.04129896348593L1084.1376,196.46218720546887L1085.7798,195.72822724265768L1087.5648,194.86835109283277L1088.4216,194.15120876484957L1088.493,193.70407551916745L1088.9214,193.33502140278998L1089.564,192.96351665637124L1090.7778,192.4559965633227L1091.6345999999999,191.95068092959366L1092.063,191.54735574613358L1093.491,190.96906705790963L1093.7766,190.5554972773445L1095.4902,189.9054353288205L1095.633,189.48201538630673L1096.2756000000002,189.07719019358365L1099.8456,187.99488793197278L1101.5592,186.9444000982225L1103.2014,185.9293105401385L1105.7718,184.7175394056909L1107.4854,183.58885705224705L1107.6281999999999,182.87833371014614L1107.6996,182.43548478037843L1109.8416,181.66809504837232L1111.6266,180.79038280016442L1111.9836,180.1800919876472L1113.0546,179.56372819578505L1113.4830000000002,179.09414336821948L1115.625,178.30908489073227L1115.6964,177.82137093451564L1116.2676,177.39513010684817L1116.5532,177.07266387286285L1116.9816,176.7789043840319L1118.124,176.33593697884976L1121.1942,175.3523830982405L1122.051,174.56202297284352L1122.8364,173.90462722107262L1123.5504,173.34330093696408L1123.6218000000001,172.989882623164L1123.9074,172.71059670150765L1124.193,172.47542722285084L1124.4071999999999,237.6623979918341L1125.621,276.4495462856065L1126.0493999999999,299.62325801766264L1126.335,313.46169622533455L1126.4778000000001,321.731575327995L1128.2628,326.2795330670149L1129.6194,328.69285411401364L1130.1192,330.0254590044619L1130.1906,330.8083700587348L1131.333,331.0139200113711L1131.5472,331.0878177089988L1133.832,330.6041341742723L1133.9034000000001,330.29755243634276L1133.9748,330.09694564625676L1135.6884,329.5791171441081L1136.688,329.0372318982842L1140.3294,327.8381311064817L1141.1862,326.9131825754557L1145.6844,325.2808300541052L1148.6832,323.58498676709587L1148.9687999999999,322.4992781428531L1150.3968,321.50475132900687L1152.1104,320.4994467418683L1152.2531999999999,319.8620582250531L1153.4669999999999,319.18995101170395L1156.1088,318.15449258933455L1156.9656,317.3276019632816L1158.2508,316.5245443099737L1158.6078,315.9571726196408L1158.7506,315.582628330493L1159.4646,315.1871365731382L1160.7498,314.64284157457496L1161.8922,314.0434336272034L1162.3919999999998,313.56419307036117L1163.6058,312.98740412171435L1164.0342,312.53723723814335L1164.534,312.1482219301191L1167.8898,311.11431539967816L1168.2468000000001,310.4091877485225L1169.3891999999998,309.7129414689487L1169.8176,309.1929315767852L1170.5316,308.7102918858628L1171.8168,308.1135477534116L1172.3165999999999,307.636252831589L1173.0306,307.17985076080015L1173.102,306.8888620443359L1173.1734,306.69718783689825L1174.1016,306.3603128826218L1175.4582,305.83527419630275L1176.8862000000001,305.1791156838154L1177.6716,304.5974414220342L1181.0274,303.4467973453336L1181.8842,302.55248746529423L1182.6696000000002,301.8265478626204L1184.9544,300.81147943230343L1187.2392,299.6098847585432L1189.4525999999998,298.34588836416674L1192.0944,296.94164275994945L1193.808,295.68354433102036L1194.4506000000001,294.77062560214176L1194.879,294.1168587123965L1195.95,293.46364780459487L1197.1638,292.7774909776073L1198.1634,292.1075482095254L1198.3776,291.65332887023527L1199.7341999999999,291.05032251745365L1201.0194,308.67124068644586L1201.5906,319.05836785231196L1206.7314,324.0996688061605L1209.0876,326.5454090113133L1209.6588,327.88097369482756L1210.0872000000002,328.5839660424628L1211.8008,328.61260618730716L1211.8722,328.613456403624L1212.372,328.49970532344935L1214.5854,327.9104725383947L1215.0138,327.4554577477711L1216.5132,326.8256082889699L1217.3700000000001,326.24425043357985L1218.5838,325.6073031608377L1218.8694,325.1573244741031L1223.082,323.8861810660642L1224.0102,322.9033527163435L1224.7242,322.1443014204662L1225.0098,321.62129892469414L1225.4382,321.2050444189368L1226.7948,320.6333320299481L1228.3655999999999,319.9166255509671L1229.2938,319.2663850391398L1233.5064,317.87728595909414L1235.0772,316.67171326087083L1235.3627999999999,315.8782268587122L1235.5056,315.36828442206206L1235.577,315.0454382541193L1236.291,314.6825581546076L1237.719,314.1267505008249L1238.433,313.6236687149566L1239.3612,313.10175478732356L1239.5754,312.73767642245156L1242.003,311.9434649635283L1242.6456,311.31356133007574L1245.7872,310.18581868400315L1246.644,309.3063738431939L1250.4996,307.84835066714334L1252.356,306.53488483469755L1252.713,305.6627530630891L1254.141,304.80478650638247L1257.7824,303.43371637349594L1258.068,302.5442711960392L1260.3528000000001,301.4699129969547L1263.8514,299.9990102863711L1265.2794,298.77949134209166L1267.2072,297.5888967049027" style="fill: none;" fill="none"></path></g></g></g></g><g opacity="0.2"><g><g><g><path stroke="rgb(255, 112, 67)" stroke-width="2px" d="M73.185,334.85102538974024L74.8986,333.7576520643197L75.11280000000001,333.6215614937246L75.8982,333.1191078540869L76.9692,332.40634066890925L78.6114,331.3276810236275L82.96679999999999,328.4911725567654L83.18100000000001,328.35463093500584L83.8236,327.9435143005103L88.2504,325.0983246266842L88.6074,324.871964905411L90.1068,323.92157834395766L90.96360000000001,323.37816265784204L91.392,323.10638685151935L93.891,321.5151908006519L94.03380000000001,321.424921894446L94.605,321.0622034166008L96.67559999999999,319.7503324728459L98.1036,318.8435626812279L101.95920000000001,316.3958329372108L102.03059999999999,316.35040218383074L103.4586,315.4446640647948L104.7438,314.6309159360826L105.74340000000001,313.9976449906826L110.1702,311.18967473879457L112.098,309.9675837568939L113.2404,309.2442003674805L113.7402,308.9284381493926L113.81159999999998,308.8834689594805L116.16780000000001,307.3899180293083L117.1674,306.75572591274977L117.73859999999999,306.3938934020698L118.09559999999999,306.16845876351L118.2384,306.07853211835027L119.0952,305.5355398580432L119.8092,305.08489940688014L122.8794,303.13815573602915L123.4506,302.76120311021805L124.0218,302.3889639079571L125.8782,301.2133774012327L126.5208,300.8079251870513L126.80640000000001,300.6256232634187L126.9492,300.53639678657055L127.9488,299.90704326331615L128.0916,299.81694059818983L128.5914,299.49896248430014L129.1626,299.13852444291115L129.591,298.86818124353886L131.59019999999998,297.60745583474636L139.3728,292.70040640980005L140.5866,291.93717992305756L141.2292,291.5326469242573L141.3006,291.4877579212189L141.729,291.2177706733346L142.1574,290.94708325713873L143.4426,290.1346376761794L143.6568,290.000330530107L144.2994,289.59623562544584L147.798,287.3944527134299L148.0122,287.2596644461155L148.4406,286.9905846789479L148.869,286.72115287184715L149.94,286.04509929567575L150.3684,285.77615643292665L150.7254,285.5516527444124L154.4382,283.2181286662817L154.7952,282.99403177946806L154.8666,282.94949481636286L156.1518,282.14453595131636L157.08,281.55703997612L160.7214,279.27196441590786L161.9352,278.4916796386242L163.3632,277.5926752611995L165.8622,276.01834876835346L166.0764,275.88432716578245L167.07600000000002,275.25815373659134L167.3616,275.07756116241217L170.7888,272.92548628896475L171.2886,272.6095069795847L172.8594,271.62320452183485L173.7162,271.0858898833394L174.43019999999999,270.6373753622174L176.57219999999998,269.29368978738785L177.35760000000002,268.801678776741L177.9288,268.4420426040888L178.3572,268.17379599809647L180.642,266.7394914329052L182.7126,265.443147405982L183.85500000000002,264.7276614457369L184.9974,264.01448330283165L185.28300000000002,263.8360538184643L186.49679999999998,263.0741142332554L188.9958,261.5102902650833L191.9946,259.6331429332495L192.63719999999998,259.2305187731981L193.0656,258.95821979641914L193.4226,258.73509688675404L193.9224,258.4225401878357L194.56500000000003,258.0203150063753L195.56459999999998,257.3953346014023L195.7074,257.30584605038166L195.92159999999998,257.1716014891863L196.5642,256.7699082791805L199.0632,255.20829825103283L202.2762,253.1995896846056L203.56140000000002,252.3948968052864L204.20399999999998,251.9927498549223L205.1322,251.41240029037L205.34640000000002,251.27918055653572L205.9176,250.92345593869686L208.7736,249.13746348023412L209.98739999999998,248.38109394907949L210.70139999999998,247.93600594997406L210.91559999999998,247.80212907493112L212.3436,246.91089695692062L213.486,246.1989235728979L214.77120000000002,245.39238443970677L215.628,244.8576044887304L217.27020000000002,243.8291159123182L219.912,242.17855712771416L220.1262,242.0457598417997L220.1976,242.00133240222928L220.76879999999997,241.64504452049732L221.0544,241.46738952398297L221.5542,241.15399575233457L225.3384,238.79424078762528L225.83820000000003,238.48325653374192L226.4808,238.08292454481125L228.0516,237.10538005828857L228.33719999999997,236.92770159244537L228.9084,236.56851133704183L229.4796,236.21287277340886L229.7652,236.0335592776537L231.1932,235.1441577672958L231.5502,234.92233349382875L231.62160000000003,234.87813292443752L231.97860000000003,234.6558236181736L233.04960000000003,233.98977188766L233.40660000000003,233.76771292090413L234.76319999999998,232.92397490143773L235.90560000000002,232.20855934917924L236.6196,231.7643710076809L237.4764,231.23077234625814L239.3328,230.07468102872372L239.9754,229.67425516247746L242.4744,228.1181447803974L242.5458,228.07377992570397L242.68859999999998,227.98192879557607L245.8302,226.03103300929067L246.40140000000002,225.675535261631L247.04399999999998,225.2762593924999L247.1868,225.18790519237515L247.5438,224.96547071635723L249.3288,223.85690478980538L249.4002,223.8123443573713L250.1142,223.36694343388078L250.25699999999998,223.27880828082561L250.61399999999998,223.05474659800527L251.6136,222.43305972218513L252.04199999999997,222.16711311042306L252.6846,221.76788417994976L253.7556,221.10314673185346L254.184,220.8382953554392L257.9682,218.48697370290756L259.182,217.73421062529087L263.6088,214.98667193949223L263.9658,214.76547351479527L264.894,214.1866494566202L267.5358,212.5485372394323L268.5354,211.92909559607503L271.0344,210.38086308538914L276.9606,206.70302367210385L278.2458,205.90503519773483L278.6742,205.63707022368908L280.38779999999997,204.5783453285694L283.74359999999996,202.49872809648514L284.3148,202.14615619182587L286.8852,200.5498663187027L288.0276,199.84131163358686L288.2418,199.7067697942257L288.81300000000005,199.35377544164658L289.0272,199.22111114859578L291.0264,197.98662444949147L293.1684,196.660795122385L297.1668,194.18640813231468L297.5952,193.92269110679626L298.7376,193.21735954284665L300.0228,192.418839097023L300.0942,192.37446641921994L302.52180000000004,190.8754647374153L303.23580000000004,190.43447604775426L303.45,190.30268794298172L303.52139999999997,190.25842478871343L303.6642,190.1699297726154L303.7356,190.1262611746788L305.5206,189.02149727940557L307.8768,187.5671968460083L310.7328,185.80328902602193L312.94620000000003,184.4360598027706L314.874,183.24162742495537L315.231,183.01848104596138L316.8018,182.05001136660576L318.1584,181.21326720714566L319.2294,180.5531688630581L320.3718,179.85013729333878L322.4424,178.56649017333982L322.6566,178.4354374408722L324.4416,177.3370884954929L327.5118,175.442440867424L328.9398,174.5603383183479L330.225,173.7690777182579L330.3678,173.68138065934178L330.5106,173.59285435080525L330.939,173.3294971883297L332.9382,172.09818667173383L333.9378,171.48311814665794L337.9362,169.02071616053578L338.22180000000003,168.84496217966077L339.0072,168.36269876360893L341.7918,166.65253570675847L342.71999999999997,166.0770677626133L343.077,165.8579268157482L344.2194,165.155458509922L344.5764,164.93594205379486L344.7192,164.84827628731725L345.4332,164.40983793139455L347.7894,162.96339190006256L348.6462,162.4353632926941L352.359,160.15549010038373L353.14439999999996,159.67377430200574L354.3582,158.92685508728027L356.3574,157.7005357146263L359.0706,156.0327269732952L359.856,155.5520594716072L360.0702,155.4204121828079L364.14,152.92333817481992L364.49699999999996,152.7023040354252L365.28240000000005,152.22094810009L370.49460000000005,149.02778944373128L371.28000000000003,148.54292875528336L371.3514,148.49918192625043L371.4942,148.4121733009815L371.8512,148.1929697692394L371.92260000000005,148.14909777045247L373.70759999999996,147.0566943883896L374.06460000000004,146.838633030653L374.2788,146.7074551284313L374.85,146.35751178860662L376.278,145.48163643479344L376.49219999999997,145.35117825865743L376.5636,145.30738449096677L377.63460000000003,144.65008682012558L379.2054,143.6860763132572L380.1336,143.11910426616666L380.27639999999997,143.03250244259831L383.84639999999996,140.84818071126938L385.56,139.7977561354637L386.0598,139.49215418100354L386.4882,139.23062762618065L388.2018,138.1796554327011L388.41600000000005,138.0484462380409L392.62860000000006,135.47373569011688L393.8424,134.73417019844055L395.3418,133.8180684149265L395.55600000000004,133.6872347295284L398.769,131.71107029914856L398.98319999999995,131.5726012587547L400.1256,130.87176015973088L402.339,129.5333512723446L404.33820000000003,128.33879372477531L404.90940000000006,127.99562519788742L405.195,127.81386306881902L405.7662,127.45254492759702L406.5516,126.96785634756085L408.40799999999996,125.83413130044934L408.765,125.61791619658467L409.90740000000005,124.92183154821396L411.0498,124.23123872280118L411.621,123.88788244128227L412.2636,123.50077933073044L413.6916,122.62274479866028L413.76300000000003,122.57873198390007L414.6198,122.04663535952565L414.76259999999996,121.95803081989288L417.4758,120.26848948001862L418.33259999999996,119.73886495828623L419.68919999999997,118.87556916475296L421.3314,117.84554725885391L422.75939999999997,116.9551522135734L426.1866,114.83274257183075L426.5436,335.33115468593314L426.75780000000003,335.1556310589658L428.4,333.9908001667354L429.828,333.03385869506747L429.9708,332.9379287911579L430.0422,332.8897941755131L433.82640000000004,330.3800227716565L435.25440000000003,329.42211820185184L435.82560000000007,329.04503698367625L438.03900000000004,327.59030872397125L439.2528,326.7952079549432L440.538,325.95201853103936L441.1092,325.5750434137881L443.3226,324.12008388340473L446.8926,321.7737827114761L448.96320000000003,320.41395414993167L449.7486,319.8960359338671L450.89099999999996,319.1447074189782L451.8906,318.48797692358494L453.39,317.50528678670526L456.246,315.62922491133213L457.8168,314.59569238498807L458.1738,314.36277298629284L461.601,312.1060170829296L463.029,311.1717754639685L463.1718,311.07850052788854L465.45660000000004,309.5841438174248L467.1702,308.46230794116855L468.027,307.90300840884447L468.16979999999995,307.80981170386076L468.5982,307.5304523706436L471.24,305.80167031288147L473.2392,304.49684603512287L473.382,304.4033989906311L473.6676,304.21676502004266L474.7386,303.5175569951534L477.66600000000005,301.6043529510498L477.8802,301.46514853835106L481.6644,298.9913052543998L481.87860000000006,298.8511229529977L483.8778,297.54704969376326L483.94919999999996,297.5007720887661L485.163,296.70938631892204L485.37719999999996,296.57048700749874L487.8048,294.9853372424841L487.9476,294.8915538042784L488.4474,294.5659168660641L491.01779999999997,292.8897217512131L492.5172,291.9147510677576L494.23080000000004,290.7966565936804L494.5878,290.56362180411816L495.0162,290.2845245450735L496.94399999999996,289.0280588194728L498.37199999999996,288.09848172962666L498.729,287.8665421754122L499.79999999999995,287.16686671972275L500.157,286.9337067604065L503.2272,284.93498439341784L505.0122,283.7744886651635L505.15500000000003,283.6812919601798L506.2974,282.9372868537903L506.86859999999996,282.5630019083619L507.0114,282.469746530056L508.2966,281.6350715830922L510.5814,280.14652548730373L511.938,279.2620760053396L512.7234,278.75041334331036L512.8662,278.6574708893895L513.2946,278.3782993108034L514.2228,277.77280627191067L515.508,276.93899577856064L518.2926,275.1295574605465L519.9348,274.0651295185089L520.2918,273.8340270370245L522.0054,272.7198010906577L522.7908,272.20986342430115L523.5762,271.70035211741924L524.076,271.3760411962867L524.5044,271.0980782881379L526.218,269.9873570948839L530.4306,267.25073947012424L533.0010000000001,265.58193719387054L533.0724,265.53579649329185L533.358,265.34995852410793L534.786,264.4248601645231L534.8574,264.3786490559578L534.9288,264.332132846117L535.5,263.95977629721165L538.6415999999999,261.92287324368954L539.1414,261.5987696349621L539.3556,261.46020671725273L540.7121999999999,260.5816558599472L544.5678,258.0798175781965L545.2103999999999,257.664809435606L545.3532,257.572981774807L545.6388,257.38793393969536L546.0672000000001,257.11091762781143L546.2814,256.9723234176636L546.7812,256.6488221883774L547.3524,256.27717754244804L547.5666,256.13900578022003L548.4234,255.58514526486397L550.3512000000001,254.33581812679768L550.6368,254.15160736441612L551.4222,253.643840610981L552.2076,253.13548712432384L557.0628,249.9926467090845L558.0624,249.34484629333016L558.6336,248.97671422362325L559.6332,248.3304158449173L559.7046,248.28411868214604L561.561,247.08361557126042L562.5606,246.4389365762472L564.3456,245.28190648555756L566.4162,243.9481914639473L566.6304,243.81018398702142L568.4868,242.61053359508512L569.772,241.78205846250057L570.0576,241.5979650467634L571.8426,240.44415025413034L575.5554000000001,238.04899571835995L576.6264,237.35954506695268L577.1976,236.99190585315225L577.269,236.9458981454372L578.8398,235.92802552878857L580.125,235.09924529492855L582.981,233.2588587552309L584.4804,232.2904047220945L586.6938,230.86124776303768L590.478,228.42346510291097L591.2633999999999,227.9184677302837L592.5486,227.08955450356004L593.2626,226.62950089573857L593.334,226.5839469283819L594.6906,225.70968313515186L596.3328,224.65253068506718L597.6894,223.78249137103555L599.8313999999999,222.39832511544228L600.4739999999999,221.98560914397237L600.6882,221.8482275158167L601.188,221.526979342103L601.9019999999999,221.06873287260532L602.1162,220.93131212890145L602.4732,220.70210283994672L603.1872,220.24408324062824L605.5434,218.72967785596848L606.9,217.85438141226766L608.1138,217.07616193592546L612.5406,214.23440171778202L615.0396000000001,212.6286693513393L616.2533999999999,211.84818117320538L616.9674,211.39074830710885L617.3244,211.16189888119698L618.1098000000001,210.65855218470097L618.5382,210.38255287706852L619.038,210.062118306756L620.3232,209.23825880885124L620.6802,209.010066524148L621.0372,208.77868241071698L622.3224,207.95273414254186L623.1078,207.44963778555393L623.322,207.31224051117897L624.75,206.39819620549676L625.3212,206.03319337964055L626.0352,205.57634724676606L628.5341999999999,203.9724924266338L628.8912,203.74412021040914L633.2466000000001,200.95319455862042L633.318,200.90722596645355L635.6028,199.44108134508133L638.673,197.47640123963353L639.2442,197.1115001142025L639.8154,196.7458010315895L639.8868,196.69994196295735L642.3144,195.14458259940147L643.0998,194.63958522677422L643.9566,194.09038728475568L645.1704,193.31220692396164L649.4544,190.56959679722783L651.168,189.47187370061874L653.3100000000001,188.1009989082813L653.5956,187.91878303885457L654.5952,187.27958804368973L655.809,186.50535053014752L656.2374,186.23196414113045L659.2362,184.31295534968376L660.3786,183.58334085345265L661.164,183.0827244222164L661.8066,182.673122048378L662.3778,182.3085651397705L663.8058,181.39612457156178L663.9485999999999,181.30223160982132L664.1628000000001,181.16504555940625L664.3056,181.07454782724378L664.734,180.80127096176147L666.162,179.88984739780426L666.3762,179.75339671969414L666.7332,179.52546259760857L667.3758,179.11631396412847L672.3738,175.92642536759377L673.8018,175.01813104748723L673.8732,174.9723189175129L674.016,174.88155519962308L675.0156000000001,174.24398741126058L675.3012,174.06256949901578L675.9438,173.65379637479782L676.0151999999999,173.60865703225136L676.3722,173.38069161772728L676.7292,173.15380579233167L677.8002,172.4723816514015L680.8704,170.51241105794907L681.3702000000001,170.19480845332146L681.7272,169.96729677915573L682.7268,169.3312153816223L683.3693999999999,168.92111232876778L685.7256,167.41780793666837L685.797,167.37193322181702L686.4396,166.96334785223007L689.1528,165.23724129796028L689.7239999999999,164.873560577631L689.7954,164.82840558886525L690.081,164.6463774740696L692.3658,163.19235867261887L695.7216000000001,161.0573068857193L696.0072,160.8755760490894L697.6494,159.83180111646652L698.9346,159.01666438579556L699.1487999999999,158.88073003292084L700.6482,157.92846983671188L701.4336000000001,157.43087312579152L703.1472,156.34239694476128L703.647,156.0257174670696L704.8607999999999,155.25653368234632L705.0036,155.16566044092178L705.2178,155.03033629059792L706.7172,154.08032914996147L706.86,153.98679605126378L707.217,153.76047348976132L708.0024000000001,153.26029515266416L708.8592,152.71804413199422L710.0730000000001,151.949173271656L711.3582,151.13625830411908L711.7866,150.86481204628942L712.5006,150.41304311156273L713.8572,149.55314254760742L715.785,148.33068779110906L716.3562000000001,147.96947917342186L717.8556000000001,147.02039515972135L719.355,146.06869822740552L720.6402,145.25583019852635L722.925,143.80975967645645L723.4248000000001,143.49423801898953L727.1376,141.14692962169647L727.2804,141.05688562989235L727.9944,140.60567995905873L728.4942,140.28684130311012L730.4219999999999,139.06684300303456L731.9214,138.12032496929166L732.6354,137.67141929268834L733.7778000000001,136.94937756657598L734.4204,136.54406225681302L736.7052,135.09733459353447L737.8476,134.37706089019775L738.2046,134.15137982368466L741.2748,132.21228128671643L741.489,132.07689455151558L742.917,131.1753906905651L743.4168,130.85971257090566L745.2732000000001,129.6901733279228L745.773,129.3741822838783L750.2712,126.53445607423782L750.9138,126.13136252760887L751.4136,125.81654495000836L752.1275999999999,125.36605900526044L752.3418,125.2285443842411L753.9126,124.23813870549199L754.698,123.74362429976463L755.4834000000001,123.24777996540067L756.3402,122.70831397175786L756.4115999999999,122.66334673762321L756.6258,122.5290395915508L758.3394000000001,121.44481918215752L758.7678,121.1753443479538L760.41,120.14205238223076L761.124,119.69211405515665L761.6952,119.33253264427185L766.0506,116.58439940214157L766.6932,116.17947524785995L767.3358,115.774410277605L769.8348000000001,114.20099517703056L771.834,112.93983167409897L772.0482,112.80554017424583L774.9042,111.00592768192291L776.6177999999999,109.9285446703434L781.2588000000001,107.00353091955185L784.2576,105.11963224411011L786.8280000000001,103.50128120183945L787.1850000000001,103.27802529931068L787.2564,103.23312065005302L787.3992,103.14335829019547L788.3988,102.51438027620316L789.2556,101.97621291875839L790.8978,100.94617536664009L791.3262000000001,100.67701345682144L792.3971999999999,100.0017069876194L792.8256,99.72916549444199L793.5396,99.27996253967285L795.2531999999999,98.20339313149452L796.467,97.44103109836578L798.0378,96.45356690883636L800.751,94.74830111861229L801.5364000000001,94.25558602809906L802.9644000000001,93.36198350787163L803.4642,93.04610198736191L803.8212,92.82256445288658L806.8199999999999,90.94060590863228L809.3904,89.3277153968811L811.3896000000001,88.0777702331543L811.5324,87.98846161365509L811.6038,87.94385424256325L811.7466000000001,87.85421705245972L812.8176000000001,87.18261873722076L813.246,86.91472417116165L813.603,86.69123357534409L815.6736000000001,85.38893616199493L816.6732,84.76305609941483L817.4586,84.27173352241516L818.1726,83.82511219382286L818.4582,83.64597862958908L818.5296000000001,83.60124608874321L820.5288,82.35098800063133L821.1714,81.94467133283615L822.8136000000001,80.91698071360588L822.8850000000001,80.87235769629478L823.7418,80.33805495500565L825.9552,78.95571148395538L826.5978,78.55203902721405L827.8116,77.79454296827316L828.1686,77.56820476055145L828.8112,77.16609692573547L829.3824,76.80856516957283L829.9536,76.45108035206795L831.1673999999999,75.69298973679543L833.3094,74.35248425602913L834.0233999999999,73.90589421987534L836.6651999999999,72.25396639108658L837.3078,71.85417419672012L837.3792000000001,71.80967634916306L837.8076,71.54137498140335L838.95,70.82678085565567L839.4498,70.51438844203949L841.4490000000001,69.26535075902939L841.5204000000001,69.22044610977173L842.163,68.82021582126617L842.52,68.59575515985489L843.3054000000001,68.10571557283401L843.948,67.7025750875473L844.9476,67.0793548822403L847.6608,65.38856184482574L847.875,65.25494313240051L848.5175999999999,64.85436862707138L850.3026000000001,63.73813605308533L850.5882,63.55717188119888L850.3026000000001,335.0618420590181L851.3022,334.4108644828666L851.7306000000001,334.13131103874184L851.8734000000001,334.0378060543444L854.3009999999999,332.5766544104554L854.7294,332.3263244368136L855.1578,332.0717536043376L855.3006,331.9854485699907L856.086,331.4877594485879L856.443,331.2740232925862L857.4426000000001,330.68884100206196L858.0852,330.31524351239204L859.2276,329.6499281320721L861.0126,328.61021779384464L862.3692,327.82009398937225L863.0118000000001,327.44466100260615L864.2969999999999,326.6755681615323L866.2248000000001,325.5153462421149L867.867,324.5272395797074L868.0098,324.44136921688914L868.0812,324.39834895916283L871.7226,322.20411828160286L872.2938,321.8610768802464L872.508,321.7321187853813L873.1506,321.34591728821397L875.8638,319.7145916186273L878.0772,318.38621978089213L879.5052000000001,317.5255232155323L880.8618,316.7081412523985L883.0751999999999,315.378969501704L883.6464,315.0359828621149L883.7892,314.9510023780167L886.2168,313.486355882138L887.4305999999999,312.7580458894372L888.4302,312.1573621071875L888.8585999999999,311.90038664638996L890.8578,310.7001593001187L891.072,310.5715767145157L891.1434,310.528821464628L891.5717999999999,310.27223715931177L891.7145999999999,310.1870239377022L892.9283999999999,309.4563200734556L893.4996000000001,309.1137167662382L894.1422,308.72750549018383L895.2132,308.0839980058372L896.3556000000001,307.39808144420385L899.1402,305.7268090210855L899.997,305.2079823464155L900.1397999999999,305.12192227318883L900.8538,304.69347989559174L901.6392,304.22243481874466L902.6388,303.6242955029011L902.7816,303.538642231375L903.9954,302.8108642101288L905.352,301.9974133595824L907.9224,300.45518899708986L909.8502,299.29834274947643L910.2786,299.04182298481464L910.9212,298.656476162374L913.0631999999999,297.37354876846075L914.7053999999999,296.3855213150382L914.7768,296.34278366714716L916.0619999999999,295.573807194829L918.0612,294.3765937015414L918.4182,294.1621153280139L920.3459999999999,293.0061765611172L921.2742,292.44904989749193L921.417,292.3641769811511L921.4884,292.32146280258894L922.9164,291.46624436974525L923.2733999999999,291.25273215025663L924.273,290.65537905693054L924.9870000000001,290.2267195880413L925.344,290.01381365954876L925.8438,289.71567495167255L927.2004,288.90521644055843L928.0572000000001,288.39319782704115L930.5561999999999,286.87728649377823L931.1988,286.4928432404995L934.9830000000001,284.14052022993565L936.054,283.49547746032476L936.8394000000001,283.0247061923146L937.125,282.85390815138817L938.2674000000001,282.1709624156356L939.1955999999999,281.61558421701193L940.6235999999999,280.7590045630932L941.2662,280.37595773488283L941.8374,280.03547644615173L944.4078,278.4749342724681L945.8358,277.6178969666362L946.05,277.48948453366756L947.1924,276.80635495483875L948.3348000000001,276.1213439181447L953.4042,273.08467092365026L954.0468000000001,272.7032239213586L956.2601999999999,271.3841772302985L957.6168,270.5737773925066L957.8309999999999,270.44593604654074L959.4018,269.5090287029743L964.0428,266.74728325009346L964.4712,266.49306347966194L964.614,266.4082218557596L966.1134,265.51618395745754L967.6841999999999,264.5828948020935L969.7548,263.35186591744423L973.0392,261.39703510701656L975.0383999999999,260.20941665768623L979.251,257.7049654573202L980.3934,257.02778144180775L982.6068,255.7134755551815L983.178,255.37631517648697L984.6774,254.48631910979748L986.4624,253.4232054501772L986.8194000000001,253.2108393162489L987.7475999999999,252.66110940277576L988.6758,252.11190363764763L989.1042,251.85734747350216L992.103,250.07424956560135L992.1744,250.03145715594292L992.5314,249.8162277638912L993.6024,249.1818674504757L997.7436,246.72560660541058L998.9574,246.0062325596809L1000.8851999999999,244.86258780956268L1000.9566,244.82034301757812L1001.5278000000001,244.4826271981001L1002.3846,243.9727169126272L1003.2414,243.46499709784982L1004.3124,242.83095753192902L1004.5980000000001,242.66169673204422L1005.8118000000001,241.9430345892906L1007.0970000000001,241.17956167459485L1008.3822000000001,240.4171292334795L1009.4531999999999,239.78416925668716L1010.1672000000001,239.3612675964832L1010.3814,239.23490872979164L1011.2381999999999,238.7283780276775L1011.3096,238.68589854240417L1011.5952000000001,238.5164969265461L1013.5944,237.3303805142641L1015.4508,236.23182816803455L1017.807,234.83923642337322L1018.878,234.205791413784L1021.4484000000001,232.68425135314465L1021.8054000000001,232.47323861718178L1025.2326,230.4485865533352L1025.5182,230.2801471799612L1026.9461999999999,229.43766868114471L1030.4448,227.3692306727171L1032.3011999999999,226.2736589312553L1032.5154,226.14713577926156L1035.5141999999998,224.3742235600948L1036.6566,223.700567767024L1039.1556,222.223603785038L1040.2266,221.59238053858277L1040.7978,221.25710552930832L1041.2262,221.0053656846285L1043.5824,219.6135875433683L1044.7962,218.89028629660604L1045.0104000000001,218.75982812047002L1045.2246,218.62627199292183L1046.1528,218.07281827926633L1048.0806,216.9296820312738L1049.3658,216.15494383871552L1049.8655999999999,215.8451095819473L1050.3654000000001,215.54391203820703L1051.9362,214.598465770483L1053.4356,213.7005683630705L1054.3637999999999,213.14446261525154L1056.8627999999999,211.6457347422838L1058.5049999999999,210.67622458934784L1058.7192,210.55033510923386L1059.6474,210.0031477063894L1059.933,209.83529506623742L1060.3614,209.5835786908865L1063.4316000000001,207.77668288350105L1063.503,207.7345554381609L1064.8596,206.93337513506413L1065.0738000000001,206.80714926123616L1065.645,206.47207765281198L1065.7164,206.43048217892647L1065.7877999999998,206.3860703855753L1066.2162,206.1346043497324L1067.6442,205.29498128592968L1067.787,205.21094544231892L1069.0722,204.45442727208138L1072.6422,202.34971350431442L1073.6418,201.76129049062726L1074.0701999999999,201.50874486565587L1076.4978,200.0832334756851L1079.4252000000001,198.36024051904676L1081.4243999999999,197.18700876832008L1083.3522,196.05348712205887L1083.7092,195.84418764710426L1084.1376,195.59351956844327L1085.7798,194.62728729844093L1087.5648,193.5785368680954L1088.4216,193.07549527287483L1088.493,193.03337565064427L1088.9214,192.7814402282238L1089.564,192.40625953674314L1090.7778,191.6947164237499L1091.6345999999999,191.19270747900006L1092.063,190.94236797094342L1093.491,190.1016340255737L1093.7766,189.93514260649678L1095.4902,188.93034240603444L1095.633,188.84688547253606L1096.2756000000002,188.46995240449905L1099.8456,186.37143453955647L1101.5592,185.3686683475971L1103.2014,184.40667620301244L1105.7718,182.89988270401952L1107.4854,181.89583352208138L1107.6281999999999,181.81254869699478L1107.6996,181.77121138572693L1109.8416,180.51701045036313L1111.6266,179.47381442785263L1111.9836,179.26465576887128L1113.0546,178.6391825079918L1113.4830000000002,178.38976612687108L1115.625,177.1314971745014L1115.6964,177.08980000019073L1116.2676,176.7557688653469L1116.5532,176.58896452188492L1116.9816,176.33826515078545L1118.124,175.67148587107658L1121.1942,173.87705227732658L1122.051,173.37648278474808L1122.8364,172.9185335934162L1123.5504,172.50131151080132L1123.6218000000001,172.4597551524639L1123.9074,172.2916678190231L1124.193,172.12267300486562L1124.4071999999999,335.44285414530896L1125.621,334.63026872626506L1126.0493999999999,334.3838256157469L1126.335,334.2193535368424L1126.4778000000001,334.13639398198575L1128.2628,333.10146967554465L1129.6194,332.3128356845118L1130.1192,332.0243663401343L1130.1906,331.98273664014414L1131.333,331.3222449403256L1131.5472,331.19866425544024L1133.832,329.87860887218267L1133.9034000000001,329.83767982944846L1133.9748,329.79603546112776L1135.6884,328.80237439088523L1136.688,328.22440402954817L1140.3294,326.03947991877794L1141.1862,325.52575977891684L1145.6844,322.83230127207935L1148.6832,321.0412218365818L1148.9687999999999,320.87071520648897L1150.3968,320.0129611082375L1152.1104,318.9914898611605L1152.2531999999999,318.9059754498303L1153.4669999999999,318.1817901916802L1156.1088,316.6013049557805L1156.9656,316.0872660242021L1158.2508,315.31995783001184L1158.6078,315.1061150841415L1158.7506,315.0208118967712L1159.4646,314.59389893710613L1160.7498,313.82639907673L1161.8922,313.144321706146L1162.3919999999998,312.8453322350979L1163.6058,312.12222069874406L1164.0342,311.86198691278696L1164.534,311.56469896808267L1167.8898,309.5634556040168L1168.2468000000001,309.3514962717891L1169.3891999999998,308.66857204958797L1169.8176,308.41291673853993L1170.5316,307.9863323494792L1171.8168,307.2184315547347L1172.3165999999999,306.92031044885516L1173.0306,306.49524765461683L1173.102,306.45237896963954L1173.1734,306.4096765257418L1174.1016,305.85500045120716L1175.4582,305.0477161668241L1176.8862000000001,304.19487791508436L1177.6716,303.72493002936244L1181.0274,301.7208312302828L1181.8842,301.21102264523506L1182.6696000000002,300.7376384586096L1184.9544,299.28887678682804L1187.2392,297.80749274790287L1189.4525999999998,296.4498937726021L1192.0944,294.8352743536234L1193.808,293.79639668762684L1194.4506000000001,293.4012475088239L1194.879,293.13620837777853L1195.95,292.48383144289255L1197.1638,291.7482557371259L1198.1634,291.1026340574026L1198.3776,290.9719998613L1199.7341999999999,290.14581298828125L1201.0194,335.10261793993413L1201.5906,334.6390586011112L1206.7314,331.66162023693323L1209.0876,330.21401931904256L1209.6588,329.8843207200989L1210.0872000000002,329.63845456391573L1211.8008,328.6555664045736L1211.8722,328.6147317280993L1212.372,328.3290787031874L1214.5854,327.02662336081266L1215.0138,326.77293556183577L1216.5132,325.88083410076797L1217.3700000000001,325.3722136504948L1218.5838,324.6518822517246L1218.8694,324.4823564440012L1223.082,321.9794659540057L1224.0102,321.42911019176245L1224.7242,321.00572447665036L1225.0098,320.836795181036L1225.4382,320.58066266030073L1226.7948,319.77576344646513L1228.3655999999999,318.8415658324957L1229.2938,318.2910242713988L1233.5064,315.79363733902574L1235.0772,314.8633542135358L1235.3627999999999,314.68799725547433L1235.5056,314.60337076708674L1235.577,314.56116900220513L1236.291,314.1382380053401L1237.719,313.2930390201509L1238.433,312.86904603615403L1239.3612,312.318883895874L1239.5754,312.1915588751435L1242.003,310.7521477751434L1242.6456,310.3687058798969L1245.7872,308.4942047148943L1246.644,307.98720658198L1250.4996,305.6613159030676L1252.356,304.5646860860288L1252.713,304.35455540567636L1254.141,303.5178366713226L1257.7824,301.3771111741662L1258.068,301.2101034298539L1260.3528000000001,299.858375698328L1263.8514,297.7926562204957L1265.2794,296.95021292567253L1267.2072,295.8030047491193" style="fill: none;" fill="none"></path></g></g></g></g></g></g><g transform="translate(70, 378)" clip-path="url(#clip_1)"><clipPath id="clip_1"><rect width="1428" height="22"></rect></clipPath><g><g><line x1="0" y1="0" x2="0" y2="5" style="visibility: inherit;" fill="rgb(0, 0, 0)" stroke="rgb(204, 204, 204)" stroke-width="1px"></line><line x1="142.8" y1="0" x2="142.8" y2="5" style="visibility: inherit;" fill="rgb(0, 0, 0)" stroke="rgb(204, 204, 204)" stroke-width="1px"></line><line x1="285.6" y1="0" x2="285.6" y2="5" style="visibility: inherit;" fill="rgb(0, 0, 0)" stroke="rgb(204, 204, 204)" stroke-width="1px"></line><line x1="428.4" y1="0" x2="428.4" y2="5" style="visibility: inherit;" fill="rgb(0, 0, 0)" stroke="rgb(204, 204, 204)" stroke-width="1px"></line><line x1="571.2" y1="0" x2="571.2" y2="5" style="visibility: inherit;" fill="rgb(0, 0, 0)" stroke="rgb(204, 204, 204)" stroke-width="1px"></line><line x1="714" y1="0" x2="714" y2="5" style="visibility: inherit;" fill="rgb(0, 0, 0)" stroke="rgb(204, 204, 204)" stroke-width="1px"></line><line x1="856.8" y1="0" x2="856.8" y2="5" style="visibility: inherit;" fill="rgb(0, 0, 0)" stroke="rgb(204, 204, 204)" stroke-width="1px"></line><line x1="999.5999999999999" y1="0" x2="999.5999999999999" y2="5" style="visibility: inherit;" fill="rgb(0, 0, 0)" stroke="rgb(204, 204, 204)" stroke-width="1px"></line><line x1="1142.4" y1="0" x2="1142.4" y2="5" style="visibility: inherit;" fill="rgb(0, 0, 0)" stroke="rgb(204, 204, 204)" stroke-width="1px"></line><line x1="1285.2" y1="0" x2="1285.2" y2="5" style="visibility: inherit;" fill="rgb(0, 0, 0)" stroke="rgb(204, 204, 204)" stroke-width="1px"></line><line x1="1428" y1="0" x2="1428" y2="5" style="visibility: inherit;" fill="rgb(0, 0, 0)" stroke="rgb(204, 204, 204)" stroke-width="1px"></line></g><g transform="translate(0, 8)"><text x="0" y="0" dx="0em" dy="0.95em" style="text-anchor: middle; visibility: hidden; font-family: &quot;Helvetica Neue&quot;, sans-serif; font-size: 12px; font-weight: 200;" fill="rgb(50, 49, 63)" stroke="none" stroke-width="1px">214k</text><text x="142.8" y="0" dx="0em" dy="0.95em" style="text-anchor: middle; visibility: inherit; font-family: &quot;Helvetica Neue&quot;, sans-serif; font-size: 12px; font-weight: 200;" fill="rgb(50, 49, 63)" stroke="none" stroke-width="1px">216k</text><text x="285.6" y="0" dx="0em" dy="0.95em" style="text-anchor: middle; visibility: inherit; font-family: &quot;Helvetica Neue&quot;, sans-serif; font-size: 12px; font-weight: 200;" fill="rgb(50, 49, 63)" stroke="none" stroke-width="1px">218k</text><text x="428.4" y="0" dx="0em" dy="0.95em" style="text-anchor: middle; visibility: inherit; font-family: &quot;Helvetica Neue&quot;, sans-serif; font-size: 12px; font-weight: 200;" fill="rgb(50, 49, 63)" stroke="none" stroke-width="1px">220k</text><text x="571.2" y="0" dx="0em" dy="0.95em" style="text-anchor: middle; visibility: inherit; font-family: &quot;Helvetica Neue&quot;, sans-serif; font-size: 12px; font-weight: 200;" fill="rgb(50, 49, 63)" stroke="none" stroke-width="1px">222k</text><text x="714" y="0" dx="0em" dy="0.95em" style="text-anchor: middle; visibility: inherit; font-family: &quot;Helvetica Neue&quot;, sans-serif; font-size: 12px; font-weight: 200;" fill="rgb(50, 49, 63)" stroke="none" stroke-width="1px">224k</text><text x="856.8" y="0" dx="0em" dy="0.95em" style="text-anchor: middle; visibility: inherit; font-family: &quot;Helvetica Neue&quot;, sans-serif; font-size: 12px; font-weight: 200;" fill="rgb(50, 49, 63)" stroke="none" stroke-width="1px">226k</text><text x="999.5999999999999" y="0" dx="0em" dy="0.95em" style="text-anchor: middle; visibility: inherit; font-family: &quot;Helvetica Neue&quot;, sans-serif; font-size: 12px; font-weight: 200;" fill="rgb(50, 49, 63)" stroke="none" stroke-width="1px">228k</text><text x="1142.4" y="0" dx="0em" dy="0.95em" style="text-anchor: middle; visibility: inherit; font-family: &quot;Helvetica Neue&quot;, sans-serif; font-size: 12px; font-weight: 200;" fill="rgb(50, 49, 63)" stroke="none" stroke-width="1px">230k</text><text x="1285.2" y="0" dx="0em" dy="0.95em" style="text-anchor: middle; visibility: inherit; font-family: &quot;Helvetica Neue&quot;, sans-serif; font-size: 12px; font-weight: 200;" fill="rgb(50, 49, 63)" stroke="none" stroke-width="1px">232k</text><text x="1428" y="0" dx="0em" dy="0.95em" style="text-anchor: middle; visibility: hidden; font-family: &quot;Helvetica Neue&quot;, sans-serif; font-size: 12px; font-weight: 200;" fill="rgb(50, 49, 63)" stroke="none" stroke-width="1px">234k</text></g><line x1="0" y1="0" x2="1428" y2="0" fill="rgb(0, 0, 0)" stroke="rgb(204, 204, 204)" stroke-width="1px"></line></g></g></g></g></svg>