<svg viewBox="0 0 1498 400" xmlns="http://www.w3.org/2000/svg"><g><g><g><g><g><line x1="70" y1="378" x2="65" y2="378" style="visibility: inherit;" fill="rgb(0, 0, 0)" stroke="rgb(204, 204, 204)" stroke-width="1px"></line><line x1="70" y1="346.5" x2="65" y2="346.5" style="visibility: inherit;" fill="rgb(0, 0, 0)" stroke="rgb(204, 204, 204)" stroke-width="1px"></line><line x1="70" y1="315" x2="65" y2="315" style="visibility: inherit;" fill="rgb(0, 0, 0)" stroke="rgb(204, 204, 204)" stroke-width="1px"></line><line x1="70" y1="283.5" x2="65" y2="283.5" style="visibility: inherit;" fill="rgb(0, 0, 0)" stroke="rgb(204, 204, 204)" stroke-width="1px"></line><line x1="70" y1="252" x2="65" y2="252" style="visibility: inherit;" fill="rgb(0, 0, 0)" stroke="rgb(204, 204, 204)" stroke-width="1px"></line><line x1="70" y1="220.5" x2="65" y2="220.5" style="visibility: inherit;" fill="rgb(0, 0, 0)" stroke="rgb(204, 204, 204)" stroke-width="1px"></line><line x1="70" y1="189" x2="65" y2="189" style="visibility: inherit;" fill="rgb(0, 0, 0)" stroke="rgb(204, 204, 204)" stroke-width="1px"></line><line x1="70" y1="157.5" x2="65" y2="157.5" style="visibility: inherit;" fill="rgb(0, 0, 0)" stroke="rgb(204, 204, 204)" stroke-width="1px"></line><line x1="70" y1="126" x2="65" y2="126" style="visibility: inherit;" fill="rgb(0, 0, 0)" stroke="rgb(204, 204, 204)" stroke-width="1px"></line><line x1="70" y1="94.5" x2="65" y2="94.5" style="visibility: inherit;" fill="rgb(0, 0, 0)" stroke="rgb(204, 204, 204)" stroke-width="1px"></line><line x1="70" y1="63" x2="65" y2="63" style="visibility: inherit;" fill="rgb(0, 0, 0)" stroke="rgb(204, 204, 204)" stroke-width="1px"></line><line x1="70" y1="31.500000000003524" x2="65" y2="31.500000000003524" style="visibility: inherit;" fill="rgb(0, 0, 0)" stroke="rgb(204, 204, 204)" stroke-width="1px"></line><line x1="70" y1="0" x2="65" y2="0" style="visibility: inherit;" fill="rgb(0, 0, 0)" stroke="rgb(204, 204, 204)" stroke-width="1px"></line></g><g transform="translate(60, 0)"><text x="0" y="378" dx="0em" dy="0.3em" style="text-anchor: end; visibility: hidden; font-family: &quot;Helvetica Neue&quot;, sans-serif; font-size: 12px; font-weight: 200;" fill="rgb(50, 49, 63)" stroke="none" stroke-width="1px">0.99</text><text x="0" y="346.5" dx="0em" dy="0.3em" style="text-anchor: end; visibility: inherit; font-family: &quot;Helvetica Neue&quot;, sans-serif; font-size: 12px; font-weight: 200;" fill="rgb(50, 49, 63)" stroke="none" stroke-width="1px">0.991</text><text x="0" y="315" dx="0em" dy="0.3em" style="text-anchor: end; visibility: inherit; font-family: &quot;Helvetica Neue&quot;, sans-serif; font-size: 12px; font-weight: 200;" fill="rgb(50, 49, 63)" stroke="none" stroke-width="1px">0.992</text><text x="0" y="283.5" dx="0em" dy="0.3em" style="text-anchor: end; visibility: inherit; font-family: &quot;Helvetica Neue&quot;, sans-serif; font-size: 12px; font-weight: 200;" fill="rgb(50, 49, 63)" stroke="none" stroke-width="1px">0.993</text><text x="0" y="252" dx="0em" dy="0.3em" style="text-anchor: end; visibility: inherit; font-family: &quot;Helvetica Neue&quot;, sans-serif; font-size: 12px; font-weight: 200;" fill="rgb(50, 49, 63)" stroke="none" stroke-width="1px">0.994</text><text x="0" y="220.5" dx="0em" dy="0.3em" style="text-anchor: end; visibility: inherit; font-family: &quot;Helvetica Neue&quot;, sans-serif; font-size: 12px; font-weight: 200;" fill="rgb(50, 49, 63)" stroke="none" stroke-width="1px">0.995</text><text x="0" y="189" dx="0em" dy="0.3em" style="text-anchor: end; visibility: inherit; font-family: &quot;Helvetica Neue&quot;, sans-serif; font-size: 12px; font-weight: 200;" fill="rgb(50, 49, 63)" stroke="none" stroke-width="1px">0.996</text><text x="0" y="157.5" dx="0em" dy="0.3em" style="text-anchor: end; visibility: inherit; font-family: &quot;Helvetica Neue&quot;, sans-serif; font-size: 12px; font-weight: 200;" fill="rgb(50, 49, 63)" stroke="none" stroke-width="1px">0.997</text><text x="0" y="126" dx="0em" dy="0.3em" style="text-anchor: end; visibility: inherit; font-family: &quot;Helvetica Neue&quot;, sans-serif; font-size: 12px; font-weight: 200;" fill="rgb(50, 49, 63)" stroke="none" stroke-width="1px">0.998</text><text x="0" y="94.5" dx="0em" dy="0.3em" style="text-anchor: end; visibility: inherit; font-family: &quot;Helvetica Neue&quot;, sans-serif; font-size: 12px; font-weight: 200;" fill="rgb(50, 49, 63)" stroke="none" stroke-width="1px">0.999</text><text x="0" y="63" dx="0em" dy="0.3em" style="text-anchor: end; visibility: inherit; font-family: &quot;Helvetica Neue&quot;, sans-serif; font-size: 12px; font-weight: 200;" fill="rgb(50, 49, 63)" stroke="none" stroke-width="1px">1</text><text x="0" y="31.500000000003524" dx="0em" dy="0.3em" style="text-anchor: end; visibility: inherit; font-family: &quot;Helvetica Neue&quot;, sans-serif; font-size: 12px; font-weight: 200;" fill="rgb(50, 49, 63)" stroke="none" stroke-width="1px">1</text><text x="0" y="0" dx="0em" dy="0.3em" style="text-anchor: end; visibility: hidden; font-family: &quot;Helvetica Neue&quot;, sans-serif; font-size: 12px; font-weight: 200;" fill="rgb(50, 49, 63)" stroke="none" stroke-width="1px">1</text></g><line x1="70" y1="0" x2="70" y2="378" fill="rgb(0, 0, 0)" stroke="rgb(204, 204, 204)" stroke-width="1px"></line></g></g><g transform="translate(70, 0)" clip-path="url(#clip_0)"><clipPath id="clip_0"><rect width="1428" height="378"></rect></clipPath><g><g><g><line x1="0" y1="0" x2="0" y2="378" fill="rgb(0, 0, 0)" stroke="rgb(60, 60, 60)" stroke-width="1px" opacity="0.25"></line><line x1="109.84615384615385" y1="0" x2="109.84615384615385" y2="378" fill="rgb(0, 0, 0)" stroke="rgb(60, 60, 60)" stroke-width="1px" opacity="0.25"></line><line x1="219.6923076923077" y1="0" x2="219.6923076923077" y2="378" fill="rgb(0, 0, 0)" stroke="rgb(60, 60, 60)" stroke-width="1px" opacity="0.25"></line><line x1="329.53846153846155" y1="0" x2="329.53846153846155" y2="378" fill="rgb(0, 0, 0)" stroke="rgb(60, 60, 60)" stroke-width="1px" opacity="0.25"></line><line x1="439.3846153846154" y1="0" x2="439.3846153846154" y2="378" fill="rgb(0, 0, 0)" stroke="rgb(60, 60, 60)" stroke-width="1px" opacity="0.25"></line><line x1="549.2307692307693" y1="0" x2="549.2307692307693" y2="378" fill="rgb(0, 0, 0)" stroke="rgb(60, 60, 60)" stroke-width="1px" opacity="0.25"></line><line x1="659.0769230769231" y1="0" x2="659.0769230769231" y2="378" fill="rgb(0, 0, 0)" stroke="rgb(60, 60, 60)" stroke-width="1px" opacity="0.25"></line><line x1="768.9230769230769" y1="0" x2="768.9230769230769" y2="378" fill="rgb(0, 0, 0)" stroke="rgb(60, 60, 60)" stroke-width="1px" opacity="0.25"></line><line x1="878.7692307692308" y1="0" x2="878.7692307692308" y2="378" fill="rgb(0, 0, 0)" stroke="rgb(60, 60, 60)" stroke-width="1px" opacity="0.25"></line><line x1="988.6153846153846" y1="0" x2="988.6153846153846" y2="378" fill="rgb(0, 0, 0)" stroke="rgb(60, 60, 60)" stroke-width="1px" opacity="0.25"></line><line x1="1098.4615384615386" y1="0" x2="1098.4615384615386" y2="378" fill="rgb(0, 0, 0)" stroke="rgb(60, 60, 60)" stroke-width="1px" opacity="0.25"></line><line x1="1208.3076923076924" y1="0" x2="1208.3076923076924" y2="378" fill="rgb(0, 0, 0)" stroke="rgb(60, 60, 60)" stroke-width="1px" opacity="0.25"></line><line x1="1318.1538461538462" y1="0" x2="1318.1538461538462" y2="378" fill="rgb(0, 0, 0)" stroke="rgb(60, 60, 60)" stroke-width="1px" opacity="0.25"></line><line x1="1428" y1="0" x2="1428" y2="378" fill="rgb(0, 0, 0)" stroke="rgb(60, 60, 60)" stroke-width="1px" opacity="0.25"></line></g><g><line x1="0" y1="378" x2="1428" y2="378" fill="rgb(0, 0, 0)" stroke="rgb(60, 60, 60)" stroke-width="1px" opacity="0.25"></line><line x1="0" y1="346.5" x2="1428" y2="346.5" fill="rgb(0, 0, 0)" stroke="rgb(60, 60, 60)" stroke-width="1px" opacity="0.25"></line><line x1="0" y1="315" x2="1428" y2="315" fill="rgb(0, 0, 0)" stroke="rgb(60, 60, 60)" stroke-width="1px" opacity="0.25"></line><line x1="0" y1="283.5" x2="1428" y2="283.5" fill="rgb(0, 0, 0)" stroke="rgb(60, 60, 60)" stroke-width="1px" opacity="0.25"></line><line x1="0" y1="252" x2="1428" y2="252" fill="rgb(0, 0, 0)" stroke="rgb(60, 60, 60)" stroke-width="1px" opacity="0.25"></line><line x1="0" y1="220.5" x2="1428" y2="220.5" fill="rgb(0, 0, 0)" stroke="rgb(60, 60, 60)" stroke-width="1px" opacity="0.25"></line><line x1="0" y1="189" x2="1428" y2="189" fill="rgb(0, 0, 0)" stroke="rgb(60, 60, 60)" stroke-width="1px" opacity="0.25"></line><line x1="0" y1="157.5" x2="1428" y2="157.5" fill="rgb(0, 0, 0)" stroke="rgb(60, 60, 60)" stroke-width="1px" opacity="0.25"></line><line x1="0" y1="126" x2="1428" y2="126" fill="rgb(0, 0, 0)" stroke="rgb(60, 60, 60)" stroke-width="1px" opacity="0.25"></line><line x1="0" y1="94.5" x2="1428" y2="94.5" fill="rgb(0, 0, 0)" stroke="rgb(60, 60, 60)" stroke-width="1px" opacity="0.25"></line><line x1="0" y1="63" x2="1428" y2="63" fill="rgb(0, 0, 0)" stroke="rgb(60, 60, 60)" stroke-width="1px" opacity="0.25"></line><line x1="0" y1="31.500000000003524" x2="1428" y2="31.500000000003524" fill="rgb(0, 0, 0)" stroke="rgb(60, 60, 60)" stroke-width="1px" opacity="0.25"></line><line x1="0" y1="0" x2="1428" y2="0" fill="rgb(0, 0, 0)" stroke="rgb(60, 60, 60)" stroke-width="1px" opacity="0.25"></line></g></g></g><g><g><line x1="0" y1="31562.999999999975" x2="1428" y2="31562.999999999975" fill="rgb(0, 0, 0)" stroke="rgb(153, 153, 153)" stroke-width="1.5px"></line></g></g><g><g><line x1="109.84615384615385" y1="0" x2="109.84615384615385" y2="378" fill="rgb(0, 0, 0)" stroke="rgb(153, 153, 153)" stroke-width="1.5px"></line></g></g><g><g><g><g><g><path stroke="rgb(255, 112, 67)" stroke-width="2px" d="M175.5671076923077,418.44428362157055L176.19872307692307,325.48532015683975L176.39644615384614,294.3193170908612L177.41252307692307,374.057215259491L178.21439999999998,274.24370415195744L178.73616923076924,238.96497249038546L179.43918461538462,261.91256160428014L180.40583076923076,305.394411962917L181.9326923076923,331.4835221778774L181.95466153846152,297.91823830662634L184.22847692307693,228.56031798385408L184.27790769230768,186.94556579027116L186.47483076923078,285.0235894742248L188.25433846153845,245.43290368451878L190.96753846153848,270.8972422107175L191.0114769230769,310.78522032643593L192.08796923076923,285.49925719585593L194.70230769230767,221.10892931751283L196.1522769230769,280.912232590509L197.70659999999998,242.96608955430605L198.90392307692306,269.4171537325815L201.3589846153846,260.67841723954666L202.90781538461536,329.2633003437258L208.63629230769232,271.9767302062347L209.88304615384618,212.9954131237415L210.98150769230767,202.21599787424486L212.9642307692308,244.96709872454403L217.27020000000002,221.3990092347236L218.4730153846154,182.64878054083275L218.99478461538462,208.61739332449818L219.73624615384617,224.19856099469533L221.28507692307693,184.32851159682068L222.9986769230769,160.4064819580938L224.10263076923079,170.6626391748569L224.94844615384613,201.42570850491268L225.86016923076923,195.27417510294896L226.71696923076922,166.97388006177144L227.1124153846154,125.38432803706215L227.95273846153847,149.64934682223864L228.4854923076923,139.59898309334528L229.6224,133.56876485600856L231.3909230769231,179.16938391360367L231.5007692307692,132.70163034816292L233.13747692307692,154.03972820889769L234.10961538461538,142.2332119253421L234.9719076923077,184.3680521552052L235.72984615384613,234.25833129312304L236.2571076923077,190.3643737758724L237.06996923076923,188.6373742655248L239.49756923076924,236.81992455931479L239.6293846153846,216.51070473559022L240.4092923076923,204.3251728413562L240.79924615384613,270.841978704815L240.85966153846152,212.3145622228883L241.38692307692307,177.19811233373437L241.4198769230769,131.51886740023923L243.01264615384616,227.1581954401441L243.44104615384617,186.10429226408715L246.9012,161.4719503584523L249.82310769230767,171.30192021507344L250.38332307692306,177.1999021290433L251.1138,205.34806627742662L252.36055384615386,148.40883976645665L255.52412307692308,163.46405385987535L255.88112307692307,172.4971823159273L256.1118,128.69830938955707L258.111,151.63773563373556L258.57784615384617,140.79201638024273L259.539,158.893959828147L260.72533846153846,145.1457508968882L260.7967384615385,186.11557553813074L262.77396923076924,259.9162203228776L262.80143076923076,205.75910719372797L262.92775384615385,173.26483931623955L264.8720307692308,153.76827858974372L264.97638461538463,142.07034215384758L270.40278461538463,159.6609552923099L270.9739846153846,145.60594817538873L271.6660153846154,137.17294390523182L271.78684615384617,107.50376634313909L272.84686153846155,138.9210098058841L273.59381538461537,133.16198088353116L276.47178461538465,154.31593853012075L278.7016615384615,117.78956311807104L281.3599384615385,169.70186287084255L283.57883076923076,151.6304927225048L286.01192307692304,140.78767063350426L287.08841538461536,109.67260238010186L287.30261538461536,91.00356142806254L288.07703076923076,79.80213685683611L288.50543076923077,97.69065711409957L288.8734153846154,83.81439426845901L289.34575384615385,124.70738656107676L290.8506461538462,223.07130693664524L293.0915076923077,159.04278416198858L293.3935846153846,145.2350454971931L295.596,186.1691522983151L295.85413846153847,186.1202413789904L296.9580923076923,186.09089482739563L298.68816923076923,136.85453689643666L298.8199846153846,131.9220971378592L299.9459076923077,128.9626332827183L300.56653846153847,151.796329969633L300.6654,140.8871729817791L301.56613846153846,109.73230378906885L304.1530153846154,91.03938227343991L304.72970769230767,79.82362936406258L305.6688923076923,73.09417761843679L306.13024615384614,93.66588157106418L307.27264615384615,106.00890394263706L307.5472615384615,88.80534236558157L309.9144461538462,78.4832054193489L310.8591230769231,219.94617325161272L312.23769230769227,181.77707895096898L314.0446615384615,158.87562237057858L314.4291230769231,120.52537342234717L315.42323076923077,122.12459905340967L317.6366307692308,98.47475943204648L317.9002615384615,84.28485565922722L318.9273230769231,100.38028839553351L319.48204615384617,134.64692303732005L321.6460153846154,105.98815382239201L324.27133846153845,88.7928922934338L326.96806153846154,78.47573537606098L331.2246,96.89481622563449L332.5043076923077,107.94626473538204L333.10846153846154,114.5771338412278L334.7616461538462,118.55565530473666L337.64510769230765,120.94276818284476L337.8922615384615,97.76566090970687L343.1978307692308,83.8593965458241L346.0593230769231,100.12501292749448L346.3723846153846,85.27500775649594L348.4374923076923,100.97437965389548L350.3543076923077,110.39400279233729L350.84861538461536,91.43640167540167L351.9251076923077,104.67121600524166L352.4413846153846,88.0027296031464L352.9302,102.61101276188504L353.11144615384615,86.76660765713171L353.39155384615384,77.25996459427762L355.19303076923075,71.55597875656588L355.41272307692304,68.13358725393954L355.70930769230773,66.0801523523644L360.61393846153845,64.84809141141795L360.9324923076923,88.71822984685355L361.25653846153847,78.43093790811287L363.1513846153846,96.86793774486841L363.2667230769231,83.32076264692034L365.1670615384615,99.80183258815146L369.39613846153844,85.0810995528895L370.50558461538463,76.24865973173297L372.2686153846154,70.94919583903976L377.0304461538462,67.7695175034246L377.6785384615385,90.47108550205331L378.93627692307695,79.48265130123059L379.6447846153846,72.88959078073833L379.68323076923076,68.933754468443L379.7161846153846,66.56025268106441L381.5011846153846,65.13615160863799L382.3964307692308,88.89106596518485L383.15986153846154,78.5346395791102L386.66944615384614,121.53953374746817L386.86167692307697,147.3424702484802L387.80635384615385,113.60548214908744L391.40930769230766,93.36328928945386L393.93576923076927,105.82734857367228L394.1389846153846,88.69640914420478L394.1994,78.41784548652146L395.13309230769227,72.25070729191214L395.32532307692304,117.76917437514658L398.59873846153846,95.86150462508795L399.6093230769231,107.32627777505132L401.4712153846154,114.20514166502937L403.6956,118.33245999901618L404.8160307692308,170.02760099940895L404.8325076923077,127.216560599644L404.9478461538461,126.13931135978706L405.11810769230766,100.88358681587363L405.8430923076923,85.73015208952347L405.97490769230774,101.24746625371199L406.0188461538462,85.94847975222581L406.4033076923077,76.76908785133617L407.0404153846154,71.26145271080031L407.86426153846156,92.56624662648085L410.85207692307694,80.73974797588926L411.74732307692307,73.64384878553352L412.5272307692308,93.99568427132078L414.8779384615384,81.59741056279177L415.7731846153846,147.98657133767358L416.65195384615384,113.99194280260559L416.80024615384616,93.59516568156403L416.9430461538462,105.9664744089356L418.23373846153845,88.77988464536065L418.38203076923077,78.46793078721777L421.68290769230765,96.8901334723314L422.22115384615387,83.33408008339745L424.0171384615384,149.0285730500363L426.60950769230766,114.61714383002038L427.1587384615385,93.97028629801082L427.95512307692303,81.5821717788051L433.1178923076923,74.14930306728303L434.4085846153846,118.9083318403691L434.79853846153844,96.54499910422146L435.1775076923077,132.34574946253213L436.3363846153846,104.60744967751856L437.6929846153846,112.57384480651115L439.1759076923077,166.5724318839052L443.8278923076923,125.14345913034452L445.65133846153844,100.28607547820741L454.8015230769231,134.59039528692648L454.86193846153844,105.95423717215522L458.4978461538462,88.77254230329379L460.12356923076925,103.0729003819763L460.33227692307696,111.65311522918853L460.76616923076926,92.19186913751315L462.8642307692308,105.12449648250646L463.0399846153846,137.49344788950523L464.84146153846154,107.69606873370452L465.41815384615387,89.81764124022129L466.02230769230766,79.09058474413206L472.83826153846155,72.65435084647788L473.7444923076923,118.01136050788597L474.5079230769231,96.00681630473298L476.06224615384616,107.41346478283975L476.8915846153846,114.25745386970243L477.9516,93.75447232182148L478.6985538461538,81.45268339309217L479.0280923076923,74.07161003585668L479.3411538461538,69.64296602151546L479.5663384615384,66.98577961290783L480.74718461538464,65.39146776774402L481.95000000000005,64.43488066064504L487.5631384615384,63.86092839638843L488.31009230769234,63.516557037833024L488.35952307692304,63.309934222698416L490.27633846153844,87.7953355336204L491.8471384615384,102.48657632017222L492.6160615384615,86.69194579210472L493.13233846153844,77.21516747526283L494.3736,71.52910048515633L494.9612769230769,92.72683529109094L496.22450769230767,80.83610117465389L496.2354923076923,73.70166070479235L497.74587692307693,69.42099642287684L498.44340000000005,66.8525978537254L500.07461538461536,65.31155871223592L503.0679230769231,310.48068522734275L503.1338307692307,260.7071611364049L505.3692,230.8430466818436L507.42881538461535,163.7058280091055L507.5166923076923,148.03287180546187L507.61006153846154,114.0197230832764L509.5323692307692,93.61183384996656L509.796,81.36710030998131L510.4166307692308,120.68704924086217L511.3448307692308,97.61222954451591L511.4436923076923,83.76733772670883L511.74576923076927,75.46040263602669L513.2451692307693,70.47624158161602L515.2938,67.48574494896894L516.2988923076923,65.69144696937997L517.4577692307691,89.22424318162797L518.0179846153845,78.7345459089754L520.7696307692307,72.44072754538382L521.22,93.2738115272303L521.4946153846154,105.77366191633956L521.6593846153846,88.66419714980441L522.5106923076922,78.39851828988338L522.9390923076924,72.23911097392931L523.6970307692308,68.5434665843569L523.8947538461538,66.32607995061272L525.0096923076924,64.99564797036697L526.2015230769231,88.80676378221943L526.2289846153847,78.48405826933305L528.3435230769231,72.29043496159915L528.5192769230769,68.57426097695878L531.7926923076923,66.34455658617526L532.1167384615384,65.00673395170588L532.232076923077,64.20404037102213L532.8856615384615,63.72242422261189L534.5992615384615,88.04282953357057L535.445076923077,78.02569772014164L536.7742153846153,72.0154186320836L539.8169538461539,68.40925117925156L540.2892923076923,66.24555070755235L540.8769692307692,64.94733042453208L541.2998769230769,64.16839825471925L544.0075846153846,63.70103895283086L545.1115384615384,110.08741242657118L545.5619076923077,91.2524474559441L546.2704153846154,79.95146847356784L547.6929230769231,73.17088108413935L548.1487846153846,69.102528650485L548.6540769230769,66.66151719029239L548.6540769230769,89.80628531417682L552.6305076923077,79.08377118850535L553.4433692307692,97.25963771310114L555.5963538461539,108.16515762785787L556.7552307692308,139.31784457671398L558.1173230769231,133.40008174603045L561.0941538461539,105.24004904761688L561.3028615384616,88.3440294285694L561.8026615384615,78.20641765714237L562.7693076923077,72.1238505942847L562.9670307692307,68.47431035657155L563.1757384615385,66.28458621394361L563.6041384615385,89.58012672836406L564.1149230769231,78.94807603701912L565.0211538461538,72.56884562221285L567.9760153846154,68.74130737332774L568.0693846153846,66.44478442399804L568.5472153846154,65.0668706543974L569.0909538461539,64.24012239263914L569.7665076923076,63.7440734355842L572.2764923076923,63.44644406135194L573.5671846153847,63.26786643681112L574.8633692307692,63.16071986208601L575.1764307692308,63.096431917250925L575.8904307692308,63.05785915034983L579.2132769230769,63.0347154902085L580.3062461538461,63.02082929412654L582.6569538461539,63.0124975764752L583.8103384615384,87.61687354588582L584.4968769230769,77.7701241275301L584.766,71.86207447651668L585.0406153846154,68.31724468591L585.996276923077,66.19034681154739L587.9240769230769,64.9142080869284L588.1986923076923,64.14852485215567L588.4238769230769,63.689114911292734L588.7973538461538,63.413468946777016L589.6431692307692,63.24808136806479L589.9122923076923,112.36759882083811L592.8506769230769,92.62055929250147L593.0264307692307,80.77233557549948L593.8118307692307,73.66340134529833L595.0750615384616,69.39804080717897L597.8871230769231,66.8388244843074L599.0789538461539,65.30329469058444L600.5289230769231,64.38197681434929L600.8969076923076,63.82918608860814L603.2146615384615,63.497511653164224L606.7077692307691,87.90788199189637L606.9054923076924,77.94472919513646L612.6229846153847,96.57621251708184L614.3201076923077,107.7551025102477L618.9281538461538,114.46243650614718L620.5813384615384,93.8774619036883L621.3722307692308,106.13585214221155L622.8936,88.88151128532553L624.1183846153846,78.52890677119535L627.2874461538462,72.31734406271647L628.3749230769231,68.59040643762921L629.0230153846154,140.18236886257603L629.2646769230769,109.30942131754563L629.5008461538462,115.39502779052737L631.5659538461539,119.04639167431918L632.1536307692307,96.62783500459153L635.4819692307692,83.1767010027549L636.0806307692308,75.10602060165155L637.0362923076923,94.8729873609895L638.5247076923077,82.12379241659511L641.2653692307692,74.47427544995776L642.2100461538462,94.49394026997675L642.7098461538462,81.89636416198675L644.1323538461538,74.33781849719344L644.3026153846154,69.80269109831676L644.5552615384615,67.08161465899076L644.8188923076923,65.44896879539584L645.1594153846154,89.0787562772382L645.5988,78.64725376634362L646.2194307692307,72.38835225980478L646.6258615384615,68.63301135588358L647.3288769230769,66.37980681353082L647.7133384615385,65.0278840881171L648.6360461538461,64.21673045287093L650.0255999999999,63.73003827172255L651.8820000000001,63.43802296303426L652.4861538461539,63.262813777821975L653.5461692307692,63.157688266691764L653.8482461538462,87.70398796001712L654.650123076923,77.82239277601099L654.8094,71.89343566560729L655.7046461538462,68.33606139936438L655.7705538461538,90.81101183962141L659.3680153846153,104.29598210377003L659.9447076923077,87.77758926226204L661.6857692307692,77.86655355735718L662.6688923076923,71.9199321344143L664.821876923077,68.35195928064928L665.0635384615384,66.21117556838817L666.9913384615385,89.5360803410336L670.4844461538461,78.92164820462017L672.0113076923077,72.55298892277136L674.713523076923,68.73179335366217L678.4592769230769,66.43907601219729L678.5142000000001,65.06344560731696L678.7338923076923,64.23806736439161L679.2062307692307,63.74284041863564L680.1179538461538,63.4457042511828L683.3858769230769,63.26742255070826L683.4847384615385,63.16045353042426L683.5616307692308,63.096272118253864L685.5608307692307,87.66713827095299L687.3128769230769,77.8002829625704L688.3728923076924,96.48954477754086L689.6526,83.09372686652313L690.811476923077,99.66561111991103L692.453676923077,84.99936667194527L694.1892461538462,76.19962000316849L696.0346615384616,70.91977200190252L696.5893846153847,67.75186320114148L700.2417692307693,65.8511179206842L701.3512153846154,64.71067075240984L701.4775384615385,64.02640245144522L701.5709076923076,63.61584147086853L701.9388923076923,63.3695048825204L703.9326,63.221702929510855L704.0534307692308,87.7423967577065L709.5182769230769,102.45481305462243L709.946676923077,86.67288783277206L710.3256461538462,77.20373269966399L710.8584000000001,71.522239619797L712.1051538461538,92.72271877187745L714.0714,105.44300626312366L715.8618923076923,88.4658037578742L715.9168153846153,102.88885725472306L717.8775692307692,111.54268935283665L719.7010153846154,92.12561361170339L720.9038307692308,154.30349316702265L722.9964,363.87584590021476L723.0293538461538,317.3536325401281L724.2431538461539,240.22155452407821L726.6872307692307,169.33293271444833L727.9010307692308,126.79975962867039L729.6146307692308,125.88923077720082L731.3062615384615,125.34291346632187L731.9927999999999,125.0151230797959L732.6408923076924,100.20907384787893L733.9260923076923,134.5441943087273L734.8707692307692,105.92651658523778L737.2324615384616,113.36528495113987L738.6000461538462,93.21917097068393L738.759323076923,81.13150258241035L740.6596615384616,98.48827654944336L742.3787538461538,84.29296592966745L744.2900769230769,75.77577955779907L744.4109076923077,70.66546773467877L746.4815076923077,67.59928064080793L747.3767538461537,65.75956838448474L749.4803076923077,64.6557410306902L749.5956461538462,88.60281961841753L750.3590769230768,78.36169177105194L750.6062307692308,72.21701506263116L752.5285384615385,68.530209037578L752.5505076923076,66.3181254225475L753.7588153846153,64.99087525352923L754.1377846153846,64.19452515211685L755.5273384615384,63.71671509126867L756.5598923076923,112.64877905476254L758.7623076923077,142.00801743285749L758.9105999999999,110.40481045971381L760.2617076923076,116.0522612758304L761.0965384615384,94.8313567654996L763.6559538461539,82.09881405929906L764.963123076923,74.45928843557874L766.8799384615385,69.87557306134795L768.8132307692307,67.1253438368081L769.5382153846153,65.47520630208413L769.8128307692308,64.48512378125048L769.8787384615384,63.89107426875029L770.9991692307692,63.53464456125158L773.0148461538462,87.93016173675437L773.2510153846155,77.95809704205334L773.5530923076923,121.19360822523407L775.7005846153846,97.91616493513976L775.7884615384614,83.94969896108455L779.3859230769231,75.5698193766521L779.9845846153846,70.54189162599124L780.1054153846154,92.13450997559193L781.6542461538462,80.48070598535378L782.7582,98.09779859121085L786.2348307692307,84.05867915472788L786.6028153846154,75.63520749283674L787.4925692307693,70.58112449570274L789.0853384615385,116.76742469742231L789.3654461538462,119.86982981845193L790.6451538461538,97.12189789107049L794.2371230769231,83.47313873464088L795.4948615384616,75.28388324078594L797.0162307692308,70.37032994447156L799.1088,92.03157296668218L800.2237384615383,80.4189437800107L801.4540153846153,73.4513662680057L801.7231384615384,69.27081976080484L802.5854307692308,66.7624918564843L803.8266923076923,65.25749511389131L805.2876461538461,64.35449706833407L805.4853692307692,63.81269824100042L806.0071384615384,88.09699394460097L806.0455846153845,78.05819636676193L806.4410307692307,72.0349178200579L806.4410307692307,68.42095069203617L808.6104923076922,66.25257041522099L809.6265692307692,64.9515422491312L810.6481384615386,64.1709253494787L811.2907384615385,63.702555209687944L813.4821692307693,63.42153312581206L814.9486153846154,63.252919875486555L815.300123076923,63.151751925293354L815.404476923077,63.09105115517599L815.8932923076923,63.054630693106276L816.3436615384616,63.032778415863106L816.4644923076924,63.01966704951644L817.2389076923076,63.01180022970988L821.5229076923077,63.007080137824516L822.0941076923076,63.00424808269611L823.1376461538462,63.00254884961839L823.917553846154,112.220279309771L826.4275384615386,92.53216758586188L826.7131384615385,80.71930055151853L828.6684,73.63158033091185L829.3000153846154,69.37894819854642L832.4690769230768,66.82736891912646L832.5404769230769,89.90579635147515L832.826076923077,103.75285281088367L833.1336461538463,87.45171168652877L833.5620461538462,77.67102701191868L834.4737692307691,71.8026162071526L834.6934615384615,117.50031972429082L835.5337846153847,120.30956683457515L835.7095384615385,97.38574010074512L836.808,83.63144406044847L837.8405538461539,75.37886643626979L838.2689538461537,70.42731986176187L838.6424307692308,67.45639191705783L839.1092769230769,65.67383515023539L839.4607846153847,89.21367609013913L839.8452461538461,78.72820565408273L844.9860461538461,72.43692339244967L846.6776769230769,68.66215403546914L847.6937538461539,91.00666742127862L848.1056769230769,79.80400045276718L849.0668307692307,73.08240027166102L849.2755384615385,69.04944016299595L849.5556461538462,91.23903909780034L850.3300615384616,79.9434234586816L851.4120461538461,73.16605407520825L852.856523076923,69.09963244512494L853.6638923076923,66.65977946707358L855.6521076923077,65.19586768024556L855.7674461538461,64.31752060814733L858.3872769230769,63.79051236488772L858.6948461538461,63.4743074189326L858.711323076923,63.28458445135891L859.6065692307692,63.17075067081464L863.242476923077,63.1024504024881L866.9497846153847,87.67084524149351L867.350723076923,77.80250714489472L867.883476923077,71.8815042869382L871.1184461538462,68.32890257216434L872.0466461538463,66.19734154329723L872.2169076923077,158.25198303572154L873.5076,120.15118982143156L874.2435692307693,97.29071389285963L874.3039846153847,83.5744283357165L874.6005692307692,75.34465700142988L876.2153076923076,70.40679420085792L877.6103538461539,67.44407652051473L877.9069384615384,65.66644591230886L878.9340000000001,64.59986754738463L880.0709076923077,88.56929552843354L880.345523076923,78.34157731706154L880.4993076923078,72.20494639023622L881.7954923076923,68.52296783414317L882.8664923076923,66.31378070048589L884.0473384615385,89.59764342029496L884.755846153846,78.95858605217632L885.3984461538462,72.5751516313058L886.2717230769232,68.74509097878416L886.5847846153846,115.66580458727253L886.733076923077,168.42760775236417L887.7711230769231,126.25656465141711L887.9029384615384,100.95393879085026L888.5180769230768,85.7723632745109L891.072,76.66341796470579L893.7852,71.19805077882279L895.3230461538462,67.9188304672951L895.3285384615385,65.95129828037705L896.4874153846154,64.77077896822556L896.6302153846153,64.06246738093603L897.1684615384615,63.637480428560195L897.1684615384615,87.99186325713538L898.6184307692307,77.99511795428265L899.2006153846154,71.99707077256886L899.6784461538462,93.00761746354061L900.8538,81.00457047812296L901.0515230769231,98.41211728687097L901.7545384615385,158.07539537212182L901.9028307692308,120.04523722327446L902.2433538461538,97.22714233396607L902.9134153846154,83.53628540037829L908.2684153846154,75.32177124022621L909.2405538461538,70.39306274413576L910.3719692307692,67.43583764648076L910.6246153846154,65.66150258788707L910.6795384615384,64.59690155273222L913.1016461538461,63.95814093164006L916.5892615384615,88.1842595589826L917.2758,102.71993073539232L918.2644153846155,86.83195844123543L921.4938923076924,77.2991750647426L924.3883384615385,71.57950503884422L925.6735384615386,68.14770302330794L926.3051538461539,66.08862181398547L926.6346923076923,64.85317308839268L928.1231076923077,64.111903853037L928.2494307692308,63.66714231182078L928.4142,63.40028538709106L930.0783692307692,63.24017123225394L930.2651076923078,63.144102739351695L930.5452153846154,63.0864616436117L931.2811846153845,63.05187698616635L931.8908307692309,87.6405011916977L932.3137384615384,77.78430071501998L935.2521230769231,71.87058042901202L937.2348461538462,68.3223482574079L941.7824769230768,90.80278395444822L942.6612461538462,79.68167037266755L942.837,73.00900222359911L943.8311076923077,69.00540133415882L945.8742461538461,91.21261580049315L946.2861692307692,79.9275694802945L951.5532923076923,119.82333074304586L955.7768769230769,97.0939984458289L957.1005230769231,83.45639906749597L959.7972461538462,75.27383944049893L959.9125846153846,70.36430366429869L961.7305384615386,67.4185821985792L962.7136615384615,65.6511493191482L963.0926307692307,64.59068959149033L964.0153384615385,63.95441375489281L964.7897538461538,63.572648252935664L965.2456153846153,63.34358895176001L965.7564,63.20615337105602L965.9211692307692,63.123692022632895L966.7230461538461,63.07421521358117L966.8054307692308,87.65390412814935L972.1494461538462,77.7923424768889L972.4295538461539,71.87540548613333L973.2533999999999,68.32524329168069L974.9779846153847,66.19514597500705L975.0329076923077,64.91708758500494L975.0658615384616,64.15025255100363L976.1039076923076,63.6901515306036L976.5432923076922,63.41409091836073L977.3506615384615,63.24845455101786L980.7613846153847,109.81586178547985L983.9853692307692,91.08951707128858L985.5177230769232,79.85371024277248L985.7978307692308,73.11222614566208L986.638153846154,69.06733568739725L988.7032615384614,66.64040141243765L989.0602615384616,65.18424084746403L989.906076923077,88.91991950848046L990.6090923076923,78.55195170508898L993.7616769230768,72.33117102305266L995.4917538461539,68.5987026138302L997.9303384615384,66.35922156829747L1000.8412615384616,65.01553294097704L1000.9840615384616,64.20931976458695L1001.8902923076923,63.72559185875076L1004.1641076923078,63.43535511524908L1005.7294153846153,63.26121306915087L1007.6352461538462,63.156727841491886L1010.3704153846153,63.09403670489445L1010.5187076923077,63.05642202293524L1011.0844153846153,63.033853213759755L1011.326076923077,63.020311928255865L1013.3747076923077,63.01218715695211L1014.6214615384615,109.67410134904532L1014.7368,91.00446080942788L1023.930923076923,104.41205148565882L1024.820676923077,87.84723089139595L1024.9909384615385,124.57512758970748L1028.3851846153846,99.94507655382449L1029.033276923077,85.16704593229542L1029.3957692307692,76.30022755937654L1029.5220923076922,70.98013653562663L1030.1207538461538,67.78808192137598L1031.2411846153846,65.87284915282697L1031.4444,64.7237094916976L1031.8782923076924,64.03422569501714L1032.4110461538462,63.620535417010274L1033.0481538461538,63.372321250205516L1033.7017384615385,63.22339275012325L1033.7511692307692,63.13403565007394L1034.0367692307693,63.080421390044364L1035.6624923076922,63.04825283402596L1036.244676923077,63.02895170041552L1038.7381846153846,63.01737102025072L1038.8315538461538,63.01042261215184L1040.188153846154,109.67304262216516L1040.7538615384615,137.67061462816685L1042.846430769231,107.80236877690083L1044.675369230769,89.88142126614048L1044.757753846154,79.128852759685L1045.6365230769231,72.6773116558117L1046.1198461538463,68.8063869934856L1048.1739692307692,91.09320719609485L1048.8165692307691,79.8559243176569L1048.9703538461538,73.11355459059416L1049.761246153846,69.06813275435718L1052.6776615384615,66.64087965261365L1052.7655384615384,111.85131684644011L1056.0499384615384,92.31079010786476L1058.6587846153845,80.5864740647196L1059.2794153846153,73.5518844388331L1059.576,69.3311306632985L1060.5151846153847,66.79867839797907L1060.7898,65.27920703878675L1061.2291846153846,64.36752422327135L1061.805876923077,63.82051453396281L1062.0255692307694,63.49230872037913L1063.9698461538462,63.29538523222607L1066.4523692307694,109.84402019420759L1066.946676923077,91.10641211652597L1067.303676923077,104.47322226991275L1070.126723076923,87.88393336194622L1072.4994,77.93036001716848L1074.4162153846155,71.95821601030178L1075.7563384615385,68.37492960618249L1076.1847384615385,66.22495776371017L1076.5087846153847,64.93497465822753L1077.0195692307693,64.16098479493718L1077.1513846153846,63.69659087696374L1079.2164923076923,63.41795452617896L1079.3153538461538,63.25077271570808L1080.8861538461538,63.15046362942485L1082.1164307692309,63.09027817765349L1082.3251384615385,63.054166906592116L1082.583276923077,63.032500143954564L1085.1646615384616,63.01950008637414L1085.6754461538462,63.01170005182587L1088.7840923076924,63.00702003109694L1088.9433692307691,63.00421201865885L1089.0532153846154,63.002527211195286L1091.1402923076923,63.001516326717194L1091.1787384615386,63.00090979603101L1093.4635384615385,63.000545877618606L1094.737753846154,63.00032752657188L1095.5670923076923,63.00019651594454L1096.5886615384616,63.00011790956813L1099.290876923077,63.00007074574228L1102.1139230769231,109.6668315023187L1102.5697846153846,137.6668879562618L1102.7839846153845,107.80013277375565L1103.4156,89.8800796642534L1104.6403846153846,79.12804779855276L1105.5576,72.67682867913305L1106.4583384615385,68.80609720747844L1107.6611538461539,66.48365832448565L1107.7105846153847,65.09019499469207L1112.022046153846,64.25411699681666L1113.428076923077,63.75247019808995L1114.0102615384615,63.451482118852596L1115.8721538461539,63.270889271310864L1115.9160923076922,63.16253356278514L1116.6630461538462,87.70689513767178L1116.7399384615385,77.82413708260168L1116.7454307692308,71.89448224956027L1117.3276153846155,68.33668934973758L1118.0745692307692,66.20201360984186L1124.8850307692308,64.92120816590443L1125.6978923076924,64.15272489954407L1127.9991692307692,63.69163493972712L1129.3557692307693,63.4149809638356L1131.9536307692308,63.24898857830277L1132.673123076923,63.14939314698165L1133.315723076923,63.0896358881904L1136.506753846154,63.05378153291565L1138.0940307692308,63.03226891975078L1138.236830769231,63.019361351849795L1141.0928307692309,63.01161681111057L1144.7122615384617,63.00697008666634L1145.2175538461538,63.00418205200123L1145.4427384615385,63.002509231199326L1147.3211076923076,63.00150553871822L1147.3320923076924,63.000903323230204L1147.7879538461539,63.000541993936736L1147.8648461538462,63.00032519636136L1149.5454923076923,63.000195117815394L1150.9954615384615,63.000117070690635L1151.1931846153846,63.00007024241438L1151.7149538461538,63.00004214544862L1152.4234615384614,63.00002528726776L1153.4395384615384,63.00001517236137L1154.8126153846154,63.00000910341754L1156.1692153846154,63.00000546204984L1156.592123076923,63.00000327722847L1158.3496615384615,63.000001966337095L1158.4869692307693,63.00000117980227L1159.9753846153847,63.00000070788275L1160.4037846153844,63.00000042472823L1160.694876923077,109.66678930971028L1162.5128307692307,91.00007358582548L1165.566553846154,79.8000441514946L1166.978076923077,73.08002649089605L1166.9890615384616,69.04801589453626L1167.730523076923,66.62880953672033L1169.943923076923,65.17728572203293L1170.0592615384614,64.30637143321906L1171.3279846153846,63.78382285993075L1172.371523076923,63.470293715959144L1175.8591384615384,63.28217622957692L1178.187876923077,63.16930573774545L1178.9128615384616,63.10158344264869L1181.1647076923077,63.06095006559059L1182.081923076923,63.03657003935575L1182.1368461538461,63.02194202361204L1182.4608923076923,63.01316521416584L1184.2843384615385,63.00789912849882L1189.502030769231,87.61411447710134L1189.8041076923078,77.76846868626154L1195.5106153846154,71.86108121175619L1197.3834923076922,68.31664872705369L1198.1249538461539,66.18998923623155L1200.8656153846155,64.91399354174035L1201.7334,64.1483961250442L1204.8200769230768,63.689037675025816L1204.8420461538462,63.41342260501409L1206.303,87.85742856300561L1206.3249692307693,77.9144571378041L1206.8412461538462,96.55804928268032L1207.3245692307692,83.1348295696082L1208.9008615384614,75.08089774176563L1209.483046153846,70.24853864505798L1210.125646153846,67.34912318703476L1212.4763538461539,65.60947391222231L1216.8921692307692,64.56568434733407L1218.1059692307692,63.93941060840115L1220.6214461538461,63.563646365042075L1222.4119384615385,63.33818781902596L1224.5154923076923,63.202912691414895L1225.0702153846155,63.121747614849596L1226.7124153846155,63.07304856890977L1228.5468461538462,63.04382914134726L1233.0340615384616,63.02629748480979L1235.3573076923076,63.01577849088585L1236.7139076923077,63.009467094530805L1237.0269692307693,63.00568025671845L1237.9936153846154,63.00340815403251L1238.3670923076922,87.61141989242293L1240.0642153846154,77.76685193545376L1240.2399692307692,71.86011116127224L1242.057923076923,68.31606669676478L1242.7115076923078,90.79901501806023L1243.2991846153845,79.67940901083477L1243.3541076923077,73.00764540649948L1247.665569230769,69.00458724390109L1247.8468153846154,66.60275234633997L1250.1371076923078,65.16165140780464L1256.7718153846154,64.29699084468211L1257.6286153846154,63.77819450681068L1258.155876923077,88.07629170408705L1259.226876923077,78.04577502245087L1259.5014923076924,72.02746501347048L1262.439876923077,68.416479008083L1263.1264153846155,66.24988740484912L1263.8568923076923,64.94993244291089L1266.3998307692307,64.16995946574724L1269.2118923076923,63.70197567944763L1270.0577076923078,63.42118540766927L1270.936476923077,63.252711244603006L1274.3417076923079,63.15162674676179L1274.4790153846154,63.09097604805851L1274.577876923077,63.05458562883649L1276.4178,63.032751377301224L1278.1588615384615,87.62902582638071L1279.1200153846153,77.77741549582771L1280.9599384615383,71.86644929749662L1282.360476923077,68.31986957849728L1282.6241076923077,66.19192174709838L1284.255323076923,64.91515304825765L1284.540923076923,64.14909182895315L1284.936369230769,63.68945509737051L1286.611523076923,63.41367305842164L1287.4793076923077,63.24820383505437L1287.8912307692308,63.14892230103192L1288.303153846154,63.08935338062054L1290.7417384615385,63.05361202837372L1291.3513846153846,63.03216721702353L1292.1862153846153,63.019300330215515L1294.1799230769232,63.01158019812789L1294.3776461538462,63.00694811887672L1296.2560153846155,63.00416887132462L1296.8272153846153,63.002501322793364L1300.1500615384616,63.00150079367535L1300.1665384615385,87.61027547620517L1300.2654,77.76616528572174L1300.496076923077,71.85969917143302L1301.2704923076924,68.3158195028584L1302.5611846153845,66.18949170171646L1304.6153076923079,64.91369502102918L1305.1425692307691,64.14821701261684L1305.779676923077,63.6889302075694L1306.1421692307692,63.41335812454162L1310.157046153846,63.24801487472496L1310.7007846153847,63.14880892483495L1310.936953846154,63.089285354900994L1311.5520923076924,63.053571212939175L1311.8981076923078,87.641517727767L1313.9961692307693,77.78491063666019L1314.5179384615385,71.8709463819954L1314.633276923077,92.9319428292007L1317.934153846154,80.95916569752114L1322.0533846153846,73.77549941851265L1322.5147384615384,69.4652996511083L1326.1561384615386,66.87917979066498L1326.4032923076923,65.3275078744004L1326.6449538461538,64.39650472463956L1328.451923076923,63.83790283478305L1334.5538769230768,88.11211670087118L1338.5028461538461,78.06727002052133L1338.7060615384614,72.04036201231139L1339.3706307692307,68.42421720738685L1341.8476615384616,66.25453032443141L1344.214846153846,64.95271819465813L1344.2532923076924,64.17163091679629L1344.6542307692307,63.702978550079195L1346.7797538461539,63.42178713004819L1347.1092923076922,63.253072278029606L1347.9880615384616,87.76121836681773L1348.8119076923076,77.85673102009065L1348.8283846153845,71.91403861205367L1348.833876923077,68.34842316723223L1349.6247692307693,66.20905390033795L1351.6514307692307,64.92543234020275L1352.6510307692308,64.15525940412027L1353.974676923077,63.693155642472846L1355.3477538461539,63.41589338548232L1355.4576,63.2495360312887L1361.8012153846155,63.149721618773924L1362.366923076923,63.089832971265764L1362.4767692307692,63.05389978275804L1364.042076923077,63.032339869656255L1366.1126769230768,63.01940392179233L1368.8039076923076,63.01164235307613L1371.2644615384615,63.006985411844994L1371.396276923077,63.004191247108395L1371.7862307692308,63.00251474826365L1377.075323076923,63.0015088489568L1377.910153846154,63.00090530937547L1379.8104923076924,63.000543185625986L1380.1290461538463,63.00032591137489L1382.3424461538461,63.00019554682427L1382.6829692307692,112.21886732809588" style="fill: none;" fill="none"></path></g></g></g></g><g opacity="0.2"><g><g><g><path stroke="rgb(255, 112, 67)" stroke-width="2px" d="M151.2416769230769,1293.4687499999989L151.38447692307693,309.0937499999998L153.13103076923076,247.57031249999983L154.54804615384617,309.0937499999998L155.76733846153846,1416.5156249999989L156.98663076923077,247.57031249999983L157.34363076923077,493.6640624999996L157.5029076923077,616.7109374999995L158.91992307692308,370.6171874999997L160.1721692307692,1108.898437499999L169.16856923076924,432.14062499999966L170.12423076923076,370.6171874999997L172.0026,616.7109374999995L172.80996923076924,370.6171874999997L175.5671076923077,370.6171874999997L176.19872307692307,186.0468749999999L176.39644615384614,247.57031249999983L177.41252307692307,493.6640624999996L178.21439999999998,124.52343749999994L178.73616923076924,186.0468749999999L179.43918461538462,296.3339452743528L180.40583076923076,370.6171874999997L181.9326923076923,370.6171874999997L181.95466153846152,247.57031249999983L184.22847692307693,124.52343749999994L184.27790769230768,124.52343749999994L186.47483076923078,432.14062499999966L188.25433846153845,186.0468749999999L190.96753846153848,309.0937499999998L191.0114769230769,370.6171874999997L192.08796923076923,247.57031249999983L194.70230769230767,124.52343749999994L196.1522769230769,370.6171874999997L197.70659999999998,186.0468749999999L198.90392307692306,309.0937499999998L201.3589846153846,247.57031249999983L202.90781538461536,432.14062499999966L208.63629230769232,186.0468749999999L209.88304615384618,124.52343749999994L210.98150769230767,186.0468749999999L212.9642307692308,309.0937499999998L217.27020000000002,186.0468749999999L218.4730153846154,124.52343749999994L218.99478461538462,247.57031249999983L219.73624615384617,247.57031249999983L221.28507692307693,124.52343749999994L222.9986769230769,124.52343749999994L224.10263076923079,186.0468749999999L224.94844615384613,247.57031249999983L225.86016923076923,186.0468749999999L226.71696923076922,124.52343749999994L227.1124153846154,63L227.95273846153847,186.0468749999999L228.4854923076923,124.52343749999994L229.6224,124.52343749999994L231.3909230769231,247.57031249999983L231.5007692307692,63L233.13747692307692,186.0468749999999L234.10961538461538,124.52343749999994L234.9719076923077,247.57031249999983L235.72984615384613,309.0937499999998L236.2571076923077,124.52343749999994L237.06996923076923,186.0468749999999L239.49756923076924,309.0937499999998L239.6293846153846,186.0468749999999L240.4092923076923,186.0468749999999L240.79924615384613,370.6171874999997L240.85966153846152,124.52343749999994L241.38692307692307,124.52343749999994L241.4198769230769,63L243.01264615384616,370.6171874999997L243.44104615384617,124.52343749999994L246.9012,124.52343749999994L249.82310769230767,186.0468749999999L250.38332307692306,186.0468749999999L251.1138,247.57031249999983L252.36055384615386,63L255.52412307692308,186.0468749999999L255.88112307692307,186.0468749999999L256.1118,63L258.111,186.0468749999999L258.57784615384617,124.52343749999994L259.539,186.0468749999999L260.72533846153846,124.52343749999994L260.7967384615385,247.57031249999983L262.77396923076924,370.6171874999997L262.80143076923076,124.52343749999994L262.92775384615385,124.52343749999994L264.8720307692308,124.52343749999994L264.97638461538463,124.52343749999994L270.40278461538463,186.0468749999999L270.9739846153846,124.52343749999994L271.6660153846154,124.52343749999994L271.78684615384617,63L272.84686153846155,186.0468749999999L273.59381538461537,124.52343749999994L276.47178461538465,186.0468749999999L278.7016615384615,63L281.3599384615385,247.57031249999983L283.57883076923076,124.52343749999994L286.01192307692304,124.52343749999994L287.08841538461536,63L287.30261538461536,63L288.07703076923076,63L288.50543076923077,124.52343749999994L288.8734153846154,63L289.34575384615385,186.0468749999999L290.8506461538462,370.6171874999997L293.0915076923077,63L293.3935846153846,124.52343749999994L295.596,247.57031249999983L295.85413846153847,186.0468749999999L296.9580923076923,186.0468749999999L298.68816923076923,63L298.8199846153846,124.52343749999994L299.9459076923077,124.52343749999994L300.56653846153847,186.0468749999999L300.6654,124.52343749999994L301.56613846153846,63L304.1530153846154,63L304.72970769230767,63L305.6688923076923,63L306.13024615384614,124.52343749999994L307.27264615384615,124.52343749999994L307.5472615384615,63L309.9144461538462,63L310.8591230769231,432.14062499999966L312.23769230769227,124.52343749999994L314.0446615384615,124.52343749999994L314.4291230769231,63L315.42323076923077,124.52343749999994L317.6366307692308,63L317.9002615384615,63L318.9273230769231,124.52343749999994L319.48204615384617,186.0468749999999L321.6460153846154,63L324.27133846153845,63L326.96806153846154,63L331.2246,124.52343749999994L332.5043076923077,124.52343749999994L333.10846153846154,124.52343749999994L334.7616461538462,124.52343749999994L337.64510769230765,124.52343749999994L337.8922615384615,63L343.1978307692308,63L346.0593230769231,124.52343749999994L346.3723846153846,63L348.4374923076923,124.52343749999994L350.3543076923077,124.52343749999994L350.84861538461536,63L351.9251076923077,124.52343749999994L352.4413846153846,63L352.9302,124.52343749999994L353.11144615384615,63L353.39155384615384,63L355.19303076923075,63L355.41272307692304,63L355.70930769230773,63L360.61393846153845,63L360.9324923076923,124.52343749999994L361.25653846153847,63L363.1513846153846,124.52343749999994L363.2667230769231,63L365.1670615384615,124.52343749999994L369.39613846153844,63L370.50558461538463,63L372.2686153846154,63L377.0304461538462,63L377.6785384615385,124.52343749999994L378.93627692307695,63L379.6447846153846,63L379.68323076923076,63L379.7161846153846,63L381.5011846153846,63L382.3964307692308,124.52343749999994L383.15986153846154,63L386.66944615384614,186.0468749999999L386.86167692307697,186.0468749999999L387.80635384615385,63L391.40930769230766,63L393.93576923076927,124.52343749999994L394.1389846153846,63L394.1994,63L395.13309230769227,63L395.32532307692304,186.0468749999999L398.59873846153846,63L399.6093230769231,124.52343749999994L401.4712153846154,124.52343749999994L403.6956,124.52343749999994L404.8160307692308,247.57031249999983L404.8325076923077,63L404.9478461538461,124.52343749999994L405.11810769230766,63L405.8430923076923,63L405.97490769230774,124.52343749999994L406.0188461538462,63L406.4033076923077,63L407.0404153846154,63L407.86426153846156,124.52343749999994L410.85207692307694,63L411.74732307692307,63L412.5272307692308,124.52343749999994L414.8779384615384,63L415.7731846153846,247.57031249999983L416.65195384615384,63L416.80024615384616,63L416.9430461538462,124.52343749999994L418.23373846153845,63L418.38203076923077,63L421.68290769230765,124.52343749999994L422.22115384615387,63L424.0171384615384,247.57031249999983L426.60950769230766,63L427.1587384615385,63L427.95512307692303,63L433.1178923076923,63L434.4085846153846,186.0468749999999L434.79853846153844,63L435.1775076923077,186.0468749999999L436.3363846153846,63L437.6929846153846,124.52343749999994L439.1759076923077,247.57031249999983L443.8278923076923,63L445.65133846153844,63L454.8015230769231,186.0468749999999L454.86193846153844,63L458.4978461538462,63L460.12356923076925,124.52343749999994L460.33227692307696,124.52343749999994L460.76616923076926,63L462.8642307692308,124.52343749999994L463.0399846153846,186.0468749999999L464.84146153846154,63L465.41815384615387,63L466.02230769230766,63L472.83826153846155,63L473.7444923076923,186.0468749999999L474.5079230769231,63L476.06224615384616,124.52343749999994L476.8915846153846,124.52343749999994L477.9516,63L478.6985538461538,63L479.0280923076923,63L479.3411538461538,63L479.5663384615384,63L480.74718461538464,63L481.95000000000005,63L487.5631384615384,63L488.31009230769234,63L488.35952307692304,63L490.27633846153844,124.52343749999994L491.8471384615384,124.52343749999994L492.6160615384615,63L493.13233846153844,63L494.3736,63L494.9612769230769,124.52343749999994L496.22450769230767,63L496.2354923076923,63L497.74587692307693,63L498.44340000000005,63L500.07461538461536,63L503.0679230769231,678.2343749999995L503.1338307692307,186.0468749999999L505.3692,186.0468749999999L507.42881538461535,63L507.5166923076923,124.52343749999994L507.61006153846154,63L509.5323692307692,63L509.796,63L510.4166307692308,179.6669726371764L511.3448307692308,63L511.4436923076923,63L511.74576923076927,63L513.2451692307693,63L515.2938,63L516.2988923076923,63L517.4577692307691,124.52343749999994L518.0179846153845,63L520.7696307692307,63L521.22,124.52343749999994L521.4946153846154,124.52343749999994L521.6593846153846,63L522.5106923076922,63L522.9390923076924,63L523.6970307692308,63L523.8947538461538,63L525.0096923076924,63L526.2015230769231,124.52343749999994L526.2289846153847,63L528.3435230769231,63L528.5192769230769,63L531.7926923076923,63L532.1167384615384,63L532.232076923077,63L532.8856615384615,63L534.5992615384615,124.52343749999994L535.445076923077,63L536.7742153846153,63L539.8169538461539,63L540.2892923076923,63L540.8769692307692,63L541.2998769230769,63L544.0075846153846,63L545.1115384615384,179.6669726371764L545.5619076923077,63L546.2704153846154,63L547.6929230769231,63L548.1487846153846,63L548.6540769230769,63L548.6540769230769,124.52343749999994L552.6305076923077,63L553.4433692307692,124.52343749999994L555.5963538461539,124.52343749999994L556.7552307692308,186.0468749999999L558.1173230769231,124.52343749999994L561.0941538461539,63L561.3028615384616,63L561.8026615384615,63L562.7693076923077,63L562.9670307692307,63L563.1757384615385,63L563.6041384615385,124.52343749999994L564.1149230769231,63L565.0211538461538,63L567.9760153846154,63L568.0693846153846,63L568.5472153846154,63L569.0909538461539,63L569.7665076923076,63L572.2764923076923,63L573.5671846153847,63L574.8633692307692,63L575.1764307692308,63L575.8904307692308,63L579.2132769230769,63L580.3062461538461,63L582.6569538461539,63L583.8103384615384,124.52343749999994L584.4968769230769,63L584.766,63L585.0406153846154,63L585.996276923077,63L587.9240769230769,63L588.1986923076923,63L588.4238769230769,63L588.7973538461538,63L589.6431692307692,63L589.9122923076923,186.0468749999999L592.8506769230769,63L593.0264307692307,63L593.8118307692307,63L595.0750615384616,63L597.8871230769231,63L599.0789538461539,63L600.5289230769231,63L600.8969076923076,63L603.2146615384615,63L606.7077692307691,124.52343749999994L606.9054923076924,63L612.6229846153847,124.52343749999994L614.3201076923077,124.52343749999994L618.9281538461538,124.52343749999994L620.5813384615384,63L621.3722307692308,124.52343749999994L622.8936,63L624.1183846153846,63L627.2874461538462,63L628.3749230769231,63L629.0230153846154,247.57031249999983L629.2646769230769,63L629.5008461538462,124.52343749999994L631.5659538461539,124.52343749999994L632.1536307692307,63L635.4819692307692,63L636.0806307692308,63L637.0362923076923,124.52343749999994L638.5247076923077,63L641.2653692307692,63L642.2100461538462,124.52343749999994L642.7098461538462,63L644.1323538461538,63L644.3026153846154,63L644.5552615384615,63L644.8188923076923,63L645.1594153846154,124.52343749999994L645.5988,63L646.2194307692307,63L646.6258615384615,63L647.3288769230769,63L647.7133384615385,63L648.6360461538461,63L650.0255999999999,63L651.8820000000001,63L652.4861538461539,63L653.5461692307692,63L653.8482461538462,124.52343749999994L654.650123076923,63L654.8094,63L655.7046461538462,63L655.7705538461538,124.52343749999994L659.3680153846153,124.52343749999994L659.9447076923077,63L661.6857692307692,63L662.6688923076923,63L664.821876923077,63L665.0635384615384,63L666.9913384615385,124.52343749999994L670.4844461538461,63L672.0113076923077,63L674.713523076923,63L678.4592769230769,63L678.5142000000001,63L678.7338923076923,63L679.2062307692307,63L680.1179538461538,63L683.3858769230769,63L683.4847384615385,63L683.5616307692308,63L685.5608307692307,124.52343749999994L687.3128769230769,63L688.3728923076924,124.52343749999994L689.6526,63L690.811476923077,124.52343749999994L692.453676923077,63L694.1892461538462,63L696.0346615384616,63L696.5893846153847,63L700.2417692307693,63L701.3512153846154,63L701.4775384615385,63L701.5709076923076,63L701.9388923076923,63L703.9326,63L704.0534307692308,124.52343749999994L709.5182769230769,124.52343749999994L709.946676923077,63L710.3256461538462,63L710.8584000000001,63L712.1051538461538,124.52343749999994L714.0714,124.52343749999994L715.8618923076923,63L715.9168153846153,124.52343749999994L717.8775692307692,124.52343749999994L719.7010153846154,63L720.9038307692308,247.57031249999983L722.9964,678.2343749999995L723.0293538461538,247.57031249999983L724.2431538461539,124.52343749999994L726.6872307692307,63L727.9010307692308,63L729.6146307692308,124.52343749999994L731.3062615384615,124.52343749999994L731.9927999999999,124.52343749999994L732.6408923076924,63L733.9260923076923,186.0468749999999L734.8707692307692,63L737.2324615384616,124.52343749999994L738.6000461538462,63L738.759323076923,63L740.6596615384616,124.52343749999994L742.3787538461538,63L744.2900769230769,63L744.4109076923077,63L746.4815076923077,63L747.3767538461537,63L749.4803076923077,63L749.5956461538462,124.52343749999994L750.3590769230768,63L750.6062307692308,63L752.5285384615385,63L752.5505076923076,63L753.7588153846153,63L754.1377846153846,63L755.5273384615384,63L756.5598923076923,186.0468749999999L758.7623076923077,186.0468749999999L758.9105999999999,63L760.2617076923076,124.52343749999994L761.0965384615384,63L763.6559538461539,63L764.963123076923,63L766.8799384615385,63L768.8132307692307,63L769.5382153846153,63L769.8128307692308,63L769.8787384615384,63L770.9991692307692,63L773.0148461538462,124.52343749999994L773.2510153846155,63L773.5530923076923,186.0468749999999L775.7005846153846,63L775.7884615384614,63L779.3859230769231,63L779.9845846153846,63L780.1054153846154,124.52343749999994L781.6542461538462,63L782.7582,124.52343749999994L786.2348307692307,63L786.6028153846154,63L787.4925692307693,63L789.0853384615385,186.0468749999999L789.3654461538462,124.52343749999994L790.6451538461538,63L794.2371230769231,63L795.4948615384616,63L797.0162307692308,63L799.1088,124.52343749999994L800.2237384615383,63L801.4540153846153,63L801.7231384615384,63L802.5854307692308,63L803.8266923076923,63L805.2876461538461,63L805.4853692307692,63L806.0071384615384,124.52343749999994L806.0455846153845,63L806.4410307692307,63L806.4410307692307,63L808.6104923076922,63L809.6265692307692,63L810.6481384615386,63L811.2907384615385,63L813.4821692307693,63L814.9486153846154,63L815.300123076923,63L815.404476923077,63L815.8932923076923,63L816.3436615384616,63L816.4644923076924,63L817.2389076923076,63L821.5229076923077,63L822.0941076923076,63L823.1376461538462,63L823.917553846154,186.0468749999999L826.4275384615386,63L826.7131384615385,63L828.6684,63L829.3000153846154,63L832.4690769230768,63L832.5404769230769,124.52343749999994L832.826076923077,124.52343749999994L833.1336461538463,63L833.5620461538462,63L834.4737692307691,63L834.6934615384615,186.0468749999999L835.5337846153847,124.52343749999994L835.7095384615385,63L836.808,63L837.8405538461539,63L838.2689538461537,63L838.6424307692308,63L839.1092769230769,63L839.4607846153847,124.52343749999994L839.8452461538461,63L844.9860461538461,63L846.6776769230769,63L847.6937538461539,124.52343749999994L848.1056769230769,63L849.0668307692307,63L849.2755384615385,63L849.5556461538462,124.52343749999994L850.3300615384616,63L851.4120461538461,63L852.856523076923,63L853.6638923076923,63L855.6521076923077,63L855.7674461538461,63L858.3872769230769,63L858.6948461538461,63L858.711323076923,63L859.6065692307692,63L863.242476923077,63L866.9497846153847,124.52343749999994L867.350723076923,63L867.883476923077,63L871.1184461538462,63L872.0466461538463,63L872.2169076923077,296.3339452743528L873.5076,63L874.2435692307693,63L874.3039846153847,63L874.6005692307692,63L876.2153076923076,63L877.6103538461539,63L877.9069384615384,63L878.9340000000001,63L880.0709076923077,124.52343749999994L880.345523076923,63L880.4993076923078,63L881.7954923076923,63L882.8664923076923,63L884.0473384615385,124.52343749999994L884.755846153846,63L885.3984461538462,63L886.2717230769232,63L886.5847846153846,186.0468749999999L886.733076923077,247.57031249999983L887.7711230769231,63L887.9029384615384,63L888.5180769230768,63L891.072,63L893.7852,63L895.3230461538462,63L895.3285384615385,63L896.4874153846154,63L896.6302153846153,63L897.1684615384615,63L897.1684615384615,124.52343749999994L898.6184307692307,63L899.2006153846154,63L899.6784461538462,124.52343749999994L900.8538,63L901.0515230769231,124.52343749999994L901.7545384615385,247.57031249999983L901.9028307692308,63L902.2433538461538,63L902.9134153846154,63L908.2684153846154,63L909.2405538461538,63L910.3719692307692,63L910.6246153846154,63L910.6795384615384,63L913.1016461538461,63L916.5892615384615,124.52343749999994L917.2758,124.52343749999994L918.2644153846155,63L921.4938923076924,63L924.3883384615385,63L925.6735384615386,63L926.3051538461539,63L926.6346923076923,63L928.1231076923077,63L928.2494307692308,63L928.4142,63L930.0783692307692,63L930.2651076923078,63L930.5452153846154,63L931.2811846153845,63L931.8908307692309,124.52343749999994L932.3137384615384,63L935.2521230769231,63L937.2348461538462,63L941.7824769230768,124.52343749999994L942.6612461538462,63L942.837,63L943.8311076923077,63L945.8742461538461,124.52343749999994L946.2861692307692,63L951.5532923076923,179.6669726371764L955.7768769230769,63L957.1005230769231,63L959.7972461538462,63L959.9125846153846,63L961.7305384615386,63L962.7136615384615,63L963.0926307692307,63L964.0153384615385,63L964.7897538461538,63L965.2456153846153,63L965.7564,63L965.9211692307692,63L966.7230461538461,63L966.8054307692308,124.52343749999994L972.1494461538462,63L972.4295538461539,63L973.2533999999999,63L974.9779846153847,63L975.0329076923077,63L975.0658615384616,63L976.1039076923076,63L976.5432923076922,63L977.3506615384615,63L980.7613846153847,179.6669726371764L983.9853692307692,63L985.5177230769232,63L985.7978307692308,63L986.638153846154,63L988.7032615384614,63L989.0602615384616,63L989.906076923077,124.52343749999994L990.6090923076923,63L993.7616769230768,63L995.4917538461539,63L997.9303384615384,63L1000.8412615384616,63L1000.9840615384616,63L1001.8902923076923,63L1004.1641076923078,63L1005.7294153846153,63L1007.6352461538462,63L1010.3704153846153,63L1010.5187076923077,63L1011.0844153846153,63L1011.326076923077,63L1013.3747076923077,63L1014.6214615384615,179.6669726371764L1014.7368,63L1023.930923076923,124.52343749999994L1024.820676923077,63L1024.9909384615385,179.6669726371764L1028.3851846153846,63L1029.033276923077,63L1029.3957692307692,63L1029.5220923076922,63L1030.1207538461538,63L1031.2411846153846,63L1031.4444,63L1031.8782923076924,63L1032.4110461538462,63L1033.0481538461538,63L1033.7017384615385,63L1033.7511692307692,63L1034.0367692307693,63L1035.6624923076922,63L1036.244676923077,63L1038.7381846153846,63L1038.8315538461538,63L1040.188153846154,179.6669726371764L1040.7538615384615,179.6669726371764L1042.846430769231,63L1044.675369230769,63L1044.757753846154,63L1045.6365230769231,63L1046.1198461538463,63L1048.1739692307692,124.52343749999994L1048.8165692307691,63L1048.9703538461538,63L1049.761246153846,63L1052.6776615384615,63L1052.7655384615384,179.6669726371764L1056.0499384615384,63L1058.6587846153845,63L1059.2794153846153,63L1059.576,63L1060.5151846153847,63L1060.7898,63L1061.2291846153846,63L1061.805876923077,63L1062.0255692307694,63L1063.9698461538462,63L1066.4523692307694,179.6669726371764L1066.946676923077,63L1067.303676923077,124.52343749999994L1070.126723076923,63L1072.4994,63L1074.4162153846155,63L1075.7563384615385,63L1076.1847384615385,63L1076.5087846153847,63L1077.0195692307693,63L1077.1513846153846,63L1079.2164923076923,63L1079.3153538461538,63L1080.8861538461538,63L1082.1164307692309,63L1082.3251384615385,63L1082.583276923077,63L1085.1646615384616,63L1085.6754461538462,63L1088.7840923076924,63L1088.9433692307691,63L1089.0532153846154,63L1091.1402923076923,63L1091.1787384615386,63L1093.4635384615385,63L1094.737753846154,63L1095.5670923076923,63L1096.5886615384616,63L1099.290876923077,63L1102.1139230769231,179.6669726371764L1102.5697846153846,179.6669726371764L1102.7839846153845,63L1103.4156,63L1104.6403846153846,63L1105.5576,63L1106.4583384615385,63L1107.6611538461539,63L1107.7105846153847,63L1112.022046153846,63L1113.428076923077,63L1114.0102615384615,63L1115.8721538461539,63L1115.9160923076922,63L1116.6630461538462,124.52343749999994L1116.7399384615385,63L1116.7454307692308,63L1117.3276153846155,63L1118.0745692307692,63L1124.8850307692308,63L1125.6978923076924,63L1127.9991692307692,63L1129.3557692307693,63L1131.9536307692308,63L1132.673123076923,63L1133.315723076923,63L1136.506753846154,63L1138.0940307692308,63L1138.236830769231,63L1141.0928307692309,63L1144.7122615384617,63L1145.2175538461538,63L1145.4427384615385,63L1147.3211076923076,63L1147.3320923076924,63L1147.7879538461539,63L1147.8648461538462,63L1149.5454923076923,63L1150.9954615384615,63L1151.1931846153846,63L1151.7149538461538,63L1152.4234615384614,63L1153.4395384615384,63L1154.8126153846154,63L1156.1692153846154,63L1156.592123076923,63L1158.3496615384615,63L1158.4869692307693,63L1159.9753846153847,63L1160.4037846153844,63L1160.694876923077,179.6669726371764L1162.5128307692307,63L1165.566553846154,63L1166.978076923077,63L1166.9890615384616,63L1167.730523076923,63L1169.943923076923,63L1170.0592615384614,63L1171.3279846153846,63L1172.371523076923,63L1175.8591384615384,63L1178.187876923077,63L1178.9128615384616,63L1181.1647076923077,63L1182.081923076923,63L1182.1368461538461,63L1182.4608923076923,63L1184.2843384615385,63L1189.502030769231,124.52343749999994L1189.8041076923078,63L1195.5106153846154,63L1197.3834923076922,63L1198.1249538461539,63L1200.8656153846155,63L1201.7334,63L1204.8200769230768,63L1204.8420461538462,63L1206.303,124.52343749999994L1206.3249692307693,63L1206.8412461538462,124.52343749999994L1207.3245692307692,63L1208.9008615384614,63L1209.483046153846,63L1210.125646153846,63L1212.4763538461539,63L1216.8921692307692,63L1218.1059692307692,63L1220.6214461538461,63L1222.4119384615385,63L1224.5154923076923,63L1225.0702153846155,63L1226.7124153846155,63L1228.5468461538462,63L1233.0340615384616,63L1235.3573076923076,63L1236.7139076923077,63L1237.0269692307693,63L1237.9936153846154,63L1238.3670923076922,124.52343749999994L1240.0642153846154,63L1240.2399692307692,63L1242.057923076923,63L1242.7115076923078,124.52343749999994L1243.2991846153845,63L1243.3541076923077,63L1247.665569230769,63L1247.8468153846154,63L1250.1371076923078,63L1256.7718153846154,63L1257.6286153846154,63L1258.155876923077,124.52343749999994L1259.226876923077,63L1259.5014923076924,63L1262.439876923077,63L1263.1264153846155,63L1263.8568923076923,63L1266.3998307692307,63L1269.2118923076923,63L1270.0577076923078,63L1270.936476923077,63L1274.3417076923079,63L1274.4790153846154,63L1274.577876923077,63L1276.4178,63L1278.1588615384615,124.52343749999994L1279.1200153846153,63L1280.9599384615383,63L1282.360476923077,63L1282.6241076923077,63L1284.255323076923,63L1284.540923076923,63L1284.936369230769,63L1286.611523076923,63L1287.4793076923077,63L1287.8912307692308,63L1288.303153846154,63L1290.7417384615385,63L1291.3513846153846,63L1292.1862153846153,63L1294.1799230769232,63L1294.3776461538462,63L1296.2560153846155,63L1296.8272153846153,63L1300.1500615384616,63L1300.1665384615385,124.52343749999994L1300.2654,63L1300.496076923077,63L1301.2704923076924,63L1302.5611846153845,63L1304.6153076923079,63L1305.1425692307691,63L1305.779676923077,63L1306.1421692307692,63L1310.157046153846,63L1310.7007846153847,63L1310.936953846154,63L1311.5520923076924,63L1311.8981076923078,124.52343749999994L1313.9961692307693,63L1314.5179384615385,63L1314.633276923077,124.52343749999994L1317.934153846154,63L1322.0533846153846,63L1322.5147384615384,63L1326.1561384615386,63L1326.4032923076923,63L1326.6449538461538,63L1328.451923076923,63L1334.5538769230768,124.52343749999994L1338.5028461538461,63L1338.7060615384614,63L1339.3706307692307,63L1341.8476615384616,63L1344.214846153846,63L1344.2532923076924,63L1344.6542307692307,63L1346.7797538461539,63L1347.1092923076922,63L1347.9880615384616,124.52343749999994L1348.8119076923076,63L1348.8283846153845,63L1348.833876923077,63L1349.6247692307693,63L1351.6514307692307,63L1352.6510307692308,63L1353.974676923077,63L1355.3477538461539,63L1355.4576,63L1361.8012153846155,63L1362.366923076923,63L1362.4767692307692,63L1364.042076923077,63L1366.1126769230768,63L1368.8039076923076,63L1371.2644615384615,63L1371.396276923077,63L1371.7862307692308,63L1377.075323076923,63L1377.910153846154,63L1379.8104923076924,63L1380.1290461538463,63L1382.3424461538461,63L1382.6829692307692,186.0468749999999" style="fill: none;" fill="none"></path></g></g></g></g></g></g><g transform="translate(70, 378)" clip-path="url(#clip_1)"><clipPath id="clip_1"><rect width="1428" height="22"></rect></clipPath><g><g><line x1="0" y1="0" x2="0" y2="5" style="visibility: inherit;" fill="rgb(0, 0, 0)" stroke="rgb(204, 204, 204)" stroke-width="1px"></line><line x1="109.84615384615385" y1="0" x2="109.84615384615385" y2="5" style="visibility: inherit;" fill="rgb(0, 0, 0)" stroke="rgb(204, 204, 204)" stroke-width="1px"></line><line x1="219.6923076923077" y1="0" x2="219.6923076923077" y2="5" style="visibility: inherit;" fill="rgb(0, 0, 0)" stroke="rgb(204, 204, 204)" stroke-width="1px"></line><line x1="329.53846153846155" y1="0" x2="329.53846153846155" y2="5" style="visibility: inherit;" fill="rgb(0, 0, 0)" stroke="rgb(204, 204, 204)" stroke-width="1px"></line><line x1="439.3846153846154" y1="0" x2="439.3846153846154" y2="5" style="visibility: inherit;" fill="rgb(0, 0, 0)" stroke="rgb(204, 204, 204)" stroke-width="1px"></line><line x1="549.2307692307693" y1="0" x2="549.2307692307693" y2="5" style="visibility: inherit;" fill="rgb(0, 0, 0)" stroke="rgb(204, 204, 204)" stroke-width="1px"></line><line x1="659.0769230769231" y1="0" x2="659.0769230769231" y2="5" style="visibility: inherit;" fill="rgb(0, 0, 0)" stroke="rgb(204, 204, 204)" stroke-width="1px"></line><line x1="768.9230769230769" y1="0" x2="768.9230769230769" y2="5" style="visibility: inherit;" fill="rgb(0, 0, 0)" stroke="rgb(204, 204, 204)" stroke-width="1px"></line><line x1="878.7692307692308" y1="0" x2="878.7692307692308" y2="5" style="visibility: inherit;" fill="rgb(0, 0, 0)" stroke="rgb(204, 204, 204)" stroke-width="1px"></line><line x1="988.6153846153846" y1="0" x2="988.6153846153846" y2="5" style="visibility: inherit;" fill="rgb(0, 0, 0)" stroke="rgb(204, 204, 204)" stroke-width="1px"></line><line x1="1098.4615384615386" y1="0" x2="1098.4615384615386" y2="5" style="visibility: inherit;" fill="rgb(0, 0, 0)" stroke="rgb(204, 204, 204)" stroke-width="1px"></line><line x1="1208.3076923076924" y1="0" x2="1208.3076923076924" y2="5" style="visibility: inherit;" fill="rgb(0, 0, 0)" stroke="rgb(204, 204, 204)" stroke-width="1px"></line><line x1="1318.1538461538462" y1="0" x2="1318.1538461538462" y2="5" style="visibility: inherit;" fill="rgb(0, 0, 0)" stroke="rgb(204, 204, 204)" stroke-width="1px"></line><line x1="1428" y1="0" x2="1428" y2="5" style="visibility: inherit;" fill="rgb(0, 0, 0)" stroke="rgb(204, 204, 204)" stroke-width="1px"></line></g><g transform="translate(0, 8)"><text x="0" y="0" dx="0em" dy="0.95em" style="text-anchor: middle; visibility: hidden; font-family: &quot;Helvetica Neue&quot;, sans-serif; font-size: 12px; font-weight: 200;" fill="rgb(50, 49, 63)" stroke="none" stroke-width="1px">-20k</text><text x="109.84615384615385" y="0" dx="0em" dy="0.95em" style="text-anchor: middle; visibility: inherit; font-family: &quot;Helvetica Neue&quot;, sans-serif; font-size: 12px; font-weight: 200;" fill="rgb(50, 49, 63)" stroke="none" stroke-width="1px">0</text><text x="219.6923076923077" y="0" dx="0em" dy="0.95em" style="text-anchor: middle; visibility: inherit; font-family: &quot;Helvetica Neue&quot;, sans-serif; font-size: 12px; font-weight: 200;" fill="rgb(50, 49, 63)" stroke="none" stroke-width="1px">20k</text><text x="329.53846153846155" y="0" dx="0em" dy="0.95em" style="text-anchor: middle; visibility: inherit; font-family: &quot;Helvetica Neue&quot;, sans-serif; font-size: 12px; font-weight: 200;" fill="rgb(50, 49, 63)" stroke="none" stroke-width="1px">40k</text><text x="439.3846153846154" y="0" dx="0em" dy="0.95em" style="text-anchor: middle; visibility: inherit; font-family: &quot;Helvetica Neue&quot;, sans-serif; font-size: 12px; font-weight: 200;" fill="rgb(50, 49, 63)" stroke="none" stroke-width="1px">60k</text><text x="549.2307692307693" y="0" dx="0em" dy="0.95em" style="text-anchor: middle; visibility: inherit; font-family: &quot;Helvetica Neue&quot;, sans-serif; font-size: 12px; font-weight: 200;" fill="rgb(50, 49, 63)" stroke="none" stroke-width="1px">80k</text><text x="659.0769230769231" y="0" dx="0em" dy="0.95em" style="text-anchor: middle; visibility: inherit; font-family: &quot;Helvetica Neue&quot;, sans-serif; font-size: 12px; font-weight: 200;" fill="rgb(50, 49, 63)" stroke="none" stroke-width="1px">100k</text><text x="768.9230769230769" y="0" dx="0em" dy="0.95em" style="text-anchor: middle; visibility: inherit; font-family: &quot;Helvetica Neue&quot;, sans-serif; font-size: 12px; font-weight: 200;" fill="rgb(50, 49, 63)" stroke="none" stroke-width="1px">120k</text><text x="878.7692307692308" y="0" dx="0em" dy="0.95em" style="text-anchor: middle; visibility: inherit; font-family: &quot;Helvetica Neue&quot;, sans-serif; font-size: 12px; font-weight: 200;" fill="rgb(50, 49, 63)" stroke="none" stroke-width="1px">140k</text><text x="988.6153846153846" y="0" dx="0em" dy="0.95em" style="text-anchor: middle; visibility: inherit; font-family: &quot;Helvetica Neue&quot;, sans-serif; font-size: 12px; font-weight: 200;" fill="rgb(50, 49, 63)" stroke="none" stroke-width="1px">160k</text><text x="1098.4615384615386" y="0" dx="0em" dy="0.95em" style="text-anchor: middle; visibility: inherit; font-family: &quot;Helvetica Neue&quot;, sans-serif; font-size: 12px; font-weight: 200;" fill="rgb(50, 49, 63)" stroke="none" stroke-width="1px">180k</text><text x="1208.3076923076924" y="0" dx="0em" dy="0.95em" style="text-anchor: middle; visibility: inherit; font-family: &quot;Helvetica Neue&quot;, sans-serif; font-size: 12px; font-weight: 200;" fill="rgb(50, 49, 63)" stroke="none" stroke-width="1px">200k</text><text x="1318.1538461538462" y="0" dx="0em" dy="0.95em" style="text-anchor: middle; visibility: inherit; font-family: &quot;Helvetica Neue&quot;, sans-serif; font-size: 12px; font-weight: 200;" fill="rgb(50, 49, 63)" stroke="none" stroke-width="1px">220k</text><text x="1428" y="0" dx="0em" dy="0.95em" style="text-anchor: middle; visibility: hidden; font-family: &quot;Helvetica Neue&quot;, sans-serif; font-size: 12px; font-weight: 200;" fill="rgb(50, 49, 63)" stroke="none" stroke-width="1px">240k</text></g><line x1="0" y1="0" x2="1428" y2="0" fill="rgb(0, 0, 0)" stroke="rgb(204, 204, 204)" stroke-width="1px"></line></g></g></g></g></svg>