<svg viewBox="0 0 1498 400" xmlns="http://www.w3.org/2000/svg"><g><g><g><g><g><line x1="70" y1="378" x2="65" y2="378" style="visibility: inherit;" fill="rgb(0, 0, 0)" stroke="rgb(204, 204, 204)" stroke-width="1px"></line><line x1="70" y1="336" x2="65" y2="336" style="visibility: inherit;" fill="rgb(0, 0, 0)" stroke="rgb(204, 204, 204)" stroke-width="1px"></line><line x1="70" y1="294" x2="65" y2="294" style="visibility: inherit;" fill="rgb(0, 0, 0)" stroke="rgb(204, 204, 204)" stroke-width="1px"></line><line x1="70" y1="252" x2="65" y2="252" style="visibility: inherit;" fill="rgb(0, 0, 0)" stroke="rgb(204, 204, 204)" stroke-width="1px"></line><line x1="70" y1="210" x2="65" y2="210" style="visibility: inherit;" fill="rgb(0, 0, 0)" stroke="rgb(204, 204, 204)" stroke-width="1px"></line><line x1="70" y1="168" x2="65" y2="168" style="visibility: inherit;" fill="rgb(0, 0, 0)" stroke="rgb(204, 204, 204)" stroke-width="1px"></line><line x1="70" y1="126" x2="65" y2="126" style="visibility: inherit;" fill="rgb(0, 0, 0)" stroke="rgb(204, 204, 204)" stroke-width="1px"></line><line x1="70" y1="84" x2="65" y2="84" style="visibility: inherit;" fill="rgb(0, 0, 0)" stroke="rgb(204, 204, 204)" stroke-width="1px"></line><line x1="70" y1="42.00000000000466" x2="65" y2="42.00000000000466" style="visibility: inherit;" fill="rgb(0, 0, 0)" stroke="rgb(204, 204, 204)" stroke-width="1px"></line><line x1="70" y1="0" x2="65" y2="0" style="visibility: inherit;" fill="rgb(0, 0, 0)" stroke="rgb(204, 204, 204)" stroke-width="1px"></line></g><g transform="translate(60, 0)"><text x="0" y="378" dx="0em" dy="0.3em" style="text-anchor: end; visibility: hidden; font-family: &quot;Helvetica Neue&quot;, sans-serif; font-size: 12px; font-weight: 200;" fill="rgb(50, 49, 63)" stroke="none" stroke-width="1px">0.993</text><text x="0" y="336" dx="0em" dy="0.3em" style="text-anchor: end; visibility: inherit; font-family: &quot;Helvetica Neue&quot;, sans-serif; font-size: 12px; font-weight: 200;" fill="rgb(50, 49, 63)" stroke="none" stroke-width="1px">0.994</text><text x="0" y="294" dx="0em" dy="0.3em" style="text-anchor: end; visibility: inherit; font-family: &quot;Helvetica Neue&quot;, sans-serif; font-size: 12px; font-weight: 200;" fill="rgb(50, 49, 63)" stroke="none" stroke-width="1px">0.995</text><text x="0" y="252" dx="0em" dy="0.3em" style="text-anchor: end; visibility: inherit; font-family: &quot;Helvetica Neue&quot;, sans-serif; font-size: 12px; font-weight: 200;" fill="rgb(50, 49, 63)" stroke="none" stroke-width="1px">0.996</text><text x="0" y="210" dx="0em" dy="0.3em" style="text-anchor: end; visibility: inherit; font-family: &quot;Helvetica Neue&quot;, sans-serif; font-size: 12px; font-weight: 200;" fill="rgb(50, 49, 63)" stroke="none" stroke-width="1px">0.997</text><text x="0" y="168" dx="0em" dy="0.3em" style="text-anchor: end; visibility: inherit; font-family: &quot;Helvetica Neue&quot;, sans-serif; font-size: 12px; font-weight: 200;" fill="rgb(50, 49, 63)" stroke="none" stroke-width="1px">0.998</text><text x="0" y="126" dx="0em" dy="0.3em" style="text-anchor: end; visibility: inherit; font-family: &quot;Helvetica Neue&quot;, sans-serif; font-size: 12px; font-weight: 200;" fill="rgb(50, 49, 63)" stroke="none" stroke-width="1px">0.999</text><text x="0" y="84" dx="0em" dy="0.3em" style="text-anchor: end; visibility: inherit; font-family: &quot;Helvetica Neue&quot;, sans-serif; font-size: 12px; font-weight: 200;" fill="rgb(50, 49, 63)" stroke="none" stroke-width="1px">1</text><text x="0" y="42.00000000000466" dx="0em" dy="0.3em" style="text-anchor: end; visibility: inherit; font-family: &quot;Helvetica Neue&quot;, sans-serif; font-size: 12px; font-weight: 200;" fill="rgb(50, 49, 63)" stroke="none" stroke-width="1px">1</text><text x="0" y="0" dx="0em" dy="0.3em" style="text-anchor: end; visibility: hidden; font-family: &quot;Helvetica Neue&quot;, sans-serif; font-size: 12px; font-weight: 200;" fill="rgb(50, 49, 63)" stroke="none" stroke-width="1px">1</text></g><line x1="70" y1="0" x2="70" y2="378" fill="rgb(0, 0, 0)" stroke="rgb(204, 204, 204)" stroke-width="1px"></line></g></g><g transform="translate(70, 0)" clip-path="url(#clip_0)"><clipPath id="clip_0"><rect width="1428" height="378"></rect></clipPath><g><g><g><line x1="0" y1="0" x2="0" y2="378" fill="rgb(0, 0, 0)" stroke="rgb(60, 60, 60)" stroke-width="1px" opacity="0.25"></line><line x1="109.84615384615385" y1="0" x2="109.84615384615385" y2="378" fill="rgb(0, 0, 0)" stroke="rgb(60, 60, 60)" stroke-width="1px" opacity="0.25"></line><line x1="219.6923076923077" y1="0" x2="219.6923076923077" y2="378" fill="rgb(0, 0, 0)" stroke="rgb(60, 60, 60)" stroke-width="1px" opacity="0.25"></line><line x1="329.53846153846155" y1="0" x2="329.53846153846155" y2="378" fill="rgb(0, 0, 0)" stroke="rgb(60, 60, 60)" stroke-width="1px" opacity="0.25"></line><line x1="439.3846153846154" y1="0" x2="439.3846153846154" y2="378" fill="rgb(0, 0, 0)" stroke="rgb(60, 60, 60)" stroke-width="1px" opacity="0.25"></line><line x1="549.2307692307693" y1="0" x2="549.2307692307693" y2="378" fill="rgb(0, 0, 0)" stroke="rgb(60, 60, 60)" stroke-width="1px" opacity="0.25"></line><line x1="659.0769230769231" y1="0" x2="659.0769230769231" y2="378" fill="rgb(0, 0, 0)" stroke="rgb(60, 60, 60)" stroke-width="1px" opacity="0.25"></line><line x1="768.9230769230769" y1="0" x2="768.9230769230769" y2="378" fill="rgb(0, 0, 0)" stroke="rgb(60, 60, 60)" stroke-width="1px" opacity="0.25"></line><line x1="878.7692307692308" y1="0" x2="878.7692307692308" y2="378" fill="rgb(0, 0, 0)" stroke="rgb(60, 60, 60)" stroke-width="1px" opacity="0.25"></line><line x1="988.6153846153846" y1="0" x2="988.6153846153846" y2="378" fill="rgb(0, 0, 0)" stroke="rgb(60, 60, 60)" stroke-width="1px" opacity="0.25"></line><line x1="1098.4615384615386" y1="0" x2="1098.4615384615386" y2="378" fill="rgb(0, 0, 0)" stroke="rgb(60, 60, 60)" stroke-width="1px" opacity="0.25"></line><line x1="1208.3076923076924" y1="0" x2="1208.3076923076924" y2="378" fill="rgb(0, 0, 0)" stroke="rgb(60, 60, 60)" stroke-width="1px" opacity="0.25"></line><line x1="1318.1538461538462" y1="0" x2="1318.1538461538462" y2="378" fill="rgb(0, 0, 0)" stroke="rgb(60, 60, 60)" stroke-width="1px" opacity="0.25"></line><line x1="1428" y1="0" x2="1428" y2="378" fill="rgb(0, 0, 0)" stroke="rgb(60, 60, 60)" stroke-width="1px" opacity="0.25"></line></g><g><line x1="0" y1="378" x2="1428" y2="378" fill="rgb(0, 0, 0)" stroke="rgb(60, 60, 60)" stroke-width="1px" opacity="0.25"></line><line x1="0" y1="336" x2="1428" y2="336" fill="rgb(0, 0, 0)" stroke="rgb(60, 60, 60)" stroke-width="1px" opacity="0.25"></line><line x1="0" y1="294" x2="1428" y2="294" fill="rgb(0, 0, 0)" stroke="rgb(60, 60, 60)" stroke-width="1px" opacity="0.25"></line><line x1="0" y1="252" x2="1428" y2="252" fill="rgb(0, 0, 0)" stroke="rgb(60, 60, 60)" stroke-width="1px" opacity="0.25"></line><line x1="0" y1="210" x2="1428" y2="210" fill="rgb(0, 0, 0)" stroke="rgb(60, 60, 60)" stroke-width="1px" opacity="0.25"></line><line x1="0" y1="168" x2="1428" y2="168" fill="rgb(0, 0, 0)" stroke="rgb(60, 60, 60)" stroke-width="1px" opacity="0.25"></line><line x1="0" y1="126" x2="1428" y2="126" fill="rgb(0, 0, 0)" stroke="rgb(60, 60, 60)" stroke-width="1px" opacity="0.25"></line><line x1="0" y1="84" x2="1428" y2="84" fill="rgb(0, 0, 0)" stroke="rgb(60, 60, 60)" stroke-width="1px" opacity="0.25"></line><line x1="0" y1="42.00000000000466" x2="1428" y2="42.00000000000466" fill="rgb(0, 0, 0)" stroke="rgb(60, 60, 60)" stroke-width="1px" opacity="0.25"></line><line x1="0" y1="0" x2="1428" y2="0" fill="rgb(0, 0, 0)" stroke="rgb(60, 60, 60)" stroke-width="1px" opacity="0.25"></line></g></g></g><g><g><line x1="0" y1="42083.99999999996" x2="1428" y2="42083.99999999996" fill="rgb(0, 0, 0)" stroke="rgb(153, 153, 153)" stroke-width="1.5px"></line></g></g><g><g><line x1="109.84615384615385" y1="0" x2="109.84615384615385" y2="378" fill="rgb(0, 0, 0)" stroke="rgb(153, 153, 153)" stroke-width="1.5px"></line></g></g><g><g><g><g><g><path stroke="rgb(255, 112, 67)" stroke-width="2px" d="M133.69924615384616,541.2025406865383L133.84204615384616,358.08235674286095L137.84044615384616,773.7751682426524L140.41633846153846,542.253745829498L141.5642307692308,358.9212154246245L142.3002,511.46822192214404L149.0832,399.4556787215536L150.12673846153848,273.2717463785119L151.2416769230769,1181.945223896193L167.5098923076923,409.0576305904744L167.56481538461537,279.03457754961187L169.1466,201.02074624008685L169.16856923076924,482.3374483708074L170.12423076923076,323.00246880948896L172.0026,686.7764815774622L175.5671076923077,432.2495332943928L176.19872307692307,358.5747199638704L176.39644615384614,314.3698319737273L177.41252307692307,287.84689918258283L178.21439999999998,206.30813950650386L178.73616923076924,157.3848837028019L179.43918461538462,128.03093022128664L180.40583076923076,241.66855813368392L181.9326923076923,441.10113488117537L181.95466153846152,363.88568092848504L184.22847692307693,251.93140855689333L184.27790769230768,184.75884513407166L186.47483076923078,210.08030708045692L188.25433846153845,225.27318424827783L190.96753846153848,168.76391054895365L191.0114769230769,397.3583463294018L192.08796923076923,337.6400077976326L194.70230769230767,301.8090046785786L196.1522769230769,345.93540280715075L197.70659999999998,241.16124168429232L198.90392307692306,309.54674501057525L201.3589846153846,350.5780470063441L202.90781538461536,375.1968282038073L208.63629230769232,324.3430969222815L209.88304615384618,293.83085815337256L210.98150769230767,209.89851489202542L212.9642307692308,159.53910893521524L217.27020000000002,129.32346536112448L218.4730153846154,111.19407921667471L218.99478461538462,231.5664475300019L219.73624615384617,303.7898685180029L221.28507692307693,281.4989211108054L222.9986769230769,202.49935266648137L224.10263076923079,155.09961159989066L224.94844615384613,192.2847669599353L225.86016923076923,214.5958601759639L226.71696923076922,162.3575161055802L227.1124153846154,131.01450966334625L227.95273846153847,112.20870579800868L228.4854923076923,100.92522347880708L229.6224,94.1551340872852L231.3909230769231,221.34308045236818L231.5007692307692,166.40584827141998L233.13747692307692,133.44350896285107L234.10961538461538,113.66610537771254L234.9719076923077,101.7996632266275L235.72984615384613,94.67979793597652L236.2571076923077,90.40787876158777L237.06996923076923,87.84472725695173L239.49756923076924,86.30683635416915L239.6293846153846,216.63410181250046L240.4092923076923,163.5804610875012L240.79924615384613,197.37327665250254L240.85966153846152,152.02396599150245L241.38692307692307,190.4393795949005L241.4198769230769,147.86362775694215L243.01264615384616,187.9431766541671L243.44104615384617,146.36590599250118L246.9012,121.41954359549976L249.82310769230767,106.45172615729894L250.38332307692306,163.0960356943821L251.1138,197.08262141663107L252.36055384615386,151.84957284997677L255.52412307692308,124.70974370998701L255.88112307692307,239.6758462259958L256.1118,177.40550773559656L258.111,205.66830464135882L258.57784615384617,157.00098278481343L259.539,259.05058967089167L260.72533846153846,189.03035380253314L260.7967384615385,212.64321228152076L262.77396923076924,423.68592736891316L262.80143076923076,353.43655642134877L262.92775384615385,245.66193385280832L264.8720307692308,180.9971603116841L264.97638461538463,142.1982961870095L270.40278461538463,184.5439777122047L270.9739846153846,144.32638662732376L271.6660153846154,185.8208319763933L271.78684615384617,145.09249918583407L272.84686153846155,186.28049951150132L273.59381538461537,145.36829970690266L276.47178461538465,186.44597982414342L278.7016615384615,145.46758789448697L281.3599384615385,186.50555273669306L283.57883076923076,145.50333164201678L286.01192307692304,120.90199898521195L287.08841538461536,106.14119939112624L287.30261538461536,97.28471963467479L288.07703076923076,91.97083178080584L288.50543076923077,88.78249906848345L288.8734153846154,86.86949944108915L289.34575384615385,151.3466996646525L290.8506461538462,321.2830197987932L293.0915076923077,226.36981187927498L293.3935846153846,169.42188712756683L295.596,135.25313227654013L295.85413846153847,180.37687936592403L296.9580923076923,141.82612761955346L298.68816923076923,118.69567657173206L298.8199846153846,104.81740594303926L299.9459076923077,96.49044356582266L300.56653846153847,222.7442661394925L300.6654,167.24655968369456L301.56613846153846,133.94793581021767L304.1530153846154,113.96876148612967L304.72970769230767,101.98125689167597L305.6688923076923,94.78875413500555L306.13024615384614,90.47325248100424L307.27264615384615,153.5089514886053L307.5472615384615,125.70537089316224L309.9144461538462,109.02322253589551L310.8591230769231,361.51393352153707L312.23769230769227,250.5083601129241L314.0446615384615,183.90501606775538L314.4291230769231,143.9430096406523L315.42323076923077,185.5908057843932L317.6366307692308,144.954483470635L317.9002615384615,120.57269008238194L318.9273230769231,105.94361404942822L319.48204615384617,162.7911684296569L321.6460153846154,131.27470105779227L324.27133846153845,112.36482063467537L326.96806153846154,101.0188923808052L331.2246,94.21133542848406L332.5043076923077,90.12680125709232L333.10846153846154,87.67608075425352L334.7616461538462,86.20564845255211L337.64510769230765,85.32338907152939L337.8922615384615,84.7940334429195L343.1978307692308,84.4764200657508L346.0593230769231,84.28585203944954L346.3723846153846,84.17151122367068L348.4374923076923,84.10290673420332L350.3543076923077,84.06174404052103L350.84861538461536,84.03704642431359L351.9251076923077,84.02222785458628L352.4413846153846,84.0133367127508L352.9302,84.00800202765049L353.11144615384615,84.0048012165903L353.39155384615384,84.00288072995323L355.19303076923075,84.00172843797009L355.41272307692304,84.00103706278298L355.70930769230773,84.00062223767071L360.61393846153845,84.0003733426015L360.9324923076923,84.00022400556276L361.25653846153847,84.00013440333578L363.1513846153846,84.00008064200244L363.2667230769231,84.0000483852005L365.1670615384615,84.00002903112215L369.39613846153844,84.00001741867516L370.50558461538463,84.0000104512032L372.2686153846154,84.00000627072194L377.0304461538462,84.00000376243503L377.6785384615385,84.00000225746288L378.93627692307695,84.00000135447584L379.6447846153846,84.00000081268456L379.68323076923076,84.00000048761262L379.7161846153846,84.00000029256665L381.5011846153846,84.00000017554089L382.3964307692308,149.62500010532727L383.15986153846154,123.37500006319823L386.66944615384614,107.62500003791985L386.86167692307697,163.80000002275094L387.80635384615385,131.88000001364964L391.40930769230766,112.72800000818887L393.93576923076927,101.23680000491146L394.1389846153846,94.34208000294501L394.1994,90.20524800176514L395.13309230769227,87.72314880106097L395.32532307692304,151.85888928063835L398.59873846153846,124.71533356838117L399.6093230769231,174.05420014102864L401.4712153846154,138.03252008461718L403.6956,116.4195120507722L404.8160307692308,169.07670723046604L404.8325076923077,135.0460243382815L404.9478461538461,114.62761460296889L405.11810769230766,102.37656876178227L405.8430923076923,95.02594125707122L405.97490769230774,90.61556475424277L406.0188461538462,87.96933885254657L406.4033076923077,86.38160331152983L407.0404153846154,85.4289619869179L407.86426153846156,84.85737719215075L410.85207692307694,84.51442631529233L411.74732307692307,84.30865578917542L412.5272307692308,84.18519347350713L414.8779384615384,84.11111608410516L415.7731846153846,84.06666965046497L416.65195384615384,84.04000179028083L416.80024615384616,84.02400107416946L416.9430461538462,84.01440064450355L418.23373846153845,84.00864038670215L418.38203076923077,84.00518423202033L421.68290769230765,84.00311053921223L422.22115384615387,84.00186632352637L424.0171384615384,149.6261197941176L426.60950769230766,123.37567187647056L427.1587384615385,107.62540312588419L427.95512307692303,98.1752418755305L433.1178923076923,92.50514512532015L434.4085846153846,89.10308707519022L434.79853846153844,87.06185224511603L435.1775076923077,85.83711134707056L436.3363846153846,85.10226680824229L437.6929846153846,84.6613600849463L439.1759076923077,150.02181605096774L443.8278923076923,123.61308963057971L445.65133846153844,107.76785377834875L454.8015230769231,98.26071226701015L454.86193846153844,92.5564273602061L458.4978461538462,89.13385641612274L460.12356923076925,87.08031384967177L460.33227692307696,85.84818830980493L460.76616923076926,85.10891298588388L462.8642307692308,84.6653477915313L463.0399846153846,84.39920867491782L464.84146153846154,84.23952520495163L465.41815384615387,84.14371512297282L466.02230769230766,84.08622907378464L472.83826153846155,84.05173744427077L473.7444923076923,84.03104246656062L474.5079230769231,84.01862547993636L476.06224615384616,84.01117528796368L476.8915846153846,84.00670517277632L477.9516,84.00402310366485L478.6985538461538,84.0024138622008L479.0280923076923,84.00144831732143L479.3411538461538,84.00086899039098L479.5663384615384,84.00052139423644L480.74718461538464,84.00031283653999L481.95000000000005,84.000187701924L487.5631384615384,84.00011262115441L488.31009230769234,84.0000675726908L488.35952307692304,84.00004054361443L490.27633846153844,84.00002432616776L491.8471384615384,84.00001459570063L492.6160615384615,84.00000875741944L493.13233846153844,84.00000525445353L494.3736,84.00000315267215L494.9612769230769,84.0000018916042L496.22450769230767,84.0000011349635L496.2354923076923,84.00000068097995L497.74587692307693,84.00000040858981L498.44340000000005,84.0000002451539L500.07461538461536,84.00000014709235L503.0679230769231,84.00000008825538L503.1338307692307,84.00000005295232L505.3692,84.00000003177325L507.42881538461535,84.0000000190621L507.5166923076923,84.0000000114382L507.61006153846154,84.00000000686384L509.5323692307692,84.00000000411734L509.796,84.00000000247138L510.4166307692308,84.00000000148282L511.3448307692308,84.00000000089062L511.4436923076923,84.00000000053626L511.74576923076927,84.00000000032173L513.2451692307693,84.00000000019122L515.2938,84.00000000011659L516.2988923076923,84.00000000006997L517.4577692307691,84.00000000004195L518.0179846153845,84.0000000000233L520.7696307692307,84.00000000001398L521.22,84.00000000000932L521.4946153846154,84.00000000000466L521.6593846153846,84.00000000000466L522.5106923076922,84.00000000000466L522.9390923076924,84.00000000000466L523.6970307692308,84.00000000000466L523.8947538461538,84.00000000000466L525.0096923076924,84.00000000000466L526.2015230769231,84.00000000000466L526.2289846153847,84.00000000000466L528.3435230769231,84.00000000000466L528.5192769230769,84.00000000000466L531.7926923076923,84.00000000000466L532.1167384615384,84.00000000000466L532.232076923077,84.00000000000466L532.8856615384615,84.00000000000466L534.5992615384615,84.00000000000466L535.445076923077,84.00000000000466L536.7742153846153,84.00000000000466L539.8169538461539,84.00000000000466L540.2892923076923,84.00000000000466L540.8769692307692,84.00000000000466L541.2998769230769,84.00000000000466L544.0075846153846,84.00000000000466L545.1115384615384,84.00000000000466L545.5619076923077,84.00000000000466L546.2704153846154,84.00000000000466L547.6929230769231,84.00000000000466L548.1487846153846,84.00000000000466L548.6540769230769,84.00000000000466L548.6540769230769,84.00000000000466L552.6305076923077,84.00000000000466L553.4433692307692,84.00000000000466L555.5963538461539,84.00000000000466L556.7552307692308,84.00000000000466L558.1173230769231,84.00000000000466L561.0941538461539,84.00000000000466L561.3028615384616,84.00000000000466L561.8026615384615,84.00000000000466L562.7693076923077,84.00000000000466L562.9670307692307,84.00000000000466L563.1757384615385,84.00000000000466L563.6041384615385,84.00000000000466L564.1149230769231,84.00000000000466L565.0211538461538,84.00000000000466L567.9760153846154,84.00000000000466L568.0693846153846,84.00000000000466L568.5472153846154,84.00000000000466L569.0909538461539,84.00000000000466L569.7665076923076,84.00000000000466L572.2764923076923,84.00000000000466L573.5671846153847,84.00000000000466L574.8633692307692,84.00000000000466L575.1764307692308,84.00000000000466L575.8904307692308,84.00000000000466L579.2132769230769,84.00000000000466L580.3062461538461,84.00000000000466L582.6569538461539,84.00000000000466L583.8103384615384,84.00000000000466L584.4968769230769,84.00000000000466L584.766,84.00000000000466L585.0406153846154,84.00000000000466L585.996276923077,84.00000000000466L587.9240769230769,84.00000000000466L588.1986923076923,84.00000000000466L588.4238769230769,84.00000000000466L588.7973538461538,84.00000000000466L589.6431692307692,84.00000000000466L589.9122923076923,84.00000000000466L592.8506769230769,84.00000000000466L593.0264307692307,84.00000000000466L593.8118307692307,84.00000000000466L595.0750615384616,84.00000000000466L597.8871230769231,84.00000000000466L599.0789538461539,84.00000000000466L600.5289230769231,84.00000000000466L600.8969076923076,84.00000000000466L603.2146615384615,84.00000000000466L606.7077692307691,84.00000000000466L606.9054923076924,84.00000000000466L612.6229846153847,84.00000000000466L614.3201076923077,84.00000000000466L618.9281538461538,84.00000000000466L620.5813384615384,84.00000000000466L621.3722307692308,84.00000000000466L622.8936,84.00000000000466L624.1183846153846,84.00000000000466L627.2874461538462,84.00000000000466L628.3749230769231,84.00000000000466L629.0230153846154,84.00000000000466L629.2646769230769,84.00000000000466L629.5008461538462,84.00000000000466L631.5659538461539,84.00000000000466L632.1536307692307,84.00000000000466L635.4819692307692,84.00000000000466L636.0806307692308,84.00000000000466L637.0362923076923,84.00000000000466L638.5247076923077,84.00000000000466L641.2653692307692,84.00000000000466L642.2100461538462,84.00000000000466L642.7098461538462,84.00000000000466L644.1323538461538,84.00000000000466L644.3026153846154,84.00000000000466L644.5552615384615,84.00000000000466L644.8188923076923,84.00000000000466L645.1594153846154,84.00000000000466L645.5988,84.00000000000466L646.2194307692307,84.00000000000466L646.6258615384615,84.00000000000466L647.3288769230769,84.00000000000466L647.7133384615385,84.00000000000466L648.6360461538461,84.00000000000466L650.0255999999999,84.00000000000466L651.8820000000001,84.00000000000466L652.4861538461539,84.00000000000466L653.5461692307692,84.00000000000466L653.8482461538462,84.00000000000466L654.650123076923,84.00000000000466L654.8094,84.00000000000466L655.7046461538462,84.00000000000466L655.7705538461538,84.00000000000466L659.3680153846153,84.00000000000466L659.9447076923077,84.00000000000466L661.6857692307692,84.00000000000466L662.6688923076923,84.00000000000466L664.821876923077,84.00000000000466L665.0635384615384,84.00000000000466L666.9913384615385,84.00000000000466L670.4844461538461,84.00000000000466L672.0113076923077,84.00000000000466L674.713523076923,84.00000000000466L678.4592769230769,84.00000000000466L678.5142000000001,84.00000000000466L678.7338923076923,84.00000000000466L679.2062307692307,84.00000000000466L680.1179538461538,84.00000000000466L683.3858769230769,84.00000000000466L683.4847384615385,84.00000000000466L683.5616307692308,84.00000000000466L685.5608307692307,84.00000000000466L687.3128769230769,84.00000000000466L688.3728923076924,84.00000000000466L689.6526,84.00000000000466L690.811476923077,84.00000000000466L692.453676923077,84.00000000000466L694.1892461538462,84.00000000000466L696.0346615384616,84.00000000000466L696.5893846153847,84.00000000000466L700.2417692307693,84.00000000000466L701.3512153846154,84.00000000000466L701.4775384615385,84.00000000000466L701.5709076923076,84.00000000000466L701.9388923076923,84.00000000000466L703.9326,84.00000000000466L704.0534307692308,84.00000000000466L709.5182769230769,84.00000000000466L709.946676923077,84.00000000000466L710.3256461538462,84.00000000000466L710.8584000000001,84.00000000000466L712.1051538461538,84.00000000000466L714.0714,84.00000000000466L715.8618923076923,84.00000000000466L715.9168153846153,84.00000000000466L717.8775692307692,84.00000000000466L719.7010153846154,84.00000000000466L720.9038307692308,84.00000000000466L722.9964,84.00000000000466L723.0293538461538,84.00000000000466L724.2431538461539,84.00000000000466L726.6872307692307,84.00000000000466L727.9010307692308,84.00000000000466L729.6146307692308,84.00000000000466L731.3062615384615,84.00000000000466L731.9927999999999,84.00000000000466L732.6408923076924,84.00000000000466L733.9260923076923,84.00000000000466L734.8707692307692,84.00000000000466L737.2324615384616,84.00000000000466L738.6000461538462,84.00000000000466L738.759323076923,84.00000000000466L740.6596615384616,84.00000000000466L742.3787538461538,84.00000000000466L744.2900769230769,84.00000000000466L744.4109076923077,84.00000000000466L746.4815076923077,84.00000000000466L747.3767538461537,84.00000000000466L749.4803076923077,84.00000000000466L749.5956461538462,84.00000000000466L750.3590769230768,84.00000000000466L750.6062307692308,84.00000000000466L752.5285384615385,84.00000000000466L752.5505076923076,84.00000000000466L753.7588153846153,84.00000000000466L754.1377846153846,84.00000000000466L755.5273384615384,84.00000000000466L756.5598923076923,84.00000000000466L758.7623076923077,84.00000000000466L758.9105999999999,84.00000000000466L760.2617076923076,84.00000000000466L761.0965384615384,84.00000000000466L763.6559538461539,84.00000000000466L764.963123076923,84.00000000000466L766.8799384615385,84.00000000000466L768.8132307692307,84.00000000000466L769.5382153846153,84.00000000000466L769.8128307692308,84.00000000000466L769.8787384615384,84.00000000000466L770.9991692307692,84.00000000000466L773.0148461538462,84.00000000000466L773.2510153846155,84.00000000000466L773.5530923076923,84.00000000000466L775.7005846153846,84.00000000000466L775.7884615384614,84.00000000000466L779.3859230769231,84.00000000000466L779.9845846153846,84.00000000000466L780.1054153846154,84.00000000000466L781.6542461538462,84.00000000000466L782.7582,84.00000000000466L786.2348307692307,84.00000000000466L786.6028153846154,84.00000000000466L787.4925692307693,84.00000000000466L789.0853384615385,84.00000000000466L789.3654461538462,84.00000000000466L790.6451538461538,84.00000000000466L794.2371230769231,84.00000000000466L795.4948615384616,84.00000000000466L797.0162307692308,84.00000000000466L799.1088,84.00000000000466L800.2237384615383,84.00000000000466L801.4540153846153,84.00000000000466L801.7231384615384,84.00000000000466L802.5854307692308,84.00000000000466L803.8266923076923,84.00000000000466L805.2876461538461,84.00000000000466L805.4853692307692,84.00000000000466L806.0071384615384,84.00000000000466L806.0455846153845,84.00000000000466L806.4410307692307,84.00000000000466L806.4410307692307,84.00000000000466L808.6104923076922,84.00000000000466L809.6265692307692,84.00000000000466L810.6481384615386,84.00000000000466L811.2907384615385,84.00000000000466L813.4821692307693,84.00000000000466L814.9486153846154,84.00000000000466L815.300123076923,84.00000000000466L815.404476923077,84.00000000000466L815.8932923076923,84.00000000000466L816.3436615384616,84.00000000000466L816.4644923076924,84.00000000000466L817.2389076923076,84.00000000000466L821.5229076923077,84.00000000000466L822.0941076923076,84.00000000000466L823.1376461538462,84.00000000000466L823.917553846154,84.00000000000466L826.4275384615386,84.00000000000466L826.7131384615385,84.00000000000466L828.6684,84.00000000000466L829.3000153846154,84.00000000000466L832.4690769230768,84.00000000000466L832.5404769230769,84.00000000000466L832.826076923077,84.00000000000466L833.1336461538463,84.00000000000466L833.5620461538462,84.00000000000466L834.4737692307691,84.00000000000466L834.6934615384615,84.00000000000466L835.5337846153847,84.00000000000466L835.7095384615385,84.00000000000466L836.808,84.00000000000466L837.8405538461539,84.00000000000466L838.2689538461537,84.00000000000466L838.6424307692308,84.00000000000466L839.1092769230769,84.00000000000466L839.4607846153847,84.00000000000466L839.8452461538461,84.00000000000466L844.9860461538461,84.00000000000466L846.6776769230769,84.00000000000466L847.6937538461539,84.00000000000466L848.1056769230769,84.00000000000466L849.0668307692307,84.00000000000466L849.2755384615385,84.00000000000466L849.5556461538462,84.00000000000466L850.3300615384616,84.00000000000466L851.4120461538461,84.00000000000466L852.856523076923,84.00000000000466L853.6638923076923,84.00000000000466L855.6521076923077,84.00000000000466L855.7674461538461,84.00000000000466L858.3872769230769,84.00000000000466L858.6948461538461,84.00000000000466L858.711323076923,84.00000000000466L859.6065692307692,84.00000000000466L863.242476923077,84.00000000000466L866.9497846153847,84.00000000000466L867.350723076923,84.00000000000466L867.883476923077,84.00000000000466L871.1184461538462,84.00000000000466L872.0466461538463,84.00000000000466L872.2169076923077,84.00000000000466L873.5076,84.00000000000466L874.2435692307693,84.00000000000466L874.3039846153847,84.00000000000466L874.6005692307692,84.00000000000466L876.2153076923076,84.00000000000466L877.6103538461539,84.00000000000466L877.9069384615384,84.00000000000466L878.9340000000001,84.00000000000466L880.0709076923077,84.00000000000466L880.345523076923,84.00000000000466L880.4993076923078,84.00000000000466L881.7954923076923,84.00000000000466L882.8664923076923,84.00000000000466L884.0473384615385,84.00000000000466L884.755846153846,84.00000000000466L885.3984461538462,84.00000000000466L886.2717230769232,84.00000000000466L886.5847846153846,84.00000000000466L886.733076923077,84.00000000000466L887.7711230769231,84.00000000000466L887.9029384615384,84.00000000000466L888.5180769230768,84.00000000000466L891.072,84.00000000000466L893.7852,84.00000000000466L895.3230461538462,84.00000000000466L895.3285384615385,84.00000000000466L896.4874153846154,84.00000000000466L896.6302153846153,84.00000000000466L897.1684615384615,84.00000000000466L897.1684615384615,84.00000000000466L898.6184307692307,84.00000000000466L899.2006153846154,84.00000000000466L899.6784461538462,84.00000000000466L900.8538,84.00000000000466L901.0515230769231,84.00000000000466L901.7545384615385,84.00000000000466L901.9028307692308,84.00000000000466L902.2433538461538,84.00000000000466L902.9134153846154,84.00000000000466L908.2684153846154,84.00000000000466L909.2405538461538,84.00000000000466L910.3719692307692,84.00000000000466L910.6246153846154,84.00000000000466L910.6795384615384,84.00000000000466L913.1016461538461,84.00000000000466L916.5892615384615,84.00000000000466L917.2758,84.00000000000466L918.2644153846155,84.00000000000466L921.4938923076924,84.00000000000466L924.3883384615385,84.00000000000466L925.6735384615386,84.00000000000466L926.3051538461539,84.00000000000466L926.6346923076923,84.00000000000466L928.1231076923077,84.00000000000466L928.2494307692308,84.00000000000466L928.4142,84.00000000000466L930.0783692307692,84.00000000000466L930.2651076923078,84.00000000000466L930.5452153846154,84.00000000000466L931.2811846153845,84.00000000000466L931.8908307692309,84.00000000000466L932.3137384615384,84.00000000000466L935.2521230769231,84.00000000000466L937.2348461538462,84.00000000000466L941.7824769230768,84.00000000000466L942.6612461538462,84.00000000000466L942.837,84.00000000000466L943.8311076923077,84.00000000000466L945.8742461538461,84.00000000000466L946.2861692307692,84.00000000000466L951.5532923076923,84.00000000000466L955.7768769230769,84.00000000000466L957.1005230769231,84.00000000000466L959.7972461538462,84.00000000000466L959.9125846153846,84.00000000000466L961.7305384615386,84.00000000000466L962.7136615384615,84.00000000000466L963.0926307692307,84.00000000000466L964.0153384615385,84.00000000000466L964.7897538461538,84.00000000000466L965.2456153846153,84.00000000000466L965.7564,84.00000000000466L965.9211692307692,84.00000000000466L966.7230461538461,84.00000000000466L966.8054307692308,84.00000000000466L972.1494461538462,84.00000000000466L972.4295538461539,84.00000000000466L973.2533999999999,84.00000000000466L974.9779846153847,84.00000000000466L975.0329076923077,84.00000000000466L975.0658615384616,84.00000000000466L976.1039076923076,84.00000000000466L976.5432923076922,84.00000000000466L977.3506615384615,84.00000000000466L980.7613846153847,84.00000000000466L983.9853692307692,84.00000000000466L985.5177230769232,84.00000000000466L985.7978307692308,84.00000000000466L986.638153846154,84.00000000000466L988.7032615384614,84.00000000000466L989.0602615384616,84.00000000000466L989.906076923077,84.00000000000466L990.6090923076923,84.00000000000466L993.7616769230768,84.00000000000466L995.4917538461539,84.00000000000466L997.9303384615384,84.00000000000466L1000.8412615384616,84.00000000000466L1000.9840615384616,84.00000000000466L1001.8902923076923,84.00000000000466L1004.1641076923078,84.00000000000466L1005.7294153846153,84.00000000000466L1007.6352461538462,84.00000000000466L1010.3704153846153,84.00000000000466L1010.5187076923077,84.00000000000466L1011.0844153846153,84.00000000000466L1011.326076923077,84.00000000000466L1013.3747076923077,84.00000000000466L1014.6214615384615,84.00000000000466L1014.7368,84.00000000000466L1023.930923076923,84.00000000000466L1024.820676923077,84.00000000000466L1024.9909384615385,84.00000000000466L1028.3851846153846,84.00000000000466L1029.033276923077,84.00000000000466L1029.3957692307692,84.00000000000466L1029.5220923076922,84.00000000000466L1030.1207538461538,84.00000000000466L1031.2411846153846,84.00000000000466L1031.4444,84.00000000000466L1031.8782923076924,84.00000000000466L1032.4110461538462,84.00000000000466L1033.0481538461538,84.00000000000466L1033.7017384615385,84.00000000000466L1033.7511692307692,84.00000000000466L1034.0367692307693,84.00000000000466L1035.6624923076922,84.00000000000466L1036.244676923077,84.00000000000466L1038.7381846153846,84.00000000000466L1038.8315538461538,84.00000000000466L1040.188153846154,84.00000000000466L1040.7538615384615,84.00000000000466L1042.846430769231,84.00000000000466L1044.675369230769,84.00000000000466L1044.757753846154,84.00000000000466L1045.6365230769231,84.00000000000466L1046.1198461538463,84.00000000000466L1048.1739692307692,84.00000000000466L1048.8165692307691,84.00000000000466L1048.9703538461538,84.00000000000466L1049.761246153846,84.00000000000466L1052.6776615384615,84.00000000000466L1052.7655384615384,84.00000000000466L1056.0499384615384,84.00000000000466L1058.6587846153845,84.00000000000466L1059.2794153846153,84.00000000000466L1059.576,84.00000000000466L1060.5151846153847,84.00000000000466L1060.7898,84.00000000000466L1061.2291846153846,84.00000000000466L1061.805876923077,84.00000000000466L1062.0255692307694,84.00000000000466L1063.9698461538462,84.00000000000466L1066.4523692307694,84.00000000000466L1066.946676923077,84.00000000000466L1067.303676923077,84.00000000000466L1070.126723076923,84.00000000000466L1072.4994,84.00000000000466L1074.4162153846155,84.00000000000466L1075.7563384615385,84.00000000000466L1076.1847384615385,84.00000000000466L1076.5087846153847,84.00000000000466L1077.0195692307693,84.00000000000466L1077.1513846153846,84.00000000000466L1079.2164923076923,84.00000000000466L1079.3153538461538,84.00000000000466L1080.8861538461538,84.00000000000466L1082.1164307692309,84.00000000000466L1082.3251384615385,84.00000000000466L1082.583276923077,84.00000000000466L1085.1646615384616,84.00000000000466L1085.6754461538462,84.00000000000466L1088.7840923076924,84.00000000000466L1088.9433692307691,84.00000000000466L1089.0532153846154,84.00000000000466L1091.1402923076923,84.00000000000466L1091.1787384615386,84.00000000000466L1093.4635384615385,84.00000000000466L1094.737753846154,84.00000000000466L1095.5670923076923,84.00000000000466L1096.5886615384616,84.00000000000466L1099.290876923077,84.00000000000466L1102.1139230769231,84.00000000000466L1102.5697846153846,84.00000000000466L1102.7839846153845,84.00000000000466L1103.4156,84.00000000000466L1104.6403846153846,84.00000000000466L1105.5576,84.00000000000466L1106.4583384615385,84.00000000000466L1107.6611538461539,84.00000000000466L1107.7105846153847,84.00000000000466L1112.022046153846,84.00000000000466L1113.428076923077,84.00000000000466L1114.0102615384615,84.00000000000466L1115.8721538461539,84.00000000000466L1115.9160923076922,84.00000000000466L1116.6630461538462,84.00000000000466L1116.7399384615385,84.00000000000466L1116.7454307692308,84.00000000000466L1117.3276153846155,84.00000000000466L1118.0745692307692,84.00000000000466L1124.8850307692308,84.00000000000466L1125.6978923076924,84.00000000000466L1127.9991692307692,84.00000000000466L1129.3557692307693,84.00000000000466L1131.9536307692308,84.00000000000466L1132.673123076923,84.00000000000466L1133.315723076923,84.00000000000466L1136.506753846154,84.00000000000466L1138.0940307692308,84.00000000000466L1138.236830769231,84.00000000000466L1141.0928307692309,84.00000000000466L1144.7122615384617,84.00000000000466L1145.2175538461538,84.00000000000466L1145.4427384615385,84.00000000000466L1147.3211076923076,84.00000000000466L1147.3320923076924,84.00000000000466L1147.7879538461539,84.00000000000466L1147.8648461538462,84.00000000000466L1149.5454923076923,84.00000000000466L1150.9954615384615,84.00000000000466L1151.1931846153846,84.00000000000466L1151.7149538461538,84.00000000000466L1152.4234615384614,84.00000000000466L1153.4395384615384,84.00000000000466L1154.8126153846154,84.00000000000466L1156.1692153846154,84.00000000000466L1156.592123076923,84.00000000000466L1158.3496615384615,84.00000000000466L1158.4869692307693,84.00000000000466L1159.9753846153847,84.00000000000466L1160.4037846153844,84.00000000000466L1160.694876923077,84.00000000000466L1162.5128307692307,84.00000000000466L1165.566553846154,84.00000000000466L1166.978076923077,84.00000000000466L1166.9890615384616,84.00000000000466L1167.730523076923,84.00000000000466L1169.943923076923,84.00000000000466L1170.0592615384614,84.00000000000466L1171.3279846153846,84.00000000000466L1172.371523076923,84.00000000000466L1175.8591384615384,84.00000000000466L1178.187876923077,84.00000000000466L1178.9128615384616,84.00000000000466L1181.1647076923077,84.00000000000466L1182.081923076923,84.00000000000466L1182.1368461538461,84.00000000000466L1182.4608923076923,84.00000000000466L1184.2843384615385,84.00000000000466L1189.502030769231,84.00000000000466L1189.8041076923078,84.00000000000466L1195.5106153846154,84.00000000000466L1197.3834923076922,84.00000000000466L1198.1249538461539,84.00000000000466L1200.8656153846155,84.00000000000466L1201.7334,84.00000000000466L1204.8200769230768,84.00000000000466L1204.8420461538462,84.00000000000466L1206.303,84.00000000000466L1206.3249692307693,84.00000000000466L1206.8412461538462,84.00000000000466L1207.3245692307692,84.00000000000466L1208.9008615384614,84.00000000000466L1209.483046153846,84.00000000000466L1210.125646153846,84.00000000000466L1212.4763538461539,84.00000000000466L1216.8921692307692,84.00000000000466L1218.1059692307692,84.00000000000466L1220.6214461538461,84.00000000000466L1222.4119384615385,84.00000000000466L1224.5154923076923,84.00000000000466L1225.0702153846155,84.00000000000466L1226.7124153846155,84.00000000000466L1228.5468461538462,84.00000000000466L1233.0340615384616,84.00000000000466L1235.3573076923076,84.00000000000466L1236.7139076923077,84.00000000000466L1237.0269692307693,84.00000000000466L1237.9936153846154,84.00000000000466L1238.3670923076922,84.00000000000466L1240.0642153846154,84.00000000000466L1240.2399692307692,84.00000000000466L1242.057923076923,84.00000000000466L1242.7115076923078,84.00000000000466L1243.2991846153845,84.00000000000466L1243.3541076923077,84.00000000000466L1247.665569230769,84.00000000000466L1247.8468153846154,84.00000000000466L1250.1371076923078,84.00000000000466L1256.7718153846154,84.00000000000466L1257.6286153846154,84.00000000000466L1258.155876923077,84.00000000000466L1259.226876923077,84.00000000000466L1259.5014923076924,84.00000000000466L1262.439876923077,84.00000000000466L1263.1264153846155,84.00000000000466L1263.8568923076923,84.00000000000466L1266.3998307692307,84.00000000000466L1269.2118923076923,84.00000000000466L1270.0577076923078,84.00000000000466L1270.936476923077,84.00000000000466L1274.3417076923079,84.00000000000466L1274.4790153846154,84.00000000000466L1274.577876923077,84.00000000000466L1276.4178,84.00000000000466L1278.1588615384615,84.00000000000466L1279.1200153846153,84.00000000000466L1280.9599384615383,84.00000000000466L1282.360476923077,84.00000000000466L1282.6241076923077,84.00000000000466L1284.255323076923,84.00000000000466L1284.540923076923,84.00000000000466L1284.936369230769,84.00000000000466L1286.611523076923,84.00000000000466L1287.4793076923077,84.00000000000466L1287.8912307692308,84.00000000000466L1288.303153846154,84.00000000000466L1290.7417384615385,84.00000000000466L1291.3513846153846,84.00000000000466L1292.1862153846153,84.00000000000466L1294.1799230769232,84.00000000000466L1294.3776461538462,84.00000000000466L1296.2560153846155,84.00000000000466L1296.8272153846153,84.00000000000466L1300.1500615384616,84.00000000000466L1300.1665384615385,84.00000000000466L1300.2654,84.00000000000466L1300.496076923077,84.00000000000466L1301.2704923076924,84.00000000000466L1302.5611846153845,84.00000000000466L1304.6153076923079,84.00000000000466L1305.1425692307691,84.00000000000466L1305.779676923077,84.00000000000466L1306.1421692307692,84.00000000000466L1310.157046153846,84.00000000000466L1310.7007846153847,84.00000000000466L1310.936953846154,84.00000000000466L1311.5520923076924,84.00000000000466L1311.8981076923078,84.00000000000466L1313.9961692307693,84.00000000000466L1314.5179384615385,84.00000000000466L1314.633276923077,84.00000000000466L1317.934153846154,84.00000000000466L1322.0533846153846,84.00000000000466L1322.5147384615384,84.00000000000466L1326.1561384615386,84.00000000000466L1326.4032923076923,84.00000000000466L1326.6449538461538,84.00000000000466L1328.451923076923,84.00000000000466L1334.5538769230768,84.00000000000466L1338.5028461538461,84.00000000000466L1338.7060615384614,84.00000000000466L1339.3706307692307,84.00000000000466L1341.8476615384616,84.00000000000466L1344.214846153846,84.00000000000466L1344.2532923076924,84.00000000000466L1344.6542307692307,84.00000000000466L1346.7797538461539,84.00000000000466L1347.1092923076922,84.00000000000466L1347.9880615384616,84.00000000000466L1348.8119076923076,84.00000000000466L1348.8283846153845,84.00000000000466L1348.833876923077,84.00000000000466L1349.6247692307693,84.00000000000466L1351.6514307692307,84.00000000000466L1352.6510307692308,84.00000000000466L1353.974676923077,84.00000000000466L1355.3477538461539,84.00000000000466L1355.4576,84.00000000000466L1361.8012153846155,84.00000000000466L1362.366923076923,84.00000000000466L1362.4767692307692,84.00000000000466L1364.042076923077,84.00000000000466L1366.1126769230768,84.00000000000466L1368.8039076923076,84.00000000000466L1371.2644615384615,84.00000000000466L1371.396276923077,84.00000000000466L1371.7862307692308,84.00000000000466L1377.075323076923,84.00000000000466L1377.910153846154,84.00000000000466L1379.8104923076924,84.00000000000466L1380.1290461538463,84.00000000000466L1382.3424461538461,84.00000000000466L1382.6829692307692,84.00000000000466" style="fill: none;" fill="none"></path></g></g></g></g><g opacity="0.2"><g><g><g><path stroke="rgb(255, 112, 67)" stroke-width="2px" d="M111.07643076923077,2544.9374999999977L113.13055384615384,248.06249999999986L114.26746153846155,2544.9374999999977L120.21563076923077,2873.0624999999973L122.5883076923077,84L125.3674153846154,84L125.97706153846154,576.1874999999995L133.69924615384616,412.1249999999997L133.84204615384616,84L137.84044615384616,1396.4999999999989L140.41633846153846,412.1249999999997L141.5642307692308,84L142.3002,740.2499999999994L143.12404615384614,904.3124999999993L146.74896923076923,248.06249999999986L149.0832,248.06249999999986L150.12673846153848,84L151.2416769230769,2544.9374999999977L151.38447692307693,248.06249999999986L153.13103076923076,84L154.54804615384617,412.1249999999997L155.76733846153846,3365.249999999997L156.98663076923077,84L157.34363076923077,904.3124999999993L157.37658461538462,248.06249999999986L157.5029076923077,248.06249999999986L158.91992307692308,412.1249999999997L160.1721692307692,2052.749999999998L163.8684923076923,84L165.1536923076923,248.06249999999986L167.5098923076923,248.06249999999986L167.56481538461537,84L169.1466,84L169.16856923076924,904.3124999999993L170.12423076923076,84L172.0026,1232.437499999999L172.80996923076924,84L175.5671076923077,412.1249999999997L176.19872307692307,248.06249999999986L176.39644615384614,248.06249999999986L177.41252307692307,248.06249999999986L178.21439999999998,84L178.73616923076924,84L179.43918461538462,84L180.40583076923076,412.1249999999997L181.9326923076923,740.2499999999994L181.95466153846152,248.06249999999986L184.22847692307693,84L184.27790769230768,84L186.47483076923078,248.06249999999986L188.25433846153845,248.06249999999986L190.96753846153848,84L191.0114769230769,740.2499999999994L192.08796923076923,248.06249999999986L194.70230769230767,248.06249999999986L196.1522769230769,412.1249999999997L197.70659999999998,84L198.90392307692306,412.1249999999997L202.90781538461536,412.1249999999997L208.63629230769232,248.06249999999986L209.88304615384618,248.06249999999986L210.98150769230767,84L212.9642307692308,84L217.27020000000002,84L218.4730153846154,84L218.99478461538462,412.1249999999997L219.73624615384617,412.1249999999997L221.28507692307693,248.06249999999986L222.9986769230769,84L224.10263076923079,84L224.94844615384613,248.06249999999986L225.86016923076923,248.06249999999986L226.71696923076922,84L227.1124153846154,84L227.95273846153847,84L228.4854923076923,84L229.6224,84L231.3909230769231,412.1249999999997L231.5007692307692,84L233.13747692307692,84L234.10961538461538,84L234.9719076923077,84L235.72984615384613,84L236.2571076923077,84L237.06996923076923,84L239.49756923076924,84L239.6293846153846,412.1249999999997L240.4092923076923,84L240.79924615384613,248.06249999999986L240.85966153846152,84L241.38692307692307,248.06249999999986L241.4198769230769,84L243.01264615384616,248.06249999999986L243.44104615384617,84L246.9012,84L249.82310769230767,84L250.38332307692306,248.06249999999986L251.1138,248.06249999999986L252.36055384615386,84L255.52412307692308,84L255.88112307692307,412.1249999999997L256.1118,84L258.111,248.06249999999986L258.57784615384617,84L259.539,412.1249999999997L260.72533846153846,84L260.7967384615385,248.06249999999986L262.77396923076924,740.2499999999994L262.80143076923076,248.06249999999986L262.92775384615385,84L264.8720307692308,84L264.97638461538463,84L270.40278461538463,248.06249999999986L270.9739846153846,84L271.6660153846154,248.06249999999986L271.78684615384617,84L272.84686153846155,248.06249999999986L273.59381538461537,84L276.47178461538465,248.06249999999986L278.7016615384615,84L281.3599384615385,248.06249999999986L283.57883076923076,84L286.01192307692304,84L287.08841538461536,84L287.30261538461536,84L288.07703076923076,84L288.50543076923077,84L288.8734153846154,84L289.34575384615385,248.06249999999986L290.8506461538462,576.1874999999995L293.0915076923077,84L293.3935846153846,84L295.596,84L295.85413846153847,248.06249999999986L296.9580923076923,84L298.68816923076923,84L298.8199846153846,84L299.9459076923077,84L300.56653846153847,412.1249999999997L300.6654,84L301.56613846153846,84L304.1530153846154,84L304.72970769230767,84L305.6688923076923,84L306.13024615384614,84L307.27264615384615,248.06249999999986L307.5472615384615,84L309.9144461538462,84L310.8591230769231,740.2499999999994L312.23769230769227,84L314.0446615384615,84L314.4291230769231,84L315.42323076923077,248.06249999999986L317.6366307692308,84L317.9002615384615,84L318.9273230769231,84L319.48204615384617,248.06249999999986L321.6460153846154,84L324.27133846153845,84L326.96806153846154,84L331.2246,84L332.5043076923077,84L333.10846153846154,84L334.7616461538462,84L337.64510769230765,84L337.8922615384615,84L343.1978307692308,84L346.0593230769231,84L346.3723846153846,84L348.4374923076923,84L350.3543076923077,84L350.84861538461536,84L351.9251076923077,84L352.4413846153846,84L352.9302,84L353.11144615384615,84L353.39155384615384,84L355.19303076923075,84L355.41272307692304,84L355.70930769230773,84L360.61393846153845,84L360.9324923076923,84L361.25653846153847,84L363.1513846153846,84L363.2667230769231,84L365.1670615384615,84L369.39613846153844,84L370.50558461538463,84L372.2686153846154,84L377.0304461538462,84L377.6785384615385,84L378.93627692307695,84L379.6447846153846,84L379.68323076923076,84L379.7161846153846,84L381.5011846153846,84L382.3964307692308,248.06249999999986L383.15986153846154,84L386.66944615384614,84L386.86167692307697,248.06249999999986L387.80635384615385,84L391.40930769230766,84L393.93576923076927,84L394.1389846153846,84L394.1994,84L395.13309230769227,84L395.32532307692304,248.06249999999986L398.59873846153846,84L399.6093230769231,248.06249999999986L401.4712153846154,84L403.6956,84L404.8160307692308,248.06249999999986L404.8325076923077,84L404.9478461538461,84L405.11810769230766,84L405.8430923076923,84L405.97490769230774,84L406.0188461538462,84L406.4033076923077,84L407.0404153846154,84L407.86426153846156,84L410.85207692307694,84L411.74732307692307,84L412.5272307692308,84L414.8779384615384,84L415.7731846153846,84L416.65195384615384,84L416.80024615384616,84L416.9430461538462,84L418.23373846153845,84L418.38203076923077,84L421.68290769230765,84L422.22115384615387,84L424.0171384615384,248.06249999999986L426.60950769230766,84L427.1587384615385,84L427.95512307692303,84L433.1178923076923,84L434.4085846153846,84L434.79853846153844,84L435.1775076923077,84L436.3363846153846,84L437.6929846153846,84L439.1759076923077,248.06249999999986L443.8278923076923,84L445.65133846153844,84L454.8015230769231,84L454.86193846153844,84L458.4978461538462,84L460.12356923076925,84L460.33227692307696,84L460.76616923076926,84L462.8642307692308,84L463.0399846153846,84L464.84146153846154,84L465.41815384615387,84L466.02230769230766,84L472.83826153846155,84L473.7444923076923,84L474.5079230769231,84L476.06224615384616,84L476.8915846153846,84L477.9516,84L478.6985538461538,84L479.0280923076923,84L479.3411538461538,84L479.5663384615384,84L480.74718461538464,84L481.95000000000005,84L487.5631384615384,84L488.31009230769234,84L488.35952307692304,84L490.27633846153844,84L491.8471384615384,84L492.6160615384615,84L493.13233846153844,84L494.3736,84L494.9612769230769,84L496.22450769230767,84L496.2354923076923,84L497.74587692307693,84L498.44340000000005,84L500.07461538461536,84L503.0679230769231,84L503.1338307692307,84L505.3692,84L507.42881538461535,84L507.5166923076923,84L507.61006153846154,84L509.5323692307692,84L509.796,84L510.4166307692308,84L511.3448307692308,84L511.4436923076923,84L511.74576923076927,84L513.2451692307693,84L515.2938,84L516.2988923076923,84L517.4577692307691,84L518.0179846153845,84L520.7696307692307,84L521.22,84L521.4946153846154,84L521.6593846153846,84L522.5106923076922,84L522.9390923076924,84L523.6970307692308,84L523.8947538461538,84L525.0096923076924,84L526.2015230769231,84L526.2289846153847,84L528.3435230769231,84L528.5192769230769,84L531.7926923076923,84L532.1167384615384,84L532.232076923077,84L532.8856615384615,84L534.5992615384615,84L535.445076923077,84L536.7742153846153,84L539.8169538461539,84L540.2892923076923,84L540.8769692307692,84L541.2998769230769,84L544.0075846153846,84L545.1115384615384,84L545.5619076923077,84L546.2704153846154,84L547.6929230769231,84L548.1487846153846,84L548.6540769230769,84L548.6540769230769,84L552.6305076923077,84L553.4433692307692,84L555.5963538461539,84L556.7552307692308,84L558.1173230769231,84L561.0941538461539,84L561.3028615384616,84L561.8026615384615,84L562.7693076923077,84L562.9670307692307,84L563.1757384615385,84L563.6041384615385,84L564.1149230769231,84L565.0211538461538,84L567.9760153846154,84L568.0693846153846,84L568.5472153846154,84L569.0909538461539,84L569.7665076923076,84L572.2764923076923,84L573.5671846153847,84L574.8633692307692,84L575.1764307692308,84L575.8904307692308,84L579.2132769230769,84L580.3062461538461,84L582.6569538461539,84L583.8103384615384,84L584.4968769230769,84L584.766,84L585.0406153846154,84L585.996276923077,84L587.9240769230769,84L588.1986923076923,84L588.4238769230769,84L588.7973538461538,84L589.6431692307692,84L589.9122923076923,84L592.8506769230769,84L593.0264307692307,84L593.8118307692307,84L595.0750615384616,84L597.8871230769231,84L599.0789538461539,84L600.5289230769231,84L600.8969076923076,84L603.2146615384615,84L606.7077692307691,84L606.9054923076924,84L612.6229846153847,84L614.3201076923077,84L618.9281538461538,84L620.5813384615384,84L621.3722307692308,84L622.8936,84L624.1183846153846,84L627.2874461538462,84L628.3749230769231,84L629.0230153846154,84L629.2646769230769,84L629.5008461538462,84L631.5659538461539,84L632.1536307692307,84L635.4819692307692,84L636.0806307692308,84L637.0362923076923,84L638.5247076923077,84L641.2653692307692,84L642.2100461538462,84L642.7098461538462,84L644.1323538461538,84L644.3026153846154,84L644.5552615384615,84L644.8188923076923,84L645.1594153846154,84L645.5988,84L646.2194307692307,84L646.6258615384615,84L647.3288769230769,84L647.7133384615385,84L648.6360461538461,84L650.0255999999999,84L651.8820000000001,84L652.4861538461539,84L653.5461692307692,84L653.8482461538462,84L654.650123076923,84L654.8094,84L655.7046461538462,84L655.7705538461538,84L659.3680153846153,84L659.9447076923077,84L661.6857692307692,84L662.6688923076923,84L664.821876923077,84L665.0635384615384,84L666.9913384615385,84L670.4844461538461,84L672.0113076923077,84L674.713523076923,84L678.4592769230769,84L678.5142000000001,84L678.7338923076923,84L679.2062307692307,84L680.1179538461538,84L683.3858769230769,84L683.4847384615385,84L683.5616307692308,84L685.5608307692307,84L687.3128769230769,84L688.3728923076924,84L689.6526,84L690.811476923077,84L692.453676923077,84L694.1892461538462,84L696.0346615384616,84L696.5893846153847,84L700.2417692307693,84L701.3512153846154,84L701.4775384615385,84L701.5709076923076,84L701.9388923076923,84L703.9326,84L704.0534307692308,84L709.5182769230769,84L709.946676923077,84L710.3256461538462,84L710.8584000000001,84L712.1051538461538,84L714.0714,84L715.8618923076923,84L715.9168153846153,84L717.8775692307692,84L719.7010153846154,84L720.9038307692308,84L722.9964,84L723.0293538461538,84L724.2431538461539,84L726.6872307692307,84L727.9010307692308,84L729.6146307692308,84L731.3062615384615,84L731.9927999999999,84L732.6408923076924,84L733.9260923076923,84L734.8707692307692,84L737.2324615384616,84L738.6000461538462,84L738.759323076923,84L740.6596615384616,84L742.3787538461538,84L744.2900769230769,84L744.4109076923077,84L746.4815076923077,84L747.3767538461537,84L749.4803076923077,84L749.5956461538462,84L750.3590769230768,84L750.6062307692308,84L752.5285384615385,84L752.5505076923076,84L753.7588153846153,84L754.1377846153846,84L755.5273384615384,84L756.5598923076923,84L758.7623076923077,84L758.9105999999999,84L760.2617076923076,84L761.0965384615384,84L763.6559538461539,84L764.963123076923,84L766.8799384615385,84L768.8132307692307,84L769.5382153846153,84L769.8128307692308,84L769.8787384615384,84L770.9991692307692,84L773.0148461538462,84L773.2510153846155,84L773.5530923076923,84L775.7005846153846,84L775.7884615384614,84L779.3859230769231,84L779.9845846153846,84L780.1054153846154,84L781.6542461538462,84L782.7582,84L786.2348307692307,84L786.6028153846154,84L787.4925692307693,84L789.0853384615385,84L789.3654461538462,84L790.6451538461538,84L794.2371230769231,84L795.4948615384616,84L797.0162307692308,84L799.1088,84L800.2237384615383,84L801.4540153846153,84L801.7231384615384,84L802.5854307692308,84L803.8266923076923,84L805.2876461538461,84L805.4853692307692,84L806.0071384615384,84L806.0455846153845,84L806.4410307692307,84L806.4410307692307,84L808.6104923076922,84L809.6265692307692,84L810.6481384615386,84L811.2907384615385,84L813.4821692307693,84L814.9486153846154,84L815.300123076923,84L815.404476923077,84L815.8932923076923,84L816.3436615384616,84L816.4644923076924,84L817.2389076923076,84L821.5229076923077,84L822.0941076923076,84L823.1376461538462,84L823.917553846154,84L826.4275384615386,84L826.7131384615385,84L828.6684,84L829.3000153846154,84L832.4690769230768,84L832.5404769230769,84L832.826076923077,84L833.1336461538463,84L833.5620461538462,84L834.4737692307691,84L834.6934615384615,84L835.5337846153847,84L835.7095384615385,84L836.808,84L837.8405538461539,84L838.2689538461537,84L838.6424307692308,84L839.1092769230769,84L839.4607846153847,84L839.8452461538461,84L844.9860461538461,84L846.6776769230769,84L847.6937538461539,84L848.1056769230769,84L849.0668307692307,84L849.2755384615385,84L849.5556461538462,84L850.3300615384616,84L851.4120461538461,84L852.856523076923,84L853.6638923076923,84L855.6521076923077,84L855.7674461538461,84L858.3872769230769,84L858.6948461538461,84L858.711323076923,84L859.6065692307692,84L863.242476923077,84L866.9497846153847,84L867.350723076923,84L867.883476923077,84L871.1184461538462,84L872.0466461538463,84L872.2169076923077,84L873.5076,84L874.2435692307693,84L874.3039846153847,84L874.6005692307692,84L876.2153076923076,84L877.6103538461539,84L877.9069384615384,84L878.9340000000001,84L880.0709076923077,84L880.345523076923,84L880.4993076923078,84L881.7954923076923,84L882.8664923076923,84L884.0473384615385,84L884.755846153846,84L885.3984461538462,84L886.2717230769232,84L886.5847846153846,84L886.733076923077,84L887.7711230769231,84L887.9029384615384,84L888.5180769230768,84L891.072,84L893.7852,84L895.3230461538462,84L895.3285384615385,84L896.4874153846154,84L896.6302153846153,84L897.1684615384615,84L897.1684615384615,84L898.6184307692307,84L899.2006153846154,84L899.6784461538462,84L900.8538,84L901.0515230769231,84L901.7545384615385,84L901.9028307692308,84L902.2433538461538,84L902.9134153846154,84L908.2684153846154,84L909.2405538461538,84L910.3719692307692,84L910.6246153846154,84L910.6795384615384,84L913.1016461538461,84L916.5892615384615,84L917.2758,84L918.2644153846155,84L921.4938923076924,84L924.3883384615385,84L925.6735384615386,84L926.3051538461539,84L926.6346923076923,84L928.1231076923077,84L928.2494307692308,84L928.4142,84L930.0783692307692,84L930.2651076923078,84L930.5452153846154,84L931.2811846153845,84L931.8908307692309,84L932.3137384615384,84L935.2521230769231,84L937.2348461538462,84L941.7824769230768,84L942.6612461538462,84L942.837,84L943.8311076923077,84L945.8742461538461,84L946.2861692307692,84L951.5532923076923,84L955.7768769230769,84L957.1005230769231,84L959.7972461538462,84L959.9125846153846,84L961.7305384615386,84L962.7136615384615,84L963.0926307692307,84L964.0153384615385,84L964.7897538461538,84L965.2456153846153,84L965.7564,84L965.9211692307692,84L966.7230461538461,84L966.8054307692308,84L972.1494461538462,84L972.4295538461539,84L973.2533999999999,84L974.9779846153847,84L975.0329076923077,84L975.0658615384616,84L976.1039076923076,84L976.5432923076922,84L977.3506615384615,84L980.7613846153847,84L983.9853692307692,84L985.5177230769232,84L985.7978307692308,84L986.638153846154,84L988.7032615384614,84L989.0602615384616,84L989.906076923077,84L990.6090923076923,84L993.7616769230768,84L995.4917538461539,84L997.9303384615384,84L1000.8412615384616,84L1000.9840615384616,84L1001.8902923076923,84L1004.1641076923078,84L1005.7294153846153,84L1007.6352461538462,84L1010.3704153846153,84L1010.5187076923077,84L1011.0844153846153,84L1011.326076923077,84L1013.3747076923077,84L1014.6214615384615,84L1014.7368,84L1023.930923076923,84L1024.820676923077,84L1024.9909384615385,84L1028.3851846153846,84L1029.033276923077,84L1029.3957692307692,84L1029.5220923076922,84L1030.1207538461538,84L1031.2411846153846,84L1031.4444,84L1031.8782923076924,84L1032.4110461538462,84L1033.0481538461538,84L1033.7017384615385,84L1033.7511692307692,84L1034.0367692307693,84L1035.6624923076922,84L1036.244676923077,84L1038.7381846153846,84L1038.8315538461538,84L1040.188153846154,84L1040.7538615384615,84L1042.846430769231,84L1044.675369230769,84L1044.757753846154,84L1045.6365230769231,84L1046.1198461538463,84L1048.1739692307692,84L1048.8165692307691,84L1048.9703538461538,84L1049.761246153846,84L1052.6776615384615,84L1052.7655384615384,84L1056.0499384615384,84L1058.6587846153845,84L1059.2794153846153,84L1059.576,84L1060.5151846153847,84L1060.7898,84L1061.2291846153846,84L1061.805876923077,84L1062.0255692307694,84L1063.9698461538462,84L1066.4523692307694,84L1066.946676923077,84L1067.303676923077,84L1070.126723076923,84L1072.4994,84L1074.4162153846155,84L1075.7563384615385,84L1076.1847384615385,84L1076.5087846153847,84L1077.0195692307693,84L1077.1513846153846,84L1079.2164923076923,84L1079.3153538461538,84L1080.8861538461538,84L1082.1164307692309,84L1082.3251384615385,84L1082.583276923077,84L1085.1646615384616,84L1085.6754461538462,84L1088.7840923076924,84L1088.9433692307691,84L1089.0532153846154,84L1091.1402923076923,84L1091.1787384615386,84L1093.4635384615385,84L1094.737753846154,84L1095.5670923076923,84L1096.5886615384616,84L1099.290876923077,84L1102.1139230769231,84L1102.5697846153846,84L1102.7839846153845,84L1103.4156,84L1104.6403846153846,84L1105.5576,84L1106.4583384615385,84L1107.6611538461539,84L1107.7105846153847,84L1112.022046153846,84L1113.428076923077,84L1114.0102615384615,84L1115.8721538461539,84L1115.9160923076922,84L1116.6630461538462,84L1116.7399384615385,84L1116.7454307692308,84L1117.3276153846155,84L1118.0745692307692,84L1124.8850307692308,84L1125.6978923076924,84L1127.9991692307692,84L1129.3557692307693,84L1131.9536307692308,84L1132.673123076923,84L1133.315723076923,84L1136.506753846154,84L1138.0940307692308,84L1138.236830769231,84L1141.0928307692309,84L1144.7122615384617,84L1145.2175538461538,84L1145.4427384615385,84L1147.3211076923076,84L1147.3320923076924,84L1147.7879538461539,84L1147.8648461538462,84L1149.5454923076923,84L1150.9954615384615,84L1151.1931846153846,84L1151.7149538461538,84L1152.4234615384614,84L1153.4395384615384,84L1154.8126153846154,84L1156.1692153846154,84L1156.592123076923,84L1158.3496615384615,84L1158.4869692307693,84L1159.9753846153847,84L1160.4037846153844,84L1160.694876923077,84L1162.5128307692307,84L1165.566553846154,84L1166.978076923077,84L1166.9890615384616,84L1167.730523076923,84L1169.943923076923,84L1170.0592615384614,84L1171.3279846153846,84L1172.371523076923,84L1175.8591384615384,84L1178.187876923077,84L1178.9128615384616,84L1181.1647076923077,84L1182.081923076923,84L1182.1368461538461,84L1182.4608923076923,84L1184.2843384615385,84L1189.502030769231,84L1189.8041076923078,84L1195.5106153846154,84L1197.3834923076922,84L1198.1249538461539,84L1200.8656153846155,84L1201.7334,84L1204.8200769230768,84L1204.8420461538462,84L1206.303,84L1206.3249692307693,84L1206.8412461538462,84L1207.3245692307692,84L1208.9008615384614,84L1209.483046153846,84L1210.125646153846,84L1212.4763538461539,84L1216.8921692307692,84L1218.1059692307692,84L1220.6214461538461,84L1222.4119384615385,84L1224.5154923076923,84L1225.0702153846155,84L1226.7124153846155,84L1228.5468461538462,84L1233.0340615384616,84L1235.3573076923076,84L1236.7139076923077,84L1237.0269692307693,84L1237.9936153846154,84L1238.3670923076922,84L1240.0642153846154,84L1240.2399692307692,84L1242.057923076923,84L1242.7115076923078,84L1243.2991846153845,84L1243.3541076923077,84L1247.665569230769,84L1247.8468153846154,84L1250.1371076923078,84L1256.7718153846154,84L1257.6286153846154,84L1258.155876923077,84L1259.226876923077,84L1259.5014923076924,84L1262.439876923077,84L1263.1264153846155,84L1263.8568923076923,84L1266.3998307692307,84L1269.2118923076923,84L1270.0577076923078,84L1270.936476923077,84L1274.3417076923079,84L1274.4790153846154,84L1274.577876923077,84L1276.4178,84L1278.1588615384615,84L1279.1200153846153,84L1280.9599384615383,84L1282.360476923077,84L1282.6241076923077,84L1284.255323076923,84L1284.540923076923,84L1284.936369230769,84L1286.611523076923,84L1287.4793076923077,84L1287.8912307692308,84L1288.303153846154,84L1290.7417384615385,84L1291.3513846153846,84L1292.1862153846153,84L1294.1799230769232,84L1294.3776461538462,84L1296.2560153846155,84L1296.8272153846153,84L1300.1500615384616,84L1300.1665384615385,84L1300.2654,84L1300.496076923077,84L1301.2704923076924,84L1302.5611846153845,84L1304.6153076923079,84L1305.1425692307691,84L1305.779676923077,84L1306.1421692307692,84L1310.157046153846,84L1310.7007846153847,84L1310.936953846154,84L1311.5520923076924,84L1311.8981076923078,84L1313.9961692307693,84L1314.5179384615385,84L1314.633276923077,84L1317.934153846154,84L1322.0533846153846,84L1322.5147384615384,84L1326.1561384615386,84L1326.4032923076923,84L1326.6449538461538,84L1328.451923076923,84L1334.5538769230768,84L1338.5028461538461,84L1338.7060615384614,84L1339.3706307692307,84L1341.8476615384616,84L1344.214846153846,84L1344.2532923076924,84L1344.6542307692307,84L1346.7797538461539,84L1347.1092923076922,84L1347.9880615384616,84L1348.8119076923076,84L1348.8283846153845,84L1348.833876923077,84L1349.6247692307693,84L1351.6514307692307,84L1352.6510307692308,84L1353.974676923077,84L1355.3477538461539,84L1355.4576,84L1361.8012153846155,84L1362.366923076923,84L1362.4767692307692,84L1364.042076923077,84L1366.1126769230768,84L1368.8039076923076,84L1371.2644615384615,84L1371.396276923077,84L1371.7862307692308,84L1377.075323076923,84L1377.910153846154,84L1379.8104923076924,84L1380.1290461538463,84L1382.3424461538461,84L1382.6829692307692,84" style="fill: none;" fill="none"></path></g></g></g></g></g></g><g transform="translate(70, 378)" clip-path="url(#clip_1)"><clipPath id="clip_1"><rect width="1428" height="22"></rect></clipPath><g><g><line x1="0" y1="0" x2="0" y2="5" style="visibility: inherit;" fill="rgb(0, 0, 0)" stroke="rgb(204, 204, 204)" stroke-width="1px"></line><line x1="109.84615384615385" y1="0" x2="109.84615384615385" y2="5" style="visibility: inherit;" fill="rgb(0, 0, 0)" stroke="rgb(204, 204, 204)" stroke-width="1px"></line><line x1="219.6923076923077" y1="0" x2="219.6923076923077" y2="5" style="visibility: inherit;" fill="rgb(0, 0, 0)" stroke="rgb(204, 204, 204)" stroke-width="1px"></line><line x1="329.53846153846155" y1="0" x2="329.53846153846155" y2="5" style="visibility: inherit;" fill="rgb(0, 0, 0)" stroke="rgb(204, 204, 204)" stroke-width="1px"></line><line x1="439.3846153846154" y1="0" x2="439.3846153846154" y2="5" style="visibility: inherit;" fill="rgb(0, 0, 0)" stroke="rgb(204, 204, 204)" stroke-width="1px"></line><line x1="549.2307692307693" y1="0" x2="549.2307692307693" y2="5" style="visibility: inherit;" fill="rgb(0, 0, 0)" stroke="rgb(204, 204, 204)" stroke-width="1px"></line><line x1="659.0769230769231" y1="0" x2="659.0769230769231" y2="5" style="visibility: inherit;" fill="rgb(0, 0, 0)" stroke="rgb(204, 204, 204)" stroke-width="1px"></line><line x1="768.9230769230769" y1="0" x2="768.9230769230769" y2="5" style="visibility: inherit;" fill="rgb(0, 0, 0)" stroke="rgb(204, 204, 204)" stroke-width="1px"></line><line x1="878.7692307692308" y1="0" x2="878.7692307692308" y2="5" style="visibility: inherit;" fill="rgb(0, 0, 0)" stroke="rgb(204, 204, 204)" stroke-width="1px"></line><line x1="988.6153846153846" y1="0" x2="988.6153846153846" y2="5" style="visibility: inherit;" fill="rgb(0, 0, 0)" stroke="rgb(204, 204, 204)" stroke-width="1px"></line><line x1="1098.4615384615386" y1="0" x2="1098.4615384615386" y2="5" style="visibility: inherit;" fill="rgb(0, 0, 0)" stroke="rgb(204, 204, 204)" stroke-width="1px"></line><line x1="1208.3076923076924" y1="0" x2="1208.3076923076924" y2="5" style="visibility: inherit;" fill="rgb(0, 0, 0)" stroke="rgb(204, 204, 204)" stroke-width="1px"></line><line x1="1318.1538461538462" y1="0" x2="1318.1538461538462" y2="5" style="visibility: inherit;" fill="rgb(0, 0, 0)" stroke="rgb(204, 204, 204)" stroke-width="1px"></line><line x1="1428" y1="0" x2="1428" y2="5" style="visibility: inherit;" fill="rgb(0, 0, 0)" stroke="rgb(204, 204, 204)" stroke-width="1px"></line></g><g transform="translate(0, 8)"><text x="0" y="0" dx="0em" dy="0.95em" style="text-anchor: middle; visibility: hidden; font-family: &quot;Helvetica Neue&quot;, sans-serif; font-size: 12px; font-weight: 200;" fill="rgb(50, 49, 63)" stroke="none" stroke-width="1px">-20k</text><text x="109.84615384615385" y="0" dx="0em" dy="0.95em" style="text-anchor: middle; visibility: inherit; font-family: &quot;Helvetica Neue&quot;, sans-serif; font-size: 12px; font-weight: 200;" fill="rgb(50, 49, 63)" stroke="none" stroke-width="1px">0</text><text x="219.6923076923077" y="0" dx="0em" dy="0.95em" style="text-anchor: middle; visibility: inherit; font-family: &quot;Helvetica Neue&quot;, sans-serif; font-size: 12px; font-weight: 200;" fill="rgb(50, 49, 63)" stroke="none" stroke-width="1px">20k</text><text x="329.53846153846155" y="0" dx="0em" dy="0.95em" style="text-anchor: middle; visibility: inherit; font-family: &quot;Helvetica Neue&quot;, sans-serif; font-size: 12px; font-weight: 200;" fill="rgb(50, 49, 63)" stroke="none" stroke-width="1px">40k</text><text x="439.3846153846154" y="0" dx="0em" dy="0.95em" style="text-anchor: middle; visibility: inherit; font-family: &quot;Helvetica Neue&quot;, sans-serif; font-size: 12px; font-weight: 200;" fill="rgb(50, 49, 63)" stroke="none" stroke-width="1px">60k</text><text x="549.2307692307693" y="0" dx="0em" dy="0.95em" style="text-anchor: middle; visibility: inherit; font-family: &quot;Helvetica Neue&quot;, sans-serif; font-size: 12px; font-weight: 200;" fill="rgb(50, 49, 63)" stroke="none" stroke-width="1px">80k</text><text x="659.0769230769231" y="0" dx="0em" dy="0.95em" style="text-anchor: middle; visibility: inherit; font-family: &quot;Helvetica Neue&quot;, sans-serif; font-size: 12px; font-weight: 200;" fill="rgb(50, 49, 63)" stroke="none" stroke-width="1px">100k</text><text x="768.9230769230769" y="0" dx="0em" dy="0.95em" style="text-anchor: middle; visibility: inherit; font-family: &quot;Helvetica Neue&quot;, sans-serif; font-size: 12px; font-weight: 200;" fill="rgb(50, 49, 63)" stroke="none" stroke-width="1px">120k</text><text x="878.7692307692308" y="0" dx="0em" dy="0.95em" style="text-anchor: middle; visibility: inherit; font-family: &quot;Helvetica Neue&quot;, sans-serif; font-size: 12px; font-weight: 200;" fill="rgb(50, 49, 63)" stroke="none" stroke-width="1px">140k</text><text x="988.6153846153846" y="0" dx="0em" dy="0.95em" style="text-anchor: middle; visibility: inherit; font-family: &quot;Helvetica Neue&quot;, sans-serif; font-size: 12px; font-weight: 200;" fill="rgb(50, 49, 63)" stroke="none" stroke-width="1px">160k</text><text x="1098.4615384615386" y="0" dx="0em" dy="0.95em" style="text-anchor: middle; visibility: inherit; font-family: &quot;Helvetica Neue&quot;, sans-serif; font-size: 12px; font-weight: 200;" fill="rgb(50, 49, 63)" stroke="none" stroke-width="1px">180k</text><text x="1208.3076923076924" y="0" dx="0em" dy="0.95em" style="text-anchor: middle; visibility: inherit; font-family: &quot;Helvetica Neue&quot;, sans-serif; font-size: 12px; font-weight: 200;" fill="rgb(50, 49, 63)" stroke="none" stroke-width="1px">200k</text><text x="1318.1538461538462" y="0" dx="0em" dy="0.95em" style="text-anchor: middle; visibility: inherit; font-family: &quot;Helvetica Neue&quot;, sans-serif; font-size: 12px; font-weight: 200;" fill="rgb(50, 49, 63)" stroke="none" stroke-width="1px">220k</text><text x="1428" y="0" dx="0em" dy="0.95em" style="text-anchor: middle; visibility: hidden; font-family: &quot;Helvetica Neue&quot;, sans-serif; font-size: 12px; font-weight: 200;" fill="rgb(50, 49, 63)" stroke="none" stroke-width="1px">240k</text></g><line x1="0" y1="0" x2="1428" y2="0" fill="rgb(0, 0, 0)" stroke="rgb(204, 204, 204)" stroke-width="1px"></line></g></g></g></g></svg>