<svg viewBox="0 0 1498 400" xmlns="http://www.w3.org/2000/svg"><g><g><g><g><g><line x1="70" y1="378" x2="65" y2="378" style="visibility: inherit;" fill="rgb(0, 0, 0)" stroke="rgb(204, 204, 204)" stroke-width="1px"></line><line x1="70" y1="336" x2="65" y2="336" style="visibility: inherit;" fill="rgb(0, 0, 0)" stroke="rgb(204, 204, 204)" stroke-width="1px"></line><line x1="70" y1="294" x2="65" y2="294" style="visibility: inherit;" fill="rgb(0, 0, 0)" stroke="rgb(204, 204, 204)" stroke-width="1px"></line><line x1="70" y1="252" x2="65" y2="252" style="visibility: inherit;" fill="rgb(0, 0, 0)" stroke="rgb(204, 204, 204)" stroke-width="1px"></line><line x1="70" y1="210" x2="65" y2="210" style="visibility: inherit;" fill="rgb(0, 0, 0)" stroke="rgb(204, 204, 204)" stroke-width="1px"></line><line x1="70" y1="168" x2="65" y2="168" style="visibility: inherit;" fill="rgb(0, 0, 0)" stroke="rgb(204, 204, 204)" stroke-width="1px"></line><line x1="70" y1="126" x2="65" y2="126" style="visibility: inherit;" fill="rgb(0, 0, 0)" stroke="rgb(204, 204, 204)" stroke-width="1px"></line><line x1="70" y1="84" x2="65" y2="84" style="visibility: inherit;" fill="rgb(0, 0, 0)" stroke="rgb(204, 204, 204)" stroke-width="1px"></line><line x1="70" y1="42" x2="65" y2="42" style="visibility: inherit;" fill="rgb(0, 0, 0)" stroke="rgb(204, 204, 204)" stroke-width="1px"></line><line x1="70" y1="0" x2="65" y2="0" style="visibility: inherit;" fill="rgb(0, 0, 0)" stroke="rgb(204, 204, 204)" stroke-width="1px"></line></g><g transform="translate(60, 0)"><text x="0" y="378" dx="0em" dy="0.3em" style="text-anchor: end; visibility: hidden; font-family: &quot;Helvetica Neue&quot;, sans-serif; font-size: 12px; font-weight: 200;" fill="rgb(50, 49, 63)" stroke="none" stroke-width="1px">0.986</text><text x="0" y="336" dx="0em" dy="0.3em" style="text-anchor: end; visibility: inherit; font-family: &quot;Helvetica Neue&quot;, sans-serif; font-size: 12px; font-weight: 200;" fill="rgb(50, 49, 63)" stroke="none" stroke-width="1px">0.988</text><text x="0" y="294" dx="0em" dy="0.3em" style="text-anchor: end; visibility: inherit; font-family: &quot;Helvetica Neue&quot;, sans-serif; font-size: 12px; font-weight: 200;" fill="rgb(50, 49, 63)" stroke="none" stroke-width="1px">0.99</text><text x="0" y="252" dx="0em" dy="0.3em" style="text-anchor: end; visibility: inherit; font-family: &quot;Helvetica Neue&quot;, sans-serif; font-size: 12px; font-weight: 200;" fill="rgb(50, 49, 63)" stroke="none" stroke-width="1px">0.992</text><text x="0" y="210" dx="0em" dy="0.3em" style="text-anchor: end; visibility: inherit; font-family: &quot;Helvetica Neue&quot;, sans-serif; font-size: 12px; font-weight: 200;" fill="rgb(50, 49, 63)" stroke="none" stroke-width="1px">0.994</text><text x="0" y="168" dx="0em" dy="0.3em" style="text-anchor: end; visibility: inherit; font-family: &quot;Helvetica Neue&quot;, sans-serif; font-size: 12px; font-weight: 200;" fill="rgb(50, 49, 63)" stroke="none" stroke-width="1px">0.996</text><text x="0" y="126" dx="0em" dy="0.3em" style="text-anchor: end; visibility: inherit; font-family: &quot;Helvetica Neue&quot;, sans-serif; font-size: 12px; font-weight: 200;" fill="rgb(50, 49, 63)" stroke="none" stroke-width="1px">0.998</text><text x="0" y="84" dx="0em" dy="0.3em" style="text-anchor: end; visibility: inherit; font-family: &quot;Helvetica Neue&quot;, sans-serif; font-size: 12px; font-weight: 200;" fill="rgb(50, 49, 63)" stroke="none" stroke-width="1px">1</text><text x="0" y="42" dx="0em" dy="0.3em" style="text-anchor: end; visibility: inherit; font-family: &quot;Helvetica Neue&quot;, sans-serif; font-size: 12px; font-weight: 200;" fill="rgb(50, 49, 63)" stroke="none" stroke-width="1px">1</text><text x="0" y="0" dx="0em" dy="0.3em" style="text-anchor: end; visibility: hidden; font-family: &quot;Helvetica Neue&quot;, sans-serif; font-size: 12px; font-weight: 200;" fill="rgb(50, 49, 63)" stroke="none" stroke-width="1px">1</text></g><line x1="70" y1="0" x2="70" y2="378" fill="rgb(0, 0, 0)" stroke="rgb(204, 204, 204)" stroke-width="1px"></line></g></g><g transform="translate(70, 0)" clip-path="url(#clip_0)"><clipPath id="clip_0"><rect width="1428" height="378"></rect></clipPath><g><g><g><line x1="0" y1="0" x2="0" y2="378" fill="rgb(0, 0, 0)" stroke="rgb(60, 60, 60)" stroke-width="1px" opacity="0.25"></line><line x1="109.84615384615385" y1="0" x2="109.84615384615385" y2="378" fill="rgb(0, 0, 0)" stroke="rgb(60, 60, 60)" stroke-width="1px" opacity="0.25"></line><line x1="219.6923076923077" y1="0" x2="219.6923076923077" y2="378" fill="rgb(0, 0, 0)" stroke="rgb(60, 60, 60)" stroke-width="1px" opacity="0.25"></line><line x1="329.53846153846155" y1="0" x2="329.53846153846155" y2="378" fill="rgb(0, 0, 0)" stroke="rgb(60, 60, 60)" stroke-width="1px" opacity="0.25"></line><line x1="439.3846153846154" y1="0" x2="439.3846153846154" y2="378" fill="rgb(0, 0, 0)" stroke="rgb(60, 60, 60)" stroke-width="1px" opacity="0.25"></line><line x1="549.2307692307693" y1="0" x2="549.2307692307693" y2="378" fill="rgb(0, 0, 0)" stroke="rgb(60, 60, 60)" stroke-width="1px" opacity="0.25"></line><line x1="659.0769230769231" y1="0" x2="659.0769230769231" y2="378" fill="rgb(0, 0, 0)" stroke="rgb(60, 60, 60)" stroke-width="1px" opacity="0.25"></line><line x1="768.9230769230769" y1="0" x2="768.9230769230769" y2="378" fill="rgb(0, 0, 0)" stroke="rgb(60, 60, 60)" stroke-width="1px" opacity="0.25"></line><line x1="878.7692307692308" y1="0" x2="878.7692307692308" y2="378" fill="rgb(0, 0, 0)" stroke="rgb(60, 60, 60)" stroke-width="1px" opacity="0.25"></line><line x1="988.6153846153846" y1="0" x2="988.6153846153846" y2="378" fill="rgb(0, 0, 0)" stroke="rgb(60, 60, 60)" stroke-width="1px" opacity="0.25"></line><line x1="1098.4615384615386" y1="0" x2="1098.4615384615386" y2="378" fill="rgb(0, 0, 0)" stroke="rgb(60, 60, 60)" stroke-width="1px" opacity="0.25"></line><line x1="1208.3076923076924" y1="0" x2="1208.3076923076924" y2="378" fill="rgb(0, 0, 0)" stroke="rgb(60, 60, 60)" stroke-width="1px" opacity="0.25"></line><line x1="1318.1538461538462" y1="0" x2="1318.1538461538462" y2="378" fill="rgb(0, 0, 0)" stroke="rgb(60, 60, 60)" stroke-width="1px" opacity="0.25"></line><line x1="1428" y1="0" x2="1428" y2="378" fill="rgb(0, 0, 0)" stroke="rgb(60, 60, 60)" stroke-width="1px" opacity="0.25"></line></g><g><line x1="0" y1="378" x2="1428" y2="378" fill="rgb(0, 0, 0)" stroke="rgb(60, 60, 60)" stroke-width="1px" opacity="0.25"></line><line x1="0" y1="336" x2="1428" y2="336" fill="rgb(0, 0, 0)" stroke="rgb(60, 60, 60)" stroke-width="1px" opacity="0.25"></line><line x1="0" y1="294" x2="1428" y2="294" fill="rgb(0, 0, 0)" stroke="rgb(60, 60, 60)" stroke-width="1px" opacity="0.25"></line><line x1="0" y1="252" x2="1428" y2="252" fill="rgb(0, 0, 0)" stroke="rgb(60, 60, 60)" stroke-width="1px" opacity="0.25"></line><line x1="0" y1="210" x2="1428" y2="210" fill="rgb(0, 0, 0)" stroke="rgb(60, 60, 60)" stroke-width="1px" opacity="0.25"></line><line x1="0" y1="168" x2="1428" y2="168" fill="rgb(0, 0, 0)" stroke="rgb(60, 60, 60)" stroke-width="1px" opacity="0.25"></line><line x1="0" y1="126" x2="1428" y2="126" fill="rgb(0, 0, 0)" stroke="rgb(60, 60, 60)" stroke-width="1px" opacity="0.25"></line><line x1="0" y1="84" x2="1428" y2="84" fill="rgb(0, 0, 0)" stroke="rgb(60, 60, 60)" stroke-width="1px" opacity="0.25"></line><line x1="0" y1="42" x2="1428" y2="42" fill="rgb(0, 0, 0)" stroke="rgb(60, 60, 60)" stroke-width="1px" opacity="0.25"></line><line x1="0" y1="0" x2="1428" y2="0" fill="rgb(0, 0, 0)" stroke="rgb(60, 60, 60)" stroke-width="1px" opacity="0.25"></line></g></g></g><g><g><line x1="0" y1="21083.99999999998" x2="1428" y2="21083.99999999998" fill="rgb(0, 0, 0)" stroke="rgb(153, 153, 153)" stroke-width="1.5px"></line></g></g><g><g><line x1="109.84615384615385" y1="0" x2="109.84615384615385" y2="378" fill="rgb(0, 0, 0)" stroke="rgb(153, 153, 153)" stroke-width="1.5px"></line></g></g><g><g><g><g><g><path stroke="rgb(255, 112, 67)" stroke-width="2px" d="M154.54804615384617,408.5500023452636L155.76733846153846,344.35493570412217L156.98663076923077,338.65045791938513L157.34363076923077,302.4152614005344L157.37658461538462,444.7366883038752L170.12423076923076,451.13400401701534L172.0026,369.9054023450572L172.80996923076924,419.6057414309504L175.5671076923077,383.800944848231L176.19872307692307,296.6930668938488L176.39644615384614,277.24084013428694L177.41252307692307,396.8195040880322L178.21439999999998,304.504202449365L178.73616923076924,281.927521469113L179.43918461538462,327.2007830160493L180.40583076923076,328.35796980963977L181.9326923076923,263.4272818854705L181.95466153846152,257.28136913126264L184.22847692307693,220.7813214786918L184.27790769230768,198.8812928871964L186.47483076923078,316.99127573239275L188.25433846153845,256.60726543941325L190.96753846153848,318.81435926366134L191.0114769230769,257.70111555818886L192.08796923076923,253.84566933491095L194.70230769230767,185.90740160094282L196.1522769230769,243.5819409605684L197.70659999999998,245.37416457634333L198.90392307692306,246.44949874580547L201.3589846153846,214.28219924748186L202.90781538461536,293.41931954848803L208.63629230769232,242.46409172909236L209.88304615384618,179.07845503745776L210.98150769230767,206.6720730224755L212.9642307692308,288.8532438134847L217.27020000000002,272.5369462880903L218.4730153846154,229.9346677728532L218.99478461538462,204.37330066371376L219.73624615384617,189.03648039822824L221.28507692307693,147.02188823893835L222.9986769230769,154.6256329433644L224.10263076923079,192.00037976601996L224.94844615384613,214.42522785961285L225.86016923076923,195.06763671576815L226.71696923076922,183.45308202946225L227.1124153846154,143.67184921767785L227.95273846153847,185.42810953060524L228.4854923076923,177.66936571836453L229.6224,173.01411943101914L231.3909230769231,170.22097165861143L231.5007692307692,135.7325829951669L233.13747692307692,180.66454979710008L234.10961538461538,174.81122987825952L234.9719076923077,236.92423792695516L235.72984615384613,307.00454275617346L236.2571076923077,250.61522565370498L237.06996923076923,249.59413539222155L239.49756923076924,314.6064812353328L239.6293846153846,222.36388874119874L240.4092923076923,232.64333324471733L240.79924615384613,304.43599994683075L240.85966153846152,249.0740999680998L241.38692307692307,183.0444599808599L241.4198769230769,143.42667598851688L243.01264615384616,250.9060055931086L243.44104615384617,216.9561033558656L246.9012,196.5861620135198L249.82310769230767,217.17669720811043L250.38332307692306,196.7185183248667L251.1138,217.2561109949176L252.36055384615386,163.95366659695154L255.52412307692308,197.59719995816897L255.88112307692307,152.15831997490045L256.1118,124.89499198493982L258.111,141.34949519096338L258.57784615384617,151.22219711457896L259.539,124.3333182687478L260.72533846153846,141.01249096124866L260.7967384615385,183.83249457674958L262.77396923076924,176.71199674604927L262.80143076923076,139.62719804762958L262.92775384615385,150.1888188285772L264.8720307692308,156.52579129714726L264.97638461538463,160.32797477828973L270.40278461538463,162.6092848669752L270.9739846153846,163.9780709201851L271.6660153846154,131.98684255211015L271.78684615384617,112.79210553126609L272.84686153846155,134.08776331875916L273.59381538461537,146.86515799125686L276.47178461538465,154.53159479475363L278.7016615384615,126.31895687685125L281.3599384615385,175.0163741261102L283.57883076923076,171.42232447566704L286.01192307692304,169.26589468539973L287.08841538461536,135.15953681123938L287.30261538461536,114.69572208674361L288.07703076923076,102.41743325204521L288.50543076923077,127.86295995122666L288.8734153846154,110.31777597073648L289.34575384615385,132.60316558244278L290.8506461538462,178.78689934946374L293.0915076923077,140.87213960967827L293.3935846153846,150.9357837658074L295.596,222.59897025948572L295.85413846153847,199.97188215569187L296.9580923076923,219.20812929341272L298.68816923076923,165.12487757604717L298.8199846153846,165.48742654562827L299.9459076923077,165.7049559273774L300.56653846153847,133.02297355642642L300.6654,146.22628413385584L301.56613846153846,121.33577048031395L304.1530153846154,106.40146228818838L304.72970769230767,97.4408773729121L305.6688923076923,92.06452642374632L306.13024615384614,121.65121585424777L307.27264615384615,106.5907295125491L307.5472615384615,97.55443770752998L309.9144461538462,92.13266262451748L310.8591230769231,154.50459757471046L312.23769230769227,159.11525854482764L314.0446615384615,161.8816551268961L314.4291230769231,130.72899307613673L315.42323076923077,112.03739584568297L317.6366307692308,100.82243750740884L317.9002615384615,94.09346250444531L318.9273230769231,122.86857750266853L319.48204615384617,140.13364650160062L321.6460153846154,117.68018790095988L324.27133846153845,104.20811274057638L326.96806153846154,96.12486764434539L331.2246,124.0874205866086L332.5043076923077,140.86495235196557L333.10846153846154,150.93147141117933L334.7616461538462,156.97138284670848L337.64510769230765,160.595329708026L337.8922615384615,129.95719782481606L343.1978307692308,111.57431869489011L346.0593230769231,133.35709121693452L346.3723846153846,113.61425473016163L348.4374923076923,134.58105283809695L350.3543076923077,147.16113170285814L350.84861538461536,121.89667902171442L351.9251076923077,139.5505074130291L352.4413846153846,117.33030444781747L352.9302,136.81068266869045L353.11144615384615,115.68640960121382L353.39155384615384,103.01184576072922L355.19303076923075,95.40710745643844L355.41272307692304,90.84426447386352L355.70930769230773,88.10655868431718L360.61393846153845,86.46393521058985L360.9324923076923,118.29086112635434L361.25653846153847,104.57451667581353L363.1513846153846,129.15721000548763L363.2667230769231,111.09432600329353L365.1670615384615,133.06909560197653L369.39613846153844,113.4414573611864L370.50558461538463,101.66487441671137L372.2686153846154,94.59892465002775L377.0304461538462,90.35935479001762L377.6785384615385,120.62811287401098L378.93627692307695,105.9768677244075L379.6447846153846,97.18612063464451L379.68323076923076,91.91167238078668L379.7161846153846,88.74700342847154L381.5011846153846,86.84820205708246L382.3964307692308,85.70892123424949L383.15986153846154,85.02535274055015L386.66944615384614,150.24021164433097L386.86167692307697,156.55662698659808L387.80635384615385,127.53397619195837L391.40930769230766,110.12038571517502L393.93576923076927,132.48473142910498L394.1389846153846,113.09083885746253L394.1994,101.45450331447705L395.13309230769227,94.47270198868574L395.32532307692304,123.09612119321193L398.59873846153846,107.45767271592666L399.6093230769231,98.07460362955646L401.4712153846154,125.25726217773524L403.6956,141.56685730664253L404.8160307692308,184.1651143839836L404.8325076923077,144.0990686303892L404.9478461538461,152.87194117823395L405.11810769230766,125.32316470694039L405.8430923076923,108.79389882416473L405.97490769230774,131.68883929449927L406.0188461538462,112.61330357669908L406.4033076923077,101.16798214601897L407.0404153846154,94.30078928761048L407.86426153846156,122.9929735725658L410.85207692307694,107.39578414353946L411.74732307692307,98.03747048612371L412.5272307692308,125.23498229167419L414.8779384615384,108.74098937500543L415.7731846153846,197.28209362500132L416.65195384615384,151.96925617500034L416.80024615384616,124.78155370500068L416.9430461538462,141.28143222300037L418.23373846153845,118.36885933380114L418.38203076923077,104.62131560028024L421.68290769230765,129.185289360169L422.22115384615387,111.11117361610235L424.0171384615384,165.89170416966087L426.60950769230766,133.13502250179656L427.1587384615385,113.48101350107697L427.95512307692303,101.68860810064615L433.1178923076923,94.61316486038862L434.4085846153846,155.992898916235L434.79853846153844,127.1957393497419L435.1775076923077,175.54244360984325L436.3363846153846,138.92546616590596L437.6929846153846,149.767779699544L439.1759076923077,189.08566781972775L443.8278923076923,147.0514006918362L445.65133846153844,121.83084041510216L454.8015230769231,172.32350424906122L454.86193846153844,136.9941025494372L458.4978461538462,115.79646152966143L460.12356923076925,135.8903769177968L460.33227692307696,147.9467261506776L460.76616923076926,122.36803569040654L462.8642307692308,139.8333214142453L463.0399846153846,183.12499284854573L464.84146153846154,143.47499570912788L465.41815384615387,119.68499742547766L466.02230769230766,105.41099845528612L472.83826153846155,96.84659907317075L473.7444923076923,157.33295944390332L474.5079230769231,127.99977566634246L476.06224615384616,143.21236539980686L476.8915846153846,152.33991923988407L477.9516,125.00395154392953L478.6985538461538,108.60237092635816L479.0280923076923,98.76142255581487L479.3411538461538,92.85685353348941L479.5663384615384,89.31411212009459L480.74718461538464,87.18846727205772L481.95000000000005,85.91308036323369L487.5631384615384,85.14784821794069L488.31009230769234,84.68870893076536L488.35952307692304,84.41322535845967L490.27633846153844,117.06043521507672L491.8471384615384,136.648761129046L492.6160615384615,115.58925667742761L493.13233846153844,102.95355400645701L494.3736,95.37213240387467L494.9612769230769,123.63577944232617L496.22450769230767,107.78146766539476L496.2354923076923,98.26888059923783L497.74587692307693,92.56132835954315L498.44340000000005,89.1367970157259L500.07461538461536,87.08207820943505L503.0679230769231,413.9742469256603L503.1338307692307,347.609548155397L505.3692,307.79072889323817L507.42881538461535,218.2744373359429L507.5166923076923,197.3771624015657L507.61006153846154,152.02629744093895L509.5323692307692,124.81577846456338L509.796,108.48946707873705L510.4166307692308,160.9160656537368L511.3448307692308,130.14963939224256L511.4436923076923,111.68978363534598L511.74576923076927,100.61387018120809L513.2451692307693,93.96832210872577L515.2938,89.9809932652359L516.2988923076923,87.5885959591406L517.4577692307691,118.9656575754853L518.0179846153845,104.9793945452912L520.7696307692307,96.58763672717379L521.22,124.3650820363047L521.4946153846154,141.0315492217837L521.6593846153846,118.2189295330702L522.5106923076922,104.53135771984216L522.9390923076924,96.31881463190575L523.6970307692308,91.39128877914249L523.8947538461538,88.43477326748598L525.0096923076924,86.66086396049161L526.2015230769231,118.40901837629491L526.2289846153847,104.64541102577738L528.3435230769231,96.38724661546553L528.5192769230769,91.43234796927834L531.7926923076923,88.45940878156705L532.1167384615384,86.67564526894114L532.232076923077,85.60538716136517L532.8856615384615,84.9632322968182L534.5992615384615,117.3904393780918L535.445076923077,104.03426362685553L536.7742153846153,96.02055817611381L539.8169538461539,91.21233490566874L540.2892923076923,88.32740094340079L540.8769692307692,86.59644056604043L541.2998769230769,85.55786433962334L544.0075846153846,84.93471860377446L545.1115384615384,146.78321656875923L545.5619076923077,121.6699299412565L546.2704153846154,106.60195796475483L547.6929230769231,97.56117477885243L548.1487846153846,92.13670486731098L548.6540769230769,88.88202292038756L548.6540769230769,119.74171375223341L552.6305076923077,105.44502825134055L553.4433692307692,129.6795169508038L555.5963538461539,144.2202101704818L556.7552307692308,185.75712610228996L558.1173230769231,177.86677566137396L561.0941538461539,140.32006539682484L561.3028615384616,117.7920392380949L561.8026615384615,104.27522354285651L562.7693076923077,96.16513412571294L562.9670307692307,91.2990804754287L563.1757384615385,88.37944828525815L563.6041384615385,119.44016897115438L564.1149230769231,105.26410138269222L565.0211538461538,96.75846082961482L567.9760153846154,91.655076497768L568.0693846153846,88.59304589866173L568.5472153846154,86.75582753919656L569.0909538461539,85.65349652351887L569.7665076923076,84.99209791411226L572.2764923076923,84.59525874846685L573.5671846153847,84.3571552490792L574.8633692307692,84.214293149448L575.1764307692308,84.1285758896679L575.8904307692308,84.07714553379981L579.2132769230769,84.04628732028033L580.3062461538461,84.02777239216869L582.6569538461539,84.0166634353003L583.8103384615384,116.82249806118108L584.4968769230769,103.69349883670913L584.766,95.8160993020245L585.0406153846154,91.08965958121564L585.996276923077,88.25379574872983L587.9240769230769,86.55227744923792L588.1986923076923,85.53136646954323L588.4238769230769,84.91881988172594L588.7973538461538,84.55129192903604L589.6431692307692,84.33077515742207L589.9122923076923,149.82346509445085L592.8506769230769,123.49407905667096L593.0264307692307,107.69644743400164L593.8118307692307,98.21786846040004L595.0750615384616,92.53072107624098L597.8871230769231,89.11843264574554L599.0789538461539,87.07105958744825L600.5289230769231,85.84263575246803L600.8969076923076,85.1055814514799L603.2146615384615,84.66334887088794L606.7077692307691,117.2105093225332L606.9054923076924,103.92630559351994L612.6229846153847,128.76828335611145L614.3201076923077,143.67347001366824L618.9281538461538,152.6165820082009L620.5813384615384,125.1699492049201L621.3722307692308,141.51446952295342L622.8936,118.50868171377203L624.1183846153846,104.7052090282628L627.2874461538462,96.42312541695765L628.3749230769231,91.45387525017458L629.0230153846154,186.9098251501061L629.2646769230769,145.7458950900632L629.5008461538462,153.8600370540388L631.5659538461539,158.72852223242324L632.1536307692307,128.83711333945303L635.4819692307692,110.90226800367088L636.0806307692308,100.14136080220203L637.0362923076923,126.49731648132166L638.5247076923077,109.4983898887935L641.2653692307692,99.29903393327703L642.2100461538462,125.99192035996663L642.7098461538462,109.19515221597999L644.1323538461538,99.1170913295889L644.3026153846154,93.07025479775336L644.5552615384615,89.442152878652L644.8188923076923,87.2652917271921L645.1594153846154,118.77167503631523L645.5988,104.86300502178915L646.2194307692307,96.51780301307303L646.6258615384615,91.51068180784478L647.3288769230769,88.5064090847078L647.7133384615385,86.7038454508251L648.6360461538461,85.62230727049462L650.0255999999999,84.97338436229677L651.8820000000001,84.58403061737897L652.4861538461539,84.3504183704269L653.5461692307692,84.2102510222557L653.8482461538462,116.93865061335384L654.650123076923,103.76319036801232L654.8094,95.8579142208074L655.7046461538462,91.11474853248353L655.7705538461538,121.08134911949054L659.3680153846153,139.06130947169567L659.9447076923077,117.03678568301831L661.6857692307692,103.82207140981194L662.6688923076923,95.8932428458881L664.821876923077,91.13594570753236L665.0635384615384,88.28156742451989L666.9913384615385,119.38144045471148L670.4844461538461,105.22886427282685L672.0113076923077,96.73731856369523L674.713523076923,91.64239113821617L678.4592769230769,88.5854346829297L678.5142000000001,86.75126080975826L678.7338923076923,85.65075648585542L679.2062307692307,84.99045389151422L680.1179538461538,84.59427233490806L683.3858769230769,84.35656340094437L683.4847384615385,84.21393804056567L683.5616307692308,84.12836282433852L685.5608307692307,116.88951769460397L687.3128769230769,103.73371061676289L688.3728923076924,128.6527263700591L689.6526,110.79163582203546L690.811476923077,132.8874814932217L692.453676923077,113.33248889593398L694.1892461538462,101.59949333756038L696.0346615384616,94.55969600253667L696.5893846153847,90.33581760152202L700.2417692307693,87.80149056091227L701.3512153846154,86.28089433654645L701.4775384615385,85.36853660192696L701.5709076923076,84.82112196115571L701.9388923076923,84.49267317669393L703.9326,84.29560390601682L704.0534307692308,116.98986234361098L709.5182769230769,136.60641740616796L709.946676923077,115.56385044370074L710.3256461538462,102.93831026622092L710.8584000000001,95.36298615973163L712.1051538461538,123.63029169583896L714.0714,140.59067501750286L715.8618923076923,117.95440501050126L715.9168153846153,137.1851430063021L717.8775692307692,148.72358580378216L719.7010153846154,122.83415148226882L720.9038307692308,205.73799088936354L722.9964,485.1677945336174L723.0293538461538,423.1381767201708L724.2431538461539,320.295406032102L726.6872307692307,225.77724361926212L727.9010307692308,169.06634617155822L729.6146307692308,167.8523077029344L731.3062615384615,167.12388462176017L731.9927999999999,166.68683077305653L732.6408923076924,133.61209846383392L733.9260923076923,179.39225907829842L734.8707692307692,141.23535544697907L737.2324615384616,151.15371326818882L738.6000461538462,124.2922279609142L738.759323076923,108.17533677654944L740.6596615384616,131.31770206592918L742.3787538461538,112.39062123955654L744.2900769230769,101.03437274373442L744.4109076923077,94.22062364624065L746.4815076923077,90.13237418774395L747.3767538461537,87.67942451264634L749.4803076923077,86.20765470758687L749.5956461538462,118.1370928245521L750.3590769230768,104.48225569473124L750.6062307692308,96.28935341683922L752.5285384615385,91.37361205010399L752.5505076923076,88.42416723006335L753.7588153846153,86.65450033803893L754.1377846153846,85.59270020282241L755.5273384615384,84.95562012169393L756.5598923076923,150.19837207301677L758.7623076923077,189.34402324381L758.9105999999999,147.20641394628507L760.2617076923076,154.73634836777148L761.0965384615384,126.44180902066384L763.6559538461539,109.46508541239876L764.963123076923,99.2790512474383L766.8799384615385,93.16743074846391L768.8132307692307,89.50045844907743L769.5382153846153,87.30027506944549L769.8128307692308,85.9801650416673L769.8787384615384,85.18809902500038L770.9991692307692,84.71285941499974L773.0148461538462,117.24021564900124L773.2510153846155,103.94412938939979L773.5530923076923,161.59147763364075L775.7005846153846,130.554886580184L775.7884615384614,111.93293194811042L779.3859230769231,100.75975916886716L779.9845846153846,94.05585550131934L780.1054153846154,122.84601330079161L781.6542461538462,107.30760798047402L782.7582,130.79706478828578L786.2348307692307,112.07823887297053L786.6028153846154,100.84694332378228L787.4925692307693,94.10816599427034L789.0853384615385,155.6898995965631L789.3654461538462,159.8264397579383L790.6451538461538,129.49586385476294L794.2371230769231,111.29751831285682L795.4948615384616,100.3785109877146L797.0162307692308,93.82710659262875L799.1088,122.7087639555786L800.2237384615383,107.22525837334763L801.4540153846153,97.93515502400766L801.7231384615384,92.3610930144041L802.5854307692308,89.0166558086434L803.8266923076923,87.00999348518604L805.2876461538461,85.80599609111209L805.4853692307692,85.08359765466724L806.0071384615384,117.46265859280123L806.0455846153845,104.07759515568029L806.4410307692307,96.04655709340818L806.4410307692307,91.22793425604584L808.6104923076922,88.33676055362793L809.6265692307692,86.60205633217726L810.6481384615386,85.56123379930727L811.2907384615385,84.93674027958389L813.4821692307693,84.56204416774938L814.9486153846154,84.33722650064874L815.300123076923,84.20233590038879L815.404476923077,84.12140154023234L815.8932923076923,84.07284092413943L816.3436615384616,84.04370455448407L816.4644923076924,84.02622273269094L817.2389076923076,84.01573363961546L821.5229076923077,84.00944018376833L822.0941076923076,84.00566411026148L823.1376461538462,84.00339846615782L823.917553846154,149.62703907969464L826.4275384615386,123.37622344781585L826.7131384615385,107.62573406868904L828.6684,98.17544044121342L829.3000153846154,92.50526426472851L832.4690769230768,89.1031585588376L832.5404769230769,119.8743951353025L832.826076923077,138.3371370811829L833.1336461538463,116.60228224870974L833.5620461538462,103.56136934922489L834.4737692307691,95.73682160953445L834.6934615384615,156.6670929657211L835.5337846153847,160.41275577943355L835.7095384615385,129.84765346766014L836.808,111.50859208059558L837.8405538461539,100.50515524835737L838.2689538461537,93.9030931490135L838.6424307692308,89.94185588940809L839.1092769230769,87.56511353364488L839.4607846153847,118.9515681201878L839.8452461538461,104.97094087211269L844.9860461538461,96.58256452326856L846.6776769230769,91.54953871396111L847.6937538461539,121.34222322837616L848.1056769230769,106.40533393702526L849.0668307692307,97.44320036221467L849.2755384615385,92.06592021732786L849.5556461538462,121.65205213039809L850.3300615384616,106.59123127823983L851.4120461538461,97.55473876694435L852.856523076923,92.13284326016662L853.6638923076923,88.87970595610045L855.6521076923077,86.9278235736607L855.7674461538461,85.75669414419644L858.3872769230769,85.05401648651696L858.6948461538461,84.63240989191019L858.711323076923,84.37944593514516L859.6065692307692,84.22766756108621L863.242476923077,84.1366005366508L866.9497846153847,116.89446032199135L867.350723076923,103.73667619319531L867.883476923077,95.84200571591765L871.1184461538462,91.10520342955016L872.0466461538463,88.26312205772962L872.2169076923077,211.0021433686098L873.5076,160.20128602116543L874.2435692307693,129.72077161269877L874.3039846153847,111.43246296761833L874.6005692307692,100.45947778057052L876.2153076923076,93.87568666834323L877.6103538461539,89.9254120010055L877.9069384615384,87.55524720060328L878.9340000000001,86.13314832036104L880.0709076923077,118.09238899221754L880.345523076923,104.45543339533009L880.4993076923078,96.27326003719895L881.7954923076923,91.36395602232034L882.8664923076923,88.41837361339122L884.0473384615385,119.46352416803518L884.755846153846,105.27811450082203L885.3984461538462,96.76686870049366L886.2717230769232,91.66012122029667L886.5847846153846,154.22107273217608L886.733076923077,224.57014363930463L887.7711230769231,168.34208618358278L887.9029384615384,134.60525171015013L888.5180769230768,114.36315102609007L891.072,102.21789061565357L893.7852,94.93073436939261L895.3230461538462,90.55844062163561L895.3285384615385,87.93506437298043L896.4874153846154,86.3610386237878L896.6302153846153,85.41662317427364L897.1684615384615,84.8499739045651L897.1684615384615,117.32248434273998L898.6184307692307,103.99349060564492L899.2006153846154,95.99609436338784L899.6784461538462,124.01015661803314L900.8538,108.006093970819L901.0515230769231,131.2161563824923L901.7545384615385,210.76719382949577L901.9028307692308,160.06031629769697L902.2433538461538,129.63618977861913L902.9134153846154,111.38171386717102L908.2684153846154,100.42902832030165L909.2405538461538,93.85741699218102L910.3719692307692,89.91445019530767L910.6246153846154,87.54867011718505L910.6795384615384,86.12920207031198L913.1016461538461,85.27752124218671L916.5892615384615,117.57901274531247L917.2758,136.95990764718744L918.2644153846155,115.77594458831152L921.4938923076924,103.06556675298788L924.3883384615385,95.43934005179227L925.6735384615386,90.86360403107489L926.3051538461539,88.11816241864494L926.6346923076923,86.47089745118785L928.1231076923077,85.48253847071368L928.2494307692308,84.88952308242773L928.4142,84.53371384945711L930.0783692307692,84.32022830967429L930.2651076923078,84.19213698580455L930.5452153846154,84.11528219148227L931.2811846153845,84.06916931488843L931.8908307692309,116.85400158893259L932.3137384615384,103.71240095336003L935.2521230769231,95.82744057201603L937.2348461538462,91.09646434321053L941.7824769230768,121.0703786059263L942.6612461538462,106.24222716355672L942.837,97.3453362981345L943.8311076923077,92.0072017788807L945.8742461538461,121.61682106732883L946.2861692307692,106.57009264039732L951.5532923076923,159.76444099073248L955.7768769230769,129.45866459443857L957.1005230769231,111.2751987566636L959.7972461538462,100.36511925399867L959.9125846153846,93.81907155239821L961.7305384615386,89.89144293143897L962.7136615384615,87.53486575886427L963.0926307692307,86.12091945531807L964.0153384615385,85.27255167319038L964.7897538461538,84.76353100391424L965.2456153846153,84.45811860234897L965.7564,84.27487116141032L965.9211692307692,84.16492269684619L966.7230461538461,84.09895361810817L966.8054307692308,116.8718721708658L972.1494461538462,103.72312330251856L972.4295538461539,95.83387398151115L973.2533999999999,91.10032438890761L974.9779846153847,88.26019463334501L975.0329076923077,86.55611678000656L975.0658615384616,85.53367006800488L976.1039076923076,84.92020204080245L976.5432923076922,84.55212122448097L977.3506615384615,84.33127273468813L980.7613846153847,146.42114904730647L983.9853692307692,121.45268942838487L985.5177230769232,106.47161365702999L985.7978307692308,97.48296819421847L986.638153846154,92.08978091653199L988.7032615384614,88.85386854991918L989.0602615384616,86.91232112995198L989.906076923077,118.55989267797162L990.6090923076923,104.73593560678296L993.7616769230768,96.44156136407025L995.4917538461539,91.46493681844265L997.9303384615384,88.47896209106557L1000.8412615384616,86.68737725463842L1000.9840615384616,85.61242635278262L1001.8902923076923,84.96745581167005L1004.1641076923078,84.58047348700109L1005.7294153846153,84.34828409220114L1007.6352461538462,84.20897045532024L1010.3704153846153,84.1253822731926L1010.5187076923077,84.07522936391604L1011.0844153846153,84.04513761834869L1011.326076923077,84.02708257101011L1013.3747076923077,84.01624954260512L1014.6214615384615,146.2321351320581L1014.7368,121.33928107923487L1023.930923076923,139.21606864754045L1024.820676923077,117.1296411885233L1024.9909384615385,166.10017011960758L1028.3851846153846,133.26010207176364L1029.033276923077,113.5560612430582L1029.3957692307692,101.73363674583538L1029.5220923076922,94.64018204750215L1030.1207538461538,90.3841092285013L1031.2411846153846,87.83046553710034L1031.4444,86.29827932226112L1031.8782923076924,85.37896759335621L1032.4110461538462,84.82738055601368L1033.0481538461538,84.4964283336073L1033.7017384615385,84.29785700016441L1033.7511692307692,84.17871420009863L1034.0367692307693,84.10722852005915L1035.6624923076922,84.0643371120346L1036.244676923077,84.03860226722077L1038.7381846153846,84.02316136033198L1038.8315538461538,84.01389681620014L1040.188153846154,146.23072349621557L1040.7538615384615,183.5608195042248L1042.846430769231,143.7364917025344L1044.675369230769,119.84189502152066L1044.757753846154,105.50513701291334L1045.6365230769231,96.90308220774892L1046.1198461538463,91.74184932464982L1048.1739692307692,121.45760959479082L1048.8165692307691,106.47456575687352L1048.9703538461538,97.4847394541232L1049.761246153846,92.09084367247391L1052.6776615384615,88.85450620348479L1052.7655384615384,149.13508912858453L1056.0499384615384,123.0810534771507L1058.6587846153845,107.44863208629044L1059.2794153846153,98.06917925177521L1059.576,92.44150755106466L1060.5151846153847,89.06490453063878L1060.7898,87.03894271838237L1061.2291846153846,85.82336563102848L1061.805876923077,85.09401937861708L1062.0255692307694,84.6564116271698L1063.9698461538462,84.3938469763014L1066.4523692307694,146.45869359227444L1066.946676923077,121.47521615536562L1067.303676923077,139.29762969321933L1070.126723076923,117.17857781593068L1072.4994,103.90714668955792L1074.4162153846155,95.94428801373567L1075.7563384615385,91.16657280824091L1076.1847384615385,88.29994368494454L1076.5087846153847,86.57996621096765L1077.0195692307693,85.54797972658059L1077.1513846153846,84.92878783594927L1079.2164923076923,84.55727270156956L1079.3153538461538,84.33436362094176L1080.8861538461538,84.20061817256413L1082.1164307692309,84.120370903538L1082.3251384615385,84.0722225421228L1082.583276923077,84.04333352527277L1085.1646615384616,84.02600011516319L1085.6754461538462,84.01560006909887L1088.7840923076924,84.00936004146024L1088.9433692307691,84.00561602487613L1089.0532153846154,84.00336961492474L1091.1402923076923,84.00202176895391L1091.1787384615386,84.00121306137237L1093.4635384615385,84.00072783682248L1094.737753846154,84.00043670209351L1095.5670923076923,84.00026202125702L1096.5886615384616,84.00015721275514L1099.290876923077,84.00009432765404L1102.1139230769231,146.22244200308697L1102.5697846153846,183.55585060834673L1102.7839846153845,143.73351036500756L1103.4156,119.84010621900455L1104.6403846153846,105.50406373140368L1105.5576,96.90243823884174L1106.4583384615385,91.74146294330455L1107.6611538461539,88.64487776598321L1107.7105846153847,86.78692665958948L1112.022046153846,85.6721559957532L1113.428076923077,85.00329359745098L1114.0102615384615,84.60197615847017L1115.8721538461539,84.36118569508113L1115.9160923076922,84.21671141704917L1116.6630461538462,116.942526850229L1116.7399384615385,103.76551611013787L1116.7454307692308,95.85930966608277L1117.3276153846155,91.11558579965009L1118.0745692307692,88.26935147978912L1124.8850307692308,86.56161088787258L1125.6978923076924,85.53696653272306L1127.9991692307692,84.92217991963383L1129.3557692307693,84.55330795178077L1131.9536307692308,84.331984771068L1132.673123076923,84.19919086263985L1133.315723076923,84.11951451758483L1136.506753846154,84.07170871055183L1138.0940307692308,84.04302522633208L1138.236830769231,84.02581513579969L1141.0928307692309,84.01548908148072L1144.7122615384617,84.00929344888846L1145.2175538461538,84.00557606933262L1145.4427384615385,84.00334564159908L1147.3211076923076,84.00200738495994L1147.3320923076924,84.00120443097597L1147.7879538461539,84.00072265858466L1147.8648461538462,84.00043359515081L1149.5454923076923,84.00026015708954L1150.9954615384615,84.00015609425418L1151.1931846153846,84.00009365655251L1151.7149538461538,84.00005619393153L1152.4234615384614,84.00003371635938L1153.4395384615384,84.00002022981516L1154.8126153846154,84.00001213789005L1156.1692153846154,84.00000728273307L1156.592123076923,84.0000043696403L1158.3496615384615,84.00000262178514L1158.4869692307693,84.00000157307204L1159.9753846153847,84.0000009438437L1160.4037846153844,84.00000056630665L1160.694876923077,146.2223857462781L1162.5128307692307,121.33343144776734L1165.566553846154,106.40005886865947L1166.978076923077,97.44003532119473L1166.9890615384616,92.06402119271735L1167.730523076923,88.83841271562943L1169.943923076923,86.90304762937723L1170.0592615384614,85.74182857762537L1171.3279846153846,85.04509714657434L1172.371523076923,84.62705828794549L1175.8591384615384,84.37623497276684L1178.187876923077,84.22574098366061L1178.9128615384616,84.1354445901959L1181.1647076923077,84.08126675411847L1182.081923076923,84.048760052472L1182.1368461538461,84.0292560314827L1182.4608923076923,84.01755361889013L1184.2843384615385,84.01053217133409L1189.502030769231,116.81881930280184L1189.8041076923078,103.69129158168204L1195.5106153846154,95.81477494900827L1197.3834923076922,91.088864969405L1198.1249538461539,88.25331898164205L1200.8656153846155,86.55199138898479L1201.7334,85.53119483338992L1204.8200769230768,84.91871690003444L1204.8420461538462,84.55123014002112L1206.303,117.14323808401218L1206.3249692307693,103.88594285040779L1206.8412461538462,128.7440657102451L1207.3245692307692,110.84643942614662L1208.9008615384614,100.10786365568748L1209.483046153846,93.66471819341297L1210.125646153846,89.7988309160487L1212.4763538461539,87.47929854962968L1216.8921692307692,86.08757912977876L1218.1059692307692,85.25254747786818L1220.6214461538461,84.75152848672042L1222.4119384615385,84.45091709203223L1224.5154923076923,84.2705502552198L1225.0702153846155,84.16233015313281L1226.7124153846155,84.09739809187965L1228.5468461538462,84.05843885512735L1233.0340615384616,84.03506331307733L1235.3573076923076,84.02103798784549L1236.7139076923077,84.01262279270776L1237.0269692307693,84.00757367562466L1237.9936153846154,84.00454420537432L1238.3670923076922,116.81522652322599L1240.0642153846154,103.68913591393601L1240.2399692307692,95.8134815483607L1242.057923076923,91.08808892901737L1242.7115076923078,121.06535335741131L1243.2991846153845,106.23921201444637L1243.3541076923077,97.34352720866826L1247.665569230769,92.00611632520145L1247.8468153846154,88.8036697951199L1250.1371076923078,86.88220187707287L1256.7718153846154,85.72932112624278L1257.6286153846154,85.0375926757452L1258.155876923077,117.43505560544713L1259.226876923077,104.06103336326777L1259.5014923076924,96.03662001796067L1262.439876923077,91.22197201077734L1263.1264153846155,88.33318320646549L1263.8568923076923,86.59990992387884L1266.3998307692307,85.55994595432725L1269.2118923076923,84.93596757259684L1270.0577076923078,84.56158054355905L1270.936476923077,84.33694832613492L1274.3417076923079,84.20216899568004L1274.4790153846154,84.12130139740896L1274.577876923077,84.0727808384463L1276.4178,84.04366850306826L1278.1588615384615,116.83870110184091L1279.1200153846153,103.70322066110361L1280.9599384615383,95.82193239666219L1282.360476923077,91.0931594379964L1282.6241076923077,88.25589566279785L1284.255323076923,86.55353739767918L1284.540923076923,85.53212243860656L1284.936369230769,84.91927346316305L1286.611523076923,84.55156407789781L1287.4793076923077,84.33093844673914L1287.8912307692308,84.19856306804257L1288.303153846154,84.11913784082509L1290.7417384615385,84.07148270449596L1291.3513846153846,84.04288962269806L1292.1862153846153,84.02573377361836L1294.1799230769232,84.01544026417054L1294.3776461538462,84.00926415850233L1296.2560153846155,84.00555849510187L1296.8272153846153,84.00333509706019L1300.1500615384616,84.00200105823615L1300.1665384615385,116.81370063494256L1300.2654,103.6882203809646L1300.496076923077,95.81293222857971L1301.2704923076924,91.0877593371469L1302.5611846153845,88.2526556022886L1304.6153076923079,86.55159336137223L1305.1425692307691,85.53095601682242L1305.779676923077,84.91857361009255L1306.1421692307692,84.55114416605551L1310.157046153846,84.33068649963332L1310.7007846153847,84.19841189977996L1310.936953846154,84.11904713986797L1311.5520923076924,84.07142828392125L1311.8981076923078,116.85535697035368L1313.9961692307693,103.71321418221123L1314.5179384615385,95.82792850932725L1314.633276923077,123.90925710559631L1317.934153846154,107.94555426335683L1322.0533846153846,98.3673325580146L1322.5147384615384,92.62039953480877L1326.1561384615386,89.1722397208843L1326.4032923076923,87.10334383253155L1326.6449538461538,85.86200629951941L1328.451923076923,85.11720377971074L1334.5538769230768,117.48282226782595L1338.5028461538461,104.0896933606951L1338.7060615384614,96.0538160164175L1339.3706307692307,91.23228960985148L1341.8476615384616,88.33937376591086L1344.214846153846,86.6036242595465L1344.2532923076924,85.56217455572835L1344.6542307692307,84.93730473343658L1346.7797538461539,84.5623828400619L1347.1092923076922,84.33742970403716L1347.9880615384616,117.0149578224237L1348.8119076923076,103.80897469345416L1348.8283846153845,95.88538481607162L1348.833876923077,91.13123088964295L1349.6247692307693,88.27873853378622L1351.6514307692307,86.56724312027268L1352.6510307692308,85.54034587216267L1353.974676923077,84.92420752329713L1355.3477538461539,84.55452451397878L1355.4576,84.33271470838724L1361.8012153846155,84.19962882503188L1362.366923076923,84.11977729501865L1362.4767692307692,84.07186637701074L1364.042076923077,84.04311982620595L1366.1126769230768,84.02587189572313L1368.8039076923076,84.0155231374348L1371.2644615384615,84.00931388245994L1371.396276923077,84.00558832947553L1371.7862307692308,84.00335299768483L1377.075323076923,84.00201179861136L1377.910153846154,84.00120707916727L1379.8104923076924,84.0007242475013L1380.1290461538463,84.00043454849987L1382.3424461538461,84.00026072909901L1382.6829692307692,149.6251564374612" style="fill: none;" fill="none"></path></g></g></g></g><g opacity="0.2"><g><g><g><path stroke="rgb(255, 112, 67)" stroke-width="2px" d="M151.2416769230769,494.15624999999966L151.38447692307693,330.0937499999998L153.13103076923076,330.0937499999998L154.54804615384617,248.06249999999986L155.76733846153846,248.06249999999986L156.98663076923077,330.0937499999998L157.34363076923077,248.06249999999986L157.37658461538462,658.2187499999995L157.5029076923077,740.2499999999994L158.91992307692308,330.0937499999998L160.1721692307692,494.15624999999966L169.1466,576.1874999999995L169.16856923076924,166.03124999999994L170.12423076923076,494.15624999999966L172.0026,248.06249999999986L172.80996923076924,494.15624999999966L175.5671076923077,330.0937499999998L176.19872307692307,166.03124999999994L176.39644615384614,248.06249999999986L177.41252307692307,576.1874999999995L178.21439999999998,166.03124999999994L178.73616923076924,248.06249999999986L179.43918461538462,395.11067533493014L180.40583076923076,330.0937499999998L181.9326923076923,166.03124999999994L181.95466153846152,248.06249999999986L184.22847692307693,166.03124999999994L184.27790769230768,166.03124999999994L186.47483076923078,494.15624999999966L188.25433846153845,166.03124999999994L190.96753846153848,412.1249999999997L191.0114769230769,166.03124999999994L192.08796923076923,248.06249999999986L194.70230769230767,84L196.1522769230769,330.0937499999998L197.70659999999998,248.06249999999986L198.90392307692306,248.06249999999986L201.3589846153846,166.03124999999994L202.90781538461536,412.1249999999997L208.63629230769232,166.03124999999994L209.88304615384618,84L210.98150769230767,248.06249999999986L212.9642307692308,412.1249999999997L217.27020000000002,248.06249999999986L218.4730153846154,166.03124999999994L218.99478461538462,166.03124999999994L219.73624615384617,166.03124999999994L221.28507692307693,84L222.9986769230769,166.03124999999994L224.10263076923079,248.06249999999986L224.94844615384613,248.06249999999986L225.86016923076923,166.03124999999994L226.71696923076922,166.03124999999994L227.1124153846154,84L227.95273846153847,248.06249999999986L228.4854923076923,166.03124999999994L229.6224,166.03124999999994L231.3909230769231,166.03124999999994L231.5007692307692,84L233.13747692307692,248.06249999999986L234.10961538461538,166.03124999999994L234.9719076923077,330.0937499999998L235.72984615384613,412.1249999999997L236.2571076923077,166.03124999999994L237.06996923076923,248.06249999999986L239.49756923076924,412.1249999999997L239.6293846153846,84L240.4092923076923,248.06249999999986L240.79924615384613,412.1249999999997L240.85966153846152,166.03124999999994L241.38692307692307,84L241.4198769230769,84L243.01264615384616,412.1249999999997L243.44104615384617,166.03124999999994L246.9012,166.03124999999994L249.82310769230767,248.06249999999986L250.38332307692306,166.03124999999994L251.1138,248.06249999999986L252.36055384615386,84L255.52412307692308,248.06249999999986L255.88112307692307,84L256.1118,84L258.111,166.03124999999994L258.57784615384617,166.03124999999994L259.539,84L260.72533846153846,166.03124999999994L260.7967384615385,248.06249999999986L262.77396923076924,166.03124999999994L262.80143076923076,84L262.92775384615385,166.03124999999994L264.8720307692308,166.03124999999994L264.97638461538463,166.03124999999994L270.40278461538463,166.03124999999994L270.9739846153846,166.03124999999994L271.6660153846154,84L271.78684615384617,84L272.84686153846155,166.03124999999994L273.59381538461537,166.03124999999994L276.47178461538465,166.03124999999994L278.7016615384615,84L281.3599384615385,248.06249999999986L283.57883076923076,166.03124999999994L286.01192307692304,166.03124999999994L287.08841538461536,84L287.30261538461536,84L288.07703076923076,84L288.50543076923077,166.03124999999994L288.8734153846154,84L289.34575384615385,166.03124999999994L290.8506461538462,248.06249999999986L293.0915076923077,84L293.3935846153846,166.03124999999994L295.596,330.0937499999998L295.85413846153847,166.03124999999994L296.9580923076923,248.06249999999986L298.68816923076923,84L298.8199846153846,166.03124999999994L299.9459076923077,166.03124999999994L300.56653846153847,84L300.6654,166.03124999999994L301.56613846153846,84L304.1530153846154,84L304.72970769230767,84L305.6688923076923,84L306.13024615384614,166.03124999999994L307.27264615384615,84L307.5472615384615,84L309.9144461538462,84L310.8591230769231,248.06249999999986L312.23769230769227,166.03124999999994L314.0446615384615,166.03124999999994L314.4291230769231,84L315.42323076923077,84L317.6366307692308,84L317.9002615384615,84L318.9273230769231,166.03124999999994L319.48204615384617,166.03124999999994L321.6460153846154,84L324.27133846153845,84L326.96806153846154,84L331.2246,166.03124999999994L332.5043076923077,166.03124999999994L333.10846153846154,166.03124999999994L334.7616461538462,166.03124999999994L337.64510769230765,166.03124999999994L337.8922615384615,84L343.1978307692308,84L346.0593230769231,166.03124999999994L346.3723846153846,84L348.4374923076923,166.03124999999994L350.3543076923077,166.03124999999994L350.84861538461536,84L351.9251076923077,166.03124999999994L352.4413846153846,84L352.9302,166.03124999999994L353.11144615384615,84L353.39155384615384,84L355.19303076923075,84L355.41272307692304,84L355.70930769230773,84L360.61393846153845,84L360.9324923076923,166.03124999999994L361.25653846153847,84L363.1513846153846,166.03124999999994L363.2667230769231,84L365.1670615384615,166.03124999999994L369.39613846153844,84L370.50558461538463,84L372.2686153846154,84L377.0304461538462,84L377.6785384615385,166.03124999999994L378.93627692307695,84L379.6447846153846,84L379.68323076923076,84L379.7161846153846,84L381.5011846153846,84L382.3964307692308,84L383.15986153846154,84L386.66944615384614,248.06249999999986L386.86167692307697,166.03124999999994L387.80635384615385,84L391.40930769230766,84L393.93576923076927,166.03124999999994L394.1389846153846,84L394.1994,84L395.13309230769227,84L395.32532307692304,166.03124999999994L398.59873846153846,84L399.6093230769231,84L401.4712153846154,166.03124999999994L403.6956,166.03124999999994L404.8160307692308,248.06249999999986L404.8325076923077,84L404.9478461538461,166.03124999999994L405.11810769230766,84L405.8430923076923,84L405.97490769230774,166.03124999999994L406.0188461538462,84L406.4033076923077,84L407.0404153846154,84L407.86426153846156,166.03124999999994L410.85207692307694,84L411.74732307692307,84L412.5272307692308,166.03124999999994L414.8779384615384,84L415.7731846153846,330.0937499999998L416.65195384615384,84L416.80024615384616,84L416.9430461538462,166.03124999999994L418.23373846153845,84L418.38203076923077,84L421.68290769230765,166.03124999999994L422.22115384615387,84L424.0171384615384,248.06249999999986L426.60950769230766,84L427.1587384615385,84L427.95512307692303,84L433.1178923076923,84L434.4085846153846,248.06249999999986L434.79853846153844,84L435.1775076923077,248.06249999999986L436.3363846153846,84L437.6929846153846,166.03124999999994L439.1759076923077,248.06249999999986L443.8278923076923,84L445.65133846153844,84L454.8015230769231,248.06249999999986L454.86193846153844,84L458.4978461538462,84L460.12356923076925,166.03124999999994L460.33227692307696,166.03124999999994L460.76616923076926,84L462.8642307692308,166.03124999999994L463.0399846153846,248.06249999999986L464.84146153846154,84L465.41815384615387,84L466.02230769230766,84L472.83826153846155,84L473.7444923076923,248.06249999999986L474.5079230769231,84L476.06224615384616,166.03124999999994L476.8915846153846,166.03124999999994L477.9516,84L478.6985538461538,84L479.0280923076923,84L479.3411538461538,84L479.5663384615384,84L480.74718461538464,84L481.95000000000005,84L487.5631384615384,84L488.31009230769234,84L488.35952307692304,84L490.27633846153844,166.03124999999994L491.8471384615384,166.03124999999994L492.6160615384615,84L493.13233846153844,84L494.3736,84L494.9612769230769,166.03124999999994L496.22450769230767,84L496.2354923076923,84L497.74587692307693,84L498.44340000000005,84L500.07461538461536,84L503.0679230769231,904.3124999999993L503.1338307692307,248.06249999999986L505.3692,248.06249999999986L507.42881538461535,84L507.5166923076923,166.03124999999994L507.61006153846154,84L509.5323692307692,84L509.796,84L510.4166307692308,239.5559635162352L511.3448307692308,84L511.4436923076923,84L511.74576923076927,84L513.2451692307693,84L515.2938,84L516.2988923076923,84L517.4577692307691,166.03124999999994L518.0179846153845,84L520.7696307692307,84L521.22,166.03124999999994L521.4946153846154,166.03124999999994L521.6593846153846,84L522.5106923076922,84L522.9390923076924,84L523.6970307692308,84L523.8947538461538,84L525.0096923076924,84L526.2015230769231,166.03124999999994L526.2289846153847,84L528.3435230769231,84L528.5192769230769,84L531.7926923076923,84L532.1167384615384,84L532.232076923077,84L532.8856615384615,84L534.5992615384615,166.03124999999994L535.445076923077,84L536.7742153846153,84L539.8169538461539,84L540.2892923076923,84L540.8769692307692,84L541.2998769230769,84L544.0075846153846,84L545.1115384615384,239.5559635162352L545.5619076923077,84L546.2704153846154,84L547.6929230769231,84L548.1487846153846,84L548.6540769230769,84L548.6540769230769,166.03124999999994L552.6305076923077,84L553.4433692307692,166.03124999999994L555.5963538461539,166.03124999999994L556.7552307692308,248.06249999999986L558.1173230769231,166.03124999999994L561.0941538461539,84L561.3028615384616,84L561.8026615384615,84L562.7693076923077,84L562.9670307692307,84L563.1757384615385,84L563.6041384615385,166.03124999999994L564.1149230769231,84L565.0211538461538,84L567.9760153846154,84L568.0693846153846,84L568.5472153846154,84L569.0909538461539,84L569.7665076923076,84L572.2764923076923,84L573.5671846153847,84L574.8633692307692,84L575.1764307692308,84L575.8904307692308,84L579.2132769230769,84L580.3062461538461,84L582.6569538461539,84L583.8103384615384,166.03124999999994L584.4968769230769,84L584.766,84L585.0406153846154,84L585.996276923077,84L587.9240769230769,84L588.1986923076923,84L588.4238769230769,84L588.7973538461538,84L589.6431692307692,84L589.9122923076923,248.06249999999986L592.8506769230769,84L593.0264307692307,84L593.8118307692307,84L595.0750615384616,84L597.8871230769231,84L599.0789538461539,84L600.5289230769231,84L600.8969076923076,84L603.2146615384615,84L606.7077692307691,166.03124999999994L606.9054923076924,84L612.6229846153847,166.03124999999994L614.3201076923077,166.03124999999994L618.9281538461538,166.03124999999994L620.5813384615384,84L621.3722307692308,166.03124999999994L622.8936,84L624.1183846153846,84L627.2874461538462,84L628.3749230769231,84L629.0230153846154,330.0937499999998L629.2646769230769,84L629.5008461538462,166.03124999999994L631.5659538461539,166.03124999999994L632.1536307692307,84L635.4819692307692,84L636.0806307692308,84L637.0362923076923,166.03124999999994L638.5247076923077,84L641.2653692307692,84L642.2100461538462,166.03124999999994L642.7098461538462,84L644.1323538461538,84L644.3026153846154,84L644.5552615384615,84L644.8188923076923,84L645.1594153846154,166.03124999999994L645.5988,84L646.2194307692307,84L646.6258615384615,84L647.3288769230769,84L647.7133384615385,84L648.6360461538461,84L650.0255999999999,84L651.8820000000001,84L652.4861538461539,84L653.5461692307692,84L653.8482461538462,166.03124999999994L654.650123076923,84L654.8094,84L655.7046461538462,84L655.7705538461538,166.03124999999994L659.3680153846153,166.03124999999994L659.9447076923077,84L661.6857692307692,84L662.6688923076923,84L664.821876923077,84L665.0635384615384,84L666.9913384615385,166.03124999999994L670.4844461538461,84L672.0113076923077,84L674.713523076923,84L678.4592769230769,84L678.5142000000001,84L678.7338923076923,84L679.2062307692307,84L680.1179538461538,84L683.3858769230769,84L683.4847384615385,84L683.5616307692308,84L685.5608307692307,166.03124999999994L687.3128769230769,84L688.3728923076924,166.03124999999994L689.6526,84L690.811476923077,166.03124999999994L692.453676923077,84L694.1892461538462,84L696.0346615384616,84L696.5893846153847,84L700.2417692307693,84L701.3512153846154,84L701.4775384615385,84L701.5709076923076,84L701.9388923076923,84L703.9326,84L704.0534307692308,166.03124999999994L709.5182769230769,166.03124999999994L709.946676923077,84L710.3256461538462,84L710.8584000000001,84L712.1051538461538,166.03124999999994L714.0714,166.03124999999994L715.8618923076923,84L715.9168153846153,166.03124999999994L717.8775692307692,166.03124999999994L719.7010153846154,84L720.9038307692308,330.0937499999998L722.9964,904.3124999999993L723.0293538461538,330.0937499999998L724.2431538461539,166.03124999999994L726.6872307692307,84L727.9010307692308,84L729.6146307692308,166.03124999999994L731.3062615384615,166.03124999999994L731.9927999999999,166.03124999999994L732.6408923076924,84L733.9260923076923,248.06249999999986L734.8707692307692,84L737.2324615384616,166.03124999999994L738.6000461538462,84L738.759323076923,84L740.6596615384616,166.03124999999994L742.3787538461538,84L744.2900769230769,84L744.4109076923077,84L746.4815076923077,84L747.3767538461537,84L749.4803076923077,84L749.5956461538462,166.03124999999994L750.3590769230768,84L750.6062307692308,84L752.5285384615385,84L752.5505076923076,84L753.7588153846153,84L754.1377846153846,84L755.5273384615384,84L756.5598923076923,248.06249999999986L758.7623076923077,248.06249999999986L758.9105999999999,84L760.2617076923076,166.03124999999994L761.0965384615384,84L763.6559538461539,84L764.963123076923,84L766.8799384615385,84L768.8132307692307,84L769.5382153846153,84L769.8128307692308,84L769.8787384615384,84L770.9991692307692,84L773.0148461538462,166.03124999999994L773.2510153846155,84L773.5530923076923,248.06249999999986L775.7005846153846,84L775.7884615384614,84L779.3859230769231,84L779.9845846153846,84L780.1054153846154,166.03124999999994L781.6542461538462,84L782.7582,166.03124999999994L786.2348307692307,84L786.6028153846154,84L787.4925692307693,84L789.0853384615385,248.06249999999986L789.3654461538462,166.03124999999994L790.6451538461538,84L794.2371230769231,84L795.4948615384616,84L797.0162307692308,84L799.1088,166.03124999999994L800.2237384615383,84L801.4540153846153,84L801.7231384615384,84L802.5854307692308,84L803.8266923076923,84L805.2876461538461,84L805.4853692307692,84L806.0071384615384,166.03124999999994L806.0455846153845,84L806.4410307692307,84L806.4410307692307,84L808.6104923076922,84L809.6265692307692,84L810.6481384615386,84L811.2907384615385,84L813.4821692307693,84L814.9486153846154,84L815.300123076923,84L815.404476923077,84L815.8932923076923,84L816.3436615384616,84L816.4644923076924,84L817.2389076923076,84L821.5229076923077,84L822.0941076923076,84L823.1376461538462,84L823.917553846154,248.06249999999986L826.4275384615386,84L826.7131384615385,84L828.6684,84L829.3000153846154,84L832.4690769230768,84L832.5404769230769,166.03124999999994L832.826076923077,166.03124999999994L833.1336461538463,84L833.5620461538462,84L834.4737692307691,84L834.6934615384615,248.06249999999986L835.5337846153847,166.03124999999994L835.7095384615385,84L836.808,84L837.8405538461539,84L838.2689538461537,84L838.6424307692308,84L839.1092769230769,84L839.4607846153847,166.03124999999994L839.8452461538461,84L844.9860461538461,84L846.6776769230769,84L847.6937538461539,166.03124999999994L848.1056769230769,84L849.0668307692307,84L849.2755384615385,84L849.5556461538462,166.03124999999994L850.3300615384616,84L851.4120461538461,84L852.856523076923,84L853.6638923076923,84L855.6521076923077,84L855.7674461538461,84L858.3872769230769,84L858.6948461538461,84L858.711323076923,84L859.6065692307692,84L863.242476923077,84L866.9497846153847,166.03124999999994L867.350723076923,84L867.883476923077,84L871.1184461538462,84L872.0466461538463,84L872.2169076923077,395.11067533493014L873.5076,84L874.2435692307693,84L874.3039846153847,84L874.6005692307692,84L876.2153076923076,84L877.6103538461539,84L877.9069384615384,84L878.9340000000001,84L880.0709076923077,166.03124999999994L880.345523076923,84L880.4993076923078,84L881.7954923076923,84L882.8664923076923,84L884.0473384615385,166.03124999999994L884.755846153846,84L885.3984461538462,84L886.2717230769232,84L886.5847846153846,248.06249999999986L886.733076923077,330.0937499999998L887.7711230769231,84L887.9029384615384,84L888.5180769230768,84L891.072,84L893.7852,84L895.3230461538462,84L895.3285384615385,84L896.4874153846154,84L896.6302153846153,84L897.1684615384615,84L897.1684615384615,166.03124999999994L898.6184307692307,84L899.2006153846154,84L899.6784461538462,166.03124999999994L900.8538,84L901.0515230769231,166.03124999999994L901.7545384615385,330.0937499999998L901.9028307692308,84L902.2433538461538,84L902.9134153846154,84L908.2684153846154,84L909.2405538461538,84L910.3719692307692,84L910.6246153846154,84L910.6795384615384,84L913.1016461538461,84L916.5892615384615,166.03124999999994L917.2758,166.03124999999994L918.2644153846155,84L921.4938923076924,84L924.3883384615385,84L925.6735384615386,84L926.3051538461539,84L926.6346923076923,84L928.1231076923077,84L928.2494307692308,84L928.4142,84L930.0783692307692,84L930.2651076923078,84L930.5452153846154,84L931.2811846153845,84L931.8908307692309,166.03124999999994L932.3137384615384,84L935.2521230769231,84L937.2348461538462,84L941.7824769230768,166.03124999999994L942.6612461538462,84L942.837,84L943.8311076923077,84L945.8742461538461,166.03124999999994L946.2861692307692,84L951.5532923076923,239.5559635162352L955.7768769230769,84L957.1005230769231,84L959.7972461538462,84L959.9125846153846,84L961.7305384615386,84L962.7136615384615,84L963.0926307692307,84L964.0153384615385,84L964.7897538461538,84L965.2456153846153,84L965.7564,84L965.9211692307692,84L966.7230461538461,84L966.8054307692308,166.03124999999994L972.1494461538462,84L972.4295538461539,84L973.2533999999999,84L974.9779846153847,84L975.0329076923077,84L975.0658615384616,84L976.1039076923076,84L976.5432923076922,84L977.3506615384615,84L980.7613846153847,239.5559635162352L983.9853692307692,84L985.5177230769232,84L985.7978307692308,84L986.638153846154,84L988.7032615384614,84L989.0602615384616,84L989.906076923077,166.03124999999994L990.6090923076923,84L993.7616769230768,84L995.4917538461539,84L997.9303384615384,84L1000.8412615384616,84L1000.9840615384616,84L1001.8902923076923,84L1004.1641076923078,84L1005.7294153846153,84L1007.6352461538462,84L1010.3704153846153,84L1010.5187076923077,84L1011.0844153846153,84L1011.326076923077,84L1013.3747076923077,84L1014.6214615384615,239.5559635162352L1014.7368,84L1023.930923076923,166.03124999999994L1024.820676923077,84L1024.9909384615385,239.5559635162352L1028.3851846153846,84L1029.033276923077,84L1029.3957692307692,84L1029.5220923076922,84L1030.1207538461538,84L1031.2411846153846,84L1031.4444,84L1031.8782923076924,84L1032.4110461538462,84L1033.0481538461538,84L1033.7017384615385,84L1033.7511692307692,84L1034.0367692307693,84L1035.6624923076922,84L1036.244676923077,84L1038.7381846153846,84L1038.8315538461538,84L1040.188153846154,239.5559635162352L1040.7538615384615,239.5559635162352L1042.846430769231,84L1044.675369230769,84L1044.757753846154,84L1045.6365230769231,84L1046.1198461538463,84L1048.1739692307692,166.03124999999994L1048.8165692307691,84L1048.9703538461538,84L1049.761246153846,84L1052.6776615384615,84L1052.7655384615384,239.5559635162352L1056.0499384615384,84L1058.6587846153845,84L1059.2794153846153,84L1059.576,84L1060.5151846153847,84L1060.7898,84L1061.2291846153846,84L1061.805876923077,84L1062.0255692307694,84L1063.9698461538462,84L1066.4523692307694,239.5559635162352L1066.946676923077,84L1067.303676923077,166.03124999999994L1070.126723076923,84L1072.4994,84L1074.4162153846155,84L1075.7563384615385,84L1076.1847384615385,84L1076.5087846153847,84L1077.0195692307693,84L1077.1513846153846,84L1079.2164923076923,84L1079.3153538461538,84L1080.8861538461538,84L1082.1164307692309,84L1082.3251384615385,84L1082.583276923077,84L1085.1646615384616,84L1085.6754461538462,84L1088.7840923076924,84L1088.9433692307691,84L1089.0532153846154,84L1091.1402923076923,84L1091.1787384615386,84L1093.4635384615385,84L1094.737753846154,84L1095.5670923076923,84L1096.5886615384616,84L1099.290876923077,84L1102.1139230769231,239.5559635162352L1102.5697846153846,239.5559635162352L1102.7839846153845,84L1103.4156,84L1104.6403846153846,84L1105.5576,84L1106.4583384615385,84L1107.6611538461539,84L1107.7105846153847,84L1112.022046153846,84L1113.428076923077,84L1114.0102615384615,84L1115.8721538461539,84L1115.9160923076922,84L1116.6630461538462,166.03124999999994L1116.7399384615385,84L1116.7454307692308,84L1117.3276153846155,84L1118.0745692307692,84L1124.8850307692308,84L1125.6978923076924,84L1127.9991692307692,84L1129.3557692307693,84L1131.9536307692308,84L1132.673123076923,84L1133.315723076923,84L1136.506753846154,84L1138.0940307692308,84L1138.236830769231,84L1141.0928307692309,84L1144.7122615384617,84L1145.2175538461538,84L1145.4427384615385,84L1147.3211076923076,84L1147.3320923076924,84L1147.7879538461539,84L1147.8648461538462,84L1149.5454923076923,84L1150.9954615384615,84L1151.1931846153846,84L1151.7149538461538,84L1152.4234615384614,84L1153.4395384615384,84L1154.8126153846154,84L1156.1692153846154,84L1156.592123076923,84L1158.3496615384615,84L1158.4869692307693,84L1159.9753846153847,84L1160.4037846153844,84L1160.694876923077,239.5559635162352L1162.5128307692307,84L1165.566553846154,84L1166.978076923077,84L1166.9890615384616,84L1167.730523076923,84L1169.943923076923,84L1170.0592615384614,84L1171.3279846153846,84L1172.371523076923,84L1175.8591384615384,84L1178.187876923077,84L1178.9128615384616,84L1181.1647076923077,84L1182.081923076923,84L1182.1368461538461,84L1182.4608923076923,84L1184.2843384615385,84L1189.502030769231,166.03124999999994L1189.8041076923078,84L1195.5106153846154,84L1197.3834923076922,84L1198.1249538461539,84L1200.8656153846155,84L1201.7334,84L1204.8200769230768,84L1204.8420461538462,84L1206.303,166.03124999999994L1206.3249692307693,84L1206.8412461538462,166.03124999999994L1207.3245692307692,84L1208.9008615384614,84L1209.483046153846,84L1210.125646153846,84L1212.4763538461539,84L1216.8921692307692,84L1218.1059692307692,84L1220.6214461538461,84L1222.4119384615385,84L1224.5154923076923,84L1225.0702153846155,84L1226.7124153846155,84L1228.5468461538462,84L1233.0340615384616,84L1235.3573076923076,84L1236.7139076923077,84L1237.0269692307693,84L1237.9936153846154,84L1238.3670923076922,166.03124999999994L1240.0642153846154,84L1240.2399692307692,84L1242.057923076923,84L1242.7115076923078,166.03124999999994L1243.2991846153845,84L1243.3541076923077,84L1247.665569230769,84L1247.8468153846154,84L1250.1371076923078,84L1256.7718153846154,84L1257.6286153846154,84L1258.155876923077,166.03124999999994L1259.226876923077,84L1259.5014923076924,84L1262.439876923077,84L1263.1264153846155,84L1263.8568923076923,84L1266.3998307692307,84L1269.2118923076923,84L1270.0577076923078,84L1270.936476923077,84L1274.3417076923079,84L1274.4790153846154,84L1274.577876923077,84L1276.4178,84L1278.1588615384615,166.03124999999994L1279.1200153846153,84L1280.9599384615383,84L1282.360476923077,84L1282.6241076923077,84L1284.255323076923,84L1284.540923076923,84L1284.936369230769,84L1286.611523076923,84L1287.4793076923077,84L1287.8912307692308,84L1288.303153846154,84L1290.7417384615385,84L1291.3513846153846,84L1292.1862153846153,84L1294.1799230769232,84L1294.3776461538462,84L1296.2560153846155,84L1296.8272153846153,84L1300.1500615384616,84L1300.1665384615385,166.03124999999994L1300.2654,84L1300.496076923077,84L1301.2704923076924,84L1302.5611846153845,84L1304.6153076923079,84L1305.1425692307691,84L1305.779676923077,84L1306.1421692307692,84L1310.157046153846,84L1310.7007846153847,84L1310.936953846154,84L1311.5520923076924,84L1311.8981076923078,166.03124999999994L1313.9961692307693,84L1314.5179384615385,84L1314.633276923077,166.03124999999994L1317.934153846154,84L1322.0533846153846,84L1322.5147384615384,84L1326.1561384615386,84L1326.4032923076923,84L1326.6449538461538,84L1328.451923076923,84L1334.5538769230768,166.03124999999994L1338.5028461538461,84L1338.7060615384614,84L1339.3706307692307,84L1341.8476615384616,84L1344.214846153846,84L1344.2532923076924,84L1344.6542307692307,84L1346.7797538461539,84L1347.1092923076922,84L1347.9880615384616,166.03124999999994L1348.8119076923076,84L1348.8283846153845,84L1348.833876923077,84L1349.6247692307693,84L1351.6514307692307,84L1352.6510307692308,84L1353.974676923077,84L1355.3477538461539,84L1355.4576,84L1361.8012153846155,84L1362.366923076923,84L1362.4767692307692,84L1364.042076923077,84L1366.1126769230768,84L1368.8039076923076,84L1371.2644615384615,84L1371.396276923077,84L1371.7862307692308,84L1377.075323076923,84L1377.910153846154,84L1379.8104923076924,84L1380.1290461538463,84L1382.3424461538461,84L1382.6829692307692,248.06249999999986" style="fill: none;" fill="none"></path></g></g></g></g></g></g><g transform="translate(70, 378)" clip-path="url(#clip_1)"><clipPath id="clip_1"><rect width="1428" height="22"></rect></clipPath><g><g><line x1="0" y1="0" x2="0" y2="5" style="visibility: inherit;" fill="rgb(0, 0, 0)" stroke="rgb(204, 204, 204)" stroke-width="1px"></line><line x1="109.84615384615385" y1="0" x2="109.84615384615385" y2="5" style="visibility: inherit;" fill="rgb(0, 0, 0)" stroke="rgb(204, 204, 204)" stroke-width="1px"></line><line x1="219.6923076923077" y1="0" x2="219.6923076923077" y2="5" style="visibility: inherit;" fill="rgb(0, 0, 0)" stroke="rgb(204, 204, 204)" stroke-width="1px"></line><line x1="329.53846153846155" y1="0" x2="329.53846153846155" y2="5" style="visibility: inherit;" fill="rgb(0, 0, 0)" stroke="rgb(204, 204, 204)" stroke-width="1px"></line><line x1="439.3846153846154" y1="0" x2="439.3846153846154" y2="5" style="visibility: inherit;" fill="rgb(0, 0, 0)" stroke="rgb(204, 204, 204)" stroke-width="1px"></line><line x1="549.2307692307693" y1="0" x2="549.2307692307693" y2="5" style="visibility: inherit;" fill="rgb(0, 0, 0)" stroke="rgb(204, 204, 204)" stroke-width="1px"></line><line x1="659.0769230769231" y1="0" x2="659.0769230769231" y2="5" style="visibility: inherit;" fill="rgb(0, 0, 0)" stroke="rgb(204, 204, 204)" stroke-width="1px"></line><line x1="768.9230769230769" y1="0" x2="768.9230769230769" y2="5" style="visibility: inherit;" fill="rgb(0, 0, 0)" stroke="rgb(204, 204, 204)" stroke-width="1px"></line><line x1="878.7692307692308" y1="0" x2="878.7692307692308" y2="5" style="visibility: inherit;" fill="rgb(0, 0, 0)" stroke="rgb(204, 204, 204)" stroke-width="1px"></line><line x1="988.6153846153846" y1="0" x2="988.6153846153846" y2="5" style="visibility: inherit;" fill="rgb(0, 0, 0)" stroke="rgb(204, 204, 204)" stroke-width="1px"></line><line x1="1098.4615384615386" y1="0" x2="1098.4615384615386" y2="5" style="visibility: inherit;" fill="rgb(0, 0, 0)" stroke="rgb(204, 204, 204)" stroke-width="1px"></line><line x1="1208.3076923076924" y1="0" x2="1208.3076923076924" y2="5" style="visibility: inherit;" fill="rgb(0, 0, 0)" stroke="rgb(204, 204, 204)" stroke-width="1px"></line><line x1="1318.1538461538462" y1="0" x2="1318.1538461538462" y2="5" style="visibility: inherit;" fill="rgb(0, 0, 0)" stroke="rgb(204, 204, 204)" stroke-width="1px"></line><line x1="1428" y1="0" x2="1428" y2="5" style="visibility: inherit;" fill="rgb(0, 0, 0)" stroke="rgb(204, 204, 204)" stroke-width="1px"></line></g><g transform="translate(0, 8)"><text x="0" y="0" dx="0em" dy="0.95em" style="text-anchor: middle; visibility: hidden; font-family: &quot;Helvetica Neue&quot;, sans-serif; font-size: 12px; font-weight: 200;" fill="rgb(50, 49, 63)" stroke="none" stroke-width="1px">-20k</text><text x="109.84615384615385" y="0" dx="0em" dy="0.95em" style="text-anchor: middle; visibility: inherit; font-family: &quot;Helvetica Neue&quot;, sans-serif; font-size: 12px; font-weight: 200;" fill="rgb(50, 49, 63)" stroke="none" stroke-width="1px">0</text><text x="219.6923076923077" y="0" dx="0em" dy="0.95em" style="text-anchor: middle; visibility: inherit; font-family: &quot;Helvetica Neue&quot;, sans-serif; font-size: 12px; font-weight: 200;" fill="rgb(50, 49, 63)" stroke="none" stroke-width="1px">20k</text><text x="329.53846153846155" y="0" dx="0em" dy="0.95em" style="text-anchor: middle; visibility: inherit; font-family: &quot;Helvetica Neue&quot;, sans-serif; font-size: 12px; font-weight: 200;" fill="rgb(50, 49, 63)" stroke="none" stroke-width="1px">40k</text><text x="439.3846153846154" y="0" dx="0em" dy="0.95em" style="text-anchor: middle; visibility: inherit; font-family: &quot;Helvetica Neue&quot;, sans-serif; font-size: 12px; font-weight: 200;" fill="rgb(50, 49, 63)" stroke="none" stroke-width="1px">60k</text><text x="549.2307692307693" y="0" dx="0em" dy="0.95em" style="text-anchor: middle; visibility: inherit; font-family: &quot;Helvetica Neue&quot;, sans-serif; font-size: 12px; font-weight: 200;" fill="rgb(50, 49, 63)" stroke="none" stroke-width="1px">80k</text><text x="659.0769230769231" y="0" dx="0em" dy="0.95em" style="text-anchor: middle; visibility: inherit; font-family: &quot;Helvetica Neue&quot;, sans-serif; font-size: 12px; font-weight: 200;" fill="rgb(50, 49, 63)" stroke="none" stroke-width="1px">100k</text><text x="768.9230769230769" y="0" dx="0em" dy="0.95em" style="text-anchor: middle; visibility: inherit; font-family: &quot;Helvetica Neue&quot;, sans-serif; font-size: 12px; font-weight: 200;" fill="rgb(50, 49, 63)" stroke="none" stroke-width="1px">120k</text><text x="878.7692307692308" y="0" dx="0em" dy="0.95em" style="text-anchor: middle; visibility: inherit; font-family: &quot;Helvetica Neue&quot;, sans-serif; font-size: 12px; font-weight: 200;" fill="rgb(50, 49, 63)" stroke="none" stroke-width="1px">140k</text><text x="988.6153846153846" y="0" dx="0em" dy="0.95em" style="text-anchor: middle; visibility: inherit; font-family: &quot;Helvetica Neue&quot;, sans-serif; font-size: 12px; font-weight: 200;" fill="rgb(50, 49, 63)" stroke="none" stroke-width="1px">160k</text><text x="1098.4615384615386" y="0" dx="0em" dy="0.95em" style="text-anchor: middle; visibility: inherit; font-family: &quot;Helvetica Neue&quot;, sans-serif; font-size: 12px; font-weight: 200;" fill="rgb(50, 49, 63)" stroke="none" stroke-width="1px">180k</text><text x="1208.3076923076924" y="0" dx="0em" dy="0.95em" style="text-anchor: middle; visibility: inherit; font-family: &quot;Helvetica Neue&quot;, sans-serif; font-size: 12px; font-weight: 200;" fill="rgb(50, 49, 63)" stroke="none" stroke-width="1px">200k</text><text x="1318.1538461538462" y="0" dx="0em" dy="0.95em" style="text-anchor: middle; visibility: inherit; font-family: &quot;Helvetica Neue&quot;, sans-serif; font-size: 12px; font-weight: 200;" fill="rgb(50, 49, 63)" stroke="none" stroke-width="1px">220k</text><text x="1428" y="0" dx="0em" dy="0.95em" style="text-anchor: middle; visibility: hidden; font-family: &quot;Helvetica Neue&quot;, sans-serif; font-size: 12px; font-weight: 200;" fill="rgb(50, 49, 63)" stroke="none" stroke-width="1px">240k</text></g><line x1="0" y1="0" x2="1428" y2="0" fill="rgb(0, 0, 0)" stroke="rgb(204, 204, 204)" stroke-width="1px"></line></g></g></g></g></svg>