<svg viewBox="0 0 1498 400" xmlns="http://www.w3.org/2000/svg"><g><g><g><g><g><line x1="46" y1="361.06940114596824" x2="41" y2="361.06940114596824" style="visibility: inherit;" fill="rgb(0, 0, 0)" stroke="rgb(204, 204, 204)" stroke-width="1px"></line><line x1="46" y1="325.9471276592837" x2="41" y2="325.9471276592837" style="visibility: inherit;" fill="rgb(0, 0, 0)" stroke="rgb(204, 204, 204)" stroke-width="1px"></line><line x1="46" y1="290.8248541725992" x2="41" y2="290.8248541725992" style="visibility: inherit;" fill="rgb(0, 0, 0)" stroke="rgb(204, 204, 204)" stroke-width="1px"></line><line x1="46" y1="255.70258068591468" x2="41" y2="255.70258068591468" style="visibility: inherit;" fill="rgb(0, 0, 0)" stroke="rgb(204, 204, 204)" stroke-width="1px"></line><line x1="46" y1="220.58030719923016" x2="41" y2="220.58030719923016" style="visibility: inherit;" fill="rgb(0, 0, 0)" stroke="rgb(204, 204, 204)" stroke-width="1px"></line><line x1="46" y1="185.4580337125456" x2="41" y2="185.4580337125456" style="visibility: inherit;" fill="rgb(0, 0, 0)" stroke="rgb(204, 204, 204)" stroke-width="1px"></line><line x1="46" y1="150.33576022586112" x2="41" y2="150.33576022586112" style="visibility: inherit;" fill="rgb(0, 0, 0)" stroke="rgb(204, 204, 204)" stroke-width="1px"></line><line x1="46" y1="115.21348673917663" x2="41" y2="115.21348673917663" style="visibility: inherit;" fill="rgb(0, 0, 0)" stroke="rgb(204, 204, 204)" stroke-width="1px"></line><line x1="46" y1="80.09121325249208" x2="41" y2="80.09121325249208" style="visibility: inherit;" fill="rgb(0, 0, 0)" stroke="rgb(204, 204, 204)" stroke-width="1px"></line><line x1="46" y1="44.968939765807534" x2="41" y2="44.968939765807534" style="visibility: inherit;" fill="rgb(0, 0, 0)" stroke="rgb(204, 204, 204)" stroke-width="1px"></line><line x1="46" y1="9.846666279123042" x2="41" y2="9.846666279123042" style="visibility: inherit;" fill="rgb(0, 0, 0)" stroke="rgb(204, 204, 204)" stroke-width="1px"></line></g><g transform="translate(36, 0)"><text x="0" y="361.06940114596824" dx="0em" dy="0.3em" style="text-anchor: end; visibility: inherit; font-family: &quot;Helvetica Neue&quot;, sans-serif; font-size: 12px; font-weight: 200;" fill="rgb(50, 49, 63)" stroke="none" stroke-width="1px">-20</text><text x="0" y="325.9471276592837" dx="0em" dy="0.3em" style="text-anchor: end; visibility: inherit; font-family: &quot;Helvetica Neue&quot;, sans-serif; font-size: 12px; font-weight: 200;" fill="rgb(50, 49, 63)" stroke="none" stroke-width="1px">0</text><text x="0" y="290.8248541725992" dx="0em" dy="0.3em" style="text-anchor: end; visibility: inherit; font-family: &quot;Helvetica Neue&quot;, sans-serif; font-size: 12px; font-weight: 200;" fill="rgb(50, 49, 63)" stroke="none" stroke-width="1px">20</text><text x="0" y="255.70258068591468" dx="0em" dy="0.3em" style="text-anchor: end; visibility: inherit; font-family: &quot;Helvetica Neue&quot;, sans-serif; font-size: 12px; font-weight: 200;" fill="rgb(50, 49, 63)" stroke="none" stroke-width="1px">40</text><text x="0" y="220.58030719923016" dx="0em" dy="0.3em" style="text-anchor: end; visibility: inherit; font-family: &quot;Helvetica Neue&quot;, sans-serif; font-size: 12px; font-weight: 200;" fill="rgb(50, 49, 63)" stroke="none" stroke-width="1px">60</text><text x="0" y="185.4580337125456" dx="0em" dy="0.3em" style="text-anchor: end; visibility: inherit; font-family: &quot;Helvetica Neue&quot;, sans-serif; font-size: 12px; font-weight: 200;" fill="rgb(50, 49, 63)" stroke="none" stroke-width="1px">80</text><text x="0" y="150.33576022586112" dx="0em" dy="0.3em" style="text-anchor: end; visibility: inherit; font-family: &quot;Helvetica Neue&quot;, sans-serif; font-size: 12px; font-weight: 200;" fill="rgb(50, 49, 63)" stroke="none" stroke-width="1px">100</text><text x="0" y="115.21348673917663" dx="0em" dy="0.3em" style="text-anchor: end; visibility: inherit; font-family: &quot;Helvetica Neue&quot;, sans-serif; font-size: 12px; font-weight: 200;" fill="rgb(50, 49, 63)" stroke="none" stroke-width="1px">120</text><text x="0" y="80.09121325249208" dx="0em" dy="0.3em" style="text-anchor: end; visibility: inherit; font-family: &quot;Helvetica Neue&quot;, sans-serif; font-size: 12px; font-weight: 200;" fill="rgb(50, 49, 63)" stroke="none" stroke-width="1px">140</text><text x="0" y="44.968939765807534" dx="0em" dy="0.3em" style="text-anchor: end; visibility: inherit; font-family: &quot;Helvetica Neue&quot;, sans-serif; font-size: 12px; font-weight: 200;" fill="rgb(50, 49, 63)" stroke="none" stroke-width="1px">160</text><text x="0" y="9.846666279123042" dx="0em" dy="0.3em" style="text-anchor: end; visibility: inherit; font-family: &quot;Helvetica Neue&quot;, sans-serif; font-size: 12px; font-weight: 200;" fill="rgb(50, 49, 63)" stroke="none" stroke-width="1px">180</text></g><line x1="46" y1="0" x2="46" y2="378" fill="rgb(0, 0, 0)" stroke="rgb(204, 204, 204)" stroke-width="1px"></line></g></g><g transform="translate(46, 0)" clip-path="url(#clip_0)"><clipPath id="clip_0"><rect width="1452" height="378"></rect></clipPath><g><g><g><line x1="58.01740778850204" y1="0" x2="58.01740778850204" y2="378" fill="rgb(0, 0, 0)" stroke="rgb(60, 60, 60)" stroke-width="1px" opacity="0.25"></line><line x1="161.79750771252708" y1="0" x2="161.79750771252708" y2="378" fill="rgb(0, 0, 0)" stroke="rgb(60, 60, 60)" stroke-width="1px" opacity="0.25"></line><line x1="265.57760763655216" y1="0" x2="265.57760763655216" y2="378" fill="rgb(0, 0, 0)" stroke="rgb(60, 60, 60)" stroke-width="1px" opacity="0.25"></line><line x1="369.35770756057724" y1="0" x2="369.35770756057724" y2="378" fill="rgb(0, 0, 0)" stroke="rgb(60, 60, 60)" stroke-width="1px" opacity="0.25"></line><line x1="473.13780748460226" y1="0" x2="473.13780748460226" y2="378" fill="rgb(0, 0, 0)" stroke="rgb(60, 60, 60)" stroke-width="1px" opacity="0.25"></line><line x1="576.9179074086272" y1="0" x2="576.9179074086272" y2="378" fill="rgb(0, 0, 0)" stroke="rgb(60, 60, 60)" stroke-width="1px" opacity="0.25"></line><line x1="680.6980073326523" y1="0" x2="680.6980073326523" y2="378" fill="rgb(0, 0, 0)" stroke="rgb(60, 60, 60)" stroke-width="1px" opacity="0.25"></line><line x1="784.4781072566774" y1="0" x2="784.4781072566774" y2="378" fill="rgb(0, 0, 0)" stroke="rgb(60, 60, 60)" stroke-width="1px" opacity="0.25"></line><line x1="888.2582071807025" y1="0" x2="888.2582071807025" y2="378" fill="rgb(0, 0, 0)" stroke="rgb(60, 60, 60)" stroke-width="1px" opacity="0.25"></line><line x1="992.0383071047274" y1="0" x2="992.0383071047274" y2="378" fill="rgb(0, 0, 0)" stroke="rgb(60, 60, 60)" stroke-width="1px" opacity="0.25"></line><line x1="1095.8184070287525" y1="0" x2="1095.8184070287525" y2="378" fill="rgb(0, 0, 0)" stroke="rgb(60, 60, 60)" stroke-width="1px" opacity="0.25"></line><line x1="1199.5985069527776" y1="0" x2="1199.5985069527776" y2="378" fill="rgb(0, 0, 0)" stroke="rgb(60, 60, 60)" stroke-width="1px" opacity="0.25"></line><line x1="1303.3786068768027" y1="0" x2="1303.3786068768027" y2="378" fill="rgb(0, 0, 0)" stroke="rgb(60, 60, 60)" stroke-width="1px" opacity="0.25"></line><line x1="1407.1587068008278" y1="0" x2="1407.1587068008278" y2="378" fill="rgb(0, 0, 0)" stroke="rgb(60, 60, 60)" stroke-width="1px" opacity="0.25"></line></g><g><line x1="0" y1="361.06940114596824" x2="1452" y2="361.06940114596824" fill="rgb(0, 0, 0)" stroke="rgb(60, 60, 60)" stroke-width="1px" opacity="0.25"></line><line x1="0" y1="325.9471276592837" x2="1452" y2="325.9471276592837" fill="rgb(0, 0, 0)" stroke="rgb(60, 60, 60)" stroke-width="1px" opacity="0.25"></line><line x1="0" y1="290.8248541725992" x2="1452" y2="290.8248541725992" fill="rgb(0, 0, 0)" stroke="rgb(60, 60, 60)" stroke-width="1px" opacity="0.25"></line><line x1="0" y1="255.70258068591468" x2="1452" y2="255.70258068591468" fill="rgb(0, 0, 0)" stroke="rgb(60, 60, 60)" stroke-width="1px" opacity="0.25"></line><line x1="0" y1="220.58030719923016" x2="1452" y2="220.58030719923016" fill="rgb(0, 0, 0)" stroke="rgb(60, 60, 60)" stroke-width="1px" opacity="0.25"></line><line x1="0" y1="185.4580337125456" x2="1452" y2="185.4580337125456" fill="rgb(0, 0, 0)" stroke="rgb(60, 60, 60)" stroke-width="1px" opacity="0.25"></line><line x1="0" y1="150.33576022586112" x2="1452" y2="150.33576022586112" fill="rgb(0, 0, 0)" stroke="rgb(60, 60, 60)" stroke-width="1px" opacity="0.25"></line><line x1="0" y1="115.21348673917663" x2="1452" y2="115.21348673917663" fill="rgb(0, 0, 0)" stroke="rgb(60, 60, 60)" stroke-width="1px" opacity="0.25"></line><line x1="0" y1="80.09121325249208" x2="1452" y2="80.09121325249208" fill="rgb(0, 0, 0)" stroke="rgb(60, 60, 60)" stroke-width="1px" opacity="0.25"></line><line x1="0" y1="44.968939765807534" x2="1452" y2="44.968939765807534" fill="rgb(0, 0, 0)" stroke="rgb(60, 60, 60)" stroke-width="1px" opacity="0.25"></line><line x1="0" y1="9.846666279123042" x2="1452" y2="9.846666279123042" fill="rgb(0, 0, 0)" stroke="rgb(60, 60, 60)" stroke-width="1px" opacity="0.25"></line></g></g></g><g><g><line x1="0" y1="325.9471276592837" x2="1452" y2="325.9471276592837" fill="rgb(0, 0, 0)" stroke="rgb(153, 153, 153)" stroke-width="1.5px"></line></g></g><g><g><line x1="161.79750771252708" y1="0" x2="161.79750771252708" y2="378" fill="rgb(0, 0, 0)" stroke="rgb(153, 153, 153)" stroke-width="1.5px"></line></g></g><g><g><g><g><g><path stroke="rgb(255, 112, 67)" stroke-width="2px" d="M162.44094433205603,322.1232763668395L162.95984483167618,322.8559600143645L164.90053270025544,322.819858458166L165.9746567344691,322.8115023575988L168.21111788783185,322.80446115417004L171.12214969070075,322.48318292784757L171.59434914535507,322.6660768979752L173.835999303714,322.44859455419964L176.46163583179185,322.1099345565495L177.0376153863702,321.3949125018501L178.53723783027235,321.1503655799945L184.33335641102914,321.2777619540912L184.46827054093038,320.7894896850488L188.24586617816487,320.7995754107497L189.77143364704807,320.2256464827499L190.6795095213833,320.3649877633377L191.76401156558933,320.16834305462265L192.45933823508028,320.2769683448765L193.2376889845105,320.8197767798222L196.66243228200332,320.45911144977447L198.86775940538885,319.57496797491L199.85367035466712,320.13519593756223L200.90703836889597,320.1165186389597L201.0419524987972,319.3470686452965L202.69205608758918,319.2877697025709L204.03081937660912,319.67342156708975L205.1827784857658,319.1937531089397L206.33473759492247,319.25777352362053L206.67202291967556,319.190340844169L206.70315694965274,319.16721720467757L206.82250406456538,319.0711342117745L208.1612673535853,319.86888617414036L209.3443604927192,319.3875431050203L212.83656085516265,319.29542500989135L214.05078802427374,318.89123035738714L216.27687116764406,319.3644676993L216.3287612176061,318.847841413334L217.82319465651204,318.7844493430493L217.84395067649683,318.1151968641944L218.74683754583586,318.1694981061389L220.52147725453668,318.43487458146956L221.28426098897828,317.85407069102774L223.88914149707128,317.7551772456021L224.48587707163446,317.84704257646985L224.67268125149766,318.31826188487366L225.63264717579492,317.94251197072674L226.3902419052403,317.8583578818375L226.88319737987942,318.0327733714945L227.5473900193932,317.7826990110489L228.4606548987246,317.9845560775633L229.90319828766854,318.60455400670503L229.92395430765333,318.5253538609924L232.07220237608067,318.8445029920729L232.11890342104647,318.71975129596245L234.194505419527,318.7331497735476L235.8757430382962,318.16698181216753L238.4391115064196,318.2571940674308L238.4806235463892,317.9337878631907L239.49766852564468,317.57321064507016L241.96763490383645,317.77430071545734L243.33753222283357,317.31387181301733L244.80602063675852,317.23436969039903L245.9372237259304,317.57293484541856L248.25670895923238,317.2860711692198L249.72000836816113,316.97054221635256L255.13214057919902,317.0417894436853L256.3100447133367,316.73822242845836L257.34784571257694,316.22582916077477L259.2210765162056,316.22936809050555L263.2892564332274,316.0997306702411L264.4256485273955,316.5601224587338L264.9186040020346,316.65919533616574L265.6191196765218,317.15038595747217L267.08241908545057,317.25430524910587L268.7013886442653,316.25990203586946L269.74437864850177,316.2237692896645L270.54348541791677,315.66544881201116L271.4048602472862,315.97906782348264L272.2143450266936,316.02643139599894L272.58795338642005,316.2544840066196L273.38187115083883,316.1361219308877L273.88520463547036,316.99654149923623L274.959328669684,317.3481609327975L276.6301882784608,317.3772817377526L276.7339683783849,316.7274365176931L278.2802918672528,316.1458935747323L279.1987457515804,315.8627333094364L280.01341953598404,315.9797819069282L280.7295022254598,316.07732071512146L281.22764670509514,316.3749009896959L281.9956194445329,316.60777671055644L284.28915965285387,316.4390916460215L284.4136957727627,316.65484343636143L285.1505344822233,316.442187162191L285.5189538369536,315.9431958278394L285.5760328919118,316.1225259591788L286.07417737154714,316.22780315487057L286.1053114015243,316.85064361843325L287.61012285042267,316.02947996364486L288.01486524012637,316.20324333623273L291.2839383877332,316.92278659850217L294.0444890457122,316.5422289230757L294.57376755532476,316.9694230466851L295.26390521981955,316.2741342361707L296.4418093539572,316.19994386303L299.4306762317691,316.49151890311094L299.7679615565222,316.98158652937434L299.98589976636265,317.00214608313814L301.8746975849799,315.51505667439574L302.315763009657,315.00464239581424L303.22383888399224,316.1408369181451L304.3446639631717,315.5092841501342L304.41212102812233,314.83664304001474L306.2801628267548,316.07001384299633L306.3061078517358,316.47206161544017L306.42545496664843,315.5472158334887L308.26236273530367,315.01888212424876L308.3609538302315,316.165828913106L313.48769076647835,315.97294165803993L314.0273472860833,315.00395332629046L314.6811619156046,315.59003788701216L314.79532002552105,315.5775980336919L315.7967979897879,315.5667115811258L316.5025026692712,314.9506774189032L319.2215412872807,314.96902959616557L321.3282773157384,314.46954341907315L323.8397557338998,314.8447651246578L325.93611375236515,315.1775299815699L328.2348429656823,314.70793449963327L329.2518879449377,315.59528464716897L329.4542591397896,315.68245295562247L330.18590884425396,315.1817577345962L330.59065123395766,314.8710495336115L330.93831456870316,314.8804289028499L331.38456899837644,314.69350361461375L332.8063563673356,315.2732553134337L334.9234704057857,315.8639241645807L335.20886568057676,315.09344578396815L337.28965668405345,314.74784936874926L337.5335399188749,315.4325131798041L338.57652992311137,314.81375914324605L340.2110664969148,315.3057261852347L340.3356026168236,315.8635728339183L341.39934864104487,314.7371437219074L341.9857062056156,314.9705180888184L342.0791082955472,314.25741836643107L342.93010511492423,313.3066447100953L345.374126468135,313.713377146391L345.91897199273615,313.7235922402408L346.8062918470866,314.64689752461345L347.24216826676746,314.1884055699931L348.32148130597733,314.6581196039062L348.5809315557874,315.0387652583102L350.81739270915017,314.96809669619427L351.7099015684968,315.2215979396467L353.0123418225433,314.6238578285629L354.7195244662935,315.7089346936599L355.08275481602755,315.7213835776356L356.02196472034,315.06032167352447L358.1131337338091,314.62552645269363L358.36220597362677,314.5322409294604L359.33254990791636,314.7555597118124L359.85663941253273,314.819475987004L361.901107381036,315.0460380176139L364.38145176922023,314.8996283668089L366.92925322235504,314.9994646126439L370.95073209441097,313.83247097717003L372.1597702585259,313.62079037776516L372.730560808108,313.34723377463877L374.2924513119646,312.62783330132004L377.01667893497023,312.78510747708805L377.2501841597993,312.95582498400836L382.26276298612976,313.425149627004L384.9662345891506,313.949333137419L385.262007873934,312.6766161034237L387.21307375250575,313.654585077943L389.02403649618,313.3037460981197L389.4910469458381,313.9836830615403L390.50809192509354,313.61869302238057L390.99585839473644,313.3874652083266L391.45767983939834,314.13118361310717L391.628917004273,314.04350067110414L391.8935562590792,313.5784328977287L393.5955498978333,313.3055660708398L393.8031100976813,313.0013138059195L394.0833163674762,313.55605599839726L398.71709782908385,314.78073037661176L399.01806011886356,314.5608752906461L399.32421141363943,313.4375261252272L401.1144181373289,312.38670690006927L401.22338724224915,312.69339761216054L403.0187829709347,310.3843471346988L407.01431681800966,311.74420637961407L408.06249582724234,312.12151320296294L409.72816643102294,312.71669027927965L414.2270337627295,312.93037606431074L414.83933635228124,313.4043311237185L416.0276184964113,312.67742045874456L416.69700014092126,312.68299113886314L416.73332317589467,313.7441782692895L416.7644572058719,313.6784835973032L418.45088382963723,312.94161244564344L419.29669164401804,312.5696022635025L420.01796333849,312.23712305535884L423.3337375310626,313.0547296451974L423.51535270592973,311.67879511988207L424.4078615652763,310.9800874646034L427.8118488427843,312.4410883576817L430.1987911410369,314.0689191320012L430.39078432589633,313.14178502118017L430.4478633808546,312.5026588416911L431.32999423020874,313.62015173428233L431.51160940507583,313.9299325273635L434.60425638281174,313.8177934485319L435.55903330211277,313.8011919386752L437.318105995825,313.0778346390184L439.41965301928656,313.92499663997296L440.47821003851163,312.81574114188066L440.49377705350014,311.98638219736415L440.60274615842036,313.0534848547202L440.7636053133026,311.58095768962323L441.44855397280116,310.50124118735164L441.57309009271,309.80879968548345L441.6146021326797,311.4451173778038L441.97783248241376,311.62367208657577L442.57975706197305,312.24829351555303L443.3581078114032,312.8213359102363L446.1809265293367,312.85683492297255L447.0267343437175,313.0178093569733L447.7635730531781,312.1039420028234L449.98446719155226,311.85031244930394L450.83027500593306,312.6821714041557L451.6605158053253,313.55876406251184L451.8006189402227,313.218073968555L451.93553307012394,312.5514226624789L453.15494924423126,311.983662410002L453.29505237912866,312.64634221566814L456.4136443818456,312.1918838702229L456.9221668714734,313.45560601692887L458.6189715052312,312.0254344386058L461.06818186343816,313.15947720317536L461.5870823630583,311.6684948050131L462.3394880875075,312.18925920438016L467.2171527839366,312.40332733892166L468.4365689580439,313.2147650305541L468.80498831277424,310.95314133128375L469.1630296575121,311.74965590109525L470.25790971171057,312.3955089568104L471.53959394577225,311.3052797783909L472.9406252947466,312.2331374597568L477.33571252652905,311.5101263653796L479.0584621852679,312.2629267179981L487.70334450893915,311.48617311159165L487.76042356389735,312.98868703621616L491.1955448713826,312.4751543979893L492.7314903502582,310.8545611798371L492.92867254011384,311.5954018454566L493.33860393481376,312.2527060042918L495.3208038433626,310.6982926239682L495.48685200324104,310.28950164379546L497.1888456419951,312.1892703627762L497.7336911665962,312.5218142961866L498.3044817161784,312.4350085269573L504.74403691646404,308.10512717395375L505.6002227408373,302.7527679879072L506.32149443530926,295.60742445114624L507.78998284923426,291.90122490468275L508.5735226036606,291.0466379697157L509.5750005679275,290.3531938878253L510.2807052474108,295.7709479976659L510.59204554718286,300.58121783703336L510.8878188319664,267.02946531168067L511.1005680368106,275.0803417381403L512.2162041109939,280.12236572961285L513.352596205162,286.0294463753081L518.6557593112797,276.6740140674244L519.361463990763,281.3252251751704L519.4081650357289,290.796339049082L521.219127779403,288.0563239339251L522.7031832083167,277.02349357381576L523.4296439077848,286.2092438159272L523.9174103774277,278.2751438356603L525.0901255065692,288.1620943660325L525.6453490411627,288.90192094358076L526.838820190289,282.855555862649L526.8491982002814,285.4992473230505L528.2761745742367,287.92805564775153L528.9351782087543,289.1978612522756L530.476312692626,287.8467662725899L533.3043204155557,261.72253696594953L533.3665884755102,270.3236650022857L535.478513508964,236.8804569506273L537.4243903825395,256.53481100785166L537.5074144624788,259.78080705519346L537.5956275474142,248.18995157326611L539.4117792960847,267.8526133666965L539.6608515359023,283.6203146346669L540.247209100473,283.1275509974116L541.1241509448311,285.2372294099937L541.2175530347627,289.5919205246406L541.5029483095537,287.59163283077146L542.9195466735167,291.71753961081885L544.8550455370997,294.74033981078094L545.8046334514046,296.5551848941675L546.8995135056031,295.2046873710125L547.4287920152157,296.0868629719618L550.0284835183124,296.8730933420487L550.453981928001,281.21591182257714L550.713432177811,281.00658709077993L550.8691023276971,275.2436921101492L551.6733981021083,275.1021912773372L552.078140491812,285.89470016937133L552.7942231812877,290.27981298240127L552.981027361151,296.6135142206479L554.0343953753799,277.5611716285058L555.1604094595555,260.88215188626367L555.1863544845365,267.649713386258L557.184121408074,274.80422428548786L557.3501695679524,287.1540361524933L560.4428165456884,291.0651864548713L560.7489678404643,297.2763396149886L560.8579369453845,297.82546284593L561.4754285399324,282.8436009578147L563.0943980987472,262.0853415017496L563.8935048681622,271.24714807374886L565.1492440772429,262.52343458240233L568.0239528451384,271.0230036635686L568.4702072748116,271.9774341750615L569.0254308094052,270.2691249421473L569.4249841941127,273.9326113471453L571.9831636572399,265.65660359479807L573.0261536614763,251.27284790655176L573.4516520711649,240.17461649643963L574.1210337156748,223.4411544752773L575.464986009691,234.65106025794557L575.8956734243757,249.30770349111114L576.3730618840261,237.10618562491638L576.3730618840261,232.19364750598342L580.1299015012759,209.76858757806528L580.8978742407137,224.8208105004003L582.9319641992246,213.9485722405839L584.0268442534231,233.62749250001107L585.3137174924809,251.48920973659853L588.1261582004221,258.8616187420882L588.3233403902776,257.4489471547987L588.795539844932,242.54642174762355L589.7088047242635,246.04621462626525L589.8956089041267,247.43822937813823L590.0927910939823,259.14985147343316L590.497533483686,255.9945367459694L590.9801109483327,267.87694844755094L591.836296772706,273.5035859714649L594.6279814606622,255.71279965075576L594.7161945455977,249.82791246388516L595.1676379802672,222.26267699641608L595.681349474891,242.70537216362231L596.3195970894238,216.10570375098732L598.6909723726878,215.69678287505278L599.910388546795,210.55112665685556L601.1349937258985,233.4632831293778L601.4307670106821,226.93255802589164L602.1053376601882,237.03344938886215L605.24468568289,230.56851735846305L606.277297677134,215.50654448015808L608.4981918155081,212.20073956140263L609.5878828647104,212.2266905394837L610.2365084892356,240.57909101690052L610.4907697340494,221.87808829138217L610.7502199838594,212.03161023529577L611.6531068531984,188.7888106280923L613.4744476068652,192.49187499918506L613.7338978566752,215.34105281577007L613.9466470615195,228.37040844786856L614.2994994012611,220.45460615820392L615.0986061706761,229.88093547209215L615.35286741549,214.96670819050135L618.1289850884576,202.27338052970907L618.295033248336,222.91770004533365L619.0370609627928,234.85790510835733L620.2305321119192,237.9505594094707L622.8873026699741,226.04362932193305L624.0133167541499,226.48451520203648L625.383214073147,205.23524206144404L625.7308774078924,207.7134260369151L627.9206375162894,197.18823592221625L631.2208446938735,216.39225963619944L631.4076488737367,211.56468104669307L636.8094030747822,181.96407491486926L638.4128056186083,198.67763803655632L642.7663808104212,187.87249744512025L644.3282713142778,183.01039368873123L645.0754880337308,195.08364209983375L646.5128424176785,198.77288651211282L647.6699905318314,198.45326276488106L650.6640464146395,187.81918257467797L651.6914694038874,189.67844897476323L652.3037719934391,169.5928591562423L652.532088213272,176.13182387463863L652.7552154281086,176.53060088656719L654.7062813066802,167.16941636588854L655.2615048412738,180.87636571457372L658.4060418689718,217.13271154007307L658.9716434135577,192.93810861496422L659.8745302828967,186.79208391777703L661.2807506368672,209.10540734441426L663.8700641299716,209.73201036956272L664.7625729893183,181.80357101675023L665.2347724439726,186.69129442313607L666.5787247379888,136.70515677381906L666.739583892871,172.0012043463827L666.9782781226962,212.87770629520372L667.2273503625139,196.23611844848745L667.5490686722784,184.70343514717553L667.9641890719745,180.63538763066583L668.5505466365453,218.90829790341672L668.9345330062641,174.09317330002045L669.5987256457779,170.98228391837696L669.961955995512,187.44201409894816L670.8337088348737,167.69056173362245L672.1465270989128,204.00464760685264L673.9004107876287,182.08036268720818L674.4712013372109,186.66038007504613L675.4726793014777,153.74970596827578L675.7580745762688,167.10024557463117L676.5156693057141,184.99519878849463L676.666150450604,194.03113388644556L677.5119582649849,211.0827597966022L677.5742263249392,192.18799678670072L680.973024597451,165.25131024879684L681.517870122052,182.25395631332756L683.1627847058479,144.6339822337775L684.0916166001679,146.95280830015398L686.1257065586788,153.0838476728196L686.3540227785116,163.3770142914585L688.1753635321783,161.83962118974583L691.4755707097622,200.59507803819525L692.9181140987062,194.3543163380724L695.4711045568372,188.50190659693078L699.0100059642465,127.87338334018673L699.0618960142085,145.04378100897392L699.2694562140566,130.7035934969709L699.7157106437298,135.04640868871044L700.5770854730993,120.66616760541393L703.6645434458391,111.12437008852982L703.7579455357707,150.38717995423158L703.8305916057175,188.64659155507314L705.7193894243347,180.69207345400605L707.3746820181229,173.15009652063813L708.3761599823898,179.7810447844353L709.5851981465047,183.30838770839884L710.6800782007032,164.9007347396574L712.2315906945673,199.84023783591493L713.8713162733669,170.37638631430133L715.6148219520906,173.1397519851649L716.1389114567069,158.2281625350561L719.5895997791807,156.54701664864254L720.6377787884134,153.73340890183468L720.7571259033259,149.520552166746L720.8453389882613,134.6032492868469L721.1930023230069,165.1612450291998L723.0766111366279,171.57582067590195L723.1907692465444,135.13596992552704L728.3538292177647,144.24881569428513L728.7585716074683,191.84437343911637L729.1166129522061,179.75780815634636L729.6199464368377,198.6088443602425L730.7978505709754,194.74163144512278L732.6555143596155,171.87121517521328L734.3471299883771,160.86041071441196L734.399020038339,169.65921123006262L736.2514948219829,199.94073659833015L737.9742444807217,168.73440539918226L739.1106365748898,175.00589009409143L741.0876474784425,20.024840302032146L741.1187815084197,42.91801875514034L742.2655516125801,75.71131772465873L744.5746588358897,111.59498619381384L745.7214289400501,152.53083289239888L747.3403984988649,144.0000379374518L748.938612037695,145.55954656717924L749.5872376622201,165.40069865092508L750.1995402517719,142.07114058712128L751.413767420883,95.06709703749232L752.3062762802297,111.99643862868521L754.5375484285962,103.64619822015175L755.8296106726502,109.82936004327439L755.9800918175401,160.04730552887716L757.7754875462258,131.1605334557652L759.3996461100367,138.2668435048906L761.2054198487147,135.7564832027316L761.319577958631,170.9211902099696L763.275832842199,169.29004421830498L764.1216406565798,105.85285431929645L766.1090295701249,105.56775676760878L766.2179986750452,119.49724384724965L766.9392703695171,159.46590134161698L767.1727755943461,149.5114772589481L768.9889273430165,157.68551142151395L769.0096833630014,140.2044720177972L770.1512644621657,149.9752895792046L770.5093058069035,141.36143968435678L771.8221240709424,159.0383743791186L772.7976570102282,136.8152151751041L774.878448013705,119.5616887230662L775.0185511486025,120.2085691865343L776.2950463776679,142.8085235556457L777.0837751370905,143.16146879263516L779.5018514653203,131.39068088982344L780.7368346544163,102.29553051873205L782.5477973980904,144.62933582999744L784.3743271567533,109.37439700221728L785.0592758162519,137.5069611955367L785.3187260660619,120.84505008576218L785.3809941260164,114.8265448709746L786.4395511452414,105.02526966168097L788.3439159788473,67.26740778654062L788.567043193684,62.159453940215656L788.852438468475,76.38003221340568L790.8813394219898,131.71686553818114L790.9643635019289,178.81112270341416L794.3631617744408,166.7442672825279L794.9287633190266,150.53222886250046L795.042921428943,152.74711471931928L796.5062208378719,117.57385583595254L797.5492108421082,125.79359039472834L800.8338510047037,145.41762541441182L801.1815143394491,128.9362267111335L802.0221331488339,144.8224983476137L803.526944597732,143.8128953133079L803.7915838525383,127.10044988141621L805.0006220166532,153.32795693183837L808.394231284169,101.37197588185097L809.582513428299,125.55879362928633L811.0198678122468,140.09179064811977L812.9968787157994,74.46694948255731L814.0502467300283,76.17883445929914L815.2125838491773,129.85315797453129L815.4668450939912,127.27095054422819L816.2815188783949,148.35909323006447L817.4542340075362,129.69115446460606L818.8345093365258,151.30133441410152L819.0213135163891,152.7367725588441L819.5142689910282,169.69620859400092L819.5505920260016,201.30673605206587L819.9242003857281,160.3193381162147L819.9242003857281,115.47159012019176L821.9738573592276,152.048926615695L822.9338232835248,125.45427360283276L823.8989782128183,100.14841663894106L824.5060917973738,50.00069421046578L826.576504790858,111.96786861892525L827.9619691248438,145.16863682090832L828.2940654446007,69.83247151614955L828.3926565395286,86.45130074808259L828.8544779841905,99.46140165592021L829.279976393879,79.28348425194355L829.3941345037954,115.08628342548604L830.1257842082598,157.24961259709954L834.1732081052967,165.209393358986L834.7128646249016,151.85939582951096L835.69877557418,180.4579122247929L836.4356142836405,150.76664726318407L838.8069895669046,118.66140607665147L839.0768178267069,124.79189661449752L840.9241036053545,143.5156123098657L841.5208391799176,130.34041365490435L844.5148950627258,146.58801524345856L844.5823521276764,178.4134969791891L844.8521803874789,174.58328954503503L845.1427646672662,153.21198488462895L845.5475070569698,89.44230145609146L846.4088818863393,114.33185686299038L846.6164420861874,122.67345406787746L847.410359850606,56.91937898941313L847.5764080104846,53.67721760269046L848.6142090097248,61.18442985426651L849.5897419490107,104.53762738557657L849.9944843387143,124.72524870353988L850.347336678456,155.52060832079746L850.7884021031332,58.058795225391066L851.12049842289,73.63530820375485L851.4837287726241,90.20301374789398L856.3406374490685,51.91519162080988L857.9388509878984,58.56148200610863L858.8988169121957,13.679787490566014L859.2879922869108,54.82167154776272L860.196068161246,43.4331091091326L860.3932503511016,80.0699053305267L860.6578896059079,65.76751689116594L861.3895393103724,111.7584363373133L862.4117732946239,162.64814565874877L863.7764816086249,197.675769034918L864.5392653430665,69.55705280689722L866.4176851516913,111.96179483033183L866.5266542566116,130.3040574334085L869.0018096397995,63.765500717272175L869.2923939195869,59.102758343265805L869.3079609345754,83.8432240668518L870.1537687489562,95.92368776887281L873.5888900564415,125.36767686560466L877.0914684288773,115.17410504105368L877.4702657936001,100.38377436211397L877.9735992782315,128.6061160797198L881.029923220994,55.05970843616046L881.906865065352,85.37326954922565L882.0677242202343,66.48612081265293L883.2871403943417,-26.53974266256671L883.9824670638326,18.367237134213497L884.0395461187908,41.82392516756033L884.3197523885857,95.45859478187538L885.8453198574688,116.52488729421424L887.163327126504,69.04561603358724L887.4435333962989,120.37274987149851L888.4138773305884,118.83053020571197L889.488001364802,103.9281884898831L889.7474516146123,103.63531103399708L889.8927437545059,98.07038210074535L891.1173489336094,110.79396434473097L892.1292049078685,102.1967046356528L893.2448409820519,144.82711201868776L893.9142226265618,78.79505095576684L894.5213362111173,88.61800292533621L895.3463880055132,49.40233295339044L895.6421612902967,67.25719026790745L895.7822644251943,60.704025879749224L896.7629863694762,89.01222632679367L896.8875224893851,136.59397066460593L897.4686910489596,134.0384058117117L899.8815783721932,8.117136553911223L902.4449468403167,6.629776867281521L903.897868239253,-11.718595368908666L903.9030572442492,-7.371077748313326L904.9979372984476,33.76447030674262L905.1328514283489,98.73188715683574L905.6413739179766,150.11448814935525L905.6413739179766,144.31971605385493L907.0112712369737,145.11460145306617L907.5613057665711,165.50412429600178L908.0127492012406,171.00847342630178L909.1231962704277,196.3172028516561L909.3100004502909,176.736896367601L909.9741930898047,83.15625370449254L910.1142962247021,129.83974962498547L910.4360145344665,158.0728020145605L911.0690731440031,146.07009225494008L916.1283530152994,168.98473870804105L917.046806899627,205.48181999567393L918.1157419288445,129.9404203562309L918.3544361586696,149.40018856159378L918.4063262086318,173.3328633105909L920.6946774119565,175.77032775564172L923.9896955845443,164.38562477996476L924.6383212090693,116.39956518661711L925.5723421083856,172.42365115428606L928.623477046152,132.1748859942013L931.3580826791499,151.30869482467614L932.572309848261,135.81847076745902L933.1690454228242,178.2502819613625L933.4803857225963,157.42206443938426L934.8866060765667,182.64671610965067L935.0059531914794,119.89417314311976L935.1616233413656,72.5702167685443L936.7338918552146,58.39862731421164L936.9103180250854,103.0173834344493L937.1749572798915,82.2919146160529L937.8702839493826,51.49896440641362L938.4462635039608,12.669521672159135L938.8458168886684,26.689882563842104L941.6219345616361,96.296090228975L943.4951653652647,135.8893252098133L947.7916615021194,122.6696196654658L948.6219023015116,164.03105988258287L948.78795046139,161.38567013721243L949.7271603657024,157.5167908071266L951.6574702242893,189.2840745102823L952.0466455990044,186.67922831552275L957.0229013903614,205.99083568624505L961.0132462324401,214.79497785449567L962.2637964365248,220.54307873204465L964.8115978896595,228.94880430289183L964.9205669945796,223.93734466345768L966.6381276483224,242.69386913608224L967.5669595426424,247.03101488316983L967.9250008873802,214.05821379765322L968.7967537267419,238.67870451417642L969.5284034312064,248.68967893667525L969.9590908458912,244.41397364589434L970.4416683105379,249.9758497011089L970.5973384604239,244.55180202905638L971.3549331898693,255.7797711313221L971.4327682648124,260.0398912972358L976.481670126116,260.5683348692919L976.7463093809223,260.27278969643567L977.5246601303526,241.24775606989144L979.1540076991597,217.6453348621002L979.2058977491216,227.9055560584416L979.2370317790989,230.73217913879853L980.217753723381,237.8759586664254L980.6328741230772,254.483706061512L981.3956578575186,214.97500060790267L984.6180299601596,217.40082705464127L987.6639758929298,242.40575343520848L989.1117082868699,253.87681620709233L989.3763475416762,263.806581468529L990.170265306095,266.1482039501397L992.1213311846667,258.86928696241836L992.4586165094197,271.1315971749923L993.2577232788348,275.3938208932469L993.9219159183485,271.131605365292L996.900404786168,275.1319508757523L998.5349413599714,282.800822098857L1000.8388595782849,273.3391647701629L1003.5890322262715,276.7512658050001L1003.7239463561727,275.18189718678815L1004.5801321805459,276.4605395163973L1006.7283802489733,252.57387827403198L1008.2072466728905,253.92015336314915L1010.0078314065724,266.57489958879745L1012.5919558946805,274.4469781339564L1012.7320590295781,273.5359088728202L1013.2665265441867,273.49140071065983L1013.4948427640197,278.4768748477364L1015.4303416276027,285.06782525486415L1016.6082457617404,271.7206590613465L1016.7172148666607,282.37349084844413L1025.4036092303015,272.1625963249205L1026.244228039686,277.8483745802792L1026.4050871945683,281.5356987056972L1029.6118922822207,286.96443054212233L1030.2241948717724,290.8606671468213L1030.5666692015218,293.5607803902565L1030.6860163164342,295.4196316701092L1031.2516178610203,296.06964573582286L1032.3101748802453,296.0705416586535L1032.5021680651048,294.48104550844846L1032.9120994598047,260.35839172568484L1033.4154329444361,269.0615070034154L1034.0173575239955,282.1638746524419L1034.6348491185436,288.15968572551697L1034.6815501635092,290.1365012666312L1034.9513784233118,292.3840390633158L1036.4873239021872,289.9958079601183L1037.0373584317847,291.3475110121983L1039.39316670006,293.44908989275183L1039.4813797849954,294.6459702627105L1040.763064019057,289.3324498552837L1041.297531533666,288.86950924909473L1043.2745424372185,280.77475734087807L1045.0024811009537,287.1348263873524L1045.0803161758965,293.12806518426464L1045.9105569752887,292.07015917659743L1046.3671894149545,294.02404197634235L1048.3078772835338,297.33687770210565L1048.9149908680893,297.53255457851475L1049.060283007983,297.6899479561511L1049.807499727436,295.60574497986L1052.5628613804188,295.1656290853921L1052.6458854603582,296.7432956889641L1055.7489104480865,298.8538542040995L1058.213687821282,300.8192443977422L1058.8000453858529,299.81177185473626L1059.0802516556475,301.45212726516195L1059.9675715099982,302.6777371415054L1060.2270217598082,301.63404651382746L1060.6421421595041,295.63977989300264L1061.1869876841054,299.4499547814743L1061.3945478839535,298.7651477873488L1063.2314556526087,299.40496545966244L1065.5768859108916,298.84227472494223L1066.0438963605498,301.58328811785736L1066.3811816853029,303.02831092445456L1069.0483302533503,300.3631856971138L1071.2899804117092,300.5492967376524L1073.1009431553834,301.55498133668715L1074.3670603744565,301.71722601321216L1074.7718027641604,295.9803617060019L1075.0779540589363,299.07028406457493L1075.5605315235828,301.11457803086705L1075.6850676434917,302.84084935386414L1077.6361335220633,302.46667816935366L1077.729535611995,300.114054601639L1079.2135910409086,300.903393108734L1080.3759281600576,302.5636189649845L1080.5731103499133,301.25958011551603L1080.8169935847347,302.9686390618714L1083.2558259329494,304.8537216294447L1083.738403397596,306.0320583678814L1086.675380225446,304.9793359529541L1086.8258613703358,305.06120943193406L1086.9296414702599,306.01989260164277L1088.9014633688162,306.9111164132251L1088.9377864037897,307.56277711960263L1091.0964124822094,308.0304226425464L1092.300261641328,307.3937067814034L1093.0838013957543,307.0421445078773L1094.0489563250478,307.5612875016842L1096.6019467831788,307.8158910621737L1099.2690953512263,304.5770333928234L1099.699782765911,294.38718465221797L1099.902153960763,295.5427301499885L1100.498889535326,291.9733605377324L1101.656037649479,287.74387379674675L1102.5226014838445,295.2514857156212L1103.3735983032216,298.84413170240475L1104.5099903973896,302.24520987832113L1104.5566914423555,304.8914897078764L1108.6300603643733,306.495498763111L1109.9584456434009,306.0910698446618L1110.5084801729981,305.3723229647772L1112.2675528667105,307.42724944188126L1112.30906490668,306.5943252706511L1113.0147695861633,300.2664209480178L1113.0874156561101,303.71350189185443L1113.0926046611064,306.31326920054937L1113.6426391907037,308.01412298359725L1114.3483438701871,308.6037428213898L1120.7827100654767,308.4838375202859L1121.5506828049145,308.39881044063156L1123.7248758983228,309.3504692894949L1125.0065601323845,307.0097246399655L1127.4609594955878,307.35290517813644L1128.14071915009,305.30599801546265L1128.7478327346455,307.1547639172288L1131.7626446374386,307.9879177516263L1133.2622670813407,308.4144461633598L1133.397181211242,309.15047685376334L1136.0954638092667,308.3171155011361L1139.5150181017632,308.23917451237804L1139.9924065614139,307.763917753847L1140.205155766258,307.5691913874963L1141.9797954749588,308.4926752611342L1141.9901734849514,306.0058165134764L1142.420860899636,307.8868973651304L1142.4935069695828,308.16673839627407L1144.0813424984203,309.08916281802243L1145.4512398174174,308.56345271249864L1145.6380439972809,308.70069699696114L1146.13099947192,308.7483338211602L1146.80038111643,309.6184837408048L1147.760347040727,308.98160592591296L1149.0575982897774,309.88511918943215L1150.339282523839,306.99929518456736L1150.7388359085467,308.0187242073893L1152.399317507331,309.3809128145191L1152.529042632236,309.42675960910736L1153.9352629862067,308.97198690239975L1154.3400053759103,309.9163974971842L1154.615022640709,309.3041772529256L1156.3325832944515,309.19527740034493L1159.2176700723394,308.1602129701814L1160.5512443563632,308.2667264515431L1160.5616223663556,308.6984474528182L1161.2621380408427,309.2023575059109L1163.353307054312,309.6397475163692L1163.462276159232,309.63651962250924L1164.6609363133546,310.30022515881365L1165.6468472626327,310.7229415180723L1168.9418654352205,310.9281613762903L1171.1420035536098,310.62461857604796L1171.8269522131084,309.93588990053775L1173.9544442615509,310.5323751841048L1174.8210080959166,310.2693897600967L1174.8728981458785,310.06846806337967L1175.1790494406544,310.19344230475417L1176.9017990993932,310.5258214619426L1181.8313538457844,310.6639353041572L1182.1167491205756,309.9787282948727L1187.5081253116286,310.61740694665036L1189.2775760153331,310.99756607359257L1189.9780916898203,311.2729407088002L1192.5674051829249,310.1127439462699L1193.3872679723247,309.7292896075889L1196.3034887801898,309.93125631241224L1196.3242448001745,309.9817942671787L1197.704520129164,308.6368573032854L1197.7252761491488,309.1751190368497L1198.2130426187919,309.51470041969395L1198.6696750584574,309.51952521569706L1200.1589194923672,310.24494460171394L1200.7089540219645,310.73987397935844L1201.3160676065202,311.1884436553004L1203.5369617448941,311.1379152139675L1207.70892176184,310.8077711346717L1208.8556918660006,310.7152435020989L1211.2322561542608,310.84835921798543L1212.9238717830224,311.1411114751021L1214.9112606965673,310.972869516392L1215.4353502011838,310.2299216480667L1216.9868626950479,310.69432095231286L1218.719990363779,311.29552610772464L1222.9594074456757,310.9025024673599L1225.1543565590687,310.7397795210354L1226.4360407931304,310.6437307465854L1226.731814077914,310.20981696090405L1227.6450789572455,310.827577109286L1227.997931296987,310.1064655319683L1229.6013338408131,310.38652239550044L1229.7673820006917,309.60409576027075L1231.4849426544342,310.0678793051312L1232.1024342489823,308.9834544185289L1232.6576577835758,309.6083433127759L1232.7095478335377,309.9226509888423L1236.7829167555558,310.46219170747605L1236.9541539204304,310.03328278583024L1239.1179690038464,310.33302842838293L1245.3862870392575,310.8468237290946L1246.1957718186648,310.50013757980366L1246.6939162983,310.3642598350171L1247.7057722725594,310.4048419864889L1247.9652225223695,310.6256982967104L1250.7413401953372,310.5553516920421L1251.3899658198623,310.8391653378893L1252.080103484357,310.9340631762781L1254.4826127975982,310.7509812324566L1257.1393833556533,310.88337277554774L1257.9384901250683,310.48699886244844L1258.7687309244604,310.74081921900137L1261.9859140221051,310.879314755869L1262.1156391470101,310.092442324363L1262.2090412369419,310.4291766081526L1263.9473579106693,309.8716208413126L1265.592272494465,310.1092626096915L1266.5003483688004,310.6655228948295L1268.2386650425276,310.7606732567346L1269.561861316559,310.98570242847234L1269.8109335563768,310.67956054766114L1271.3520680402485,310.5987124134017L1271.6218963000508,310.86156093848695L1271.9955046597775,310.7302753900071L1273.5781511836187,310.8945010921485L1274.3980139730186,310.61593738891105L1274.7871893477336,309.62153178686833L1275.1763647224489,309.69622421408576L1277.4802829407622,310.0762644230074L1278.0562624953404,310.3448626362332L1278.844991254763,310.5053375919773L1280.7286000683841,310.01291745072797L1280.9154042482473,310.2698000416761L1282.690043956948,310.50863898273474L1283.229700476553,310.6489713222289L1286.3690484992549,310.9827663135559L1286.3846155142435,310.68601927318826L1286.478017604175,310.2573136631752L1286.6959558140154,310.70748166963295L1287.4276055184798,310.9182557572757L1288.6470216925873,310.74186388855844L1290.5877095611665,310.65176280734784L1291.0858540408017,311.01583894472515L1291.687778620361,311.0870758581238L1292.0302529501105,310.8316717813126L1295.8234156023336,310.06830872296337L1296.3371270969574,310.53869906483897L1296.560254311794,310.83888938222583L1297.1414228713686,310.81613916243157L1297.4683301861294,310.5968177217173L1299.4505300946782,310.64335372471766L1299.9434855693173,310.9678539755329L1300.0524546742377,310.49022687935826L1303.1710466769546,310.5569601081131L1307.0628004241055,310.7813998860408L1307.4986768437864,310.86776633936626L1310.9389871562678,310.8864761961203L1311.1724923810968,310.61069773202934L1311.4008086009298,310.6542689009375L1313.10799124468,310.5533662798655L1318.8729757954595,310.11991114416134L1322.6038703877282,310.20270977180905L1322.7958635725877,310.3320137619854L1323.423733177128,310.1610570073891L1325.763974430415,309.9307034172078L1328.0004355837775,310.58895376832106L1328.036758618751,310.70976377125896L1328.4155559834737,310.70593897552703L1330.4237009170035,310.6853061404305L1330.7350412167757,310.4437957552444L1331.5652820161679,310.4360303028913L1332.343632765598,310.5977256626336L1332.3591997805866,310.736257511853L1332.3643887855828,311.2879320725789L1333.1116055050359,311.277891593754L1335.026348348634,311.3441245136205L1335.9707472579428,311.04661506244724L1337.2212974620272,311.0831499807664L1338.5185487110775,311.1090146578019L1338.6223288110016,310.33026422516224L1344.615629581614,310.69643374588054L1345.1500970962227,311.159828520008L1345.2538771961467,310.95814162536726L1346.732743620064,311.02310628375176L1348.6889985036319,310.5824470674033L1351.2316109517706,310.89882565642876L1353.5562851900686,311.0461869125015L1353.6808213099775,311.2487024199317L1354.049240664708,311.47932237147967L1359.0462524760496,311.5160216416863L1359.8349812354722,311.61585057700745L1361.6303769641581,311.40784922793085L1361.9313392539377,311.22906686788997L1364.0225082674067,311.2052541174952L1364.3442265771712,310.9887759806603" style="fill: none;" fill="none"></path></g></g></g></g><g opacity="0.2"><g><g><g><path stroke="rgb(255, 112, 67)" stroke-width="2px" d="M162.44094433205603,322.1232763668395L162.95984483167618,323.29557020287945L164.90053270025544,322.78520096421545L165.9746567344691,322.8016755833317L168.21111788783185,322.79526815897356L171.12214969070075,322.0387394806821L171.59434914535507,322.92761820156113L173.835999303714,322.13150320914446L176.46163583179185,321.6104768413335L177.0376153863702,320.3331880821518L178.53723783027235,320.7857632197937L184.33335641102914,321.46816322979424L184.46827054093038,320.0586755751608L188.24586617816487,320.81468424031453L189.77143364704807,319.36542772266046L190.6795095213833,320.57390140995267L191.76401156558933,319.8734592050005L192.45933823508028,320.43987870030776L193.2376889845105,321.63390674083905L196.66243228200332,319.9181464209427L198.86775940538885,318.24880125114265L199.85367035466712,320.9755194470008L200.90703836889597,320.08850305980656L201.0419524987972,318.1929027696704L202.69205608758918,319.1988217099541L204.03081937660912,320.251897719239L205.1827784857658,318.4742516490547L206.33473759492247,319.35380404735537L206.67202291967556,319.0891918871068L206.70315694965274,319.1325317582204L206.82250406456538,318.92700975428204L208.1612673535853,321.0655139589633L209.3443604927192,318.665528558803L212.83656085516265,319.15724787379605L214.05078802427374,318.2849383960019L216.27687116764406,320.0743236999664L216.3287612176061,318.0729019923779L217.82319465651204,318.68936123821067L217.84395067649683,317.11131814963966L218.74683754583586,318.2509499688743L220.52147725453668,318.8329392939334L221.28426098897828,316.9828648560638L223.88914149707128,317.60683707753503L224.48587707163446,317.9848405727316L224.67268125149766,319.0250908473569L225.63264717579492,317.37888709956496L226.3902419052403,317.73212674851146L226.88319737987942,318.2943966059703L227.5473900193932,317.4075874703889L228.4606548987246,318.28734167733074L229.90319828766854,319.53455090041024L229.92395430765333,318.406553642424L232.07220237608067,319.3232266886922L232.11890342104647,318.53262375179713L234.194505419527,318.7532474899254L235.8757430382962,317.3177298700979L238.4391115064196,318.39251245032574L238.4806235463892,317.4486785568305L239.49766852564468,317.03234481788957L241.96763490383645,318.075935821038L243.33753222283357,316.6232284593574L244.80602063675852,317.1151165064716L245.9372237259304,318.08078257794784L248.25670895923238,316.8557756549217L249.72000836816113,316.4972487870517L255.13214057919902,317.1486602846844L256.3100447133367,316.2828719056179L257.34784571257694,315.4572392592494L259.2210765162056,316.2346764851018L263.2892564332274,315.90527453984447L264.4256485273955,317.2507101414729L264.9186040020346,316.80780465231356L265.6191196765218,317.8871718894318L267.08241908545057,317.41018418655636L268.7013886442653,314.7682972160149L269.74437864850177,316.169570170357L270.54348541791677,314.8279680955312L271.4048602472862,316.44949634068985L272.2143450266936,316.09747675477337L272.58795338642005,316.59656292255056L273.38187115083883,315.95857881729L273.88520463547036,318.28717085175896L274.959328669684,317.8755900831394L276.6301882784608,317.42096294518524L276.7339683783849,315.7526686876039L278.2802918672528,315.27357916029104L279.1987457515804,315.4379929114926L280.01341953598404,316.15535480316595L280.7295022254598,316.22362892741137L281.22764670509514,316.8212714015576L281.9956194445329,316.9570902918472L284.28915965285387,316.1860640492191L284.4136957727627,316.97847112187134L285.1505344822233,316.12320275093526L285.5189538369536,315.19470882631214L285.5760328919118,316.3915211561878L286.07417737154714,316.3857189484082L286.1053114015243,317.78490431377725L287.61012285042267,314.79773448146227L288.01486524012637,316.4638883951145L291.2839383877332,318.00210149190633L294.0444890457122,315.97139240993596L294.57376755532476,317.6102142320992L295.26390521981955,315.2312010203991L296.4418093539572,316.088658303319L299.4306762317691,316.92888146323236L299.7679615565222,317.7166879687694L299.98589976636265,317.0329854137838L301.8746975849799,313.2844225612822L302.315763009657,314.239020977942L303.22383888399224,317.84512870164144L304.3446639631717,314.56195499811776L304.41212102812233,313.8276813748356L306.2801628267548,317.92007004746876L306.3061078517358,317.07513327410595L306.42545496664843,314.1599471605614L308.26236273530367,314.22638156038886L308.3609538302315,317.88624909639196L313.48769076647835,315.6836107754408L314.0273472860833,313.55047082866633L314.6811619156046,316.46916472809465L314.79532002552105,315.5589382537115L315.7967979897879,315.5503819022766L316.5025026692712,314.0266261755693L319.2215412872807,314.99655786205915L321.3282773157384,313.72031415343446L323.8397557338998,315.4075976830347L325.93611375236515,315.6766772669381L328.2348429656823,314.00354127672836L329.2518879449377,316.92630986847246L329.4542591397896,315.8132054183028L330.18590884425396,314.43071490305675L330.59065123395766,314.4049872321344L330.93831456870316,314.8944979567076L331.38456899837644,314.41311568225944L332.8063563673356,316.1428828616636L334.9234704057857,316.7499274413012L335.20886568057676,313.93772821304935L337.28965668405345,314.22945474592086L337.5335399188749,316.45950889638635L338.57652992311137,313.885628088409L340.2110664969148,316.04367674821754L340.3356026168236,316.70034280694375L341.39934864104487,313.04750005389104L341.9857062056156,315.3205796391848L342.0791082955472,313.1877687828502L342.93010511492423,311.8804842255917L345.374126468135,314.3234758008345L345.91897199273615,313.7389148810155L346.8062918470866,316.0318554511725L347.24216826676746,313.50066763806257L348.32148130597733,315.36269065477575L348.5809315557874,315.6097337399162L350.81739270915017,314.86209385302044L351.7099015684968,315.60184980482524L353.0123418225433,313.7272476619372L354.7195244662935,317.33654999130545L355.08275481602755,315.7400569035991L356.02196472034,314.06872881735774L358.1131337338091,313.97333362144735L358.36220597362677,314.39231264461057L359.33254990791636,315.0905378853404L359.85663941253273,314.9153503997915L361.901107381036,315.3858810635287L364.38145176922023,314.68001389060134L366.92925322235504,315.14921898139653L370.95073209441097,312.08198052395926L372.1597702585259,313.3032694786579L372.730560808108,312.9368988699492L374.2924513119646,311.54873259134183L377.01667893497023,313.0210187407401L377.2501841597993,313.21190124438874L382.26276298612976,314.1291365914975L384.9662345891506,314.7356084030414L385.262007873934,310.7675405524308L387.21307375250575,315.1215385397219L389.02403649618,312.77748762838473L389.4910469458381,315.00358850667135L390.50809192509354,313.0712079636409L390.99585839473644,313.0406234872456L391.45767983939834,315.246761220278L391.628917004273,313.91197625809957L391.8935562590792,312.88083123766563L393.5955498978333,312.8962658305064L393.8031100976813,312.54493540853895L394.0833163674762,314.388169287114L398.71709782908385,316.6177419439335L399.01806011886356,314.2310926616976L399.32421141363943,311.75250237709884L401.1144181373289,310.81047806233244L401.22338724224915,313.1534336802974L403.0187829709347,306.9207714185063L407.01431681800966,313.78399524698693L408.06249582724234,312.6874734379862L409.72816643102294,313.60945589375467L414.2270337627295,313.2509047418573L414.83933635228124,314.1152637128303L416.0276184964113,311.5870544612837L416.69700014092126,312.691347159041L416.73332317589467,315.3359589649289L416.7644572058719,313.5799415893239L418.45088382963723,311.83630571815377L419.29669164401804,312.0115869902911L420.01796333849,311.73840424314335L423.3337375310626,314.2811395299552L423.51535270592973,309.61489333190906L424.4078615652763,309.93202598168546L427.8118488427843,314.63258969729907L430.1987911410369,316.5106652934805L430.39078432589633,311.75108385494866L430.4478633808546,311.5439695724574L431.32999423020874,315.2963910731692L431.51160940507583,314.39460371698533L434.60425638281174,313.6495848302845L435.55903330211277,313.7762896738901L437.318105995825,311.9927986895332L439.41965301928656,315.19573964140477L440.47821003851163,311.1518578947422L440.49377705350014,310.7423437805894L440.60274615842036,314.65413884075423L440.7636053133026,309.37216694197775L441.44855397280116,308.8816664339443L441.57309009271,308.77013743268105L441.6146021326797,313.8995939162844L441.97783248241376,311.89150414973375L442.57975706197305,313.1852256590189L443.3581078114032,313.68089950226124L446.1809265293367,312.9100834420769L447.0267343437175,313.2592710079746L447.7635730531781,310.73314097159846L449.98446719155226,311.46986811902474L450.83027500593306,313.92995983643345L451.6605158053253,314.873653050046L451.8006189402227,312.70703882761984L451.93553307012394,311.55144570336466L453.15494924423126,311.1320220312866L453.29505237912866,313.64036192416745L456.4136443818456,311.510196352055L456.9221668714734,315.35118923698775L458.6189715052312,309.8801770711213L461.06818186343816,314.8605413500296L461.5870823630583,309.43202120776965L462.3394880875075,312.97040580343076L467.2171527839366,312.7244295407339L468.4365689580439,314.4319215680027L468.80498831277424,307.56070578237836L469.1630296575121,312.94442775581246L470.25790971171057,313.3642885403831L471.53959394577225,309.6699360107618L472.9406252947466,313.62492398180564L477.33571252652905,310.4256097238139L479.0584621852679,313.39212724692567L487.70334450893915,310.32104270198204L487.76042356389735,315.242457923153L491.1955448713826,311.704855440649L492.7314903502582,308.4236713526087L492.92867254011384,312.7066628438858L493.33860393481376,313.23866224254454L495.3208038433626,308.3666725534828L495.48685200324104,309.67631517353635L497.1888456419951,315.03892344124733L497.7336911665962,313.02063019630225L498.3044817161784,312.3047998731134L504.74403691646404,301.6103051444484L505.6002227408373,294.7242292088374L506.32149443530926,284.8894091460048L507.78998284923426,286.3419255849875L508.5735226036606,289.7647575672651L509.5750005679275,289.31302776498967L510.2807052474108,303.8975791624269L510.59204554718286,307.7966225960845L510.8878188319664,216.7018365236516L511.1005680368106,287.1566563778298L512.2162041109939,287.6854017168217L513.352596205162,294.8900673438509L518.6557593112797,262.640865605599L519.361463990763,288.30204183678933L519.4081650357289,305.0030098599494L521.219127779403,283.9463012611897L522.7031832083167,260.4742480336518L523.4296439077848,299.9878691790944L523.9174103774277,266.37399386525976L525.0901255065692,302.99252016159085L525.6453490411627,290.01166080990316L526.838820190289,273.78600824125135L526.8491982002814,289.4647845136527L528.2761745742367,291.5712681348032L528.9351782087543,291.1025696590616L530.476312692626,285.8201238030614L533.3043204155557,222.53619300598902L533.3665884755102,283.22535705678996L535.478513508964,186.71564487313967L537.4243903825395,286.0163420936882L537.5074144624788,264.64980112620617L537.5956275474142,230.80366835037512L539.4117792960847,297.3466060568421L539.6608515359023,307.2718665366225L540.247209100473,282.3884055415288L541.1241509448311,288.4017470288668L541.2175530347627,296.12395719661106L541.5029483095537,284.59120128996767L542.9195466735167,297.90639978088996L544.8550455370997,299.27454011072405L545.8046334514046,299.2774525192473L546.8995135056031,293.17894108627996L547.4287920152157,297.4101263733858L550.0284835183124,298.05243889717906L550.453981928001,257.7301395433697L550.713432177811,280.6925999930842L550.8691023276971,266.5993496392031L551.6733981021083,274.88994002811927L552.078140491812,302.0834635074225L552.7942231812877,296.85748220194614L552.981027361151,306.1140660780179L554.0343953753799,248.98265774029272L555.1604094595555,235.86362227290053L555.1863544845365,277.8010556362494L557.184121408074,285.5359906343327L557.3501695679524,305.6787539530013L560.4428165456884,296.93191190843834L560.7489678404643,306.5930693551645L560.8579369453845,298.6491476923421L561.4754285399324,260.3708081256417L563.0943980987472,230.94795231765193L563.8935048681622,284.98985793174774L565.1492440772429,249.4378643453826L568.0239528451384,283.772357285318L568.4702072748116,273.4090799423008L569.0254308094052,267.70666109277596L569.4249841941127,279.42784095464236L571.9831636572399,253.24259196627725L573.0261536614763,229.6972143741823L573.4516520711649,223.52726938127142L574.1210337156748,198.34096144353376L575.464986009691,251.46591893194798L575.8956734243757,271.29266834085956L576.3730618840261,218.8039088256242L576.3730618840261,224.824840327584L580.1299015012759,176.130997686188L580.8978742407137,247.39914488390292L582.9319641992246,197.64021485085928L584.0268442534231,263.14587288915186L585.3137174924809,278.2817855914797L588.1261582004221,269.9202322503227L588.3233403902776,255.3299397738644L588.795539844932,220.19263363686093L589.7088047242635,251.29590394422777L589.8956089041267,249.52625150594767L590.0927910939823,276.7172846163756L590.497533483686,251.26156465477374L590.9801109483327,285.70056599992324L591.836296772706,281.9435422573357L594.6279814606622,229.0266201696921L594.7161945455977,241.00058168357927L595.1676379802672,180.91482379521247L595.681349474891,273.3694149144317L596.3195970894238,176.20620113203486L598.6909723726878,215.08340156115102L599.910388546795,202.83264232955977L601.1349937258985,267.83151783816106L601.4307670106821,217.1364703706624L602.1053376601882,252.18478643331795L605.24468568289,220.87111931286438L606.277297677134,192.91358516270068L608.4981918155081,207.2420321832695L609.5878828647104,212.26561700660528L610.2365084892356,283.1076917330257L610.4907697340494,193.82658420310466L610.7502199838594,197.2618931511662L611.6531068531984,153.92461121728712L613.4744476068652,198.0464715558242L613.7338978566752,249.61481954064757L613.9466470615195,247.91444189601634L614.2994994012611,208.58090272370694L615.0986061706761,244.0204294429244L615.35286741549,192.59536726811515L618.1289850884576,183.23338903852064L618.295033248336,253.88417931877055L619.0370609627928,252.76821270289287L620.2305321119192,242.58954086114076L622.8873026699741,208.18323419062654L624.0133167541499,227.14584402219165L625.383214073147,173.36133235055533L625.7308774078924,211.43070200012173L627.9206375162894,181.40045075016792L631.2208446938735,245.1982952071742L631.4076488737367,204.3233131624335L636.8094030747822,137.56316571713361L638.4128056186083,223.74798271908685L642.7663808104212,171.66478655796618L644.3282713142778,175.7172380541477L645.0754880337308,213.19351471648756L646.5128424176785,204.30675313053138L647.6699905318314,197.97382714403344L650.6640464146395,171.86806228937334L651.6914694038874,192.4673485748911L652.3037719934391,139.46447442846093L652.532088213272,185.94027095223308L652.7552154281086,177.12876640445998L654.7062813066802,153.1276395848706L655.2615048412738,201.43678973760143L658.4060418689718,271.51723027832213L658.9716434135577,156.64620422730098L659.8745302828967,177.5730468719963L661.2807506368672,242.57539248437L663.8700641299716,210.67191490728538L664.7625729893183,139.91091198753148L665.2347724439726,194.02287953271488L666.5787247379888,61.72595029984353L666.739583892871,224.94527570522828L666.9782781226962,274.1924592184352L667.2273503625139,171.27373667841303L667.5490686722784,167.4044101952076L667.9641890719745,174.53331635590135L668.5505466365453,276.317663312543L668.9345330062641,106.87048639492616L669.5987256457779,166.3159498459117L669.961955995512,212.13160936980495L670.8337088348737,138.06338318563388L672.1465270989128,258.475776416698L673.9004107876287,149.19393530774144L674.4712013372109,193.53040615680317L675.4726793014777,104.3836948081202L675.7580745762688,187.12605498416423L676.5156693057141,211.83762860928982L676.666150450604,207.58503653337195L677.5119582649849,236.66019866183717L677.5742263249392,163.8458522718485L680.973024597451,124.84628044194096L681.517870122052,207.75792541012373L683.1627847058479,88.20402111445242L684.0916166001679,150.43104739971872L686.1257065586788,162.28040673181798L686.3540227785116,178.81676421941683L688.1753635321783,159.5335315371768L691.4755707097622,258.72826331086935L692.9181140987062,184.9931737878882L695.4711045568372,179.72329198521822L699.0100059642465,36.93059845507065L699.0618960142085,170.79937751215473L699.2694562140566,109.19331222896642L699.7157106437298,141.56063147631966L700.5770854730993,99.09580598046932L703.6645434458391,96.81167381320364L703.7579455357707,209.28139475278422L703.8305916057175,246.03570895633553L705.7193894243347,168.76029630240535L707.3746820181229,161.83713112058635L708.3761599823898,189.72746718013096L709.5851981465047,188.59940209434419L710.6800782007032,137.28925528654517L712.2315906945673,252.24949248030129L713.8713162733669,126.180609031881L715.6148219520906,177.28480049146023L716.1389114567069,135.8607783598929L719.5895997791807,154.02529781902223L720.6377787884134,149.51299728162292L720.7571259033259,143.201267064113L720.8453389882613,112.22729496699827L721.1930023230069,210.99823864272915L723.0766111366279,181.19768414595518L723.1907692465444,80.47619379996462L728.3538292177647,157.9180843474223L728.7585716074683,263.2377100563632L729.1166129522061,161.62796023219138L729.6199464368377,226.88539866608676L730.7978505709754,188.94081207244312L732.6555143596155,137.56559077034905L734.3471299883771,144.34420402320995L734.399020038339,182.85741200353863L736.2514948219829,245.36302465073146L737.9742444807217,121.92490860046047L739.1106365748898,184.4131171364552L741.0876474784425,-212.44673438605685L741.1187815084197,77.2577864348026L742.2655516125801,124.90126617893642L744.5746588358897,165.42048889754645L745.7214289400501,213.9346029402764L747.3403984988649,131.20384550503115L748.938612037695,147.89880951177037L749.5872376622201,195.16242677654384L750.1995402517719,107.07680349141566L751.413767420883,24.561031713048806L752.3062762802297,137.39045101547467L754.5375484285962,91.1208376073514L755.8296106726502,119.10410277795847L755.9800918175401,235.3742237572813L757.7754875462258,87.83037534609736L759.3996461100367,148.92630857857864L761.2054198487147,131.99094274949306L761.319577958631,223.66825072082665L763.275832842199,166.8433252308081L764.1216406565798,10.697069470783674L766.1090295701249,105.14011044007736L766.2179986750452,140.391474466711L766.9392703695171,219.418887583168L767.1727755943461,134.57984113494481L768.9889273430165,169.9465626653627L769.0096833630014,113.9829129122221L770.1512644621657,164.6315159213157L770.5093058069035,128.44066484208506L771.8221240709424,185.5537764212614L772.7976570102282,103.4804763690824L774.878448013705,93.68139904500941L775.0185511486025,121.17888988173638L776.2950463776679,176.70845510931275L777.0837751370905,143.69088664811926L779.5018514653203,113.734499035606L780.7368346544163,58.65280496209493L782.5477973980904,208.13004379689556L784.3743271567533,56.49198876054709L785.0592758162519,179.70580748551575L785.3187260660619,95.85218342110022L785.3809941260164,105.79878704879332L786.4395511452414,90.32335684774046L788.3439159788473,10.63061497383012L788.567043193684,54.497523170728186L788.852438468475,97.71089962319058L790.8813394219898,214.7221155253443L790.9643635019289,249.4525084512637L794.3631617744408,148.64398415119848L794.9287633190266,126.21417123245936L795.042921428943,156.0694435045475L796.5062208378719,64.81396751090239L797.5492108421082,138.12319223289208L800.8338510047037,174.85367794393696L801.1815143394491,104.21412865621613L802.0221331488339,168.65190580233389L803.526944597732,142.29849076184928L803.7915838525383,102.03178173357867L805.0006220166532,192.66921750747161L808.394231284169,23.4380043068698L809.582513428299,161.8390202504393L811.0198678122468,161.8912861763699L812.9968787157994,-23.970312265786447L814.0502467300283,78.7466619244118L815.2125838491773,210.36464324737952L815.4668450939912,123.39763939877352L816.2815188783949,179.99130725881886L817.4542340075362,101.68924631641846L818.8345093365258,183.7166043383447L819.0213135163891,154.88992977595797L819.5142689910282,195.13536264673613L819.5505920260016,248.72252723916327L819.9242003857281,98.83824121243799L819.9242003857281,48.19996812615716L821.9738573592276,206.91493135895007L822.9338232835248,85.56229408353937L823.8989782128183,62.18963119310342L824.5060917973738,-25.220889432247304L826.576504790858,204.91863023161451L827.9619691248438,194.9697891238829L828.2940654446007,-43.17177644098854L828.3926565395286,111.37954459598217L828.8544779841905,118.97655301767668L829.279976393879,49.016608145978466L829.3941345037954,168.7904821857998L830.1257842082598,220.4946063545198L834.1732081052967,177.14906450181576L834.7128646249016,131.83439953529842L835.69877557418,223.3556868177158L836.4356142836405,106.22974982077085L838.8069895669046,70.50354429685268L839.0768178267069,133.98763242126648L840.9241036053545,171.6011858529181L841.5208391799176,110.57761567246223L844.5148950627258,170.9594176262899L844.5823521276764,226.1517195827849L844.8521803874789,168.83797839380387L845.1427646672662,121.15502789401978L845.5475070569698,-6.212223686714879L846.4088818863393,151.66618997333876L846.6164420861874,135.18584987520822L847.410359850606,-41.711733628283355L847.5764080104846,48.81397552260637L848.6142090097248,72.44524823163056L849.5897419490107,169.56742368254177L849.9944843387143,155.00668068048486L850.347336678456,201.7136477466838L850.7884021031332,-88.13392441771856L851.12049842289,97.00007767130057L851.4837287726241,115.05457206410273L856.3406374490685,-5.516541569816297L857.9388509878984,68.5309175840568L858.8988169121957,-53.64275428274789L859.2879922869108,116.5344976335578L860.196068161246,26.350265451187283L860.3932503511016,135.02509966261772L860.6578896059079,44.31393423212495L861.3895393103724,180.7448155065343L862.4117732946239,238.98270964090193L863.7764816086249,250.2172040991719L864.5392653430665,-122.62102153513399L866.4176851516913,175.5689078654838L866.5266542566116,157.81745133802352L869.0018096397995,-36.04233435693226L869.2923939195869,52.108644782256306L869.3079609345754,120.95392265223086L870.1537687489562,114.04438332190415L873.5888900564415,169.53366051070245L877.0914684288773,99.8837473042272L877.4702657936001,78.19827834370426L877.9735992782315,170.93962865612852L881.029923220994,-55.25990302917842L881.906865065352,130.84361121882338L882.0677242202343,38.15539770779384L883.2871403943417,-166.07853787539636L883.9824670638326,85.72770682938392L884.0395461187908,77.00895721758047L884.3197523885857,175.91059920334803L885.8453198574688,148.12432606272245L887.163327126504,-2.1732908573531518L887.4435333962989,197.36345062836537L888.4138773305884,116.5172007070322L889.488001364802,81.57467591613982L889.7474516146123,103.195994850168L889.8927437545059,89.72298870086763L891.1173489336094,129.87933771070945L892.1292049078685,89.30081507203562L893.2448409820519,208.77272309324005L893.9142226265618,-20.253040638614436L894.5213362111173,103.35243087969019L895.3463880055132,-9.42117200452833L895.6421612902967,94.03947623968304L895.7822644251943,50.87427929751192L896.7629863694762,131.47452699736036L896.8875224893851,207.9665871713243L897.4686910489596,130.20505853237037L899.8815783721932,-180.76476733278935L902.4449468403167,4.398737337336968L903.897868239253,-39.24115372319392L903.9030572442492,-0.8498013174202583L904.9979372984476,95.46779238932652L905.1328514283489,196.18301243197547L905.6413739179766,227.18838963813442L905.6413739179766,135.62755791060445L907.0112712369737,146.30692955188306L907.5613057665711,196.08840856040507L908.0127492012406,179.2649971217518L909.1231962704277,234.2802969896876L909.3100004502909,147.36643664151836L909.9741930898047,-57.21471029017016L910.1142962247021,199.8649935057249L910.4360145344665,200.42238059892296L911.0690731440031,128.06602761550934L916.1283530152994,203.35670838769258L917.046806899627,260.22744192712327L918.1157419288445,16.628320897066317L918.3544361586696,178.58984086963807L918.4063262086318,209.23187543408656L920.6946774119565,179.42652442321796L923.9896955845443,147.30857031644933L924.6383212090693,44.42047579659561L925.5723421083856,256.45978010578955L928.623477046152,71.80173825407417L931.3580826791499,180.0094080703883L932.572309848261,112.58313468163328L933.1690454228242,241.89799875221775L933.4803857225963,126.17973815641687L934.8866060765667,220.48369361505027L935.0059531914794,25.765358693323435L935.1616233413656,1.5842822066809958L936.7338918552146,37.14124313271259L936.9103180250854,169.94551761480582L937.1749572798915,51.203711388458316L937.8702839493826,5.309539091954605L938.4462635039608,-45.574642429222536L938.8458168886684,47.720423901366416L941.6219345616361,200.70540172667438L943.4951653652647,195.27917768107073L947.7916615021194,102.84006134894457L948.6219023015116,226.07322020825848L948.78795046139,157.41758551915675L949.7271603657024,151.71347181199786L951.6574702242893,236.93500006501583L952.0466455990044,182.7719590233834L957.0229013903614,234.9582467423285L961.0132462324401,228.00119110687163L962.2637964365248,229.16523004836813L964.8115978896595,241.5573926591626L964.9205669945796,216.42015520430647L966.6381276483224,270.8286558450191L967.5669595426424,253.53673350380112L967.9250008873802,164.59901216937834L968.7967537267419,275.60944058896126L969.5284034312064,263.7061405704235L969.9590908458912,238.000415709723L970.4416683105379,258.3186637839307L970.5973384604239,236.41573052097766L971.3549331898693,272.6217247847207L971.4327682648124,266.4300715461064L976.481670126116,261.36100022737594L976.7463093809223,259.8294719371514L977.5246601303526,212.71020563007505L979.1540076991597,182.2417030504134L979.2058977491216,243.29588785295368L979.2370317790989,234.97211375933392L980.217753723381,248.59162795786565L980.6328741230772,279.39532715414197L981.3956578575186,155.71194242748868L984.6180299601596,221.0395667247492L987.6639758929298,279.9131430060593L989.1117082868699,271.08341036491817L989.3763475416762,278.70122936068384L990.170265306095,269.6606376725558L992.1213311846667,247.9509114808364L992.4586165094197,289.5250624938531L993.2577232788348,281.7871564706288L993.9219159183485,264.73828207335964L996.900404786168,281.13246914144264L998.5349413599714,294.30412893351416L1000.8388595782849,259.1466787771217L1003.5890322262715,281.86941735725594L1003.7239463561727,272.8278442594703L1004.5801321805459,278.3785030108111L1006.7283802489733,216.743886410484L1008.2072466728905,255.9395659968249L1010.0078314065724,285.5570189272699L1012.5919558946805,286.2550959516948L1012.7320590295781,272.16930498111594L1013.2665265441867,273.42463846741924L1013.4948427640197,285.9550860533512L1015.4303416276027,294.95425086555576L1016.6082457617404,251.69990977107005L1016.7172148666607,298.3527385290905L1025.4036092303015,256.8462545396351L1026.244228039686,286.3770419633172L1026.4050871945683,287.0666848938243L1029.6118922822207,295.10752829676L1030.2241948717724,296.7050220538698L1030.5666692015218,297.6109502554094L1030.6860163164342,298.2079085898882L1031.2516178610203,297.0446668343934L1032.3101748802453,296.07188554289934L1032.5021680651048,292.0968012831409L1032.9120994598047,209.1744110515394L1033.4154329444361,282.1161799200113L1034.0173575239955,301.8174261259817L1034.6348491185436,297.15340233512944L1034.6815501635092,293.10172457830265L1034.9513784233118,295.75534575834274L1036.4873239021872,286.413461305322L1037.0373584317847,293.3750655903184L1039.39316670006,296.60145821358213L1039.4813797849954,296.44129081764834L1040.763064019057,281.3621692441435L1041.297531533666,288.1750983398113L1043.2745424372185,268.6326294785531L1045.0024811009537,296.6749299570638L1045.0803161758965,302.11792337963305L1045.9105569752887,290.4833001650966L1046.3671894149545,296.95486617595964L1048.3078772835338,302.3061312907506L1048.9149908680893,297.8260698931284L1049.060283007983,297.92603802260567L1049.807499727436,292.4794405154234L1052.5628613804188,294.5054552436901L1052.6458854603582,299.10979559432224L1055.7489104480865,302.01969197680256L1058.213687821282,303.7673296882063L1058.8000453858529,298.30056304022736L1059.0802516556475,303.9126603808005L1059.9675715099982,304.5161519560206L1060.2270217598082,300.0685105723104L1060.6421421595041,286.6483799617655L1061.1869876841054,305.1652171141817L1061.3945478839535,297.73793729616057L1063.2314556526087,300.36469196813295L1065.5768859108916,297.99823862286183L1066.0438963605498,305.6948082072301L1066.3811816853029,305.19584513435024L1069.0483302533503,296.3654978561027L1071.2899804117092,300.82846329846024L1073.1009431553834,303.0635082352393L1074.3670603744565,301.9605930279997L1074.7718027641604,287.37506524518636L1075.0779540589363,303.70516760243447L1075.5605315235828,304.1810189803053L1075.6850676434917,305.4302563383598L1077.6361335220633,301.90542139258787L1077.729535611995,296.585119250067L1079.2135910409086,302.08740086937655L1080.3759281600576,305.0539577493603L1080.5731103499133,299.30352184131334L1080.8169935847347,305.53222748140445L1083.2558259329494,307.68134548080457L1083.738403397596,307.7995634755364L1086.675380225446,303.40025233056326L1086.8258613703358,305.1840196504039L1086.9296414702599,307.4579173562058L1088.9014633688162,308.2479521305986L1088.9377864037897,308.54026817916895L1091.0964124822094,308.7318909269621L1092.300261641328,306.4386329896888L1093.0838013957543,306.51480109758825L1094.0489563250478,308.3400019923945L1096.6019467831788,308.19779640290795L1099.2690953512263,299.718746888798L1099.699782765911,279.10241154130983L1099.902153960763,297.27604839664417L1100.498889535326,286.6193061193483L1101.656037649479,281.3996436852683L1102.5226014838445,306.5129035939328L1103.3735983032216,304.23310068258L1104.5099903973896,307.34682714219565L1104.5566914423555,308.86090945220934L1108.6300603643733,308.90151234596294L1109.9584456434009,305.48442646698794L1110.5084801729981,304.29420264495036L1112.2675528667105,310.5096391575374L1112.30906490668,305.34493901380574L1113.0147695861633,290.7745644640679L1113.0874156561101,308.8841233076094L1113.0926046611064,310.21292016359183L1113.6426391907037,310.56540365816903L1114.3483438701871,309.4881725780786L1120.7827100654767,308.30397956863L1121.5506828049145,308.27126982115016L1123.7248758983228,310.77795756278994L1125.0065601323845,303.49860766567133L1127.4609594955878,307.8676759853928L1128.14071915009,302.235637271452L1128.7478327346455,309.92791276987805L1131.7626446374386,309.2376485032225L1133.2622670813407,309.0542387809601L1133.397181211242,310.2545228893686L1136.0954638092667,307.06707347219515L1139.5150181017632,308.122263029241L1139.9924065614139,307.05103261605046L1140.205155766258,307.2771018379702L1141.9797954749588,309.87790107159105L1141.9901734849514,302.2755283919897L1142.420860899636,310.7085186426113L1142.4935069695828,308.5864999429896L1144.0813424984203,310.4727994506451L1145.4512398174174,307.77488755421297L1145.6380439972809,308.9065634236548L1146.13099947192,308.8197890574588L1146.80038111643,310.92370862027167L1147.760347040727,308.0262892035752L1149.0575982897774,311.24038908471096L1150.339282523839,302.6705591772702L1150.7388359085467,309.54786774162227L1152.399317507331,311.42419572521374L1152.529042632236,309.49552980098986L1153.9352629862067,308.28982784233824L1154.3400053759103,311.333013389361L1154.615022640709,308.38584688653776L1156.3325832944515,309.0319276214738L1159.2176700723394,306.6076163249362L1160.5512443563632,308.4264966735856L1160.5616223663556,309.3460289547309L1161.2621380408427,309.95822258555006L1163.353307054312,310.2958325320566L1163.462276159232,309.63167778171925L1164.6609363133546,311.2957834632703L1165.6468472626327,311.3570160569602L1168.9418654352205,311.2359911636172L1171.1420035536098,310.16930437568453L1171.8269522131084,308.90279688727253L1173.9544442615509,311.42710310945546L1174.8210080959166,309.87491162408446L1174.8728981458785,309.76708551830416L1175.1790494406544,310.380903666816L1176.9017990993932,311.02439019772527L1181.8313538457844,310.871106067479L1182.1167491205756,308.95091778094604L1187.5081253116286,311.5754249243168L1189.2775760153331,311.5678047640058L1189.9780916898203,311.68600266161155L1192.5674051829249,308.37244880247454L1193.3872679723247,309.15410809956734L1196.3034887801898,310.23420636964727L1196.3242448001745,310.0576011993285L1197.704520129164,306.61945185744554L1197.7252761491488,309.9825116371961L1198.2130426187919,310.02407249396026L1198.6696750584574,309.5267624097017L1200.1589194923672,311.3330736807393L1200.7089540219645,311.48226804582526L1201.3160676065202,311.8612981692132L1203.5369617448941,311.0621225519683L1207.70892176184,310.312555015728L1208.8556918660006,310.5764520532397L1211.2322561542608,311.04803279181533L1212.9238717830224,311.58023986077706L1214.9112606965673,310.7205065783269L1215.4353502011838,309.11549984557865L1216.9868626950479,311.39091990868224L1218.719990363779,312.1973338408423L1222.9594074456757,310.31296700681287L1225.1543565590687,310.4956951015486L1226.4360407931304,310.4996575849103L1226.731814077914,309.55894628238207L1227.6450789572455,311.75421733185897L1227.997931296987,309.0247981659917L1229.6013338408131,310.8066076907986L1229.7673820006917,308.43045580742626L1231.4849426544342,310.763554622422L1232.1024342489823,307.3568170886253L1232.6576577835758,310.5456766541464L1232.7095478335377,310.39411250294177L1236.7829167555558,311.2715027854268L1236.9541539204304,309.3899194033615L1239.1179690038464,310.7826468922121L1245.3862870392575,311.6175166801619L1246.1957718186648,309.9801083558673L1246.6939162983,310.1604432178372L1247.7057722725594,310.4657152136966L1247.9652225223695,310.9569827620427L1250.7413401953372,310.4498317850397L1251.3899658198623,311.26488580666L1252.080103484357,311.0764099338612L1254.4826127975982,310.4763583167244L1257.1393833556533,311.0819600901844L1257.9384901250683,309.8924379927996L1258.7687309244604,311.12154975383066L1261.9859140221051,311.08705806117047L1262.1156391470101,308.91213367710407L1262.2090412369419,310.9342780338371L1263.9473579106693,309.03528719105265L1265.592272494465,310.4657252622597L1266.5003483688004,311.4999133225365L1268.2386650425276,310.90339879959237L1269.561861316559,311.3232461860789L1269.8109335563768,310.2203477264444L1271.3520680402485,310.4774402120125L1271.6218963000508,311.2558337261148L1271.9955046597775,310.53334706728725L1273.5781511836187,311.14083964536076L1274.3980139730186,310.1980918340549L1274.7871893477336,308.1299233838042L1275.1763647224489,309.80826285491196L1277.4802829407622,310.64632473638983L1278.0562624953404,310.74775995607195L1278.844991254763,310.7460500255934L1280.7286000683841,309.2742872388539L1280.9154042482473,310.65512392809836L1282.690043956948,310.8668973943226L1283.229700476553,310.85946983147005L1286.3690484992549,311.4834588005464L1286.3846155142435,310.24089871263686L1286.478017604175,309.61425524815553L1286.6959558140154,311.3827336793196L1287.4276055184798,311.23441688873976L1288.6470216925873,310.4772760854827L1290.5877095611665,310.5166111855318L1291.0858540408017,311.5619531507912L1291.687778620361,311.19393122822174L1292.0302529501105,310.4485656660957L1295.8234156023336,308.9232641354396L1296.3371270969574,311.2442845776523L1296.560254311794,311.2891748583061L1297.1414228713686,310.78201383274006L1297.4683301861294,310.26783556064595L1299.4505300946782,310.7131577292182L1299.9434855693173,311.45460435175573L1300.0524546742377,309.7737862350963L1303.1710466769546,310.6570599512455L1307.0628004241055,311.1180595529322L1307.4986768437864,310.9973160193545L1310.9389871562678,310.91454098125143L1311.1724923810968,310.19703003589285L1311.4008086009298,310.7196256542997L1313.10799124468,310.4020123482576L1318.8729757954595,309.4697284406051L1322.6038703877282,310.32690771328066L1322.7958635725877,310.52596974725L1323.423733177128,309.9046218754946L1325.763974430415,309.5851730319358L1328.0004355837775,311.57632929499107L1328.036758618751,310.89097877566576L1328.4155559834737,310.7002017819291L1330.4237009170035,310.65435688778575L1330.7350412167757,310.08153017746537L1331.5652820161679,310.4243821243616L1332.343632765598,310.840268702247L1332.3591997805866,310.9440552856822L1332.3643887855828,312.11544391366766L1333.1116055050359,311.26283087551684L1335.026348348634,311.4434738934202L1335.9707472579428,310.6003508856874L1337.2212974620272,311.1379523582451L1338.5185487110775,311.14781167335514L1338.6223288110016,309.1621385762027L1344.615629581614,311.24568802695796L1345.1500970962227,311.85492068119913L1345.2538771961467,310.6556112834062L1346.732743620064,311.1205532713285L1348.6889985036319,309.9214582428806L1351.2316109517706,311.373393539967L1353.5562851900686,311.2672287966106L1353.6808213099775,311.552475681077L1354.049240664708,311.8252522988016L1359.0462524760496,311.5710705469963L1359.8349812354722,311.76559397998915L1361.6303769641581,311.09584720431593L1361.9313392539377,310.96089332782867L1364.0225082674067,311.1695349919031L1364.3442265771712,310.664058775408" style="fill: none;" fill="none"></path></g></g></g></g></g></g><g transform="translate(46, 378)" clip-path="url(#clip_1)"><clipPath id="clip_1"><rect width="1452" height="22"></rect></clipPath><g><g><line x1="58.01740778850204" y1="0" x2="58.01740778850204" y2="5" style="visibility: inherit;" fill="rgb(0, 0, 0)" stroke="rgb(204, 204, 204)" stroke-width="1px"></line><line x1="161.79750771252708" y1="0" x2="161.79750771252708" y2="5" style="visibility: inherit;" fill="rgb(0, 0, 0)" stroke="rgb(204, 204, 204)" stroke-width="1px"></line><line x1="265.57760763655216" y1="0" x2="265.57760763655216" y2="5" style="visibility: inherit;" fill="rgb(0, 0, 0)" stroke="rgb(204, 204, 204)" stroke-width="1px"></line><line x1="369.35770756057724" y1="0" x2="369.35770756057724" y2="5" style="visibility: inherit;" fill="rgb(0, 0, 0)" stroke="rgb(204, 204, 204)" stroke-width="1px"></line><line x1="473.13780748460226" y1="0" x2="473.13780748460226" y2="5" style="visibility: inherit;" fill="rgb(0, 0, 0)" stroke="rgb(204, 204, 204)" stroke-width="1px"></line><line x1="576.9179074086272" y1="0" x2="576.9179074086272" y2="5" style="visibility: inherit;" fill="rgb(0, 0, 0)" stroke="rgb(204, 204, 204)" stroke-width="1px"></line><line x1="680.6980073326523" y1="0" x2="680.6980073326523" y2="5" style="visibility: inherit;" fill="rgb(0, 0, 0)" stroke="rgb(204, 204, 204)" stroke-width="1px"></line><line x1="784.4781072566774" y1="0" x2="784.4781072566774" y2="5" style="visibility: inherit;" fill="rgb(0, 0, 0)" stroke="rgb(204, 204, 204)" stroke-width="1px"></line><line x1="888.2582071807025" y1="0" x2="888.2582071807025" y2="5" style="visibility: inherit;" fill="rgb(0, 0, 0)" stroke="rgb(204, 204, 204)" stroke-width="1px"></line><line x1="992.0383071047274" y1="0" x2="992.0383071047274" y2="5" style="visibility: inherit;" fill="rgb(0, 0, 0)" stroke="rgb(204, 204, 204)" stroke-width="1px"></line><line x1="1095.8184070287525" y1="0" x2="1095.8184070287525" y2="5" style="visibility: inherit;" fill="rgb(0, 0, 0)" stroke="rgb(204, 204, 204)" stroke-width="1px"></line><line x1="1199.5985069527776" y1="0" x2="1199.5985069527776" y2="5" style="visibility: inherit;" fill="rgb(0, 0, 0)" stroke="rgb(204, 204, 204)" stroke-width="1px"></line><line x1="1303.3786068768027" y1="0" x2="1303.3786068768027" y2="5" style="visibility: inherit;" fill="rgb(0, 0, 0)" stroke="rgb(204, 204, 204)" stroke-width="1px"></line><line x1="1407.1587068008278" y1="0" x2="1407.1587068008278" y2="5" style="visibility: inherit;" fill="rgb(0, 0, 0)" stroke="rgb(204, 204, 204)" stroke-width="1px"></line></g><g transform="translate(0, 8)"><text x="58.01740778850204" y="0" dx="0em" dy="0.95em" style="text-anchor: middle; visibility: inherit; font-family: &quot;Helvetica Neue&quot;, sans-serif; font-size: 12px; font-weight: 200;" fill="rgb(50, 49, 63)" stroke="none" stroke-width="1px">-20k</text><text x="161.79750771252708" y="0" dx="0em" dy="0.95em" style="text-anchor: middle; visibility: inherit; font-family: &quot;Helvetica Neue&quot;, sans-serif; font-size: 12px; font-weight: 200;" fill="rgb(50, 49, 63)" stroke="none" stroke-width="1px">0</text><text x="265.57760763655216" y="0" dx="0em" dy="0.95em" style="text-anchor: middle; visibility: inherit; font-family: &quot;Helvetica Neue&quot;, sans-serif; font-size: 12px; font-weight: 200;" fill="rgb(50, 49, 63)" stroke="none" stroke-width="1px">20k</text><text x="369.35770756057724" y="0" dx="0em" dy="0.95em" style="text-anchor: middle; visibility: inherit; font-family: &quot;Helvetica Neue&quot;, sans-serif; font-size: 12px; font-weight: 200;" fill="rgb(50, 49, 63)" stroke="none" stroke-width="1px">40k</text><text x="473.13780748460226" y="0" dx="0em" dy="0.95em" style="text-anchor: middle; visibility: inherit; font-family: &quot;Helvetica Neue&quot;, sans-serif; font-size: 12px; font-weight: 200;" fill="rgb(50, 49, 63)" stroke="none" stroke-width="1px">60k</text><text x="576.9179074086272" y="0" dx="0em" dy="0.95em" style="text-anchor: middle; visibility: inherit; font-family: &quot;Helvetica Neue&quot;, sans-serif; font-size: 12px; font-weight: 200;" fill="rgb(50, 49, 63)" stroke="none" stroke-width="1px">80k</text><text x="680.6980073326523" y="0" dx="0em" dy="0.95em" style="text-anchor: middle; visibility: inherit; font-family: &quot;Helvetica Neue&quot;, sans-serif; font-size: 12px; font-weight: 200;" fill="rgb(50, 49, 63)" stroke="none" stroke-width="1px">100k</text><text x="784.4781072566774" y="0" dx="0em" dy="0.95em" style="text-anchor: middle; visibility: inherit; font-family: &quot;Helvetica Neue&quot;, sans-serif; font-size: 12px; font-weight: 200;" fill="rgb(50, 49, 63)" stroke="none" stroke-width="1px">120k</text><text x="888.2582071807025" y="0" dx="0em" dy="0.95em" style="text-anchor: middle; visibility: inherit; font-family: &quot;Helvetica Neue&quot;, sans-serif; font-size: 12px; font-weight: 200;" fill="rgb(50, 49, 63)" stroke="none" stroke-width="1px">140k</text><text x="992.0383071047274" y="0" dx="0em" dy="0.95em" style="text-anchor: middle; visibility: inherit; font-family: &quot;Helvetica Neue&quot;, sans-serif; font-size: 12px; font-weight: 200;" fill="rgb(50, 49, 63)" stroke="none" stroke-width="1px">160k</text><text x="1095.8184070287525" y="0" dx="0em" dy="0.95em" style="text-anchor: middle; visibility: inherit; font-family: &quot;Helvetica Neue&quot;, sans-serif; font-size: 12px; font-weight: 200;" fill="rgb(50, 49, 63)" stroke="none" stroke-width="1px">180k</text><text x="1199.5985069527776" y="0" dx="0em" dy="0.95em" style="text-anchor: middle; visibility: inherit; font-family: &quot;Helvetica Neue&quot;, sans-serif; font-size: 12px; font-weight: 200;" fill="rgb(50, 49, 63)" stroke="none" stroke-width="1px">200k</text><text x="1303.3786068768027" y="0" dx="0em" dy="0.95em" style="text-anchor: middle; visibility: inherit; font-family: &quot;Helvetica Neue&quot;, sans-serif; font-size: 12px; font-weight: 200;" fill="rgb(50, 49, 63)" stroke="none" stroke-width="1px">220k</text><text x="1407.1587068008278" y="0" dx="0em" dy="0.95em" style="text-anchor: middle; visibility: inherit; font-family: &quot;Helvetica Neue&quot;, sans-serif; font-size: 12px; font-weight: 200;" fill="rgb(50, 49, 63)" stroke="none" stroke-width="1px">240k</text></g><line x1="0" y1="0" x2="1452" y2="0" fill="rgb(0, 0, 0)" stroke="rgb(204, 204, 204)" stroke-width="1px"></line></g></g></g></g></svg>