<svg viewBox="0 0 1498 400" xmlns="http://www.w3.org/2000/svg"><g><g><g><g><g><line x1="70" y1="378" x2="65" y2="378" style="visibility: inherit;" fill="rgb(0, 0, 0)" stroke="rgb(204, 204, 204)" stroke-width="1px"></line><line x1="70" y1="330.75" x2="65" y2="330.75" style="visibility: inherit;" fill="rgb(0, 0, 0)" stroke="rgb(204, 204, 204)" stroke-width="1px"></line><line x1="70" y1="283.5" x2="65" y2="283.5" style="visibility: inherit;" fill="rgb(0, 0, 0)" stroke="rgb(204, 204, 204)" stroke-width="1px"></line><line x1="70" y1="236.24999999999997" x2="65" y2="236.24999999999997" style="visibility: inherit;" fill="rgb(0, 0, 0)" stroke="rgb(204, 204, 204)" stroke-width="1px"></line><line x1="70" y1="188.99999999999997" x2="65" y2="188.99999999999997" style="visibility: inherit;" fill="rgb(0, 0, 0)" stroke="rgb(204, 204, 204)" stroke-width="1px"></line><line x1="70" y1="141.75" x2="65" y2="141.75" style="visibility: inherit;" fill="rgb(0, 0, 0)" stroke="rgb(204, 204, 204)" stroke-width="1px"></line><line x1="70" y1="94.5" x2="65" y2="94.5" style="visibility: inherit;" fill="rgb(0, 0, 0)" stroke="rgb(204, 204, 204)" stroke-width="1px"></line><line x1="70" y1="47.25" x2="65" y2="47.25" style="visibility: inherit;" fill="rgb(0, 0, 0)" stroke="rgb(204, 204, 204)" stroke-width="1px"></line><line x1="70" y1="0" x2="65" y2="0" style="visibility: inherit;" fill="rgb(0, 0, 0)" stroke="rgb(204, 204, 204)" stroke-width="1px"></line></g><g transform="translate(60, 0)"><text x="0" y="378" dx="0em" dy="0.3em" style="text-anchor: end; visibility: hidden; font-family: &quot;Helvetica Neue&quot;, sans-serif; font-size: 12px; font-weight: 200;" fill="rgb(50, 49, 63)" stroke="none" stroke-width="1px">-0.05</text><text x="0" y="330.75" dx="0em" dy="0.3em" style="text-anchor: end; visibility: inherit; font-family: &quot;Helvetica Neue&quot;, sans-serif; font-size: 12px; font-weight: 200;" fill="rgb(50, 49, 63)" stroke="none" stroke-width="1px">0</text><text x="0" y="283.5" dx="0em" dy="0.3em" style="text-anchor: end; visibility: inherit; font-family: &quot;Helvetica Neue&quot;, sans-serif; font-size: 12px; font-weight: 200;" fill="rgb(50, 49, 63)" stroke="none" stroke-width="1px">0.05</text><text x="0" y="236.24999999999997" dx="0em" dy="0.3em" style="text-anchor: end; visibility: inherit; font-family: &quot;Helvetica Neue&quot;, sans-serif; font-size: 12px; font-weight: 200;" fill="rgb(50, 49, 63)" stroke="none" stroke-width="1px">0.1</text><text x="0" y="188.99999999999997" dx="0em" dy="0.3em" style="text-anchor: end; visibility: inherit; font-family: &quot;Helvetica Neue&quot;, sans-serif; font-size: 12px; font-weight: 200;" fill="rgb(50, 49, 63)" stroke="none" stroke-width="1px">0.15</text><text x="0" y="141.75" dx="0em" dy="0.3em" style="text-anchor: end; visibility: inherit; font-family: &quot;Helvetica Neue&quot;, sans-serif; font-size: 12px; font-weight: 200;" fill="rgb(50, 49, 63)" stroke="none" stroke-width="1px">0.2</text><text x="0" y="94.5" dx="0em" dy="0.3em" style="text-anchor: end; visibility: inherit; font-family: &quot;Helvetica Neue&quot;, sans-serif; font-size: 12px; font-weight: 200;" fill="rgb(50, 49, 63)" stroke="none" stroke-width="1px">0.25</text><text x="0" y="47.25" dx="0em" dy="0.3em" style="text-anchor: end; visibility: inherit; font-family: &quot;Helvetica Neue&quot;, sans-serif; font-size: 12px; font-weight: 200;" fill="rgb(50, 49, 63)" stroke="none" stroke-width="1px">0.3</text><text x="0" y="0" dx="0em" dy="0.3em" style="text-anchor: end; visibility: hidden; font-family: &quot;Helvetica Neue&quot;, sans-serif; font-size: 12px; font-weight: 200;" fill="rgb(50, 49, 63)" stroke="none" stroke-width="1px">0.35</text></g><line x1="70" y1="0" x2="70" y2="378" fill="rgb(0, 0, 0)" stroke="rgb(204, 204, 204)" stroke-width="1px"></line></g></g><g transform="translate(70, 0)" clip-path="url(#clip_0)"><clipPath id="clip_0"><rect width="1428" height="378"></rect></clipPath><g><g><g><line x1="0" y1="0" x2="0" y2="378" fill="rgb(0, 0, 0)" stroke="rgb(60, 60, 60)" stroke-width="1px" opacity="0.25"></line><line x1="109.84615384615385" y1="0" x2="109.84615384615385" y2="378" fill="rgb(0, 0, 0)" stroke="rgb(60, 60, 60)" stroke-width="1px" opacity="0.25"></line><line x1="219.6923076923077" y1="0" x2="219.6923076923077" y2="378" fill="rgb(0, 0, 0)" stroke="rgb(60, 60, 60)" stroke-width="1px" opacity="0.25"></line><line x1="329.53846153846155" y1="0" x2="329.53846153846155" y2="378" fill="rgb(0, 0, 0)" stroke="rgb(60, 60, 60)" stroke-width="1px" opacity="0.25"></line><line x1="439.3846153846154" y1="0" x2="439.3846153846154" y2="378" fill="rgb(0, 0, 0)" stroke="rgb(60, 60, 60)" stroke-width="1px" opacity="0.25"></line><line x1="549.2307692307693" y1="0" x2="549.2307692307693" y2="378" fill="rgb(0, 0, 0)" stroke="rgb(60, 60, 60)" stroke-width="1px" opacity="0.25"></line><line x1="659.0769230769231" y1="0" x2="659.0769230769231" y2="378" fill="rgb(0, 0, 0)" stroke="rgb(60, 60, 60)" stroke-width="1px" opacity="0.25"></line><line x1="768.9230769230769" y1="0" x2="768.9230769230769" y2="378" fill="rgb(0, 0, 0)" stroke="rgb(60, 60, 60)" stroke-width="1px" opacity="0.25"></line><line x1="878.7692307692308" y1="0" x2="878.7692307692308" y2="378" fill="rgb(0, 0, 0)" stroke="rgb(60, 60, 60)" stroke-width="1px" opacity="0.25"></line><line x1="988.6153846153846" y1="0" x2="988.6153846153846" y2="378" fill="rgb(0, 0, 0)" stroke="rgb(60, 60, 60)" stroke-width="1px" opacity="0.25"></line><line x1="1098.4615384615386" y1="0" x2="1098.4615384615386" y2="378" fill="rgb(0, 0, 0)" stroke="rgb(60, 60, 60)" stroke-width="1px" opacity="0.25"></line><line x1="1208.3076923076924" y1="0" x2="1208.3076923076924" y2="378" fill="rgb(0, 0, 0)" stroke="rgb(60, 60, 60)" stroke-width="1px" opacity="0.25"></line><line x1="1318.1538461538462" y1="0" x2="1318.1538461538462" y2="378" fill="rgb(0, 0, 0)" stroke="rgb(60, 60, 60)" stroke-width="1px" opacity="0.25"></line><line x1="1428" y1="0" x2="1428" y2="378" fill="rgb(0, 0, 0)" stroke="rgb(60, 60, 60)" stroke-width="1px" opacity="0.25"></line></g><g><line x1="0" y1="378" x2="1428" y2="378" fill="rgb(0, 0, 0)" stroke="rgb(60, 60, 60)" stroke-width="1px" opacity="0.25"></line><line x1="0" y1="330.75" x2="1428" y2="330.75" fill="rgb(0, 0, 0)" stroke="rgb(60, 60, 60)" stroke-width="1px" opacity="0.25"></line><line x1="0" y1="283.5" x2="1428" y2="283.5" fill="rgb(0, 0, 0)" stroke="rgb(60, 60, 60)" stroke-width="1px" opacity="0.25"></line><line x1="0" y1="236.24999999999997" x2="1428" y2="236.24999999999997" fill="rgb(0, 0, 0)" stroke="rgb(60, 60, 60)" stroke-width="1px" opacity="0.25"></line><line x1="0" y1="188.99999999999997" x2="1428" y2="188.99999999999997" fill="rgb(0, 0, 0)" stroke="rgb(60, 60, 60)" stroke-width="1px" opacity="0.25"></line><line x1="0" y1="141.75" x2="1428" y2="141.75" fill="rgb(0, 0, 0)" stroke="rgb(60, 60, 60)" stroke-width="1px" opacity="0.25"></line><line x1="0" y1="94.5" x2="1428" y2="94.5" fill="rgb(0, 0, 0)" stroke="rgb(60, 60, 60)" stroke-width="1px" opacity="0.25"></line><line x1="0" y1="47.25" x2="1428" y2="47.25" fill="rgb(0, 0, 0)" stroke="rgb(60, 60, 60)" stroke-width="1px" opacity="0.25"></line><line x1="0" y1="0" x2="1428" y2="0" fill="rgb(0, 0, 0)" stroke="rgb(60, 60, 60)" stroke-width="1px" opacity="0.25"></line></g></g></g><g><g><line x1="0" y1="330.75" x2="1428" y2="330.75" fill="rgb(0, 0, 0)" stroke="rgb(153, 153, 153)" stroke-width="1.5px"></line></g></g><g><g><line x1="109.84615384615385" y1="0" x2="109.84615384615385" y2="378" fill="rgb(0, 0, 0)" stroke="rgb(153, 153, 153)" stroke-width="1.5px"></line></g></g><g><g><g><g><g><path stroke="rgb(255, 112, 67)" stroke-width="2px" d="M137.84044615384616,-62.04627753223156L139.4551846153846,10.78507305220603L140.41633846153846,27.557923044184236L141.5642307692308,44.60689540533275L142.3002,20.561480019087355L143.12404615384614,-6.902915126316088L146.74896923076923,28.668661630137592L149.0832,46.948805618379595L150.12673846153848,49.37678895231062L151.2416769230769,40.99651626595863L151.38447692307693,72.4063342193603L153.13103076923076,92.43931315630903L154.54804615384617,103.40137095753408L155.76733846153846,75.46052468831664L156.98663076923077,105.75760729587404L157.34363076923077,86.38078557052734L157.37658461538462,63.566876819309755L157.5029076923077,72.27316664938775L158.91992307692308,74.77468519619686L160.1721692307692,46.11245279065082L163.8684923076923,60.92159452281561L165.1536923076923,93.02810682559772L167.5098923076923,106.23675796128498L167.56481538461537,72.40814218290734L169.1466,109.53279799518373L169.16856923076924,101.53130091015441L170.12423076923076,136.0647369475885L172.0026,113.94527307475096L172.80996923076924,94.36751751747028L175.5671076923077,126.32772027370046L176.19872307692307,170.6874550772073L176.39644615384614,135.18081415477045L177.41252307692307,117.45399467108945L178.21439999999998,141.74431422418826L178.73616923076924,171.49851856934163L179.43918461538462,145.15239939837213L180.40583076923076,150.74521853778444L181.9326923076923,144.42556841521585L181.95466153846152,152.85740465732357L184.22847692307693,162.4052464891359L184.27790769230768,167.0701826649288L186.47483076923078,154.95862536652405L188.25433846153845,166.7792173089043L190.96753846153848,169.40886644491349L191.0114769230769,179.2874308584274L192.08796923076923,178.57675236214038L194.70230769230767,185.2027358993822L196.1522769230769,148.43527443319053L197.70659999999998,161.32428571647122L198.90392307692306,166.05266835132673L201.3589846153846,184.49268793368014L202.90781538461536,185.07565977158353L208.63629230769232,183.04779332865593L209.88304615384618,224.4213461726268L210.98150769230767,217.5038029342508L212.9642307692308,203.5268454783926L217.27020000000002,196.1769920786481L218.4730153846154,208.1269671619094L218.99478461538462,196.7307266235445L219.73624615384617,205.64398678780162L221.28507692307693,216.52470386410096L222.9986769230769,215.7364741378089L224.10263076923079,223.26720642823338L224.94844615384613,229.19603042768458L225.86016923076923,227.9259138760985L226.71696923076922,241.77677092003947L227.1124153846154,221.00980335502697L227.95273846153847,193.17209045308158L228.4854923076923,199.50904564987016L229.6224,210.9837404187345L231.3909230769231,213.953290244688L231.5007692307692,240.8520019893345L233.13747692307692,199.73631046083548L234.10961538461538,210.5069133333384L234.9719076923077,203.07389277172203L235.72984615384613,212.64726241500443L236.2571076923077,235.27830183846515L237.06996923076923,237.3446761270926L239.49756923076924,241.51733130219966L239.6293846153846,238.19786848427884L240.4092923076923,242.90585431338567L240.79924615384613,229.06433186460265L240.85966153846152,237.51590244191127L241.38692307692307,252.3341560302212L241.4198769230769,248.78545185852255L243.01264615384616,240.13457412378906L243.44104615384617,242.55952458296372L246.9012,230.10169645377488L249.82310769230767,215.7818337275296L250.38332307692306,212.61146061382945L251.1138,205.56758931733523L252.36055384615386,226.75867363487095L255.52412307692308,234.3816016922856L255.88112307692307,238.1306275344172L256.1118,245.0151219020056L258.111,223.0722878485779L258.57784615384617,250.9875170758283L259.539,252.352595428879L260.72533846153846,261.56301836982664L260.7967384615385,234.37669640073358L262.77396923076924,226.6862710612367L262.80143076923076,233.91773152931634L262.92775384615385,247.48345335772098L264.8720307692308,242.30631414622343L264.97638461538463,231.18732855659889L270.40278461538463,239.44434546793795L270.9739846153846,251.2382493547517L271.6660153846154,241.6549721319626L271.78684615384617,248.55348517055216L272.84686153846155,246.67885252866088L273.59381538461537,256.2560277702388L276.47178461538465,263.8278345806584L278.7016615384615,263.9355957116595L281.3599384615385,240.7622428480334L283.57883076923076,254.24875305107514L286.01192307692304,238.73863611526062L287.08841538461536,233.08809229377965L287.30261538461536,246.76151331748997L288.07703076923076,269.67380842260377L288.50543076923077,269.27828251535806L288.8734153846154,277.42934070357745L289.34575384615385,287.72242126809994L290.8506461538462,260.84760457842015L293.0915076923077,269.6435369465855L293.3935846153846,279.54180636788055L295.596,272.21449236145406L295.85413846153847,275.4697623137879L296.9580923076923,256.61464930082843L298.68816923076923,265.5775016904204L298.8199846153846,264.1466847753721L299.9459076923077,272.5807547641514L300.56653846153847,279.42252022759425L300.6654,278.9886568307061L301.56613846153846,268.8156110268342L304.1530153846154,280.3941861254875L304.72970769230767,288.96851749050046L305.6688923076923,290.2861563791479L306.13024615384614,285.00856260834007L307.27264615384615,278.8755488895051L307.5472615384615,277.79077486262753L309.9144461538462,291.1029801536562L310.8591230769231,266.46515037530435L312.23769230769227,273.46873385556796L314.0446615384615,253.4910915395514L314.4291230769231,256.60869499450297L315.42323076923077,273.1619879284821L317.6366307692308,266.7532768237187L317.9002615384615,278.84343908355197L318.9273230769231,285.4411143310401L319.48204615384617,284.1631057588776L321.6460153846154,287.40956993571046L324.27133846153845,281.7029118071265L326.96806153846154,292.1260352443318L331.2246,274.1868104970849L332.5043076923077,283.9381126753328L333.10846153846154,284.3463411251806L334.7616461538462,290.52034460724013L337.64510769230765,283.26411292684446L337.8922615384615,295.066505961015L343.1978307692308,303.4832405134405L346.0593230769231,294.73775719907076L346.3723846153846,297.0861047479879L348.4374923076923,290.5015551461799L350.3543076923077,293.0910824068798L350.84861538461536,289.80422715118016L351.9251076923077,292.07571037274886L352.4413846153846,295.08037937082224L352.9302,293.9068338075124L353.11144615384615,273.8231573908831L353.39155384615384,276.65214462335734L355.19303076923075,288.0039209276785L355.41272307692304,293.9267836220771L355.70930769230773,298.61422542528567L360.61393846153845,267.6982331383005L360.9324923076923,282.1326320637927L361.25653846153847,276.7641885918179L363.1513846153846,279.0338977957844L363.2667230769231,287.4594383737492L365.1670615384615,261.54913868612334L369.39613846153844,278.08702644918134L370.50558461538463,280.11691255994896L372.2686153846154,289.65929173158565L377.0304461538462,296.5894379063067L377.6785384615385,299.8877715740274L378.93627692307695,300.7649726814729L379.6447846153846,303.51054886038315L379.68323076923076,298.8830552372647L379.7161846153846,300.6698443098851L381.5011846153846,299.32592261010336L382.3964307692308,302.20051532565907L383.15986153846154,304.3980500240883L386.66944615384614,293.558404240892L386.86167692307697,300.16575688057287L387.80635384615385,294.5985168855377L391.40930769230766,276.84382882362536L393.93576923076927,275.5949657836314L394.1389846153846,280.6249889718745L394.1994,294.9690921254309L395.13309230769227,299.715313640079L395.32532307692304,289.3396028842575L398.59873846153846,292.63392061090747L399.6093230769231,294.1701008415L401.4712153846154,281.6720410934554L403.6956,288.2698811472336L404.8160307692308,279.4306887943077L404.8325076923077,292.36164357862043L404.9478461538461,277.74948826194503L405.11810769230766,287.30860612920344L405.8430923076923,299.9976565640802L405.97490769230774,296.01635837564675L406.0188461538462,297.7400395542968L406.4033076923077,299.13994452778036L407.0404153846154,302.4403664211841L407.86426153846156,291.5275611454494L410.85207692307694,302.85215963567776L411.74732307692307,299.0649771326511L412.5272307692308,277.9544940104323L414.8779384615384,292.93553003655296L415.7731846153846,286.81190742991225L416.65195384615384,297.61516419092925L416.80024615384616,291.2352287473685L416.9430461538462,299.05492196618957L418.23373846153845,303.09179365270995L418.38203076923077,304.81761265625755L421.68290769230765,275.1485711445224L422.22115384615387,286.8909190019853L424.0171384615384,231.43230645185034L426.60950769230766,254.75461306467844L427.1587384615385,273.4589996429991L427.95512307692303,290.10653246076174L433.1178923076923,291.5142977483944L434.4085846153846,279.50092084991195L434.79853846153844,285.52244838051354L435.1775076923077,281.34669541700094L436.3363846153846,289.27706050058254L437.6929846153846,283.27649280536207L439.1759076923077,286.13108177100435L443.8278923076923,301.8342956765879L445.65133846153844,309.11537061493925L454.8015230769231,295.9876851118286L454.86193846153844,294.9631382332253L458.4978461538462,306.6576106406604L460.12356923076925,299.27442273392404L460.33227692307696,296.01151955213624L460.76616923076926,302.26459933123874L462.8642307692308,305.59268124134474L463.0399846153846,286.4162730737396L464.84146153846154,292.4663280204754L465.41815384615387,301.97125514370623L466.02230769230766,309.1775328250076L472.83826153846155,317.52352946836606L473.7444923076923,303.54040588789496L474.5079230769231,276.6233079514105L476.06224615384616,282.2599796984314L476.8915846153846,272.04949984453435L477.9516,295.524257596254L478.6985538461538,309.46704847258616L479.0280923076923,317.80484597919104L479.3411538461538,244.2590956034524L479.5663384615384,247.52603244437353L480.74718461538464,274.9380385426645L481.95000000000005,297.25949608076206L487.5631384615384,310.6473570200361L488.31009230769234,318.6882867073757L488.35952307692304,323.42350366069473L490.27633846153844,289.1724161228752L491.8471384615384,236.3931779993305L492.6160615384615,274.0954925740117L493.13233846153844,295.93665868850303L494.3736,309.2198158482976L494.9612769230769,290.2732600706975L496.22450769230767,306.4364164865038L496.2354923076923,304.6756916140629L497.74587692307693,315.0920530067405L498.44340000000005,316.0075206171883L500.07461538461536,318.6393493826784L503.0679230769231,45.30383987519724L503.1338307692307,87.57802928265085L505.3692,134.07129816875545L507.42881538461535,212.74141537427082L507.5166923076923,193.16084614562493L507.61006153846154,248.1889732675301L509.5323692307692,281.2101805717707L509.796,300.75580147714487L510.4166307692308,288.063960005707L511.3448307692308,303.85871727095406L511.4436923076923,314.60341320435805L511.74576923076927,321.06201862870086L513.2451692307693,324.9327867255884L515.2938,327.1906380605714L516.2988923076923,328.6071351378968L517.4577692307691,316.9431472277529L518.0179846153845,322.46072785787305L520.7696307692307,325.77438216876277L521.22,319.4132458126324L521.4946153846154,313.328184128152L521.6593846153846,283.45100009164014L522.5106923076922,302.3704655892878L522.9390923076924,313.50542895942243L523.6970307692308,320.31263761031494L523.8947538461538,324.39074418044913L525.0096923076924,326.93444613326625L526.2015230769231,251.09883905475755L526.2289846153847,282.90604949406134L528.3435230769231,302.02322403449637L528.5192769230769,312.8392039034948L531.7926923076923,319.9989294599841L532.1167384615384,324.1639626886313L532.232076923077,326.78909451816264L532.8856615384615,294.6917094084846L534.5992615384615,309.0428536193483L535.445076923077,317.7216730153074L536.7742153846153,309.45410729560314L539.8169538461539,307.94040774770417L540.2892923076923,317.06423037583284L540.8769692307692,322.5159302429918L541.2998769230769,325.80728212735215L544.0075846153846,327.7843310469002L545.1115384615384,328.2341185464534L545.5619076923077,309.7853756877227L546.2704153846154,317.3775170593303L547.6929230769231,322.72649992245266L548.1487846153846,324.86744617076783L548.6540769230769,327.2093364493636L548.6540769230769,267.74126423576996L552.6305076923077,276.48116467851116L553.4433692307692,279.7579395932419L555.5963538461539,271.9348484255351L556.7552307692308,202.87455307111009L558.1173230769231,215.46704558828392L561.0941538461539,261.58022626854773L561.3028615384616,277.2812704748976L561.8026615384615,272.84255797011065L562.7693076923077,296.00553476393037L562.9670307692307,309.9026951565388L563.1757384615385,318.2415979597208L563.6041384615385,225.67308648188336L564.1149230769231,266.32304433897167L565.0211538461538,292.08707048951175L567.9760153846154,307.2050490702828L568.0693846153846,316.04742386507894L568.5472153846154,319.5296299234355L569.0909538461539,324.00984223619565L569.7665076923076,275.34243419131917L572.2764923076923,297.50146994446993L573.5671846153847,310.8008819662964L574.8633692307692,318.7805289168635L575.1764307692308,323.5683171031725L575.8904307692308,326.4408243946276L579.2132769230769,328.1048986105767L580.3062461538461,328.42181211353596L582.6569538461539,329.3530872632511L583.8103384615384,269.0251997095017L584.4968769230769,289.4830566309642L584.766,305.98983015602494L585.0406153846154,314.4754095971661L585.996276923077,320.98514291556154L587.9240769230769,324.89108574573174L588.1986923076923,303.07696151843055L588.4238769230769,312.34327427307744L588.7973538461538,319.6061877997954L589.6431692307692,324.06371267660006L589.9122923076923,204.3929616214248L592.8506769230769,254.93576606370416L593.0264307692307,285.2611457114251L593.8118307692307,303.45665806097907L595.0750615384616,314.3738776399174L597.8871230769231,320.92430590641874L599.0789538461539,323.7633158132762L600.5289230769231,326.5579894873041L600.8969076923076,309.13544305369487L603.2146615384615,317.78126510512595L606.7077692307691,159.75398874599787L606.9054923076924,212.8524716083351L612.6229846153847,181.9253701975431L614.3201076923077,241.45522167100913L618.9281538461538,277.17310864297946L620.5813384615384,298.6038651849474L621.3722307692308,235.76069391284258L622.8936,264.6459171817533L624.1183846153846,291.08754064081904L627.2874461538462,282.91203277372597L628.3749230769231,302.0457516290077L629.0230153846154,180.26680666073136L629.2646769230769,238.3469421188621L629.5008461538462,201.48921020749734L631.5659538461539,120.20261762096601L632.1536307692307,178.42243579360317L635.4819692307692,239.35315251593374L636.0806307692308,275.91151508334127L637.0362923076923,272.6344511547258L638.5247076923077,242.2720409297091L641.2653692307692,277.66294432374644L642.2100461538462,244.04565293009762L642.7098461538462,278.6594948007531L644.1323538461538,287.63068519585534L644.3026153846154,304.3155256673139L644.5552615384615,314.77478893322336L644.8188923076923,321.1648733593847L645.1594153846154,209.55466586219222L645.5988,257.9017687800094L646.2194307692307,264.71714031026147L646.6258615384615,291.13028418455457L647.3288769230769,306.97816774336104L647.7133384615385,316.4655357660185L648.6360461538461,322.17021351958846L650.0255999999999,324.05356534849426L651.8820000000001,326.7321330328117L652.4861538461539,328.3392798131139L653.5461692307692,329.30356788605155L653.8482461538462,211.6527679322344L654.650123076923,259.29164247523306L654.8094,287.87456338294277L655.7046461538462,305.0247380297413L655.7705538461538,266.9703253186363L659.3680153846153,290.3166468889486L659.9447076923077,267.34979689127033L661.6857692307692,292.7098781347622L662.6688923076923,173.52681358339478L664.821876923077,236.41608698015241L665.0635384615384,243.20581238475336L666.9913384615385,218.18385975961021L670.4844461538461,263.19056807532667L672.0113076923077,290.21336945915647L674.713523076923,306.4280216754931L678.4592769230769,316.15679680559305L678.5142000000001,321.99407806593473L678.7338923076923,325.4952686751829L679.2062307692307,327.5971561674336L680.1179538461538,328.82741439395505L683.3858769230769,329.59644863637305L683.4847384615385,330.0578691818238L683.5616307692308,329.761332199403L685.5608307692307,144.81600940551064L687.3128769230769,219.18960564315577L688.3728923076924,262.0370489985437L689.6526,289.5222293991262L690.811476923077,84.90763368954742L692.453676923077,183.24425101737089L694.1892461538462,193.0084543732399L696.0346615384616,171.467899895167L696.5893846153847,235.18022852380741L700.2417692307693,273.4081367120004L701.3512153846154,296.34482109019757L701.4775384615385,309.58845884623514L701.5709076923076,318.05307530773666L701.9388923076923,323.1318062395261L703.9326,288.34336380066907L704.0534307692308,305.30601828034656L709.5182769230769,241.2917639418598L709.946676923077,276.79663084004164L710.3256461538462,298.377978504025L710.8584000000001,311.2241303546766L712.1051538461538,240.1119636251652L714.0714,89.20092884028696L715.8618923076923,185.82055730320505L715.9168153846153,80.80373704849171L717.8775692307692,150.0389806980997L719.7010153846154,188.6185641947454L720.9038307692308,130.66975597519072L722.9964,-304.4022557021476L723.0293538461538,-194.49334723241918L724.2431538461539,13.649829784667304L726.6872307692307,140.47792151765287L727.9010307692308,216.5515632738998L729.6146307692308,199.2864006823498L731.3062615384615,222.1667474577545L731.9927999999999,107.02997475085965L732.6408923076924,196.51634694828493L733.9260923076923,75.64353555258458L734.8707692307692,-6.23469157328401L737.2324615384616,128.55918505602958L738.6000461538462,180.69055489786794L738.759323076923,240.71433242368337L740.6596615384616,146.33315464381957L742.3787538461538,220.09989278629175L744.2900769230769,224.80575391718594L744.4109076923077,241.73992952447443L746.4815076923077,247.13119219983403L747.3767538461537,261.48149100240937L749.4803076923077,240.91134917913L749.5956461538462,253.379579723943L750.3590769230768,284.3277478134244L750.6062307692308,294.4579550715154L752.5285384615385,265.55168932031785L752.5505076923076,291.6310134972646L753.7588153846153,307.27860807589286L754.1377846153846,316.6671648455357L755.5273384615384,322.3002989067738L756.5598923076923,88.59127663219596L758.7623076923077,97.64652127411739L758.9105999999999,190.88791276445752L760.2617076923076,214.48373905379037L761.0965384615384,260.99024245482394L763.6559538461539,288.89414394293044L764.963123076923,304.2313636814434L766.8799384615385,244.86364354341498L768.8132307692307,279.2181861259993L769.5382153846153,299.8309116749627L769.8128307692308,312.19854700221686L769.8787384615384,238.99809134396352L770.9991692307692,275.69885480637754L773.0148461538462,61.21237442633742L773.2510153846155,169.02742465580246L773.5530923076923,194.41078225222074L775.7005846153846,248.9464568244188L775.7884615384614,281.6678736433405L779.3859230769231,295.19766414910663L779.9845846153846,309.41859848898457L780.1054153846154,144.093607637893L781.6542461538462,218.75616453283354L782.7582,208.87705865617582L786.2348307692307,257.62623519370555L786.6028153846154,286.87354775359387L787.4925692307693,304.42412864804425L789.0853384615385,312.8312931961352L789.3654461538462,307.0898095254025L790.6451538461538,316.55388571524145L794.2371230769231,322.23231060343744L795.4948615384616,325.4815537245168L797.0162307692308,327.5885955705894L799.1088,170.41293847648214L800.2237384615383,170.09589219741773L801.4540153846153,234.3575352791781L801.7231384615384,272.9145211675069L802.5854307692308,296.0486876765247L803.8266923076923,244.4785396515939L805.2876461538461,272.37443525699456L805.4853692307692,295.7246495261718L806.0071384615384,164.2379808291751L806.0455846153845,230.56398932827383L806.4410307692307,267.8367022706516L806.4410307692307,293.00202136239096L808.6104923076922,308.10121217192375L809.6265692307692,317.1607273031073L810.6481384615386,322.5962182105519L811.2907384615385,325.857730926331L813.4821692307693,327.81234369101475L814.9486153846154,263.8122819568059L815.300123076923,290.5873691740834L815.404476923077,306.65242150445005L815.8932923076923,300.2432140589906L816.3436615384616,312.4250213351989L816.4644923076924,193.33736013455055L817.2389076923076,248.3024062922592L821.5229076923077,281.28144377045146L822.0941076923076,301.06632402462975L823.1376461538462,312.93979441476586L823.917553846154,5.806829234079828L826.4275384615386,135.7840975404479L826.7131384615385,213.7701763054314L828.6684,219.75285378936425L829.3000153846154,264.1517122736185L832.4690769230768,290.7910273640679L832.5404769230769,244.26696914251605L832.826076923077,71.30455652365657L833.1336461538463,162.57411578291402L833.5620461538462,229.8444694697484L834.4737692307691,270.20599883482083L834.6934615384615,-263.6972889322924L835.5337846153847,-25.918373359375494L835.7095384615385,116.74897598437474L836.808,202.349380696258L837.8405538461539,246.2564290535099L838.2689538461537,280.05385743210184L838.6424307692308,226.46883901732843L839.1092769230769,268.18130341039705L839.4607846153847,136.29558285991314L839.8452461538461,214.0773497156286L844.9860461538461,260.74640982937717L846.6776769230769,266.30556066538037L847.6937538461539,51.01715974631992L848.1056769230769,162.91029584779193L849.0668307692307,230.04617750867513L849.2755384615385,270.32770650520513L849.5556461538462,289.1343174926763L850.3300615384616,305.78049932596525L851.4120461538461,315.76829637600827L852.856523076923,306.0935898632637L853.6638923076923,315.9561539179582L855.6521076923077,321.87369235018417L855.7674461538461,325.4242154101105L858.3872769230769,321.45985691261717L858.6948461538461,325.1759141475702L858.711323076923,327.4047039884036L859.6065692307692,328.7428217037435L863.242476923077,329.5456930222461L866.9497846153847,283.13723160459693L867.350723076923,302.18233896275814L867.883476923077,313.60940337422784L871.1184461538462,320.4656420245367L872.0466461538463,189.2281081017612L872.2169076923077,-368.049356786206L873.5076,-88.52961407172353L874.2435692307693,29.483047496869176L874.3039846153847,149.98982846752446L874.6005692307692,221.0407629728318L876.2153076923076,264.9244575432149L877.6103538461539,291.2546745259289L877.9069384615384,305.74732781443595L878.9340000000001,315.74839668866156L880.0709076923077,321.74902314870474L880.345523076923,325.34941388922084L880.4993076923078,215.53408188675132L881.7954923076923,261.6204491320329L882.8664923076923,289.27224617655423L884.0473384615385,228.49132963690366L884.755846153846,127.37968073292495L885.3984461538462,208.72780843972234L886.2717230769232,257.53668506383343L886.5847846153846,233.50400291347168L886.733076923077,62.08270567931925L887.7711230769231,169.54962302884996L887.9029384615384,234.007439006789L888.5180769230768,272.7044634040734L891.072,295.92267804244403L893.7852,275.54785043537163L895.3230461538462,297.62732740212573L895.3285384615385,310.8763372428836L896.4874153846154,318.82580234573015L896.6302153846153,323.5954814008423L897.1684615384615,318.94056175807407L897.1684615384615,211.4435367742734L898.6184307692307,259.1661220645641L899.2006153846154,287.79967311736004L899.6784461538462,303.41780110260726L900.8538,313.82197441644L901.0515230769231,278.37678116551956L901.7545384615385,121.77587181324907L901.9028307692308,205.36552308583694L902.2433538461538,255.51889568534537L902.9134153846154,253.44522904137995L908.2684153846154,284.36713742482794L909.2405538461538,302.8403162595325L910.3719692307692,313.99598112233355L910.6246153846154,314.4913809360735L910.6795384615384,320.99473957526783L913.1016461538461,324.8968435044633L916.5892615384615,231.1745643923012L917.2758,161.94953776057528L918.2644153846155,217.7692748548446L921.4938923076924,259.43960322763667L924.3883384615385,287.96376193658205L925.6735384615386,305.07825716119993L926.3051538461539,315.33294518661427L926.6346923076923,302.52161537332495L928.1231076923077,276.28212712838143L928.2494307692308,298.06927627702885L928.4142,311.1415657662173L930.0783692307692,297.85484505819204L930.2651076923078,276.94656877891373L930.5452153846154,298.4679412398155L931.2811846153845,311.3807647346228L931.8908307692309,212.99932376854235L932.3137384615384,260.0995942611254L935.2521230769231,288.359756295029L937.2348461538462,303.7318164777494L941.7824769230768,283.8947205973707L942.6612461538462,302.6368323296976L942.837,278.7618774998588L943.8311076923077,299.557126495463L945.8742461538461,177.8440771777763L946.2861692307692,239.00644629727168L951.5532923076923,142.58687828499293L955.7768769230769,217.8520912185838L957.1005230769231,263.01113078403284L959.7972461538462,290.1066784696189L959.9125846153846,306.36400706938696L961.7305384615386,314.0407736882376L962.7136615384615,320.7244633848623L963.0926307692307,324.7346780309174L964.0153384615385,327.13738526749364L964.7897538461538,328.5824296713305L965.2456153846153,329.4494229823902L965.7564,329.9696524273428L965.9211692307692,330.28179122828385L966.7230461538461,330.45688693021185L966.8054307692308,288.77059829112557L972.1494461538462,305.562175426095L972.4295538461539,315.6372597034268L973.2533999999999,246.71613359543636L974.9779846153847,280.3296801572618L975.0329076923077,300.49770416816796L975.0658615384616,312.5895495063421L976.1039076923076,319.85372935938733L976.5432923076922,323.99012994512964L977.3506615384615,326.6940779638334L980.7613846153847,184.5023437113788L983.9853692307692,235.66041255049265L985.5177230769232,273.66366716408294L985.7978307692308,296.33162965571955L986.638153846154,310.09896270265523L988.7032615384614,318.3593776095615L989.0602615384616,321.7243173535887L989.906076923077,280.5740534732475L990.6090923076923,300.6442709034406L993.7616769230768,312.6788078187921L995.4917538461539,318.0283609659385L997.9303384615384,310.64093116259045L1000.8412615384616,318.49166136448923L1000.9840615384616,323.39499482662046L1001.8902923076923,326.33693321737053L1004.1641076923078,328.1021031695965L1005.7294153846153,329.16126178878653L1007.6352461538462,329.732151073272L1010.3704153846153,330.1384708572686L1010.5187076923077,330.3829959665447L1011.0844153846153,330.52721737354125L1011.326076923077,330.6012587543639L1013.3747076923077,330.41793502661307L1014.6214615384615,222.54845807130764L1014.7368,265.6290337613775L1023.930923076923,249.61677332052906L1024.820676923077,282.0700184210661L1024.9909384615385,254.52290700402995L1028.3851846153846,284.9527877508999L1029.033276923077,302.70114423737084L1029.3957692307692,313.88406034352596L1029.5220923076922,320.1656609849261L1030.1207538461538,324.2911447955501L1031.2411846153846,326.7437570324687L1031.4444,327.79255525133897L1031.8782923076924,328.9755331252334L1032.4110461538462,329.68531612806964L1033.0481538461538,329.8799665703411L1033.7017384615385,329.7838139307948L1033.7511692307692,330.1689942765281L1034.0367692307693,330.39116674132214L1035.6624923076922,330.5023678364801L1036.244676923077,330.5956204823225L1038.7381846153846,330.6159053213904L1038.8315538461538,330.6526359126033L1040.188153846154,253.99993556768067L1040.7538615384615,217.95937464255312L1042.846430769231,263.0648203396307L1044.675369230769,289.4725539225381L1044.757753846154,305.52992603926424L1045.6365230769231,315.57805438891245L1046.1198461538463,321.6343825252102L1048.1739692307692,306.19343692757167L1048.8165692307691,315.96504500247664L1048.9703538461538,321.8670274632085L1049.761246153846,325.4199853957673L1052.6776615384615,327.5413285350752L1052.7655384615384,274.96766659354876L1056.0499384615384,297.24317618876154L1058.6587846153845,309.89303364016536L1059.2794153846153,317.95429281539816L1059.576,322.4495670990473L1060.5151846153847,325.66643381099203L1060.7898,327.69515599003176L1061.2291846153846,328.91403397645524L1061.805876923077,328.09685014546494L1062.0255692307694,329.0942889988145L1063.9698461538462,329.68750330190954L1066.4523692307694,282.2039788984126L1066.946676923077,301.39626641330625L1067.303676923077,296.6991059020609L1070.126723076923,310.3162361828327L1072.4994,318.467714465192L1074.4162153846155,323.34398532377253L1075.7563384615385,326.2060185036143L1076.1847384615385,328.00136262806603L1076.5087846153847,329.01799770177183L1077.0195692307693,329.48148031463097L1077.1513846153846,329.56275489488723L1079.2164923076923,330.0240047337657L1079.3153538461538,328.29181654674085L1080.8861538461538,329.26287893478093L1082.1164307692309,329.8167948967463L1082.3251384615385,330.18363254316097L1082.583276923077,330.24634728079303L1085.1646615384616,329.6894600501933L1085.6754461538462,329.3998135900328L1088.7840923076924,329.915775585841L1088.9433692307691,329.9537811809446L1089.0532153846154,330.1105007156191L1091.1402923076923,329.87699876205556L1091.1787384615386,329.3310970664482L1093.4635384615385,328.6573393844343L1094.737753846154,328.91317579981654L1095.5670923076923,329.5602411833013L1096.5886615384616,329.8740196825333L1099.290876923077,330.02885670697424L1102.1139230769231,297.9090134455903L1102.5697846153846,221.08601912582776L1102.7839846153845,264.9440271471155L1103.4156,291.21727593059495L1104.6403846153846,307.03028643681796L1105.5576,316.4522142982779L1106.4583384615385,322.1464976127975L1107.6611538461539,325.5070157978438L1107.7105846153847,327.3365455085823L1112.022046153846,328.41933336546316L1113.428076923077,329.16595580896166L1114.0102615384615,329.76994210542887L1115.8721538461539,329.412886596466L1115.9160923076922,329.91533686918365L1116.6630461538462,300.5102626425168L1116.7399384615385,312.40187127655093L1116.7454307692308,319.1168243454287L1117.3276153846155,323.39527117763544L1118.0745692307692,325.70967819266895L1124.8850307692308,327.52014663878793L1125.6978923076924,328.70721529817234L1127.9991692307692,329.2258042221024L1129.3557692307693,329.8145378170491L1131.9536307692308,330.1392891658001L1132.673123076923,330.3783552112064L1133.315723076923,329.91504376075267L1136.506753846154,330.0948894001322L1138.0940307692308,330.11915922443916L1138.236830769231,330.10757172479987L1141.0928307692309,330.31891039759944L1144.7122615384617,330.4088583756532L1145.2175538461538,330.5028992355104L1145.4427384615385,330.5182885686507L1147.3211076923076,330.24108451934234L1147.3320923076924,330.42666118636134L1147.7879538461539,330.2061138372954L1147.8648461538462,330.32922113688244L1149.5454923076923,330.1830762241588L1150.9954615384615,330.3581825431465L1151.1931846153846,330.4344702273578L1151.7149538461538,330.4542567461851L1152.4234615384614,330.2124565805102L1153.4395384615384,330.3643632709263L1154.8126153846154,330.1731301525829L1156.1692153846154,330.3805628113104L1156.592123076923,330.38576174486457L1158.3496615384615,330.0950390383938L1158.4869692307693,330.12900189970316L1159.9753846153847,330.3248589982705L1160.4037846153844,330.10471548112804L1160.694876923077,299.02387112958775L1162.5128307692307,311.6042311216562L1165.566553846154,319.2328473747488L1166.978076923077,323.6999206722023L1166.9890615384616,326.35604726394916L1167.730523076923,327.96819117888697L1169.943923076923,328.80340415827396L1170.0592615384614,329.3520143880169L1171.3279846153846,329.67811238783236L1172.371523076923,329.6002546857231L1175.8591384615384,329.7441120197463L1178.187876923077,329.94777648961696L1178.9128615384616,330.1803618251098L1181.1647076923077,329.9786640852634L1182.081923076923,330.0764456746833L1182.1368461538461,330.1776107548297L1182.4608923076923,330.2740757179788L1184.2843384615385,330.1365912570637L1189.502030769231,322.2393774152745L1189.8041076923078,325.51850233686923L1195.5106153846154,327.21600324466164L1197.3834923076922,328.35446469695097L1198.1249538461539,328.967832688986L1200.8656153846155,329.60801670619793L1201.7334,329.91713234108755L1204.8200769230768,330.04080734945484L1204.8420461538462,330.21963422212445L1206.303,315.15339106448556L1206.3249692307693,321.23648356095157L1206.8412461538462,311.743583067925L1207.3245692307692,319.22804881511445L1208.9008615384614,323.55350086206687L1209.483046153846,326.15760323198765L1210.125646153846,327.4367974378817L1212.4763538461539,328.52657481467054L1216.8921692307692,329.27536103085015L1218.1059692307692,329.62611127189746L1220.6214461538461,329.8153909230777L1222.4119384615385,329.7887054323322L1224.5154923076923,330.01841710915943L1225.0702153846155,330.1940835125199L1226.7124153846155,330.1161307591664L1228.5468461538462,330.00211050289397L1233.0340615384616,330.20131333069753L1235.3573076923076,330.2800382746516L1236.7139076923077,330.20428496600454L1237.0269692307693,330.34024629270596L1237.9936153846154,330.19439745348745L1238.3670923076922,318.0748633304361L1240.0642153846154,322.96092596635816L1240.2399692307692,326.0068327563946L1242.057923076923,327.6905917028323L1242.7115076923078,315.77657252995584L1243.2991846153845,321.6260429915342L1243.3541076923077,325.101301274639L1247.665569230769,327.19500445615745L1247.8468153846154,328.51973076177813L1250.1371076923078,329.11455813744976L1256.7718153846154,329.54189368302525L1257.6286153846154,329.88049443155796L1258.155876923077,318.4240245362536L1259.226876923077,323.0848508361137L1259.5014923076924,325.9603491295799L1262.439876923077,327.75240301791877L1263.1264153846155,328.79332462592834L1263.8568923076923,329.40455007394405L1266.3998307692307,329.7811091381033L1269.2118923076923,329.99790017431513L1270.0577076923078,330.1872702021417L1270.936476923077,330.23639199033573L1274.3417076923079,330.2923543080261L1274.4790153846154,330.4076840291126L1274.577876923077,330.3797719982299L1276.4178,330.37774431739246L1278.1588615384615,318.6794270040631L1279.1200153846153,323.1854372419375L1280.9599384615383,325.9103092149247L1282.360476923077,327.6582602098839L1282.6241076923077,328.7785446829455L1284.255323076923,329.4201984991402L1284.540923076923,329.78430425961994L1284.936369230769,329.94629652817L1286.611523076923,330.10144026960137L1287.4793076923077,330.2253125496351L1287.8912307692308,330.3391727964712L1288.303153846154,330.4194030320323L1290.7417384615385,330.3461494434516L1291.3513846153846,330.3849550358234L1292.1862153846153,330.31863067470846L1294.1799230769232,330.39681946933854L1294.3776461538462,330.4085111948045L1296.2560153846155,330.384410971564L1296.8272153846153,330.3823667470027L1300.1500615384616,330.35423782662787L1300.1665384615385,318.13312603650235L1300.2654,323.07074583890244L1300.496076923077,325.9647940054416L1301.2704923076924,327.7099745410958L1302.5611846153845,328.8010028915013L1304.6153076923079,329.4713939200504L1305.1425692307691,329.80967452063686L1305.779676923077,330.0208526172498L1306.1421692307692,330.1798276535176L1310.157046153846,330.3297749319788L1310.7007846153847,330.33068143693583L1310.936953846154,330.2130897813524L1311.5520923076924,330.30122242053324L1311.8981076923078,318.30009543704966L1313.9961692307693,323.11271640013075L1314.5179384615385,325.9883075188777L1314.633276923077,314.7692286986817L1317.934153846154,321.0212275783623L1322.0533846153846,324.7647083866302L1322.5147384615384,327.0203959884546L1326.1561384615386,328.342363968673L1326.4032923076923,329.19894063603545L1326.6449538461538,329.7061773933984L1328.451923076923,330.009040539058L1334.5538769230768,315.8396106121492L1338.5028461538461,321.6626102134197L1338.7060615384614,325.0477131342934L1339.3706307692307,327.23974468422307L1341.8476615384616,328.5630878267406L1344.214846153846,329.2628767588702L1344.2532923076924,329.72108612274417L1344.6542307692307,330.01591379063234L1346.7797538461539,330.19617544207557L1347.1092923076922,330.3292667723367L1347.9880615384616,315.7709185574454L1348.8119076923076,321.6370699546683L1348.8283846153845,325.0741356565241L1348.833876923077,327.11984337038433L1349.6247692307693,328.40187274772114L1351.6514307692307,329.1934797618351L1352.6510307692308,329.6809582638465L1353.974676923077,329.91586297426767L1355.3477538461539,330.1044006423811L1355.4576,330.2522837872675L1361.8012153846155,330.2770698998181L1362.366923076923,330.2446446392813L1362.4767692307692,330.3083414031921L1364.042076923077,330.3274170591444L1366.1126769230768,330.34114498063144L1368.8039076923076,330.35544808565265L1371.2644615384615,330.3889920222066L1371.396276923077,330.36145364034905L1371.7862307692308,330.2761777073358L1377.075323076923,330.2209084180265L1377.910153846154,330.23199623981515L1379.8104923076924,330.2982516698494L1380.1290461538463,330.33843611078066L1382.3424461538461,330.3766202427454L1382.6829692307692,305.69220219835677" style="fill: none;" fill="none"></path></g></g></g></g><g opacity="0.2"><g><g><g><path stroke="rgb(255, 112, 67)" stroke-width="2px" d="M125.97706153846154,-265.4382448196412L127.56433846153845,10.850862085819244L133.69924615384616,-119.80760443210607L137.84044615384616,-21.963089883327484L139.4551846153846,119.94648841023445L140.41633846153846,52.705368518829346L141.5642307692308,70.17313939332962L142.3002,-15.500537931919098L143.12404615384614,-48.09532392024994L146.74896923076923,82.02277538180351L149.0832,74.36801907420158L150.12673846153848,53.018684059381485L151.2416769230769,28.426272690296173L151.38447692307693,119.52068907022476L153.13103076923076,122.48863917589188L154.54804615384617,119.84441091120243L155.76733846153846,33.54932677745819L156.98663076923077,151.20318469405174L157.34363076923077,57.31557083129883L157.37658461538462,29.346026301383972L157.5029076923077,85.33259850740433L158.91992307692308,78.52696251869202L160.1721692307692,3.1191076040267944L163.8684923076923,83.13530606031418L165.1536923076923,141.18787389993668L167.5098923076923,126.04973432421684L167.56481538461537,21.6652190387249L169.1466,165.21978136897087L169.16856923076924,89.52905532717705L170.12423076923076,187.86489088833332L172.0026,80.76607730984688L172.80996923076924,65.00088420510292L175.5671076923077,174.26802438497543L176.19872307692307,237.22705726325512L176.39644615384614,81.9208527803421L177.41252307692307,90.86376544833183L178.21439999999998,178.17979355156422L178.73616923076924,216.12982508540154L179.43918461538462,105.6332206428051L180.40583076923076,159.13444724678993L181.9326923076923,134.9460932314396L181.95466153846152,165.5051590204239L184.22847692307693,176.7270092368126L184.27790769230768,174.06758692860603L186.47483076923078,136.79128941893578L188.25433846153845,184.5101052224636L190.96753846153848,173.35334014892578L191.0114769230769,194.10527747869492L192.08796923076923,177.5107346177101L194.70230769230767,195.14171120524406L196.1522769230769,93.28408223390579L197.70659999999998,180.65780264139175L198.90392307692306,173.14524230360985L201.3589846153846,212.15271730720997L202.90781538461536,185.95011752843857L208.63629230769232,180.00599366426468L209.88304615384618,286.4816754385829L210.98150769230767,207.12748807668686L212.9642307692308,182.56140929460526L217.27020000000002,185.15221197903156L218.4730153846154,226.05192978680134L218.99478461538462,179.63636581599712L219.73624615384617,219.01387703418732L221.28507692307693,232.84577947854996L222.9986769230769,214.55412954837084L224.10263076923079,234.56330486387014L224.94844615384613,238.0892664268613L225.86016923076923,226.0207390487194L226.71696923076922,262.55305648595095L227.1124153846154,189.85935200750828L227.95273846153847,151.41552110016346L228.4854923076923,209.0144784450531L229.6224,228.19578257203102L231.3909230769231,218.40761498361826L231.5007692307692,281.20006960630417L233.13747692307692,138.062773168087L234.10961538461538,226.6628176420927L234.9719076923077,191.92436192929745L235.72984615384613,227.0073168799281L236.2571076923077,269.2248609736562L237.06996923076923,240.4442375600338L239.49756923076924,247.77631406486034L239.6293846153846,233.21867425739765L240.4092923076923,249.96783305704594L240.79924615384613,208.30204819142818L240.85966153846152,250.1932583078742L241.38692307692307,274.5615364126861L241.4198769230769,243.46239560097456L243.01264615384616,227.15825752168894L243.44104615384617,246.19695027172565L246.9012,211.41495425999165L249.82310769230767,194.30203963816166L250.38332307692306,207.85590094327927L251.1138,195.00178237259388L252.36055384615386,258.5453001111746L255.52412307692308,245.81599377840757L255.88112307692307,243.75416629761457L256.1118,255.3418634533882L258.111,190.15803676843643L258.57784615384617,292.86036091670394L259.539,254.40021295845509L260.72533846153846,275.3786527812481L260.7967384615385,193.59721344709396L262.77396923076924,215.15063305199146L262.80143076923076,244.76492223143578L262.92775384615385,267.83203610032797L264.8720307692308,234.5406053289771L264.97638461538463,214.50885017216206L270.40278461538463,251.82987083494663L270.9739846153846,268.9291051849723L271.6660153846154,227.28005629777908L271.78684615384617,258.90125472843647L272.84686153846155,243.86690356582403L273.59381538461537,270.62179063260555L276.47178461538465,275.185544796288L278.7016615384615,264.09723740816116L281.3599384615385,206.00221355259418L283.57883076923076,274.4785183556378L286.01192307692304,215.4734607115388L287.08841538461536,224.61227656155825L287.30261538461536,267.2716448530555L288.07703076923076,304.0422510802746L288.50543076923077,268.6849936544895L288.8734153846154,289.6559279859066L289.34575384615385,303.16204211488366L290.8506461538462,220.5353795439005L293.0915076923077,282.83743549883366L293.3935846153846,294.3892104998231L295.596,261.22352135181427L295.85413846153847,280.3526672422886L296.9580923076923,228.33197978138924L298.68816923076923,279.0217802748084L298.8199846153846,262.0004594027996L299.9459076923077,285.2318597473204L300.56653846153847,289.6851684227586L300.6654,278.33786173537374L301.56613846153846,253.55604232102633L304.1530153846154,297.76204877346754L304.72970769230767,301.8300145380199L305.6688923076923,292.2626147121191L306.13024615384614,277.0921719521284L307.27264615384615,269.6760283112526L307.5472615384615,276.16361382231116L309.9144461538462,311.07128809019923L310.8591230769231,229.50840570777655L312.23769230769227,283.9741090759635L314.0446615384615,223.52462806552649L314.4291230769231,261.2851001769304L315.42323076923077,297.99192732945085L317.6366307692308,257.1402101665735L317.9002615384615,296.9786824733019L318.9273230769231,295.3376272022724L319.48204615384617,282.2460929006338L321.6460153846154,292.2792662009597L324.27133846153845,273.14292461425066L326.96806153846154,307.7607204001397L331.2246,247.2779733762145L332.5043076923077,298.5650659427047L333.10846153846154,284.95868379995227L334.7616461538462,299.7813498303294L337.64510769230765,272.37976540625095L337.8922615384615,312.7700955122709L343.1978307692308,316.1083423420787L346.0593230769231,281.6195322275162L346.3723846153846,300.6086260713637L348.4374923076923,280.6247307434678L350.3543076923077,296.97537329792976L350.84861538461536,284.8739442676306L351.9251076923077,295.48293520510197L352.4413846153846,299.5873828679323L352.9302,292.14651546254754L353.11144615384615,243.69764276593924L353.39155384615384,280.8956254720688L355.19303076923075,305.0315853841603L355.41272307692304,302.81107766367495L355.70930769230773,305.6453881300986L360.61393846153845,221.3242447078228L360.9324923076923,303.7842304520309L361.25653846153847,268.7115233838558L363.1513846153846,282.43846160173416L363.2667230769231,300.09774924069643L365.1670615384615,222.68368915468454L369.39613846153844,302.89385809376836L370.50558461538463,283.16174172610044L372.2686153846154,303.9728604890406L377.0304461538462,306.98465716838837L377.6785384615385,304.8352720756084L378.93627692307695,302.08077434264123L379.6447846153846,307.62891312874854L379.68323076923076,291.94181480258703L379.7161846153846,303.3500279188156L381.5011846153846,297.31004006043077L382.3964307692308,306.51240439899266L383.15986153846154,307.6943520717323L386.66944615384614,277.2989355660975L386.86167692307697,310.0767858400941L387.80635384615385,286.2476568929851L391.40930769230766,250.21179673075676L393.93576923076927,273.72167122364044L394.1389846153846,288.1700237542391L394.1994,316.4852468557656L395.13309230769227,306.8346459120512L395.32532307692304,273.77603675052524L398.59873846153846,297.57539720088243L399.6093230769231,296.4743711873889L401.4712153846154,262.92495147138834L403.6956,298.166641227901L404.8160307692308,266.1719002649188L404.8325076923077,311.7580757550895L404.9478461538461,255.831255286932L405.11810769230766,301.647282930091L405.8430923076923,319.03123221639544L405.97490769230774,290.0444110929966L406.0188461538462,300.3255613222718L406.4033076923077,301.23980198800564L407.0404153846154,307.39099926128983L407.86426153846156,275.1583532318473L410.85207692307694,319.8390573710203L411.74732307692307,293.3842033781111L412.5272307692308,246.2887693271041L414.8779384615384,315.407084075734L415.7731846153846,277.6264735199511L416.65195384615384,313.8200493324548L416.80024615384616,281.66532558202744L416.9430461538462,310.7844617944211L418.23373846153845,309.1471011824906L418.38203076923077,307.4063411615789L421.68290769230765,230.64500887691975L422.22115384615387,304.50444078817964L424.0171384615384,148.24438762664795L426.60950769230766,289.7380729839206L427.1587384615385,301.51557951048017L427.95512307692303,315.0778316874057L433.1178923076923,293.6259456798434L434.4085846153846,261.4808555021882L434.79853846153844,294.5547396764159L435.1775076923077,275.08306597173214L436.3363846153846,301.17260812595487L437.6929846153846,274.2756412625313L439.1759076923077,290.4129652194679L443.8278923076923,325.38911653496325L445.65133846153844,320.0369830224663L454.8015230769231,276.2961568571627L454.86193846153844,293.4263179153204L458.4978461538462,324.199319251813L460.12356923076925,288.1996408738196L460.33227692307696,291.11716477945447L460.76616923076926,311.6442189998925L462.8642307692308,310.5848041065037L463.0399846153846,257.6516608223319L464.84146153846154,301.54141044057906L465.41815384615387,316.22864582855254L466.02230769230766,319.9869493469596L472.83826153846155,330.04252443340374L473.7444923076923,282.5657205171883L474.5079230769231,236.2476610466838L476.06224615384616,290.7149873189628L476.8915846153846,256.73378006368876L477.9516,330.7363942238335L478.6985538461538,330.3812347870844L479.0280923076923,330.31154223909834L479.3411538461538,133.9404700398445L479.5663384615384,252.42643770575523L480.74718461538464,316.05604769010097L481.95000000000005,330.74168238790844L487.5631384615384,330.72914842894716L488.31009230769234,330.7496812383851L488.35952307692304,330.52632909067324L490.27633846153844,237.7957848161459L491.8471384615384,157.22432081401348L492.6160615384615,330.64896443603357L493.13233846153844,328.69840786023997L494.3736,329.14455158798955L494.9612769230769,261.85342640429735L496.22450769230767,330.68115111021325L496.2354923076923,302.03460430540144L497.74587692307693,330.71659509575693L498.44340000000005,317.3807220328599L500.07461538461536,322.58709253091365L503.0679230769231,-364.6994243860246L503.1338307692307,150.98931339383125L505.3692,203.8112014979124L507.42881538461535,330.74659118254385L507.5166923076923,163.78999230265617L507.61006153846154,330.7311639503878L509.5323692307692,330.7419915281316L509.796,330.0742328352062L510.4166307692308,269.02619779855013L511.3448307692308,327.5508531688247L511.4436923076923,330.720457104464L511.74576923076927,330.74992676521504L513.2451692307693,330.7389388709198L515.2938,330.5774150630459L516.2988923076923,330.731880753885L517.4577692307691,299.4471653625369L518.0179846153845,330.7370988030534L520.7696307692307,330.7448636350973L521.22,309.8715412784368L521.4946153846154,304.20059160143137L521.6593846153846,238.6352240368724L522.5106923076922,330.74966383575924L522.9390923076924,330.2078740146244L523.6970307692308,330.5234505866538L523.8947538461538,330.5079040356504L525.0096923076924,330.74999906249195L526.2015230769231,137.34542843699455L526.2289846153847,330.616865153017L528.3435230769231,330.69898584514885L528.5192769230769,329.06317370699253L531.7926923076923,330.73851779471806L532.1167384615384,330.41151253160206L532.232076923077,330.72679226245964L532.8856615384615,246.54563174396753L534.5992615384615,330.5695699356438L535.445076923077,330.73990210924603L536.7742153846153,297.0527587160468L539.8169538461539,305.66985842585564L540.2892923076923,330.74996431802583L540.8769692307692,330.69348004373023L541.2998769230769,330.74430995389275L544.0075846153846,330.7499044262223L545.1115384615384,328.9087997957831L545.5619076923077,282.11226139962673L546.2704153846154,328.76572911674157L547.6929230769231,330.74997421713624L548.1487846153846,328.0788655432407L548.6540769230769,330.7221718672572L548.6540769230769,178.53915591537952L552.6305076923077,289.591015342623L553.4433692307692,284.673101965338L555.5963538461539,260.200211673975L556.7552307692308,99.28411003947258L558.1173230769231,234.35578436404467L561.0941538461539,330.7499972889434L561.3028615384616,300.8328367844224L561.8026615384615,266.1844892129302L562.7693076923077,330.74999995466L562.9670307692307,330.7484357454514L563.1757384615385,330.7499521644939L563.6041384615385,86.82031926512718L564.1149230769231,327.2979811246041L565.0211538461538,330.7331097153219L567.9760153846154,329.88201694143936L568.0693846153846,329.3109860572731L568.5472153846154,324.7529390109703L569.0909538461539,330.73016070533595L569.7665076923076,202.34132212400436L572.2764923076923,330.74002357419613L573.5671846153847,330.7499999990361L574.8633692307692,330.74999934271415L575.1764307692308,330.749999382636L575.8904307692308,330.7495853318103L579.2132769230769,330.6010099345003L580.3062461538461,328.8971823679749L582.6569538461539,330.7499999878238L583.8103384615384,178.53336837887764L584.4968769230769,320.1698420131579L584.766,330.74999044361596L585.0406153846154,327.2037787588779L585.996276923077,330.74974289315475L587.9240769230769,330.749999990987L588.1986923076923,270.3557751774788L588.4238769230769,326.2427434050478L588.7973538461538,330.50055808987236L589.6431692307692,330.74999999180704L589.9122923076923,24.886835038661957L592.8506769230769,330.7499727271231L593.0264307692307,330.7492151830065L593.8118307692307,330.74992658531L595.0750615384616,330.7497070083249L597.8871230769231,330.7499483061708L599.0789538461539,328.02183067356236L600.5289230769231,330.74999999834597L600.8969076923076,283.001623403281L603.2146615384615,330.7499981822725L606.7077692307691,-77.28692579269409L606.9054923076924,292.5001959018409L612.6229846153847,135.5347180813551L614.3201076923077,330.7499988812082L618.9281538461538,330.749939100935L620.5813384615384,330.74999999789924L621.3722307692308,141.4959370046854L622.8936,307.9737520851195L624.1183846153846,330.7499758294177L627.2874461538462,270.64877097308636L628.3749230769231,330.7463299119304L629.0230153846154,-2.401610791683197L629.2646769230769,325.4671453060582L629.5008461538462,146.2026123404503L631.5659538461539,-1.7272712588310242L632.1536307692307,265.7521630525589L635.4819692307692,330.7492275994296L636.0806307692308,330.7490589344526L637.0362923076923,267.7188552618027L638.5247076923077,196.72842559218407L641.2653692307692,330.74929941480246L642.2100461538462,193.6197158396244L642.7098461538462,330.58025760673627L644.1323538461538,301.08747078850865L644.3026153846154,329.3427863745019L644.5552615384615,330.46368383208755L644.8188923076923,330.74999999862666L645.1594153846154,42.13935461640358L645.5988,330.422423156735L646.2194307692307,274.9401976056397L646.6258615384615,330.7499999959942L647.3288769230769,330.74999308157084L647.7133384615385,330.69658780000464L648.6360461538461,330.72723014994335L650.0255999999999,326.87859309185296L651.8820000000001,330.7499845592879L652.4861538461539,330.749999983567L653.5461692307692,330.74999999545815L653.8482461538462,35.17656800150871L654.650123076923,330.74995428973097L654.8094,330.7489447445074L655.7046461538462,330.74999999993906L655.7705538461538,209.88870625197887L659.3680153846153,325.33612924441695L659.9447076923077,232.89952189475298L661.6857692307692,330.75L662.6688923076923,-5.2477832436561584L664.821876923077,330.7499970752888L665.0635384615384,253.39040049165487L666.9913384615385,180.6509308218956L670.4844461538461,330.70063054890124L672.0113076923077,330.7475715349012L674.713523076923,330.749999999998L678.4592769230769,330.74995950074293L678.5142000000001,330.7499999564473L678.7338923076923,330.7470545890551L679.2062307692307,330.74998740580963L680.1179538461538,330.6728017337373L683.3858769230769,330.75L683.4847384615385,330.7499999999999L683.5616307692308,329.31652672577184L685.5608307692307,-132.60197478532797L687.3128769230769,330.74999999962347L688.3728923076924,326.30821403162554L689.6526,330.74999999999994L690.811476923077,-222.01425987482082L692.453676923077,330.749177009106L694.1892461538462,207.65475940704346L696.0346615384616,139.15706817805767L696.5893846153847,330.7487214667681L700.2417692307693,330.7499989942898L701.3512153846154,330.7498476574934L701.4775384615385,329.45391548029147L701.5709076923076,330.74999999998903L701.9388923076923,330.74990263721014L703.9326,236.16070014238358L704.0534307692308,330.7499999998628L709.5182769230769,145.27038243412971L709.946676923077,330.05393118731445L710.3256461538462,330.75L710.8584000000001,330.4933581306541L712.1051538461538,133.4437135308981L714.0714,-137.16562333703052L715.8618923076923,330.74999999758217L715.9168153846153,-76.72149333357811L717.8775692307692,253.89184617251158L719.7010153846154,246.48793943971395L720.9038307692308,43.746543645858765L722.9964,-957.0102732181551L723.0293538461538,-29.62998452782631L724.2431538461539,325.86459531029686L726.6872307692307,330.7200591171313L727.9010307692308,330.66202590827015L729.6146307692308,173.38865679502487L731.3062615384615,256.48726762086153L731.9927999999999,-65.67518430948257L732.6408923076924,330.74590524442283L733.9260923076923,-105.66568154096609L734.8707692307692,-129.05203226208693L737.2324615384616,330.75L738.6000461538462,258.88760966062546L738.759323076923,330.7499987124065L740.6596615384616,4.761387974023819L742.3787538461538,330.75L744.2900769230769,231.8645456135273L744.4109076923077,267.14119293540716L746.4815076923077,255.21808621287346L747.3767538461537,283.00693920627236L749.4803076923077,210.056136444211L749.5956461538462,272.0819255411625L750.3590769230768,330.7499999476466L750.6062307692308,309.6532659586519L752.5285384615385,222.1922906935215L752.5505076923076,330.7499997626846L753.7588153846153,330.74999994383523L754.1377846153846,330.75L755.5273384615384,330.7499999986309L756.5598923076923,-261.97225677967083L758.7623076923077,111.22938823699951L758.9105999999999,330.7499999999677L760.2617076923076,249.87747848778963L761.0965384615384,330.7499975563743L763.6559538461539,330.74999617509013L764.963123076923,327.2371932892129L766.8799384615385,155.81206333637238L768.8132307692307,330.74999999987574L769.5382153846153,330.7499999984078L769.8128307692308,330.74999999309813L769.8787384615384,129.1974078565836L770.9991692307692,330.7499999999984L773.0148461538462,-260.51734614372265L773.2510153846155,330.75L773.5530923076923,232.4858186468482L775.7005846153846,330.74996868271586L775.7884615384614,330.74999887172305L779.3859230769231,315.49234990775585L779.9845846153846,330.7499999988015L780.1054153846154,-103.89387863874441L781.6542461538462,330.7499998752443L782.7582,194.05839984118938L786.2348307692307,330.75L786.6028153846154,330.7445165934264L787.4925692307693,330.74999998971987L789.0853384615385,325.44204001827165L789.3654461538462,298.4775840193033L790.6451538461538,330.75L794.2371230769231,330.7499479357314L795.4948615384616,330.35541840613587L797.0162307692308,330.7491583396982L799.1088,-65.35054716467857L800.2237384615383,169.620322778821L801.4540153846153,330.7499999018187L801.7231384615384,330.75L802.5854307692308,330.74993744005144L803.8266923076923,167.12331761419773L805.2876461538461,314.21827866509557L805.4853692307692,330.7499709299376L806.0071384615384,-32.99202221632004L806.0455846153845,330.053002076922L806.4410307692307,323.7457716842182L806.4410307692307,330.75L808.6104923076922,330.7499983862229L809.6265692307692,330.7499999998826L810.6481384615386,330.7494545717189L811.2907384615385,330.7499999999996L813.4821692307693,330.7442628380404L814.9486153846154,167.8121893554926L815.300123076923,330.7499999999997L815.404476923077,330.75L815.8932923076923,290.62940289080143L816.3436615384616,330.6977322495113L816.4644923076924,14.70586833357811L817.2389076923076,330.7499755288222L821.5229076923077,330.7499999877398L822.0941076923076,330.74364440589716L823.1376461538462,330.74999999997004L823.917553846154,-454.89261853694927L826.4275384615386,330.75L826.7131384615385,330.7492944529066L828.6684,228.72687001526356L829.3000153846154,330.75L832.4690769230768,330.7499999997418L832.5404769230769,174.4808818101883L832.826076923077,-188.13906240463268L833.1336461538463,299.47845467180014L833.5620461538462,330.75L834.4737692307691,330.7482928824295L834.6934615384615,-1064.5522205829623L835.5337846153847,330.7499999999999L835.7095384615385,330.75L836.808,330.7499877640829L837.8405538461539,312.11700158938766L838.2689538461537,330.74999999998977L838.6424307692308,146.0913113951683L839.1092769230769,330.75L839.4607846153847,-61.53299796581268L839.8452461538461,330.74999999920186L844.9860461538461,330.75L846.6776769230769,274.6442869193852L847.6937538461539,-271.9154416322709L848.1056769230769,330.75L849.0668307692307,330.75L849.2755384615385,330.75L849.5556461538462,317.3442339738831L850.3300615384616,330.74977207589865L851.4120461538461,330.74999195107284L852.856523076923,291.58153009414673L853.6638923076923,330.75L855.6521076923077,330.7499999985232L855.7674461538461,330.75L858.3872769230769,315.5133191663772L858.6948461538461,330.7499999999998L858.711323076923,330.7478887496536L859.6065692307692,330.74999827675344L863.242476923077,330.75L866.9497846153847,213.5245394781232L867.350723076923,330.75L867.883476923077,330.7499999914324L871.1184461538462,330.75L872.0466461538463,-7.628192782402039L872.2169076923077,-1203.9655541181567L873.5076,330.75L874.2435692307693,206.50203984975815L874.3039846153847,330.7499999235074L874.6005692307692,327.61716473079287L876.2153076923076,330.74999939878944L877.6103538461539,330.75L877.9069384615384,327.4863077471964L878.9340000000001,330.75L880.0709076923077,330.7499628387696L880.345523076923,330.749999999995L880.4993076923078,50.811083883047104L881.7954923076923,330.74999999995526L882.8664923076923,330.7499417433362L884.0473384615385,137.31995482742786L884.755846153846,-24.28779262304306L885.3984461538462,330.7499999999184L886.2717230769232,330.75L886.5847846153846,197.45497968792915L886.733076923077,-195.04924017190945L887.7711230769231,330.74999905314604L887.9029384615384,330.69416297369753L888.5180769230768,330.75L891.072,330.75L893.7852,244.9856090247631L895.3230461538462,330.7465428522569L895.3285384615385,330.74985200402034L896.4874153846154,330.75L896.6302153846153,330.7499999835105L897.1684615384615,311.9581822939217L897.1684615384615,50.19799929857254L898.6184307692307,330.75L899.2006153846154,330.74999969655397L899.6784461538462,326.84499308047816L900.8538,329.42823438718915L901.0515230769231,225.2089912891388L901.7545384615385,-113.12549221515661L901.9028307692308,330.7499999947188L902.2433538461538,330.748954584608L902.9134153846154,250.33472907543182L908.2684153846154,330.74999999999994L909.2405538461538,330.5500845115894L910.3719692307692,330.72947841653513L910.6246153846154,315.23448065668344L910.6795384615384,330.74977753405926L913.1016461538461,330.7499993982565L916.5892615384615,90.59114572405815L917.2758,58.111997812986374L918.2644153846155,301.4988804962486L921.4938923076924,321.9450957868248L924.3883384615385,330.75L925.6735384615386,330.74999999812684L926.3051538461539,330.7149772247358L926.6346923076923,283.3046206533909L928.1231076923077,236.9228947609663L928.2494307692308,330.75L928.4142,330.75L930.0783692307692,277.92476399615407L930.2651076923078,245.58415435999632L930.5452153846154,330.74999993116813L931.2811846153845,330.7499999768337L931.8908307692309,65.42716231942177L932.3137384615384,330.75L935.2521230769231,330.74999934588436L937.2348461538462,326.78990675183013L941.7824769230768,254.13907677680254L942.6612461538462,330.749999928188L942.837,242.94944525510073L943.8311076923077,330.7499999888693L945.8742461538461,-4.725496798753738L946.2861692307692,330.74999997651474L951.5532923076923,-2.0424737334251404L955.7768769230769,330.74991061897003L957.1005230769231,330.74969013220647L959.7972461538462,330.74999999799786L959.9125846153846,330.74999996903915L961.7305384615386,325.5559236165136L962.7136615384615,330.74999792979935L963.0926307692307,330.75L964.0153384615385,330.74144612235796L964.7897538461538,330.74999627708576L965.2456153846153,330.74991294897984L965.7564,330.74999659477163L965.9211692307692,330.7499994296954L966.7230461538461,330.7195304831039L966.8054307692308,226.24116533249617L972.1494461538462,330.7495411285491L972.4295538461539,330.7498861194246L973.2533999999999,143.3344444334507L974.9779846153847,330.75L975.0329076923077,330.7497401845272L975.0658615384616,330.72731751360334L976.1039076923076,330.74999913895516L976.5432923076922,330.19473082374316L977.3506615384615,330.7499999918891L980.7613846153847,-28.785257667303085L983.9853692307692,312.39751580916345L985.5177230769232,330.6685490844684L985.7978307692308,330.33357339317445L986.638153846154,330.7499622730587L988.7032615384614,330.7499999699208L989.0602615384616,326.7717269696295L989.906076923077,218.8486576527357L990.6090923076923,330.7495970487302L993.7616769230768,330.73061319181943L995.4917538461539,326.052690686658L997.9303384615384,299.5597864575684L1000.8412615384616,330.2677566673374L1000.9840615384616,330.7499950198173L1001.8902923076923,330.7498408034957L1004.1641076923078,330.7498580979355L1005.7294153846153,330.7499997175715L1007.6352461538462,330.5884850000002L1010.3704153846153,330.7479505332635L1010.5187076923077,330.7497836304588L1011.0844153846153,330.74354948403607L1011.326076923077,330.712320825598L1013.3747076923077,330.1429494349868L1014.6214615384615,60.74424263834953L1014.7368,330.24989729648223L1023.930923076923,225.59838265925646L1024.820676923077,330.74988607187163L1024.9909384615385,213.20223987847567L1028.3851846153846,330.597608871205L1029.033276923077,329.3236789670773L1029.3957692307692,330.6584345027586L1029.5220923076922,329.5880619470263L1030.1207538461538,330.4793705114862L1031.2411846153846,330.42267538784654L1031.4444,329.3657525796443L1031.8782923076924,330.74999993607514L1032.4110461538462,330.74999063232394L1033.0481538461538,330.17194223374827L1033.7017384615385,329.6395849714754L1033.7511692307692,330.746764795128L1034.0367692307693,330.7244254385132L1035.6624923076922,330.6691694792171L1036.244676923077,330.73549945108607L1038.7381846153846,330.6463325799923L1038.8315538461538,330.7077317994226L1040.188153846154,139.02088505029678L1040.7538615384615,163.89853325486183L1042.846430769231,330.7229888852471L1044.675369230769,329.0841542968992L1044.757753846154,329.6159842143534L1045.6365230769231,330.65024691338476L1046.1198461538463,330.7188747296568L1048.1739692307692,283.03201853111386L1048.8165692307691,330.6224571148341L1048.9703538461538,330.7200011543064L1049.761246153846,330.74942229460544L1052.6776615384615,330.7233432440371L1052.7655384615384,196.10717368125916L1056.0499384615384,330.6564405815807L1058.6587846153845,328.8678198172711L1059.2794153846153,330.04618157824734L1059.576,329.192478524521L1060.5151846153847,330.49173387890914L1060.7898,330.7382392585914L1061.2291846153846,330.7423509560904L1061.805876923077,326.87107439897954L1062.0255692307694,330.59044727883884L1063.9698461538462,330.5773247565521L1066.4523692307694,210.97869229316711L1066.946676923077,330.1846976856468L1067.303676923077,289.65336513519287L1070.126723076923,330.74193160399045L1072.4994,330.69493188873093L1074.4162153846155,330.6583916116433L1075.7563384615385,330.4990682733769L1076.1847384615385,330.6943788147437L1076.5087846153847,330.5429503123305L1077.0195692307693,330.17670423391974L1077.1513846153846,329.6846667652717L1079.2164923076923,330.71587949208333L1079.3153538461538,325.69353426620364L1080.8861538461538,330.71947251684105L1082.1164307692309,330.64766883969423L1082.3251384615385,330.73388901278304L1082.583276923077,330.3404193872411L1085.1646615384616,328.8541292042937L1085.6754461538462,328.96534389979206L1088.7840923076924,330.6897185795533L1088.9433692307691,330.01078957360005L1089.0532153846154,330.3455800176307L1091.1402923076923,329.5267458317103L1091.1787384615386,328.5122445230372L1093.4635384615385,327.64670286141336L1094.737753846154,329.29693042289L1095.5670923076923,330.53083925852843L1096.5886615384616,330.3446874313813L1099.290876923077,330.2611122436356L1102.1139230769231,249.72924855351448L1102.5697846153846,105.85152764618397L1102.7839846153845,330.731039179047L1103.4156,330.62714910581417L1104.6403846153846,330.7498021961525L1105.5576,330.5851060904679L1106.4583384615385,330.6879225845769L1107.6611538461539,330.5477930754132L1107.7105846153847,330.08084007469006L1112.022046153846,330.0435151507845L1113.428076923077,330.2858894742094L1114.0102615384615,330.6759215501297L1115.8721538461539,328.8773033330217L1115.9160923076922,330.6690122782602L1116.6630461538462,256.40265130251646L1116.7399384615385,330.2392842276022L1116.7454307692308,329.1892539487453L1117.3276153846155,329.8129414259456L1118.0745692307692,329.1812887152191L1124.8850307692308,330.2358493079664L1125.6978923076924,330.48781828724896L1127.9991692307692,330.00368760799756L1129.3557692307693,330.697638209469L1131.9536307692308,330.62641618892667L1132.673123076923,330.7369542793158L1133.315723076923,329.2200765850721L1136.506753846154,330.36465785920154L1138.0940307692308,330.1555639608996L1138.236830769231,330.09019047534093L1141.0928307692309,330.63591840679874L1144.7122615384617,330.54378034273395L1145.2175538461538,330.6439605252963L1145.4427384615385,330.5413725683611L1147.3211076923076,329.8252784453798L1147.3320923076924,330.7050261868899L1147.7879538461539,329.87529281369643L1147.8648461538462,330.51388208626304L1149.5454923076923,329.96385885507334L1150.9954615384615,330.62084202162805L1151.1931846153846,330.5489017536747L1151.7149538461538,330.4839365244261L1152.4234615384614,329.8497563319979L1153.4395384615384,330.5922233065503L1154.8126153846154,329.8862804750679L1156.1692153846154,330.6917117994017L1156.592123076923,330.3935601451958L1158.3496615384615,329.6589549786877L1158.4869692307693,330.1799461916671L1159.9753846153847,330.61864464612154L1160.4037846153844,329.77450020541437L1160.694876923077,252.40260460227728L1162.5128307692307,330.4747711097589L1165.566553846154,330.6757717543878L1166.978076923077,330.4005306183826L1166.9890615384616,330.34023715156945L1167.730523076923,330.38640705129365L1169.943923076923,330.0562236273545L1170.0592615384614,330.1749297326314L1171.3279846153846,330.16725938755553L1172.371523076923,329.4834681325592L1175.8591384615384,329.9598980207811L1178.187876923077,330.25327319442295L1178.9128615384616,330.5292398283491L1181.1647076923077,329.6761174754938L1182.081923076923,330.22311805881327L1182.1368461538461,330.3293583750492L1182.4608923076923,330.41877316270256L1184.2843384615385,329.930364565691L1189.502030769231,310.39355665259063L1189.8041076923078,330.43718971926137L1195.5106153846154,329.7622546063503L1197.3834923076922,330.06215687538497L1198.1249538461539,329.8878846770385L1200.8656153846155,330.56829273201583L1201.7334,330.38080579342204L1204.8200769230768,330.22631986200577L1204.8420461538462,330.4878745311289L1206.303,292.55402632802725L1206.3249692307693,330.3611223056505L1206.8412461538462,297.5042323283851L1207.3245692307692,330.45474743589875L1208.9008615384614,330.0416789324954L1209.483046153846,330.0637567868689L1210.125646153846,329.3555887467228L1212.4763538461539,330.1612408798537L1216.8921692307692,330.3985403551196L1218.1059692307692,330.1522366334684L1220.6214461538461,330.09931039984804L1222.4119384615385,329.748677196214L1224.5154923076923,330.36298462440027L1225.0702153846155,330.4575831175607L1226.7124153846155,329.9992016291362L1228.5468461538462,329.83108011848526L1233.0340615384616,330.5001175724028L1235.3573076923076,330.3981256905827L1236.7139076923077,330.09065500303404L1237.0269692307693,330.5441882827581L1237.9936153846154,329.97562419465976L1238.3670923076922,299.895562145859L1240.0642153846154,330.2900199202413L1240.2399692307692,330.57569294144923L1242.057923076923,330.2162301224889L1242.7115076923078,297.9055437706411L1243.2991846153845,330.40024868390174L1243.3541076923077,330.3141886992962L1247.665569230769,330.33555922843516L1247.8468153846154,330.5068202202092L1250.1371076923078,330.0067992009572L1256.7718153846154,330.1828970013885L1257.6286153846154,330.388395554357L1258.155876923077,301.23931969329715L1259.226876923077,330.0760902859038L1259.5014923076924,330.27359656977933L1262.439876923077,330.440483850427L1263.1264153846155,330.3547070379427L1263.8568923076923,330.3213882459677L1266.3998307692307,330.3459477343422L1269.2118923076923,330.3230867286329L1270.0577076923078,330.47132524388144L1270.936476923077,330.3100746726268L1274.3417076923079,330.37629778456176L1274.4790153846154,330.5806786107423L1274.577876923077,330.3379039519059L1276.4178,330.37470279613626L1278.1588615384615,301.13195103406906L1279.1200153846153,329.9444525987492L1280.9599384615383,329.9976171744056L1282.360476923077,330.2801867023227L1282.6241076923077,330.45897139253793L1284.255323076923,330.3826792234322L1284.540923076923,330.3304629003396L1284.936369230769,330.1892849309952L1286.611523076923,330.3341558817483L1287.4793076923077,330.4111209696857L1287.8912307692308,330.50996316672536L1288.303153846154,330.53974838537397L1290.7417384615385,330.2362690605805L1291.3513846153846,330.44316342438105L1292.1862153846153,330.219144133036L1294.1799230769232,330.5141026612837L1294.3776461538462,330.42604878300335L1296.2560153846155,330.34826063670334L1296.8272153846153,330.3793004101608L1300.1500615384616,330.31204444606556L1300.1665384615385,299.80145835131407L1300.2654,330.47717554250266L1300.496076923077,330.3058662552503L1301.2704923076924,330.3277453445771L1302.5611846153845,330.4375454171095L1304.6153076923079,330.47698046287405L1305.1425692307691,330.31709542151657L1305.779676923077,330.3376197621692L1306.1421692307692,330.4182902079192L1310.157046153846,330.5546958496707L1310.7007846153847,330.3320411943714L1310.936953846154,330.0367022979772L1311.5520923076924,330.4334213793045L1311.8981076923078,300.2984049618244L1313.9961692307693,330.3316478447523L1314.5179384615385,330.30169419699814L1314.633276923077,297.9406104683876L1317.934153846154,330.3992258978833L1322.0533846153846,330.37992959903204L1322.5147384615384,330.40392739119125L1326.1561384615386,330.3253159390006L1326.4032923076923,330.48380563707906L1326.6449538461538,330.4670325294428L1328.451923076923,330.46333525754744L1334.5538769230768,294.585465721786L1338.5028461538461,330.39710961532546L1338.7060615384614,330.125367515604L1339.3706307692307,330.52779200911755L1341.8476615384616,330.548102540517L1344.214846153846,330.3125601570646L1344.2532923076924,330.4084001685551L1344.6542307692307,330.45815529246465L1346.7797538461539,330.46656791924033L1347.1092923076922,330.5289037677285L1347.9880615384616,293.9333962351084L1348.8119076923076,330.4362970505026L1348.8283846153845,330.22973420930794L1348.833876923077,330.18840494117467L1349.6247692307693,330.3249168137263L1351.6514307692307,330.380890283006L1352.6510307692308,330.41217601686367L1353.974676923077,330.26822003989946L1355.3477538461539,330.3872071445512L1355.4576,330.4741085045971L1361.8012153846155,330.31424906864413L1362.366923076923,330.19600674847607L1362.4767692307692,330.40388654905837L1364.042076923077,330.35603054307285L1366.1126769230768,330.361736862862L1368.8039076923076,330.3769027431845L1371.2644615384615,330.4393079270376L1371.396276923077,330.32014606756275L1371.7862307692308,330.14826380781597L1377.075323076923,330.13800448406255L1377.910153846154,330.24862797249807L1379.8104923076924,330.3976348149008L1380.1290461538463,330.39871277217753L1382.3424461538461,330.4338964406925L1382.6829692307692,268.66557513177395" style="fill: none;" fill="none"></path></g></g></g></g></g></g><g transform="translate(70, 378)" clip-path="url(#clip_1)"><clipPath id="clip_1"><rect width="1428" height="22"></rect></clipPath><g><g><line x1="0" y1="0" x2="0" y2="5" style="visibility: inherit;" fill="rgb(0, 0, 0)" stroke="rgb(204, 204, 204)" stroke-width="1px"></line><line x1="109.84615384615385" y1="0" x2="109.84615384615385" y2="5" style="visibility: inherit;" fill="rgb(0, 0, 0)" stroke="rgb(204, 204, 204)" stroke-width="1px"></line><line x1="219.6923076923077" y1="0" x2="219.6923076923077" y2="5" style="visibility: inherit;" fill="rgb(0, 0, 0)" stroke="rgb(204, 204, 204)" stroke-width="1px"></line><line x1="329.53846153846155" y1="0" x2="329.53846153846155" y2="5" style="visibility: inherit;" fill="rgb(0, 0, 0)" stroke="rgb(204, 204, 204)" stroke-width="1px"></line><line x1="439.3846153846154" y1="0" x2="439.3846153846154" y2="5" style="visibility: inherit;" fill="rgb(0, 0, 0)" stroke="rgb(204, 204, 204)" stroke-width="1px"></line><line x1="549.2307692307693" y1="0" x2="549.2307692307693" y2="5" style="visibility: inherit;" fill="rgb(0, 0, 0)" stroke="rgb(204, 204, 204)" stroke-width="1px"></line><line x1="659.0769230769231" y1="0" x2="659.0769230769231" y2="5" style="visibility: inherit;" fill="rgb(0, 0, 0)" stroke="rgb(204, 204, 204)" stroke-width="1px"></line><line x1="768.9230769230769" y1="0" x2="768.9230769230769" y2="5" style="visibility: inherit;" fill="rgb(0, 0, 0)" stroke="rgb(204, 204, 204)" stroke-width="1px"></line><line x1="878.7692307692308" y1="0" x2="878.7692307692308" y2="5" style="visibility: inherit;" fill="rgb(0, 0, 0)" stroke="rgb(204, 204, 204)" stroke-width="1px"></line><line x1="988.6153846153846" y1="0" x2="988.6153846153846" y2="5" style="visibility: inherit;" fill="rgb(0, 0, 0)" stroke="rgb(204, 204, 204)" stroke-width="1px"></line><line x1="1098.4615384615386" y1="0" x2="1098.4615384615386" y2="5" style="visibility: inherit;" fill="rgb(0, 0, 0)" stroke="rgb(204, 204, 204)" stroke-width="1px"></line><line x1="1208.3076923076924" y1="0" x2="1208.3076923076924" y2="5" style="visibility: inherit;" fill="rgb(0, 0, 0)" stroke="rgb(204, 204, 204)" stroke-width="1px"></line><line x1="1318.1538461538462" y1="0" x2="1318.1538461538462" y2="5" style="visibility: inherit;" fill="rgb(0, 0, 0)" stroke="rgb(204, 204, 204)" stroke-width="1px"></line><line x1="1428" y1="0" x2="1428" y2="5" style="visibility: inherit;" fill="rgb(0, 0, 0)" stroke="rgb(204, 204, 204)" stroke-width="1px"></line></g><g transform="translate(0, 8)"><text x="0" y="0" dx="0em" dy="0.95em" style="text-anchor: middle; visibility: hidden; font-family: &quot;Helvetica Neue&quot;, sans-serif; font-size: 12px; font-weight: 200;" fill="rgb(50, 49, 63)" stroke="none" stroke-width="1px">-20k</text><text x="109.84615384615385" y="0" dx="0em" dy="0.95em" style="text-anchor: middle; visibility: inherit; font-family: &quot;Helvetica Neue&quot;, sans-serif; font-size: 12px; font-weight: 200;" fill="rgb(50, 49, 63)" stroke="none" stroke-width="1px">0</text><text x="219.6923076923077" y="0" dx="0em" dy="0.95em" style="text-anchor: middle; visibility: inherit; font-family: &quot;Helvetica Neue&quot;, sans-serif; font-size: 12px; font-weight: 200;" fill="rgb(50, 49, 63)" stroke="none" stroke-width="1px">20k</text><text x="329.53846153846155" y="0" dx="0em" dy="0.95em" style="text-anchor: middle; visibility: inherit; font-family: &quot;Helvetica Neue&quot;, sans-serif; font-size: 12px; font-weight: 200;" fill="rgb(50, 49, 63)" stroke="none" stroke-width="1px">40k</text><text x="439.3846153846154" y="0" dx="0em" dy="0.95em" style="text-anchor: middle; visibility: inherit; font-family: &quot;Helvetica Neue&quot;, sans-serif; font-size: 12px; font-weight: 200;" fill="rgb(50, 49, 63)" stroke="none" stroke-width="1px">60k</text><text x="549.2307692307693" y="0" dx="0em" dy="0.95em" style="text-anchor: middle; visibility: inherit; font-family: &quot;Helvetica Neue&quot;, sans-serif; font-size: 12px; font-weight: 200;" fill="rgb(50, 49, 63)" stroke="none" stroke-width="1px">80k</text><text x="659.0769230769231" y="0" dx="0em" dy="0.95em" style="text-anchor: middle; visibility: inherit; font-family: &quot;Helvetica Neue&quot;, sans-serif; font-size: 12px; font-weight: 200;" fill="rgb(50, 49, 63)" stroke="none" stroke-width="1px">100k</text><text x="768.9230769230769" y="0" dx="0em" dy="0.95em" style="text-anchor: middle; visibility: inherit; font-family: &quot;Helvetica Neue&quot;, sans-serif; font-size: 12px; font-weight: 200;" fill="rgb(50, 49, 63)" stroke="none" stroke-width="1px">120k</text><text x="878.7692307692308" y="0" dx="0em" dy="0.95em" style="text-anchor: middle; visibility: inherit; font-family: &quot;Helvetica Neue&quot;, sans-serif; font-size: 12px; font-weight: 200;" fill="rgb(50, 49, 63)" stroke="none" stroke-width="1px">140k</text><text x="988.6153846153846" y="0" dx="0em" dy="0.95em" style="text-anchor: middle; visibility: inherit; font-family: &quot;Helvetica Neue&quot;, sans-serif; font-size: 12px; font-weight: 200;" fill="rgb(50, 49, 63)" stroke="none" stroke-width="1px">160k</text><text x="1098.4615384615386" y="0" dx="0em" dy="0.95em" style="text-anchor: middle; visibility: inherit; font-family: &quot;Helvetica Neue&quot;, sans-serif; font-size: 12px; font-weight: 200;" fill="rgb(50, 49, 63)" stroke="none" stroke-width="1px">180k</text><text x="1208.3076923076924" y="0" dx="0em" dy="0.95em" style="text-anchor: middle; visibility: inherit; font-family: &quot;Helvetica Neue&quot;, sans-serif; font-size: 12px; font-weight: 200;" fill="rgb(50, 49, 63)" stroke="none" stroke-width="1px">200k</text><text x="1318.1538461538462" y="0" dx="0em" dy="0.95em" style="text-anchor: middle; visibility: inherit; font-family: &quot;Helvetica Neue&quot;, sans-serif; font-size: 12px; font-weight: 200;" fill="rgb(50, 49, 63)" stroke="none" stroke-width="1px">220k</text><text x="1428" y="0" dx="0em" dy="0.95em" style="text-anchor: middle; visibility: hidden; font-family: &quot;Helvetica Neue&quot;, sans-serif; font-size: 12px; font-weight: 200;" fill="rgb(50, 49, 63)" stroke="none" stroke-width="1px">240k</text></g><line x1="0" y1="0" x2="1428" y2="0" fill="rgb(0, 0, 0)" stroke="rgb(204, 204, 204)" stroke-width="1px"></line></g></g></g></g></svg>